<svg preserveAspectRatio="none" width="100%" height="100%" overflow="visible" style="display: block;" viewBox="0 0 481 32" fill="none" xmlns="http://www.w3.org/2000/svg">
<path id="Vector" d="M0.235769 31.3464C21.3604 15.5221 39.1137 10.5347 52.9011 9.3943C75.0543 7.56166 86.7009 15.4881 104.526 16.5396C127.549 17.8985 134.65 19.1672 148.39 17.6079C165.124 15.7087 178.947 5.61527 199.068 3.27974C217.796 1.10582 238.512 11.51 264.198 19.0077C284.418 24.91 297.922 30.5917 317.447 26.5664C339.037 22.1153 353.128 10.8385 379.083 2.51185C390.759 -1.23319 404.407 -0.470855 420.406 8.521C428.224 12.9139 436.158 20.6079 444.169 24.9669C454.888 30.7998 469.26 30.2657 480.598 29.7885" stroke="url(#paint0_linear_233_19427)" stroke-width="0.786503" stroke-miterlimit="10"/>
<defs>
<linearGradient id="paint0_linear_233_19427" x1="0.235769" y1="15.8699" x2="480.598" y2="15.8699" gradientUnits="userSpaceOnUse">
<stop stop-color="#2D67FF"/>
<stop offset="1" stop-color="#A238FF"/>
</linearGradient>
</defs>
</svg>
