<svg preserveAspectRatio="none" width="100%" height="100%" overflow="visible" style="display: block;" viewBox="0 0 481 35" fill="none" xmlns="http://www.w3.org/2000/svg">
<path id="Vector" d="M0.225406 33.9151C20.2994 19.8734 37.6486 14.5059 51.7035 12.667C73.3448 9.83554 86.6511 15.3543 102.408 16.7173C130.338 19.134 137.227 21.6242 153.673 20.7946C173.604 19.7403 189.845 7.61863 213.332 5.51963C234.496 3.62803 251.142 18.6665 276.799 23.7045C298.237 27.9136 313.075 29.6498 331.28 24.3981C352.824 18.183 367.845 7.09907 393.406 1.41803C403.562 -0.839122 415.576 0.311656 429.551 8.11597C436.407 11.9436 443.394 18.2711 450.533 22.4629C459.516 27.7374 471.137 28.7779 480.646 30.1215" stroke="url(#paint0_linear_233_19435)" stroke-width="0.786503" stroke-miterlimit="10"/>
<defs>
<linearGradient id="paint0_linear_233_19435" x1="0.225406" y1="17.1542" x2="480.646" y2="17.1542" gradientUnits="userSpaceOnUse">
<stop stop-color="#2D67FF"/>
<stop offset="1" stop-color="#A238FF"/>
</linearGradient>
</defs>
</svg>
