<svg preserveAspectRatio="none" width="100%" height="100%" overflow="visible" style="display: block;" viewBox="0 0 458 47" fill="none" xmlns="http://www.w3.org/2000/svg">
<path id="Vector" d="M0.166117 23.4258C21.291 33.2708 45.9647 30.5677 66.9971 21.3289C71.9676 19.1452 76.1246 16.8603 79.9536 14.8057C89.5226 9.68032 96.7282 4.99259 109.16 4.68808C119.676 4.43004 126.399 9.74691 134.955 14.4894C145.965 20.5922 156.344 25.6163 168.783 24.9234C185.904 23.9696 200.569 20.2932 226.812 10.5772C238.241 6.34591 247.77 -1.66165 259.703 0.881981C266.072 2.23946 270.265 7.75958 275.826 14.0302C283.88 23.1116 293.338 33.9596 313.343 36.2154C331.637 38.2783 345.721 39.7496 357.697 36.0982C365.444 33.7363 372.866 28.7537 380.262 27.7112C381.824 27.4906 383.344 27.4573 384.848 27.6085C392.863 28.4139 400.178 33.8854 409.953 37.8982C420.659 42.2925 436.02 46.0695 457.765 45.5985" stroke="url(#paint0_linear_190_19661)" stroke-width="0.786503" stroke-miterlimit="10"/>
<defs>
<linearGradient id="paint0_linear_190_19661" x1="0.166117" y1="23.0158" x2="457.765" y2="23.0158" gradientUnits="userSpaceOnUse">
<stop stop-color="#2D67FF"/>
<stop offset="1" stop-color="#A238FF"/>
</linearGradient>
</defs>
</svg>
