<svg preserveAspectRatio="none" width="100%" height="100%" overflow="visible" style="display: block;" viewBox="0 0 24 24" fill="none" xmlns="http://www.w3.org/2000/svg">
<g id="arrow-up">
<path id="Vector" d="M12 1.75C17.6539 1.75 22.25 6.34614 22.25 12C22.25 17.6539 17.6539 22.25 12 22.25C6.34614 22.25 1.75 17.6539 1.75 12C1.75 6.34614 6.34614 1.75 12 1.75ZM12 2.25C6.62386 2.25 2.25 6.62386 2.25 12C2.25 17.3761 6.62386 21.75 12 21.75C17.3761 21.75 21.75 17.3761 21.75 12C21.75 6.62386 17.3761 2.25 12 2.25Z" fill="var(--fill-0, #454551)" stroke="var(--stroke-0, #454551)"/>
<path id="Vector_2" d="M12 9.25C12.1339 9.25 12.25 9.36614 12.25 9.5V15.5C12.25 15.6339 12.1339 15.75 12 15.75C11.8661 15.75 11.75 15.6339 11.75 15.5V9.5C11.75 9.36614 11.8661 9.25 12 9.25Z" fill="var(--fill-0, #454551)" stroke="var(--stroke-0, #454551)"/>
<path id="Vector_3" d="M15 12.25C14.81 12.25 14.62 12.18 14.47 12.03L12 9.56L9.53 12.03C9.24 12.32 8.76 12.32 8.47 12.03C8.18 11.74 8.18 11.26 8.47 10.97L11.47 7.97C11.76 7.68 12.24 7.68 12.53 7.97L15.53 10.97C15.82 11.26 15.82 11.74 15.53 12.03C15.38 12.18 15.19 12.25 15 12.25Z" fill="var(--fill-0, #454551)"/>
<g id="Vector_4" opacity="0">
</g>
</g>
</svg>
