<svg preserveAspectRatio="none" width="100%" height="100%" overflow="visible" style="display: block;" viewBox="0 0 481 34" fill="none" xmlns="http://www.w3.org/2000/svg">
<path id="Vector" d="M480.235 18.5534C463.217 14.7979 442.832 20.4484 422.771 20.8064C419.777 20.8598 416.796 20.8223 413.824 20.7647C386.138 20.1973 366.225 19.2116 341.276 16.5432C333.124 15.6712 320.995 14.037 306.575 12.0809C284.071 9.02809 265.787 -2.21121 243.248 2.28992C237.685 3.40116 232.463 5.1124 227.704 7.43476C206.487 17.7896 188.725 30.4239 175.92 32.4667C159.158 35.1408 145.516 31.0544 134.988 25.6543C124.46 20.2542 117.866 15.5693 108.543 11.0515C104.681 9.18 100.453 7.16978 94.8534 5.50224C84.7009 2.47928 66.6349 -1.40033 44.0103 1.3077C24.7657 3.61133 9.72172 11.0244 0.197549 16.5577" stroke="url(#paint0_linear_233_19529)" stroke-width="0.786503" stroke-miterlimit="10"/>
<defs>
<linearGradient id="paint0_linear_233_19529" x1="0.197549" y1="16.8507" x2="480.235" y2="16.8507" gradientUnits="userSpaceOnUse">
<stop stop-color="#2D67FF"/>
<stop offset="1" stop-color="#A238FF"/>
</linearGradient>
</defs>
</svg>
