<svg preserveAspectRatio="none" width="100%" height="100%" overflow="visible" style="display: block;" viewBox="0 0 458 37" fill="none" xmlns="http://www.w3.org/2000/svg">
<path id="Vector" d="M0.0949146 21.8706C13.4124 18.5584 27.6651 14.0108 40.2104 8.72512C52.1015 3.70583 60.1801 0.0197321 70.3198 0.42344C89.0795 1.16981 96.4656 12.5916 113.89 13.3407C132.39 14.1363 139.939 6.86542 157.054 3.72455C169.797 1.38624 193.157 -0.786291 217.859 4.27809C219.548 4.62422 221.195 5.03209 222.829 5.44343C231.768 7.69434 239.205 10.4378 247.552 14.9881C254.493 18.7727 260.876 23.5118 269.839 25.513C283.321 28.5234 292.996 26.2073 311.077 19.7535C316.053 17.9771 321.205 16.0959 326.746 14.1467C335.77 10.9712 345.086 10.0486 354.576 9.64213C362.232 9.31403 370.054 9.82456 378.341 12.7795C387.395 16.0078 396.191 24.6702 405.884 30.1355C406.83 30.6689 407.783 31.1725 408.748 31.6331C421.846 37.8822 440.352 36.0225 457.403 32.4336" stroke="url(#paint0_linear_190_19654)" stroke-width="0.786503" stroke-miterlimit="10"/>
<defs>
<linearGradient id="paint0_linear_190_19654" x1="0.0949146" y1="18.0632" x2="457.403" y2="18.0632" gradientUnits="userSpaceOnUse">
<stop stop-color="#2D67FF"/>
<stop offset="1" stop-color="#A238FF"/>
</linearGradient>
</defs>
</svg>
