<svg preserveAspectRatio="none" width="100%" height="100%" overflow="visible" style="display: block;" viewBox="0 0 481 37" fill="none" xmlns="http://www.w3.org/2000/svg">
<path id="Vector" d="M0.0657168 21.5453C14.4795 19.1023 30.169 14.7454 43.9718 9.2135C56.7903 4.06658 65.2465 0.0142428 76.414 0.421419C95.5884 1.11993 103.38 12.0637 121.01 13.0584C139.764 14.1163 147.666 7.60283 165.168 4.69919C178.794 2.43856 202.769 0.17794 228.987 4.33502C230.767 4.61733 232.503 4.95723 234.224 5.29365C243.655 7.13739 251.57 9.3328 260.474 13.7999C267.763 17.4562 274.288 22.3666 283.485 24.6987C297.198 28.176 307.356 26.6333 326.535 20.7192C331.868 19.0745 337.337 17.3355 343.163 15.5285C352.773 12.5472 362.551 11.3756 372.428 11.0739C380.511 10.8276 388.69 10.6958 397.343 13.3525C406.909 16.2902 416.122 24.8381 426.448 30.318C427.439 30.8438 428.439 31.3425 429.455 31.801C443.016 37.9211 462.204 36.4235 480.399 33.0399" stroke="url(#paint0_linear_233_19360)" stroke-width="0.786503" stroke-miterlimit="10"/>
<defs>
<linearGradient id="paint0_linear_233_19360" x1="0.0657168" y1="18.1891" x2="480.399" y2="18.1891" gradientUnits="userSpaceOnUse">
<stop stop-color="#2D67FF"/>
<stop offset="1" stop-color="#A238FF"/>
</linearGradient>
</defs>
</svg>
