<svg preserveAspectRatio="none" width="100%" height="100%" overflow="visible" style="display: block;" viewBox="0 0 458 32" fill="none" xmlns="http://www.w3.org/2000/svg">
<path id="Vector" d="M0.245473 30.732C20.6082 14.4623 37.6073 9.57414 50.6701 8.60372C71.8847 7.02773 82.5741 15.5708 100.041 16.5232C120.788 17.6545 127.604 18.575 140.042 16.8388C155.213 14.7211 167.798 5.13892 186.154 2.74719C203.405 0.499748 224.109 9.72884 248.56 17.8606C267.53 24.1701 280.055 30.8395 298.965 27.1354C319.526 23.1088 332.694 11.7716 357.532 2.81239C368.994 -1.3218 382.394 -0.639228 398.108 8.64951C405.781 13.1839 413.562 21.2172 421.395 25.6205C432.016 31.5908 446.353 30.6654 457.583 29.7332" stroke="url(#paint0_linear_190_19687)" stroke-width="0.786503" stroke-miterlimit="10"/>
<defs>
<linearGradient id="paint0_linear_190_19687" x1="0.245473" y1="15.5627" x2="457.583" y2="15.5627" gradientUnits="userSpaceOnUse">
<stop stop-color="#2D67FF"/>
<stop offset="1" stop-color="#A238FF"/>
</linearGradient>
</defs>
</svg>
