<svg preserveAspectRatio="none" width="100%" height="100%" overflow="visible" style="display: block;" viewBox="0 0 481 35" fill="none" xmlns="http://www.w3.org/2000/svg">
<path id="Vector" d="M0.248419 28.8278C22.949 10.3293 41.3104 5.96418 54.6937 5.8192C77.6195 5.57157 86.8666 15.9695 107.7 17.6072C123.237 18.8287 130.777 16.7727 140.461 14.1618C152.395 10.9439 162.587 3.89708 177.667 1.25425C192.733 -1.38649 219.751 1.88687 245.29 13.2968C263.821 21.5763 275.145 33.1471 296.693 31.1536C318.312 29.1531 330.659 17.533 357.594 5.48833C371.349 -0.662313 387.647 -0.307855 406.684 10.4653C415.947 15.7066 425.317 25.4309 434.62 30.0604C447.967 36.7021 466.442 33.8353 480.523 30.6271" stroke="url(#paint0_linear_233_19415)" stroke-width="0.786503" stroke-miterlimit="10"/>
<defs>
<linearGradient id="paint0_linear_233_19415" x1="0.248419" y1="17.2397" x2="480.523" y2="17.2397" gradientUnits="userSpaceOnUse">
<stop stop-color="#2D67FF"/>
<stop offset="1" stop-color="#A238FF"/>
</linearGradient>
</defs>
</svg>
