<svg preserveAspectRatio="none" width="100%" height="100%" overflow="visible" style="display: block;" viewBox="0 0 458 45" fill="none" xmlns="http://www.w3.org/2000/svg">
<path id="Vector" d="M0.147724 25.0173C22.5899 34.1139 46.7094 30.1808 66.7057 20.949C71.645 18.6689 75.7718 16.3161 79.5432 14.3031C89.43 9.04309 96.2985 4.01409 108.463 3.81085C120.047 3.61732 126.243 10.9957 136.823 16.5692C149.611 23.3067 162.535 26.6252 176.69 25.3627C194.355 23.7867 208.888 19.9793 232.633 10.7967C243.788 6.48281 252.83 -0.984395 264.132 0.613787C270.373 1.49681 274.764 6.00627 280.789 11.2982C289.78 19.194 299.376 29.1702 317.957 32.0544C334.718 34.6563 348.041 36.9648 360.033 34.469C367.478 32.9201 374.709 28.9538 382.092 28.2899C383.594 28.1547 385.062 28.1561 386.521 28.326C394.511 29.259 401.802 34.1895 411.254 37.5634C422.633 41.6255 437.829 44.4965 457.811 43.8819" stroke="url(#paint0_linear_190_19605)" stroke-width="0.786503" stroke-miterlimit="10"/>
<defs>
<linearGradient id="paint0_linear_190_19605" x1="0.147724" y1="22.1791" x2="457.811" y2="22.1791" gradientUnits="userSpaceOnUse">
<stop stop-color="#2D67FF"/>
<stop offset="1" stop-color="#A238FF"/>
</linearGradient>
</defs>
</svg>
