<svg preserveAspectRatio="none" width="100%" height="100%" overflow="visible" style="display: block;" viewBox="0 0 458 39" fill="none" xmlns="http://www.w3.org/2000/svg">
<path id="Vector" d="M457.701 30.0637C437.653 9.78674 418.211 1.58012 405.061 0.593045C402.036 0.366219 399.125 0.333618 396.304 0.489691C370.569 1.90475 352.72 18.4616 325.96 27.3355C315.92 30.6651 304.415 32.8903 290.644 32.7634C266.469 32.5886 258.628 8.52292 233.533 10.0455C227.652 10.4076 222.131 11.3829 216.863 12.7216C195.712 18.1613 178.421 28.8019 158.346 28.3635C143.994 28.05 135.907 26.1383 121.929 22.824C114.506 21.0642 105.781 19.0332 93.7175 16.7615C89.8372 16.031 85.2743 15.4539 80.0492 15.284C68.4457 14.9066 53.4299 16.3487 36.0333 21.7925C24.5451 25.3871 12.4744 30.8087 0.201257 38.1198" stroke="url(#paint0_linear_190_19727)" stroke-width="0.786503" stroke-miterlimit="10"/>
<defs>
<linearGradient id="paint0_linear_190_19727" x1="0.201257" y1="19.2565" x2="457.701" y2="19.2565" gradientUnits="userSpaceOnUse">
<stop stop-color="#2D67FF"/>
<stop offset="1" stop-color="#A238FF"/>
</linearGradient>
</defs>
</svg>
