<svg preserveAspectRatio="none" width="100%" height="100%" overflow="visible" style="display: block;" viewBox="0 0 162 95" fill="none" xmlns="http://www.w3.org/2000/svg">
<path id="Vector 2558" d="M71.7014 10.4364L14.5315 0.1314C9.78973 -0.723323 7.71192 2.80059 7.26574 4.66939V36.1517C3.90055 36.908 1.01975 38.9249 0 39.8388V55.2491C0.458889 57.4424 4.78013 58.2429 6.88339 58.369V73.4011C5.27728 84.5948 10.4207 87.5823 13.1931 87.6768C31.8036 89.4731 69.7511 93.198 72.6574 93.7275C75.5637 94.2569 83.2374 94.0111 86.7109 93.822L144.741 89.0004C151.472 89.2273 153.792 84.9981 154.11 82.8552L153.632 58.4635C159.904 57.8584 161.79 56.0684 161.95 55.2491L161.567 36.3408C160.802 34.7525 157.424 33.5361 155.831 33.1264L153.059 32.7482V7.22201C153.517 0.641924 148.852 -0.120711 146.462 0.320483L83.556 10.4364C80.3438 11.4953 74.3145 10.8776 71.7014 10.4364Z" fill="var(--fill-0, #D9D9D9)"/>
</svg>
