<svg preserveAspectRatio="none" width="100%" height="100%" overflow="visible" style="display: block;" viewBox="0 0 458 39" fill="none" xmlns="http://www.w3.org/2000/svg">
<path id="Vector" d="M0.220771 27.1427C11.5092 19.4848 22.3368 13.982 31.9031 9.92831C42.2306 5.54787 50.4301 3.84563 58.1194 4.07732C79.422 4.71825 86.6294 18.8952 107.241 18.3992C128.974 17.906 136.707 6.95252 156.015 2.49786C167.643 -0.184505 193.53 -1.89436 217.036 7.63855C218.693 8.3107 220.321 9.04736 221.926 9.83604C230.679 14.111 237.582 19.6214 245.293 24.5727C252.218 29.0191 259.46 32.839 269.477 33.2282C285.058 33.8337 294.867 27.7774 311.964 18.5692C316.46 16.1476 321.337 13.5617 326.82 10.8807C335.256 6.75691 344.501 5.09075 354.485 6.12499C362.035 6.90674 369.994 9.08205 378.467 13.5533C387.303 18.2161 396.148 27.4896 405.174 32.8647C406.128 33.4377 407.085 33.9649 408.045 34.4358C422.057 41.3474 441.767 37.6606 457.459 33.043" stroke="url(#paint0_linear_190_19755)" stroke-width="0.786503" stroke-miterlimit="10"/>
<defs>
<linearGradient id="paint0_linear_190_19755" x1="0.220771" y1="19.3273" x2="457.459" y2="19.3273" gradientUnits="userSpaceOnUse">
<stop stop-color="#2D67FF"/>
<stop offset="1" stop-color="#A238FF"/>
</linearGradient>
</defs>
</svg>
