<svg preserveAspectRatio="none" width="100%" height="100%" overflow="visible" style="display: block;" viewBox="0 0 481 27" fill="none" xmlns="http://www.w3.org/2000/svg">
<path id="Vector" d="M480.455 18.7761C461.574 7.39533 441.163 6.72248 423.996 6.38745C420.915 6.3271 417.901 6.27646 414.933 6.31739C387.549 6.66491 368.009 13.6133 341.768 16.4343C332.455 17.436 320.402 17.6163 305.963 16.537C282.125 14.755 268.478 -2.37481 244.179 0.779939C238.333 1.5388 232.835 2.89975 227.728 4.7851C206.018 12.8017 188.129 24.2976 171.478 25.4831C155.546 26.6179 144.093 23.9619 131.784 19.2582C122.429 15.6831 114.703 12.1795 103.869 8.59674C99.8989 7.28434 95.4201 5.8679 89.8715 4.92661C78.7848 3.04611 61.8233 1.80586 41.1567 5.67229C25.2603 8.64599 11.2727 15.0658 0.195667 21.4197" stroke="url(#paint0_linear_233_19503)" stroke-width="0.786503" stroke-miterlimit="10"/>
<defs>
<linearGradient id="paint0_linear_233_19503" x1="0.195667" y1="13.0686" x2="480.455" y2="13.0686" gradientUnits="userSpaceOnUse">
<stop stop-color="#2D67FF"/>
<stop offset="1" stop-color="#A238FF"/>
</linearGradient>
</defs>
</svg>
