<svg preserveAspectRatio="none" width="100%" height="100%" overflow="visible" style="display: block;" viewBox="0 0 13 20" fill="none" xmlns="http://www.w3.org/2000/svg">
<path id="Shape" d="M3.5 0C2.39543 0 1.5 0.895431 1.5 2V3.29076C1.96322 3.10325 2.46955 3 3 3H9C9.53045 3 10.0368 3.10325 10.5 3.29076V2C10.5 0.895431 9.60457 0 8.5 0H3.5ZM3 4C1.34315 4 0 5.34315 0 7V13C0 14.6569 1.34315 16 3 16H9C10.6569 16 12 14.6569 12 13V11C12.5523 11 13 10.5523 13 10V9C13 8.44772 12.5523 8 12 8V7C12 5.34315 10.6569 4 9 4H3ZM3 17C2.46955 17 1.96322 16.8967 1.5 16.7092V18C1.5 19.1046 2.39543 20 3.5 20H8.5C9.60457 20 10.5 19.1046 10.5 18V16.7092C10.0368 16.8967 9.53045 17 9 17H3Z" fill="var(--fill-0, #04071E)"/>
</svg>
