<svg preserveAspectRatio="none" width="100%" height="100%" overflow="visible" style="display: block;" viewBox="0 0 481 42" fill="none" xmlns="http://www.w3.org/2000/svg">
<path id="Vector" d="M0.114143 27.9116C25.9908 35.7603 50.3251 29.74 69.5447 20.5581C74.6729 18.1081 78.9602 15.6512 82.8193 13.7083C93.7588 8.22423 100.385 2.52932 112.693 2.59244C126.731 2.66459 132.297 13.3386 146.969 20.2793C163.494 28.0968 181.553 28.6295 199.414 26.3384C218.93 23.8343 233.908 19.6217 254.519 11.4053C265.744 6.93057 274.483 0.877731 285.164 0.410208C291.519 0.132052 296.572 3.30414 303.595 6.98745C314.842 12.887 324.991 21.3995 342.02 25.3624C356.937 28.8334 369.471 32.4724 382.228 31.9965C389.438 31.7281 396.769 29.7581 404.51 29.4973C405.976 29.448 407.433 29.5645 408.887 29.7657C417.238 30.9186 424.94 34.8433 434.213 37.2496C447.432 40.6797 463.017 42.119 480.914 41.2658" stroke="url(#paint0_linear_233_19701)" stroke-width="0.786503" stroke-miterlimit="10"/>
<defs>
<linearGradient id="paint0_linear_233_19701" x1="0.114143" y1="20.9496" x2="480.914" y2="20.9496" gradientUnits="userSpaceOnUse">
<stop stop-color="#2D67FF"/>
<stop offset="1" stop-color="#A238FF"/>
</linearGradient>
</defs>
</svg>
