<svg preserveAspectRatio="none" width="100%" height="100%" overflow="visible" style="display: block;" viewBox="0 0 481 43" fill="none" xmlns="http://www.w3.org/2000/svg">
<path id="Vector" d="M0.124763 26.7021C25.0787 35.0502 49.8171 29.87 69.7458 20.6624C74.898 18.2818 79.2036 15.8651 83.1041 13.8944C93.8213 8.50054 100.682 3.14136 113.178 3.0283C126.468 2.9076 132.413 12.3475 145.659 18.7437C160.949 26.127 177.21 27.7654 193.875 25.896C213.003 23.7506 228.107 19.7246 250.442 11.1101C261.866 6.70398 270.887 -0.244372 282.062 0.440266C288.5 0.834262 293.357 4.34069 300.119 8.66008C310.619 15.367 320.766 24.4615 338.79 27.9874C354.782 31.1165 367.915 34.2372 380.591 32.9339C388.055 32.1667 395.479 29.2346 403.228 28.9627C404.741 28.9093 406.23 28.9495 407.715 29.1382C416.084 30.2016 423.757 34.5445 433.301 37.3233C446.001 41.0205 461.748 43.0182 480.881 42.2607" stroke="url(#paint0_linear_233_19445)" stroke-width="0.786503" stroke-miterlimit="10"/>
<defs>
<linearGradient id="paint0_linear_233_19445" x1="0.124763" y1="21.4065" x2="480.881" y2="21.4065" gradientUnits="userSpaceOnUse">
<stop stop-color="#2D67FF"/>
<stop offset="1" stop-color="#A238FF"/>
</linearGradient>
</defs>
</svg>
