<svg preserveAspectRatio="none" width="100%" height="100%" overflow="visible" style="display: block;" viewBox="0 0 482 40" fill="none" xmlns="http://www.w3.org/2000/svg">
<path id="Vector" d="M0.0806886 32.9254C29.1843 39.0268 52.0552 30.0121 68.8435 20.9723C73.8697 18.2657 78.1089 15.6811 81.8256 13.8374C93.5425 8.04053 99.3451 1.74074 110.997 1.84826C127.655 2.00225 131.863 17.6261 151.558 26.4342C172.374 35.8117 196.796 32.5321 218.804 28.6643C239.712 24.9893 254.123 19.9131 268.795 13.2187C279.276 8.43659 286.984 2.88597 296.028 1.08593C302.139 -0.130046 307.938 0.322907 315.769 1.91346C329.802 4.76369 339.817 11.3874 353.338 16.954C364.519 21.5571 374.954 26.7852 387.965 29.496C394.301 30.816 401.262 31.1372 409.006 32.1478C410.321 32.3192 411.654 32.5009 412.997 32.7409C421.285 34.2205 429.152 36.529 437.412 37.7699C452.538 40.0423 467.462 39.7503 481.036 38.5627" stroke="url(#paint0_linear_233_19327)" stroke-width="0.786503" stroke-miterlimit="10"/>
<defs>
<linearGradient id="paint0_linear_233_19327" x1="0.0806886" y1="19.932" x2="481.036" y2="19.932" gradientUnits="userSpaceOnUse">
<stop stop-color="#2D67FF"/>
<stop offset="1" stop-color="#A238FF"/>
</linearGradient>
</defs>
</svg>
