<svg preserveAspectRatio="none" width="100%" height="100%" overflow="visible" style="display: block;" viewBox="0 0 458 38" fill="none" xmlns="http://www.w3.org/2000/svg">
<path id="Vector" d="M0.220425 36.7831C18.3325 24.5241 34.4768 18.8043 48.103 16.2391C68.2349 12.449 82.4382 15.6093 95.5028 17.1943C126.695 20.9782 133.128 24.4048 151.36 24.28C173.386 24.0996 191.144 9.90396 216.71 8.05814C239.181 6.43568 251.175 25.9898 275.555 28.6999C297.149 31.1 312.463 28.9254 328.598 22.5285C348.991 14.4439 364.091 3.3191 388.215 0.622165C396.37 -0.289298 406.32 1.39211 417.7 8.0082C423.311 11.2705 429.076 16.2162 435.027 20.2554C441.948 24.9521 450.372 27.5866 457.685 30.7504" stroke="url(#paint0_linear_190_19695)" stroke-width="0.786503" stroke-miterlimit="10"/>
<defs>
<linearGradient id="paint0_linear_190_19695" x1="0.220425" y1="18.5882" x2="457.685" y2="18.5882" gradientUnits="userSpaceOnUse">
<stop stop-color="#2D67FF"/>
<stop offset="1" stop-color="#A238FF"/>
</linearGradient>
</defs>
</svg>
