<svg preserveAspectRatio="none" width="100%" height="100%" overflow="visible" style="display: block;" viewBox="0 0 458 39" fill="none" xmlns="http://www.w3.org/2000/svg">
<path id="Vector" d="M0.260942 29.3551C22.6243 9.51999 40.3892 5.50441 52.9463 5.81864C75.132 6.43738 82.6546 20.5165 104.07 19.9283C115.464 19.6154 122.677 17.3486 129.977 14.2257C139.039 10.3309 147.015 4.79411 158.987 2.02851C171.574 -0.879292 200.429 -1.21365 224.556 12.2287C241.476 21.6548 251.156 36.1203 272.618 35.2338C293.239 34.382 303.998 22.6335 330.251 8.76251C344.257 1.36328 361.117 1.5589 380.687 13.2227C390.193 18.8885 399.808 29.6152 409.27 34.3924C423.246 41.4177 442.773 37.4049 457.485 32.831" stroke="url(#paint0_linear_190_19673)" stroke-width="0.786503" stroke-miterlimit="10"/>
<defs>
<linearGradient id="paint0_linear_190_19673" x1="0.260942" y1="19.295" x2="457.485" y2="19.295" gradientUnits="userSpaceOnUse">
<stop stop-color="#2D67FF"/>
<stop offset="1" stop-color="#A238FF"/>
</linearGradient>
</defs>
</svg>
