<svg preserveAspectRatio="none" width="100%" height="100%" overflow="visible" style="display: block;" viewBox="0 0 458 35" fill="none" xmlns="http://www.w3.org/2000/svg">
<path id="Vector" d="M0.229951 34.5962C19.0922 20.9999 35.516 15.5422 48.9599 13.5243C69.4445 10.4494 82.5018 15.3757 97.0165 16.8012C124.767 19.5258 131.286 22.2845 147.588 21.6304C167.326 20.7945 183.363 8.15614 206.525 6.11818C227.255 4.29456 242.141 20.4734 266.557 24.9169C287.264 28.6856 301.695 29.4389 318.721 23.8945C339.212 17.2215 353.715 6.15979 377.989 1.18281C387.284 -0.723351 398.346 0.545347 411.17 8.05278C417.469 11.7389 423.897 17.7223 430.485 21.8746C438.628 27.0062 449.034 28.4442 457.652 30.2421" stroke="url(#paint0_linear_190_19779)" stroke-width="0.786503" stroke-miterlimit="10"/>
<defs>
<linearGradient id="paint0_linear_190_19779" x1="0.229951" y1="17.4947" x2="457.652" y2="17.4947" gradientUnits="userSpaceOnUse">
<stop stop-color="#2D67FF"/>
<stop offset="1" stop-color="#A238FF"/>
</linearGradient>
</defs>
</svg>
