<svg preserveAspectRatio="none" width="100%" height="100%" overflow="visible" style="display: block;" viewBox="0 0 458 30" fill="none" xmlns="http://www.w3.org/2000/svg">
<path id="Vector" d="M457.349 18.1776C440.259 10.6091 420.839 13.1146 403.116 13.1098C400.224 13.1091 397.37 13.0619 394.543 13.0536C368.327 12.9433 349.531 15.8698 325.177 16.0009C316.858 16.046 305.352 15.3322 291.613 13.8208C269.554 11.3937 254.35 -2.78605 232.055 1.0464C226.624 1.98006 221.518 3.51442 216.824 5.62106C196.379 14.7953 179.412 26.815 165.394 28.486C149.828 30.3416 137.852 27.0543 127.013 21.967C117.504 17.5048 110.718 13.4039 101.135 9.33489C97.4017 7.74989 93.2648 6.02129 87.9545 4.72554C77.8496 2.2589 61.1721 -0.268775 40.5602 3.00112C23.8341 5.65504 10.011 12.5562 0.203828 18.5002" stroke="url(#paint0_linear_190_19759)" stroke-width="0.786503" stroke-miterlimit="10"/>
<defs>
<linearGradient id="paint0_linear_190_19759" x1="0.203828" y1="14.7015" x2="457.349" y2="14.7015" gradientUnits="userSpaceOnUse">
<stop stop-color="#2D67FF"/>
<stop offset="1" stop-color="#A238FF"/>
</linearGradient>
</defs>
</svg>
