<svg preserveAspectRatio="none" width="100%" height="100%" overflow="visible" style="display: block;" viewBox="0 0 481 29" fill="none" xmlns="http://www.w3.org/2000/svg">
<path id="Vector" d="M480.381 18.3646C462.12 9.52538 441.719 10.9751 423.587 10.8565C420.535 10.8364 417.532 10.7878 414.562 10.7955C387.078 10.8378 367.397 15.094 341.603 16.1331C332.671 16.4931 320.6 16.0804 306.167 14.7139C282.775 12.4998 267.579 -2.66214 243.869 0.945559C238.117 1.82095 232.709 3.29705 227.72 5.33085C206.166 14.1167 188.323 25.9511 172.958 27.4737C156.749 29.0795 144.538 26.0219 132.852 21.0525C123.07 16.8934 115.746 12.9888 105.426 9.07728C101.488 7.58453 97.0996 5.95721 91.5317 4.78077C80.7616 2.50558 63.4297 0.414908 42.1078 3.87972C25.0982 6.64324 10.7557 13.3807 0.196241 19.4613" stroke="url(#paint0_linear_233_19521)" stroke-width="0.786503" stroke-miterlimit="10"/>
<defs>
<linearGradient id="paint0_linear_233_19521" x1="0.196241" y1="14.1484" x2="480.381" y2="14.1484" gradientUnits="userSpaceOnUse">
<stop stop-color="#2D67FF"/>
<stop offset="1" stop-color="#A238FF"/>
</linearGradient>
</defs>
</svg>
