<svg preserveAspectRatio="none" width="100%" height="100%" overflow="visible" style="display: block;" viewBox="0 0 42 42" fill="none" xmlns="http://www.w3.org/2000/svg">
<g id="AI symbol">
<path id="Vector 1" d="M34.54 30.454C25.7719 30.454 17.5779 33.9432 14.5769 35.6878C12.1629 36.8841 11.2225 35.1893 11.0541 34.1924C11.0541 25.8183 7.40062 17.9924 5.5739 15.1262C4.63446 13.3318 5.96534 12.1355 6.74821 11.7616C17.3952 11.1635 24.4932 7.77395 26.7114 6.15396C29.5297 5.25673 30.4952 7.02626 30.6257 8.02319C30.9388 16.0983 34.6705 24.3478 36.4972 27.4632C37.4367 29.5567 35.5839 30.3294 34.54 30.454Z" stroke="var(--stroke-0, white)" stroke-width="2.10028"/>
<path id="Vector 2" d="M22.8122 36.6894C17.207 30.6245 9.44182 27.2921 6.25985 26.3841C3.85021 25.5151 4.47651 23.7302 5.09087 22.9464C11.1558 17.3412 14.4881 9.57598 15.3961 6.394C16.0952 4.54308 17.8124 4.66291 18.5836 4.95419C25.8231 11.9184 32.8155 14.5593 35.4067 15.0093C37.8582 16.3582 37.1939 18.2105 36.5552 18.968C30.9071 24.5896 27.318 32.6926 26.2294 36.0413C25.3137 38.0924 23.5697 37.328 22.8122 36.6894Z" stroke="var(--stroke-0, white)" stroke-width="2.10028"/>
</g>
</svg>
