<svg preserveAspectRatio="none" width="100%" height="100%" overflow="visible" style="display: block;" viewBox="0 0 536 381" fill="none" xmlns="http://www.w3.org/2000/svg">
<g id="Group">
<g id="Vector">
</g>
<g id="Group_2">
<path id="Vector_2" d="M1.01069 103.735C9.00117 99.0113 27.4636 89.0278 54.4252 87.8142C82.8241 86.5366 104.546 95.532 114.446 100.551C133.338 110.128 136.728 118.133 156.061 132.253C165.32 139.016 184.304 147.535 203.589 140.698C211.789 137.791 231.123 121.455 253.665 106.089C289.755 81.4866 358.578 101.352 379.033 111.903C403.991 124.778 427.329 138.014 458.587 140.145C489.967 142.283 516.175 122.989 533.831 113.564" stroke="url(#paint0_linear_190_19479)" stroke-width="0.863256" stroke-miterlimit="10"/>
<path id="Vector_3" d="M533.858 115.222C517.718 122.259 495.081 137.481 468.544 139.123C465.341 139.321 462.084 139.326 458.778 139.119C427.577 137.156 404.457 125.24 379.111 113.5C371.64 110.04 358.147 105.454 342.202 101.922C319.119 96.8603 292.051 93.0764 269.579 99.9072C263.831 101.662 258.466 104.066 253.656 107.221C231.016 122.161 211.573 138.179 202.753 141.038C183.422 147.306 164.954 139.375 155.454 132.701C142.545 123.632 136.622 117.059 128.259 110.904C124.243 107.949 119.716 105.053 113.51 102.063C103.471 97.228 81.9125 88.7367 53.8833 90.2304C27.5373 91.5658 9.2747 101.368 0.996747 106.242" stroke="url(#paint1_linear_190_19479)" stroke-width="0.863256" stroke-miterlimit="10"/>
<path id="Vector_4" d="M533.884 116.868C517.398 122.51 494.765 136.62 468.756 138.09C465.538 138.272 462.274 138.271 458.969 138.081C427.823 136.286 404.899 125.692 379.187 115.085C371.539 111.93 358.037 107.681 342.074 104.342C318.765 99.4662 292.532 94.6506 269.736 101.236C263.936 102.926 258.507 105.255 253.645 108.341C230.85 122.808 211.373 138.556 201.915 141.365C182.584 147.107 164.594 139.721 154.846 133.135C142.037 124.481 135.972 118.07 127.378 112.06C123.318 109.221 118.788 106.402 112.572 103.563C102.39 98.9119 81.0073 90.9946 53.3393 92.6338C27.6163 94.158 9.54611 103.712 0.980683 108.736" stroke="url(#paint2_linear_190_19479)" stroke-width="0.863256" stroke-miterlimit="10"/>
<path id="Vector_5" d="M533.908 118.515C517.077 122.762 494.445 135.756 468.965 137.058C465.732 137.224 462.461 137.215 459.156 137.044C428.067 135.416 405.315 126.15 379.26 116.672C371.428 113.823 357.916 109.928 341.941 106.764C318.396 102.1 292.99 96.1908 269.89 102.566C264.032 104.183 258.552 106.454 253.632 109.463C230.716 123.481 211.184 138.941 201.074 141.695C181.78 146.95 164.237 140.07 154.234 133.573C141.539 125.328 135.325 119.083 126.495 113.218C122.394 110.495 117.854 107.756 111.631 105.065C101.304 100.599 80.097 93.217 52.7934 95.0396C27.6903 96.7154 9.81563 106.059 0.962727 111.233" stroke="url(#paint3_linear_190_19479)" stroke-width="0.863256" stroke-miterlimit="10"/>
<path id="Vector_6" d="M533.929 120.161C516.753 123.013 494.122 134.885 469.173 136.026C465.925 136.174 462.646 136.16 459.342 136.006C428.309 134.546 405.708 126.613 379.331 118.257C371.31 115.715 357.792 112.174 341.809 109.184C318.025 104.734 293.463 97.756 270.043 103.895C264.13 105.445 258.596 107.65 253.617 110.583C230.585 124.154 211.007 139.331 200.233 142.022C181.008 146.823 163.888 140.414 153.623 134.007C141.058 126.163 134.683 120.092 125.611 114.373C121.472 111.764 116.918 109.108 110.691 106.564C100.214 102.285 79.1867 95.4339 52.2476 97.4423C27.7642 99.2673 10.0851 108.403 0.944771 113.727" stroke="url(#paint4_linear_190_19479)" stroke-width="0.863256" stroke-miterlimit="10"/>
<path id="Vector_7" d="M533.957 121.809C516.436 123.267 493.804 134.014 469.387 134.996C466.123 135.127 462.839 135.106 459.534 134.971C428.558 133.678 406.086 127.089 379.41 119.844C371.191 117.613 357.675 114.425 341.683 111.606C317.659 107.371 293.944 99.3238 270.203 105.225C264.236 106.708 258.647 108.848 253.608 111.706C230.463 124.831 210.845 139.731 199.398 142.351C180.264 146.731 163.551 140.761 153.016 134.444C140.594 126.996 134.05 121.103 124.732 115.531C120.557 113.036 115.985 110.464 109.754 108.066C99.123 103.974 78.2807 97.6511 51.7038 99.8476C27.8414 101.82 10.3568 110.749 0.92894 116.223" stroke="url(#paint5_linear_190_19479)" stroke-width="0.863256" stroke-miterlimit="10"/>
<path id="Vector_8" d="M533.981 123.453C516.114 123.516 493.481 133.133 469.596 133.962C466.317 134.075 463.026 134.049 459.723 133.932C428.802 132.807 406.441 127.572 379.484 121.429C371.064 119.51 357.552 116.674 341.554 114.026C317.289 110.009 294.422 100.891 270.359 106.554C264.339 107.971 258.696 110.045 253.597 112.826C230.341 125.508 210.69 140.138 198.559 142.679C179.535 146.665 163.22 141.103 152.407 134.879C140.141 127.818 133.421 122.11 123.85 116.687C119.644 114.304 115.046 111.819 108.816 109.566C98.0287 105.664 77.3744 99.8654 51.1598 102.251C27.9193 104.367 10.6282 113.094 0.912873 118.717" stroke="url(#paint6_linear_190_19479)" stroke-width="0.863256" stroke-miterlimit="10"/>
<path id="Vector_9" d="M534.004 125.107C515.793 123.775 493.157 132.257 469.806 132.937C466.511 133.033 463.213 133.001 459.911 132.902C429.047 131.944 406.779 128.078 379.558 123.022C370.931 121.419 357.428 118.933 341.424 116.453C316.916 112.657 294.9 102.467 270.514 107.89C264.441 109.24 258.745 111.249 253.584 113.953C230.222 126.194 210.543 140.561 197.72 143.013C178.822 146.628 162.896 141.449 151.797 135.32C139.699 128.64 132.796 123.121 122.969 117.85C118.732 115.578 114.106 113.182 107.878 111.071C96.9303 107.361 76.4694 102.081 50.6161 104.661C27.9965 106.918 10.8998 115.444 0.897046 121.218" stroke="url(#paint7_linear_190_19479)" stroke-width="0.863256" stroke-miterlimit="10"/>
<path id="Vector_10" d="M534.031 126.761C515.474 124.034 492.836 131.379 470.018 131.913C466.708 131.99 463.403 131.954 460.102 131.872C429.293 131.082 407.105 128.601 379.635 124.615C370.795 123.333 357.306 121.194 341.296 118.882C316.545 115.307 295.383 104.045 270.672 109.227C264.546 110.513 258.797 112.456 253.574 115.082C230.108 126.885 210.404 140.997 196.883 143.349C178.121 146.615 162.582 141.795 151.19 135.764C139.272 129.456 132.178 124.132 122.089 119.015C117.825 116.853 113.166 114.55 106.94 112.581C95.8295 109.066 75.5642 104.299 50.0731 107.074C28.0755 109.468 11.1723 117.797 0.880978 123.721" stroke="url(#paint8_linear_190_19479)" stroke-width="0.863256" stroke-miterlimit="10"/>
<path id="Vector_11" d="M534.054 128.432C515.152 124.31 492.509 130.512 470.227 130.905C466.902 130.964 463.591 130.923 460.29 130.859C429.537 130.237 407.42 129.155 379.708 126.226C370.653 125.269 357.181 123.475 341.164 121.328C316.168 117.977 295.86 105.641 270.825 110.582C264.646 111.801 258.846 113.68 253.56 116.229C229.993 127.594 210.265 141.461 196.042 143.703C177.423 146.638 162.271 142.153 150.577 136.226C138.884 130.299 131.559 125.157 121.203 120.198C116.914 118.144 112.218 115.938 105.998 114.107C94.7217 110.79 74.6552 106.531 49.5254 109.504C28.1497 112.032 11.4399 120.169 0.861132 126.242" stroke="url(#paint9_linear_190_19479)" stroke-width="0.863256" stroke-miterlimit="10"/>
<path id="Vector_12" d="M534.079 130.102C514.833 124.586 492.186 129.641 470.439 129.897C467.097 129.936 463.78 129.891 460.48 129.846C429.783 129.39 407.73 129.724 379.784 127.835C370.513 127.208 357.057 125.755 341.036 123.772C315.794 120.647 296.342 107.237 270.982 111.934C264.751 113.088 258.898 114.902 253.549 117.373C229.886 128.303 210.134 141.936 195.204 144.055C176.735 146.676 161.971 142.504 149.969 136.685C138.445 131.098 130.95 126.177 120.323 121.378C116.01 119.43 111.273 117.324 105.061 115.631C93.6167 112.514 73.7511 108.756 48.9814 111.931C28.2266 114.591 11.7113 122.537 0.845067 128.761" stroke="url(#paint10_linear_190_19479)" stroke-width="0.863256" stroke-miterlimit="10"/>
<path id="Vector_13" d="M534.103 132.03C514.511 125.119 491.859 129.023 470.648 129.146C467.29 129.166 463.967 129.117 460.668 129.09C430.028 128.801 408.037 130.567 379.859 129.702C370.37 129.41 356.931 128.294 340.907 126.474C315.419 123.578 296.824 109.092 271.139 113.545C264.856 114.634 258.95 116.383 253.538 118.774C229.78 129.273 210.007 142.681 194.367 144.663C176.051 146.985 161.682 143.105 149.361 137.401C138.049 132.163 130.345 127.449 119.443 122.815C115.109 120.972 110.329 118.968 104.125 117.411C92.5095 114.497 72.848 111.235 48.4395 114.615C28.3057 117.403 11.9849 125.161 0.831128 131.535" stroke="url(#paint11_linear_190_19479)" stroke-width="0.863256" stroke-miterlimit="10"/>
<path id="Vector_14" d="M534.127 134.077C514.189 125.77 491.534 128.519 470.858 128.514C467.484 128.513 464.154 128.462 460.856 128.453C430.273 128.331 408.345 131.544 379.933 131.687C370.227 131.737 356.805 130.954 340.777 129.295C315.042 126.631 297.305 111.067 271.295 115.274C264.959 116.298 259.003 117.982 253.526 120.295C229.675 130.364 209.88 143.557 193.527 145.391C175.367 147.428 161.396 143.82 148.751 138.236C137.658 133.338 129.741 128.837 118.561 124.371C114.206 122.631 109.38 120.734 103.185 119.312C91.3962 116.604 71.9399 113.83 47.8936 117.419C28.3807 120.332 12.2544 127.907 0.813168 134.431" stroke="url(#paint12_linear_190_19479)" stroke-width="0.863256" stroke-miterlimit="10"/>
<path id="Vector_15" d="M534.155 136.124C513.873 126.422 491.213 128.013 471.073 127.883C467.683 127.861 464.348 127.807 461.049 127.816C430.521 127.862 408.661 132.534 380.011 133.674C370.089 134.07 356.682 133.617 340.651 132.117C314.669 129.686 297.79 113.045 271.454 117.005C265.065 117.966 259.058 119.586 253.517 121.818C229.577 131.461 209.758 144.451 192.692 146.122C174.688 147.884 161.124 144.528 148.144 139.074C137.279 134.509 129.144 130.223 117.681 125.93C113.307 124.292 108.433 122.505 102.249 121.214C90.2858 118.717 71.0347 116.422 47.3518 120.225C28.4587 123.258 12.5279 130.653 0.799229 137.327" stroke="url(#paint13_linear_190_19479)" stroke-width="0.863256" stroke-miterlimit="10"/>
<path id="Vector_16" d="M534.178 138.171C513.552 127.075 490.885 127.503 471.281 127.252C467.875 127.209 464.534 127.153 461.236 127.181C430.765 127.395 408.979 133.538 380.084 135.662C369.95 136.407 356.554 136.281 340.518 134.94C314.289 132.745 298.27 115.024 271.607 118.736C265.166 119.633 259.109 121.189 253.503 123.34C229.474 132.56 209.63 145.358 191.85 146.852C174.001 148.351 160.853 145.225 147.531 139.911C136.901 135.67 128.543 131.603 116.796 127.488C112.403 125.95 107.48 124.278 101.306 123.117C89.1682 120.834 70.1233 119.011 46.8038 123.031C28.5294 126.182 12.7953 133.4 0.779149 140.224" stroke="url(#paint14_linear_190_19479)" stroke-width="0.863256" stroke-miterlimit="10"/>
<path id="Vector_17" d="M534.203 140.222C513.231 127.731 490.56 126.992 471.492 126.624C468.07 126.558 464.722 126.503 461.425 126.547C431.01 126.929 409.306 134.555 380.159 137.652C369.814 138.751 356.427 138.949 340.389 137.764C313.912 135.808 298.754 117.007 271.763 120.47C265.27 121.303 259.164 122.796 253.491 124.866C229.376 133.665 209.506 146.282 191.012 147.583C173.316 148.829 160.594 145.914 146.923 140.751C136.532 136.827 127.951 132.982 115.916 129.049C111.507 127.609 106.532 126.054 100.369 125.021C88.0548 122.957 69.2151 121.596 46.26 125.839C28.6034 129.103 13.067 136.15 0.763318 143.124" stroke="url(#paint15_linear_190_19479)" stroke-width="0.863256" stroke-miterlimit="10"/>
<path id="Vector_18" d="M534.231 142.281C512.915 128.395 490.239 126.487 471.707 126.005C468.269 125.916 464.915 125.86 461.618 125.923C431.259 126.472 409.647 135.589 380.239 139.651C369.687 141.108 356.306 141.628 340.265 140.598C313.541 138.883 299.241 119 271.924 122.212C265.379 122.981 259.223 124.412 253.484 126.399C229.285 134.78 209.385 147.229 190.178 148.324C172.633 149.324 160.347 146.598 146.318 141.599C136.172 137.984 127.362 134.363 115.039 130.619C110.612 129.275 105.586 127.842 99.4348 126.935C86.9431 125.094 68.3075 124.186 45.72 128.657C28.6789 132.031 13.3424 138.908 0.751267 146.032" stroke="url(#paint16_linear_190_19479)" stroke-width="0.863256" stroke-miterlimit="10"/>
<path id="Vector_19" d="M534.253 144.337C512.591 129.056 489.913 125.973 471.913 125.382C468.46 125.269 465.099 125.214 461.804 125.295C431.5 126.011 409.992 136.627 380.31 141.645C369.555 143.463 356.176 144.303 340.132 143.428C313.159 141.956 299.72 120.99 272.076 123.95C265.478 124.657 259.274 126.025 253.469 127.93C229.186 135.896 209.254 148.19 189.335 149.062C171.936 149.824 160.097 147.266 145.705 142.445C135.805 139.129 126.768 135.736 114.153 132.185C109.711 130.935 104.633 129.627 98.4927 128.845C85.8246 127.231 67.3889 126.765 45.1723 131.471C28.7457 134.949 13.61 141.662 0.731423 148.937" stroke="url(#paint17_linear_190_19479)" stroke-width="0.863256" stroke-miterlimit="10"/>
<path id="Vector_20" d="M534.278 145.824C512.271 129.148 489.589 124.886 472.124 124.191C468.655 124.052 465.287 123.999 461.993 124.098C431.746 124.982 410.352 137.102 380.384 143.071C369.429 145.253 356.05 146.411 340.002 145.689C312.783 144.463 300.203 122.413 272.233 125.119C265.583 125.763 259.33 127.069 253.458 128.89C229.093 136.444 209.125 148.596 188.497 149.23C171.241 149.76 159.861 147.345 145.095 142.72C135.446 139.696 126.179 136.532 113.272 133.181C108.814 132.024 103.685 130.844 97.5544 130.185C84.71 128.802 66.4709 128.769 44.6283 133.714C28.8129 137.293 13.8825 143.846 0.715356 151.27" stroke="url(#paint18_linear_190_19479)" stroke-width="0.863256" stroke-miterlimit="10"/>
<path id="Vector_21" d="M534.303 147.981C511.951 129.91 489.267 124.468 472.335 123.67C468.851 123.505 465.476 123.455 462.183 123.571C431.992 124.623 410.724 138.253 380.46 145.168C369.31 147.716 355.926 149.192 339.874 148.621C312.408 147.643 300.687 124.507 272.39 126.959C265.688 127.54 259.386 128.786 253.447 130.522C229.001 137.668 208.992 149.689 187.661 150.069C170.542 150.373 159.631 148.078 144.488 143.666C135.089 140.927 125.592 137.994 112.393 134.849C107.918 133.783 102.738 132.734 96.6181 132.195C83.5985 131.048 65.5507 131.437 44.0864 136.628C28.8802 140.305 14.156 146.701 0.701416 154.275" stroke="url(#paint19_linear_190_19479)" stroke-width="0.863256" stroke-miterlimit="10"/>
<path id="Vector_22" d="M534.325 150.139C511.628 130.674 488.944 124.046 472.543 123.149C469.043 122.958 465.663 122.911 462.369 123.046C432.235 124.265 411.104 139.406 380.532 147.266C369.191 150.182 355.797 151.975 339.741 151.554C312.029 150.827 301.17 126.639 272.543 128.801C265.789 129.328 259.438 130.505 253.432 132.155C228.905 138.896 208.851 150.801 186.818 150.909C169.83 150.993 159.402 148.792 143.874 144.614C134.725 142.152 124.998 139.451 111.506 136.518C107.015 135.541 101.786 134.628 95.675 134.209C82.4811 133.302 64.6182 134.1 43.5365 139.545C28.9352 143.316 14.4215 149.559 0.679444 157.283" stroke="url(#paint20_linear_190_19479)" stroke-width="0.863256" stroke-miterlimit="10"/>
<path id="Vector_23" d="M534.352 152.3C511.309 131.439 488.625 123.623 472.756 122.631C469.241 122.412 465.853 122.37 462.56 122.523C432.482 123.909 411.5 140.565 380.61 149.365C369.081 152.65 355.675 154.76 339.615 154.489C311.657 154.015 301.653 128.728 272.702 130.645C265.896 131.107 259.496 132.226 253.423 133.791C228.815 140.129 208.712 151.93 185.982 151.752C169.12 151.621 159.184 149.485 143.268 145.564C134.366 143.371 124.412 140.905 110.628 138.189C106.119 137.3 100.842 136.526 94.7398 136.223C81.3739 135.561 63.6884 136.758 42.9957 142.463C28.9961 146.323 14.6961 152.418 0.665505 160.292" stroke="url(#paint21_linear_190_19479)" stroke-width="0.863256" stroke-miterlimit="10"/>
<path id="Vector_24" d="M534.377 154.458C510.989 132.203 488.307 123.195 472.966 122.112C469.438 121.863 466.041 121.827 462.75 121.998C432.728 123.552 411.904 141.724 380.685 151.464C368.973 155.119 355.551 157.561 339.486 157.422C311.282 157.23 302.134 130.816 272.858 132.487C265.998 132.884 259.556 133.955 253.411 135.424C228.736 141.395 208.563 153.074 185.145 152.592C168.401 152.248 158.966 150.15 142.659 146.512C134 144.581 123.821 142.352 109.747 139.858C105.221 139.056 99.8975 138.423 93.8017 138.236C80.2648 137.822 62.7471 139.405 42.4519 145.38C29.0497 149.325 14.9678 155.276 0.649674 163.301" stroke="url(#paint22_linear_190_19479)" stroke-width="0.863256" stroke-miterlimit="10"/>
<path id="Vector_25" d="M534.402 156.619C510.669 132.968 487.992 122.765 473.178 121.594C425.224 117.8 402.757 160.267 339.356 160.357C310.909 160.397 302.614 132.905 273.014 134.33C238.516 135.991 214.45 154.435 184.306 153.435C159.285 152.604 151.711 148.283 108.866 141.529C87.4998 138.16 47.9898 139.804 0.633608 166.309" stroke="url(#paint23_linear_190_19479)" stroke-width="0.863256" stroke-miterlimit="10"/>
<path id="Vector_26" d="M0.643532 167.538C20.6064 156.039 39.0325 149.424 55.1855 145.762C78.1598 140.616 96.4288 141.486 109.46 143.413C151.049 149.564 158.575 153.856 182.845 154.493C212.099 155.254 235.494 137.371 269.06 135.648C297.982 134.141 307.43 160.451 335.864 161C362.401 161.513 381.589 154.909 399.113 146.691C422.628 135.666 441.397 122.794 469.207 123.826C476.998 124.115 486.827 126.73 497.853 132.688C503.33 135.647 509.057 139.536 514.978 143.827C521.184 148.322 527.895 152.989 534.395 158.46" stroke="url(#paint24_linear_190_19479)" stroke-width="0.863256" stroke-miterlimit="10"/>
<path id="Vector_27" d="M0.649674 168.853C20.9043 156.865 39.4233 150.317 55.5218 146.884C78.6116 141.96 96.4745 143.5 110.052 145.385C150.363 150.978 157.861 155.195 181.382 155.639C209.747 156.16 232.471 138.839 265.103 137.055C293.346 135.467 303.941 160.588 332.367 161.733C358.573 162.788 377.435 157.23 395.274 149.309C418.872 138.829 437.368 127.539 465.232 126.148C473.418 125.74 483.728 128.538 495.316 134.822C501.06 137.936 507.031 142.213 513.214 146.536C519.882 151.199 527.377 155.419 534.384 160.391" stroke="url(#paint25_linear_190_19479)" stroke-width="0.863256" stroke-miterlimit="10"/>
<path id="Vector_28" d="M0.659596 170.176C21.2059 157.699 39.8287 151.239 55.8609 148.014C79.0811 143.342 96.5186 145.526 110.648 147.364C149.666 152.441 157.152 156.543 179.922 156.792C207.397 157.073 229.45 140.313 261.149 138.467C288.713 136.798 300.448 160.725 328.875 162.471C354.747 164.061 373.28 159.554 391.44 151.93C415.112 141.992 433.241 129.554 461.263 128.475C469.897 128.143 480.634 130.35 492.784 136.96C498.797 140.23 505.015 144.892 511.455 149.25C518.59 154.079 526.864 157.855 534.379 162.326" stroke="url(#paint26_linear_190_19479)" stroke-width="0.863256" stroke-miterlimit="10"/>
<path id="Vector_29" d="M0.669521 171.534C21.5076 158.567 40.235 152.198 56.201 149.178C79.5526 144.762 96.5595 147.587 111.243 149.378C148.953 153.976 156.443 157.925 178.462 157.981C205.047 158.022 226.434 141.871 257.195 139.916C284.086 138.206 296.951 160.889 325.383 163.246C350.916 165.362 369.117 161.912 387.605 154.588C411.342 145.185 429.204 132.884 457.292 130.839C466.364 130.179 477.539 132.199 490.251 139.134C496.53 142.56 503.001 147.606 509.693 152.001C517.296 156.994 526.348 160.327 534.371 164.299" stroke="url(#paint27_linear_190_19479)" stroke-width="0.863256" stroke-miterlimit="10"/>
<path id="Vector_30" d="M0.673539 172.931C21.8034 159.476 40.6377 153.198 56.5342 150.382C80.0205 146.222 96.5903 149.691 111.832 151.431C148.221 155.584 155.726 159.345 176.995 159.208C202.691 159.01 223.409 143.429 253.234 141.403C279.449 139.622 293.442 161.085 321.884 164.059C347.076 166.694 364.942 164.307 383.764 157.286C407.555 148.412 425.171 136.202 453.315 133.241C462.829 132.241 474.437 134.087 487.712 141.348C494.259 144.929 500.984 150.357 507.927 154.791C516.001 159.946 525.829 162.837 534.36 166.31" stroke="url(#paint28_linear_190_19479)" stroke-width="0.863256" stroke-miterlimit="10"/>
<path id="Vector_31" d="M0.68157 174.333C22.1032 160.389 41.0443 154.205 56.8714 151.591C80.4934 147.691 96.6218 151.804 112.424 153.489C147.484 157.228 155.013 160.771 175.533 160.441C200.339 160.003 220.387 144.993 249.279 142.896C274.817 141.042 289.935 161.278 318.39 164.877C343.238 168.021 360.765 166.702 379.93 159.988C403.766 151.638 421.147 139.48 449.343 135.649C459.302 134.296 471.342 135.98 485.178 143.567C491.992 147.303 498.972 153.112 506.166 157.586C514.713 162.902 525.313 165.354 534.352 168.327" stroke="url(#paint29_linear_190_19479)" stroke-width="0.863256" stroke-miterlimit="10"/>
<path id="Vector_32" d="M0.689603 175.766C22.4029 161.332 41.4531 155.244 57.2097 152.831C80.9684 149.192 96.6512 153.951 113.018 155.578C146.739 158.93 154.302 162.228 174.071 161.704C197.988 161.026 217.367 146.586 245.323 144.418C270.184 142.491 286.428 161.491 314.896 165.726C339.399 169.37 356.583 169.122 376.094 162.72C399.968 154.886 417.119 142.75 445.372 138.087C455.774 136.37 468.245 137.902 482.644 145.816C489.725 149.706 496.964 155.896 504.404 160.411C513.427 165.886 524.798 167.9 534.344 170.374" stroke="url(#paint30_linear_190_19479)" stroke-width="0.863256" stroke-miterlimit="10"/>
<path id="Vector_33" d="M0.699525 177.211C22.7046 162.287 41.8649 156.297 57.5487 154.082C81.4464 150.707 96.6793 156.114 113.612 157.679C145.987 160.67 153.592 163.697 172.61 162.98C195.636 162.062 214.346 148.19 241.367 145.954C265.551 143.952 282.917 161.71 311.402 166.587C335.559 170.723 352.394 171.55 372.257 165.465C396.162 158.14 413.082 145.999 441.4 140.537C452.243 138.444 465.149 139.837 480.11 148.077C487.458 152.123 494.957 158.69 502.643 163.248C512.143 168.88 524.283 170.458 534.337 172.432" stroke="url(#paint31_linear_190_19479)" stroke-width="0.863256" stroke-miterlimit="10"/>
<path id="Vector_34" d="M0.705433 178.66C23.0023 163.248 42.2726 157.357 57.8838 155.339C81.9215 152.231 96.7013 158.288 114.203 159.784C145.226 162.437 152.877 165.17 171.145 164.259C193.283 163.102 211.322 149.798 237.409 147.494C260.917 145.418 279.406 161.924 307.905 167.453C331.717 172.073 348.198 173.979 368.418 168.215C392.348 161.393 409.032 149.227 437.424 142.992C448.705 140.514 462.049 141.777 477.572 150.343C485.187 154.545 492.947 161.49 500.876 166.09C510.854 171.88 523.762 173.022 534.324 174.496" stroke="url(#paint32_linear_190_19479)" stroke-width="0.863256" stroke-miterlimit="10"/>
<path id="Vector_35" d="M0.715356 180.124C23.3039 164.223 42.6854 158.434 58.2239 156.609C82.4027 153.771 96.7251 160.482 114.798 161.905C144.464 164.24 152.167 166.658 169.686 165.554C190.934 164.157 208.303 151.419 233.456 149.048C256.287 146.895 275.9 162.142 304.412 168.333C327.881 173.428 344.002 176.415 364.584 170.978C388.533 164.651 404.973 152.446 433.454 145.46C445.166 142.586 458.954 143.731 475.039 152.622C482.922 156.979 490.943 164.3 499.116 168.945C509.574 174.889 523.248 175.597 534.317 176.572" stroke="url(#paint33_linear_190_19479)" stroke-width="0.863256" stroke-miterlimit="10"/>
<path id="Vector_36" d="M0.725278 181.589C23.6056 165.198 43.0993 159.512 58.563 157.88C82.8839 155.315 96.7467 162.683 115.394 164.024C143.698 166.061 151.462 168.171 168.226 166.848C188.59 165.241 205.285 153.039 229.503 150.602C251.659 148.373 272.399 162.352 300.921 169.213C324.049 174.777 339.804 178.846 360.751 173.742C384.714 167.904 400.903 155.648 429.485 147.93C441.623 144.652 455.861 145.686 472.509 154.903C480.658 159.415 488.943 167.11 497.359 171.802C508.299 177.9 522.736 178.176 534.314 178.651" stroke="url(#paint34_linear_190_19479)" stroke-width="0.863256" stroke-miterlimit="10"/>
<path id="Vector_37" d="M0.73544 183.061C23.9075 166.182 43.5134 160.601 58.9034 159.16C83.3664 156.87 96.7676 164.901 115.99 166.154C142.929 167.909 150.753 169.669 166.767 168.152C186.241 166.306 202.266 154.667 225.549 152.166C247.029 149.859 268.901 162.562 297.429 170.102C320.221 176.127 335.601 181.279 356.917 176.515C380.891 171.157 396.816 158.843 425.514 150.408C438.071 146.717 452.767 147.649 469.975 157.192C478.392 161.859 486.941 169.929 495.598 174.667C507.02 180.918 522.222 180.763 534.308 180.737" stroke="url(#paint35_linear_190_19479)" stroke-width="0.863256" stroke-miterlimit="10"/>
<path id="Vector_38" d="M0.741345 184.55C24.2052 167.181 43.9243 161.707 59.2384 160.456C83.8447 158.444 96.781 167.144 116.58 168.298C142.153 169.79 150.039 171.182 165.301 169.471C183.888 167.386 199.241 156.308 221.59 153.744C242.392 151.358 265.403 162.778 293.932 171.007C316.391 177.485 331.391 183.722 353.078 179.303C377.059 174.418 392.71 162.041 421.539 152.901C434.508 148.791 449.667 149.628 467.438 159.497C476.122 164.319 484.934 172.764 493.832 177.548C505.738 183.95 521.702 183.364 534.295 182.84" stroke="url(#paint36_linear_190_19479)" stroke-width="0.863256" stroke-miterlimit="10"/>
<path id="Vector_39" d="M0.747252 186.037C24.5028 168.18 44.3342 162.815 59.5735 161.75C84.3229 160.02 96.7933 169.397 117.171 170.442C141.374 171.684 149.326 172.694 163.837 170.788C181.535 168.464 196.217 157.947 217.632 155.322C237.757 152.855 261.911 162.985 290.435 171.91C312.566 178.835 327.178 186.156 349.239 182.09C373.225 177.67 388.587 165.227 417.564 155.393C430.936 150.856 446.568 151.605 464.901 161.8C473.853 166.777 482.93 175.594 492.068 180.427C504.458 186.98 521.184 185.964 534.285 184.941" stroke="url(#paint37_linear_190_19479)" stroke-width="0.863256" stroke-miterlimit="10"/>
<path id="Vector_40" d="M0.757413 187.129C24.8047 168.782 44.7494 163.528 59.9139 162.648C84.8076 161.203 97.1369 169.407 117.767 172.189C140.244 175.22 148.618 173.809 162.377 171.71C179.188 169.146 193.198 159.189 213.678 156.504C233.127 153.955 258.432 162.787 286.943 172.419C308.752 179.785 322.97 188.187 345.405 184.483C369.396 180.522 384.456 168.012 413.594 157.492C427.362 152.521 443.473 153.188 462.368 163.709C471.588 168.842 480.93 178.031 490.308 182.912C503.184 189.614 520.67 188.171 534.278 186.647" stroke="url(#paint38_linear_190_19479)" stroke-width="0.863256" stroke-miterlimit="10"/>
<path id="Vector_41" d="M0.761193 188.028C25.1003 169.192 45.1582 164.051 60.2468 163.354C85.2837 162.197 97.1108 171.111 118.355 173.745C139.528 176.37 147.902 174.732 160.911 172.44C176.832 169.635 190.171 160.235 209.718 157.493C228.489 154.86 254.955 162.389 283.444 172.734C304.936 180.537 318.754 190.019 341.564 186.682C365.559 183.172 380.304 170.597 409.617 159.396C423.773 153.986 440.371 154.578 459.829 165.425C469.315 170.712 478.923 180.273 488.541 185.204C501.903 192.054 520.149 190.184 534.265 188.161" stroke="url(#paint39_linear_190_19479)" stroke-width="0.863256" stroke-miterlimit="10"/>
<path id="Vector_42" d="M0.769223 188.912C25.4 169.587 45.5702 164.561 60.5851 164.045C85.7652 163.18 97.0792 172.855 118.949 175.285C138.817 177.493 147.191 175.638 159.448 173.155C174.481 170.108 187.148 161.265 205.761 158.467C223.854 155.749 251.491 161.97 279.949 173.034C301.131 181.268 314.541 191.827 337.728 188.865C361.727 185.8 376.143 173.161 405.644 161.284C420.181 155.432 437.275 155.952 457.294 167.125C467.048 172.568 476.922 182.5 486.779 187.48C500.628 194.478 519.633 192.181 534.258 189.658" stroke="url(#paint40_linear_190_19479)" stroke-width="0.863256" stroke-miterlimit="10"/>
<path id="Vector_43" d="M0.783166 190.002C25.7057 170.188 45.9881 165.278 60.9282 164.942C86.2515 164.371 97.0461 174.874 119.548 177.031C138.112 178.81 146.486 176.75 157.993 174.075C172.137 170.787 184.131 162.499 201.813 159.648C219.227 156.841 248.043 161.749 276.462 173.54C297.34 182.203 310.338 193.834 333.899 191.255C357.904 188.628 371.975 175.929 401.679 163.38C416.59 157.081 434.185 157.533 454.767 169.032C464.788 174.63 474.928 184.932 485.023 189.963C499.36 197.107 519.123 194.384 534.256 191.363" stroke="url(#paint41_linear_190_19479)" stroke-width="0.863256" stroke-miterlimit="10"/>
<path id="Vector_44" d="M0.793324 191.233C26.0076 170.929 46.4022 166.138 61.2675 165.979C86.7319 165.707 97.0029 177.12 120.143 178.917C137.401 180.258 145.776 178.001 156.532 175.136C169.787 171.604 181.108 163.869 197.858 160.969C214.592 158.07 244.602 161.663 272.969 174.186C293.551 183.274 306.13 195.974 330.064 193.786C354.077 191.59 367.791 178.836 397.709 165.616C412.986 158.865 431.09 159.254 452.235 171.078C462.523 176.831 472.931 187.505 483.264 192.586C498.089 199.876 518.61 196.729 534.25 193.208" stroke="url(#paint42_linear_190_19479)" stroke-width="0.863256" stroke-miterlimit="10"/>
<path id="Vector_45" d="M0.795212 192.472C26.3013 171.68 46.8081 166.899 61.5996 167.025C87.204 167.243 96.9535 179.483 120.73 180.813C136.678 181.706 145.058 179.262 155.065 176.206C167.428 172.43 178.077 165.248 193.896 162.298C209.95 159.306 241.163 161.58 269.469 174.842C289.763 184.351 301.917 198.116 326.222 196.325C350.246 194.555 363.587 181.749 393.73 167.86C409.367 160.654 427.987 160.983 449.693 173.134C460.248 179.042 470.923 190.085 481.495 195.217C496.809 202.652 518.087 199.082 534.235 195.061" stroke="url(#paint43_linear_190_19479)" stroke-width="0.863256" stroke-miterlimit="10"/>
<path id="Vector_46" d="M0.809153 193.744C26.607 172.462 47.2227 167.912 61.9427 168.104C87.6881 168.44 96.9257 182.015 121.329 182.741C135.959 183.177 144.342 180.542 153.607 177.308C165.07 173.273 175.053 166.655 189.945 163.661C205.315 160.572 237.746 161.525 265.979 175.531C285.991 185.458 297.717 200.283 322.39 198.897C346.429 197.547 359.383 184.694 389.763 170.137C405.753 162.475 424.895 162.745 447.163 175.222C457.986 181.286 468.942 192.683 479.738 197.881C495.562 205.439 517.576 201.467 534.232 196.946" stroke="url(#paint44_linear_190_19479)" stroke-width="0.863256" stroke-miterlimit="10"/>
<path id="Vector_47" d="M0.81506 195.034C26.9046 173.264 47.6294 168.856 62.2788 169.201C88.161 169.88 96.937 185.333 121.92 184.688C135.213 184.344 143.628 181.856 152.144 178.429C162.716 174.154 172.021 168.077 185.988 165.041C200.672 161.85 234.334 161.483 262.482 176.237C282.221 186.583 293.513 202.46 318.551 201.487C342.608 200.552 355.161 187.657 385.788 172.432C402.127 164.311 421.796 164.526 444.627 177.328C455.717 183.546 466.933 195.32 477.973 200.563C494.277 208.274 517.058 203.87 534.22 198.849" stroke="url(#paint45_linear_190_19479)" stroke-width="0.863256" stroke-miterlimit="10"/>
<path id="Vector_48" d="M0.819077 196.361C27.2004 174.101 48.0342 169.799 62.612 170.334C88.632 171.29 96.9763 187.742 122.509 186.67C149.372 185.541 158.523 171.995 182.028 166.457C196.023 163.16 230.931 161.474 258.984 176.978C278.455 187.741 289.312 204.666 314.711 204.112C338.792 203.587 350.928 190.655 381.811 174.763C398.491 166.18 418.695 166.342 442.088 179.47C453.444 185.844 464.922 197.993 476.206 203.281C492.99 211.145 516.536 206.309 534.208 200.789" stroke="url(#paint46_linear_190_19479)" stroke-width="0.863256" stroke-miterlimit="10"/>
<path id="Vector_49" d="M0.81506 196.499C13.5109 187.14 25.3433 180.89 35.8088 176.711C47.4916 172.044 57.0883 170.556 65.4848 170.828C90.9225 171.65 99.2966 187.663 124.087 186.856C150.195 186.021 159.278 173.231 182.296 168.023C195.611 165.011 226.364 163.236 253.534 174.673C255.459 175.483 257.354 176.363 259.222 177.311C269.387 182.454 277.31 189.105 286.165 194.625C294.234 199.654 302.881 203.635 314.823 203.715C333.475 203.84 344.986 196.393 364.681 185.672C369.82 182.875 375.444 179.882 381.821 176.776C391.535 172.045 402.304 170.111 414.058 171.501C422.843 172.54 432.168 175.352 442.085 180.596C452.354 186.026 462.681 196.333 473.046 202.221C474.162 202.858 475.279 203.442 476.397 203.962C492.961 211.688 516.232 207.246 534.221 201.952" stroke="url(#paint47_linear_190_19479)" stroke-width="0.863256" stroke-miterlimit="10"/>
<path id="Vector_50" d="M0.805138 196.647C13.9744 188.242 26.6061 182.202 37.7663 177.753C49.8145 172.945 59.3802 171.076 68.3507 171.331C93.2027 172.034 101.611 187.595 125.657 187.05C151.011 186.509 160.032 174.487 182.558 169.597C196.124 166.653 226.323 164.776 253.745 175.239C255.679 175.977 257.578 176.786 259.451 177.651C269.662 182.344 277.715 188.392 286.711 193.826C294.79 198.707 303.239 202.899 314.925 203.326C333.101 203.991 344.544 197.344 364.491 187.237C369.736 184.579 375.425 181.741 381.822 178.798C391.663 174.272 402.448 172.443 414.097 173.578C422.904 174.436 432.189 176.824 442.074 181.732C452.382 186.849 462.701 197.028 473.231 202.927C474.344 203.556 475.46 204.135 476.58 204.652C492.927 212.238 515.921 208.191 534.228 203.123" stroke="url(#paint48_linear_190_19479)" stroke-width="0.863256" stroke-miterlimit="10"/>
<path id="Vector_51" d="M0.793324 196.792C14.436 189.341 27.8661 183.511 39.7219 178.791C52.1346 173.843 61.6704 171.596 71.2147 171.831C95.48 172.43 103.923 187.523 127.226 187.242C151.825 186.994 160.793 175.749 182.817 171.168C196.638 168.294 226.271 166.316 253.955 175.803C255.898 176.469 257.8 177.205 259.68 177.989C269.937 182.231 278.115 187.675 287.256 193.024C295.344 197.756 303.593 202.158 315.027 202.934C332.721 204.135 344.11 198.294 364.302 188.798C369.655 186.28 375.408 183.596 381.823 180.816C391.796 176.496 402.595 174.769 414.136 175.651C422.967 176.327 432.214 178.291 442.063 182.863C452.413 187.668 462.745 197.697 473.416 203.629C474.528 204.248 475.642 204.824 476.763 205.338C492.89 212.784 515.61 209.133 534.233 204.29" stroke="url(#paint49_linear_190_19479)" stroke-width="0.863256" stroke-miterlimit="10"/>
<path id="Vector_52" d="M0.787183 196.948C14.9033 190.45 29.1327 184.83 41.6843 179.839C54.4624 174.751 63.9662 172.125 74.0854 172.342C97.763 172.846 106.241 187.462 128.802 187.445C152.645 187.49 161.566 177.034 183.085 172.751C197.161 169.95 226.218 167.868 254.172 176.38C256.122 176.974 258.027 177.64 259.915 178.339C270.205 182.149 278.521 186.973 287.808 192.234C295.901 196.82 303.95 201.428 315.137 202.555C332.345 204.289 343.692 199.26 364.119 190.373C369.584 187.996 375.4 185.465 381.83 182.848C391.936 178.734 402.75 177.105 414.181 177.738C423.039 178.228 432.247 179.77 442.057 184.007C452.454 188.498 462.775 198.394 473.604 204.345C474.714 204.956 475.827 205.526 476.95 206.037C492.858 213.345 515.303 210.089 534.244 205.472" stroke="url(#paint50_linear_190_19479)" stroke-width="0.863256" stroke-miterlimit="10"/>
<path id="Vector_53" d="M0.783166 197.103C15.3727 191.56 30.4015 186.149 43.6477 180.888C56.7903 175.659 66.2641 172.658 76.9572 172.852C100.047 173.272 108.561 187.363 130.378 187.646C153.468 187.946 162.345 178.327 183.352 174.333C197.69 171.606 226.156 169.423 254.389 176.954C256.347 177.476 258.257 178.069 260.15 178.686C270.486 182.05 278.925 186.268 288.359 191.442C296.455 195.882 304.305 200.693 315.246 202.173C331.963 204.435 343.281 200.226 363.937 191.944C369.513 189.709 375.394 187.333 381.837 184.877C392.082 180.97 402.909 179.435 414.228 179.822C423.113 180.126 432.287 181.245 442.053 185.149C452.501 189.326 462.807 199.09 473.796 205.058C474.904 205.66 476.016 206.223 477.139 206.734C492.851 213.878 514.997 211.041 534.256 206.65" stroke="url(#paint51_linear_190_19479)" stroke-width="0.863256" stroke-miterlimit="10"/>
<path id="Vector_54" d="M0.769225 197.27C15.8322 192.68 31.6603 187.48 45.6012 181.948C59.1092 176.579 68.551 173.202 79.8191 173.373C102.32 173.717 110.872 187.307 131.944 187.859C154.28 188.446 163.12 179.641 183.609 175.925C198.209 173.277 226.074 170.992 254.595 177.539C256.56 177.99 258.475 178.511 260.376 179.045C270.757 181.962 279.316 185.575 288.901 190.66C296.999 194.957 304.648 199.966 315.344 201.802C331.569 204.588 342.866 201.207 363.745 193.527C369.434 191.434 375.38 189.213 381.835 186.916C392.219 183.219 403.06 182.094 414.264 181.916C423.178 181.776 432.32 182.729 442.039 186.302C452.542 190.163 462.829 199.797 473.977 205.781C475.083 206.375 476.195 206.933 477.32 207.441C492.816 214.442 514.684 212.003 534.259 207.837" stroke="url(#paint52_linear_190_19479)" stroke-width="0.863256" stroke-miterlimit="10"/>
<path id="Vector_55" d="M0.763318 197.87C16.2997 194.235 32.9272 189.243 47.5627 183.442C61.4352 177.933 70.8598 173.887 82.689 174.33C104.574 175.149 113.191 187.685 133.518 188.508C155.101 189.381 163.908 181.401 183.874 177.953C198.741 175.387 225.993 173.002 254.811 178.561C256.781 178.941 258.703 179.388 260.609 179.84C271.038 182.31 279.713 185.321 289.451 190.316C297.548 194.47 304.996 199.671 315.452 201.868C331.18 205.172 342.467 202.63 363.56 195.546C369.366 193.597 375.377 191.532 381.84 189.392C392.368 185.907 403.236 184.894 414.307 184.448C423.239 184.088 432.365 184.648 442.032 187.892C452.595 191.435 462.856 200.943 474.165 206.941C475.268 207.527 476.379 208.08 477.505 208.585C492.785 215.444 514.375 213.403 534.267 209.464" stroke="url(#paint53_linear_190_19479)" stroke-width="0.863256" stroke-miterlimit="10"/>
<path id="Vector_56" d="M0.753396 198.501C16.7632 195.82 34.1901 191.038 49.5213 184.966C63.7592 179.317 73.1518 174.869 85.5559 175.316C106.854 176.083 115.508 188.095 135.09 189.186C155.921 190.347 164.698 183.198 184.138 180.011C199.272 177.53 225.903 175.049 255.024 179.612C257.001 179.922 258.929 180.295 260.841 180.664C271.316 182.688 280.107 185.097 289.998 190C298.093 194.013 305.341 199.403 315.556 201.963C330.788 205.779 342.071 204.086 363.373 197.595C369.296 195.79 375.372 193.881 381.843 191.898C392.517 188.625 403.378 187.339 414.349 187.008C423.326 186.738 432.411 186.593 442.022 189.509C452.648 192.733 462.88 202.116 474.35 208.13C475.451 208.707 476.561 209.255 477.69 209.758C492.753 216.475 514.065 214.832 534.275 211.118" stroke="url(#paint54_linear_190_19479)" stroke-width="0.863256" stroke-miterlimit="10"/>
<path id="Vector_57" d="M0.74725 199.119C17.2294 197.391 35.4567 192.819 51.4826 186.477C66.086 180.687 75.4465 175.844 88.4256 176.288C109.135 176.998 117.827 188.49 136.664 189.85C156.743 191.3 165.493 184.99 184.403 182.055C199.808 179.663 225.809 177.088 255.239 180.648C257.222 180.887 259.157 181.187 261.075 181.474C271.599 183.05 280.501 184.861 290.548 189.67C298.639 193.543 305.689 199.116 315.664 202.043C330.398 206.366 341.684 205.534 363.189 199.629C369.232 197.97 375.372 196.217 381.848 194.388C392.671 191.332 403.539 190.117 414.393 189.555C423.404 189.087 432.465 188.522 442.016 191.114C452.71 194.016 462.907 203.276 474.539 209.306C475.637 209.875 476.747 210.416 477.876 210.917C492.721 217.494 513.757 216.247 534.284 212.759" stroke="url(#paint55_linear_190_19479)" stroke-width="0.863256" stroke-miterlimit="10"/>
<path id="Vector_58" d="M0.741345 199.737C17.6969 198.963 36.7236 194.601 53.4441 187.988C68.412 182.058 77.7404 176.826 91.2955 177.262C111.419 177.909 120.148 188.888 138.239 190.515C157.565 192.254 166.293 186.792 184.669 184.099C200.346 181.802 225.712 179.135 255.455 181.685C257.442 181.856 259.386 182.08 261.309 182.284C271.881 183.412 280.892 184.626 291.098 189.341C299.183 193.077 306.037 198.827 315.771 202.124C330.009 206.948 341.3 206.988 363.004 201.664C369.167 200.152 375.373 198.556 381.853 196.88C392.827 194.043 403.701 192.892 414.436 192.101C423.48 191.435 432.521 190.448 442.009 192.719C452.774 195.295 462.932 204.439 474.727 210.481C475.823 211.042 476.932 211.579 478.064 212.077C492.691 218.513 513.45 217.662 534.294 214.4" stroke="url(#paint56_linear_190_19479)" stroke-width="0.863256" stroke-miterlimit="10"/>
<path id="Vector_59" d="M0.73544 200.342C18.1645 200.522 37.9905 196.369 55.4067 189.486C70.74 183.415 80.0343 177.8 94.1665 178.222C113.703 178.803 122.468 189.272 139.815 191.167C158.39 193.196 167.097 188.588 184.935 186.13C200.887 183.933 225.613 181.177 255.671 182.71C257.663 182.811 259.615 182.959 261.543 183.082C272.165 183.76 281.283 184.381 291.649 188.999C299.726 192.597 306.387 198.52 315.879 202.193C329.623 207.511 340.921 208.435 362.821 203.686C369.104 202.323 375.375 200.883 381.86 199.359C392.987 196.742 403.864 195.651 414.481 194.635C423.559 193.766 432.581 192.357 442.004 194.31C452.844 196.557 462.96 205.587 474.918 211.642C476.01 212.196 477.12 212.727 478.252 213.221C492.661 219.518 513.145 219.062 534.305 216.026" stroke="url(#paint57_linear_190_19479)" stroke-width="0.863256" stroke-miterlimit="10"/>
<path id="Vector_60" d="M0.725278 200.937C18.6277 202.071 39.2531 198.127 57.364 190.974C73.0617 184.763 82.3228 178.774 97.0321 179.171C115.982 179.683 124.786 189.648 141.384 191.808C159.208 194.128 167.897 190.381 185.197 188.151C201.427 186.059 225.508 183.218 255.882 183.723C257.879 183.757 259.839 183.828 261.774 183.869C272.444 184.098 281.667 184.127 292.196 188.647C300.264 192.11 306.736 198.199 315.983 202.251C329.238 208.057 340.541 209.877 362.634 205.697C369.04 204.485 375.377 203.202 381.863 201.827C393.144 199.435 404.023 198.396 414.522 197.159C423.633 196.085 432.641 194.252 441.994 195.892C452.911 197.806 462.979 206.728 475.102 212.796C476.192 213.341 477.301 213.866 478.436 214.359C492.625 220.516 512.833 220.456 534.312 217.645" stroke="url(#paint58_linear_190_19479)" stroke-width="0.863256" stroke-miterlimit="10"/>
<path id="Vector_61" d="M0.715356 201.519C19.0912 203.607 40.516 199.873 59.3214 192.449C75.3847 186.098 84.6116 179.742 99.899 180.109C118.262 180.55 127.103 190.013 142.956 192.437C160.028 195.049 168.701 192.171 185.459 190.16C201.968 188.18 225.404 185.254 256.094 184.725C258.096 184.691 260.064 184.685 262.004 184.644C272.724 184.421 282.049 183.863 292.742 188.282C300.8 191.612 307.088 197.863 316.088 202.296C328.857 208.587 340.163 211.313 362.447 207.696C368.975 206.637 375.378 205.511 381.865 204.283C393.302 202.119 404.182 201.125 414.564 199.669C423.705 198.387 432.701 196.13 441.985 197.461C452.981 199.037 463 207.856 475.289 213.936C476.376 214.473 477.484 214.993 478.62 215.483C492.591 221.501 512.524 221.835 534.319 219.25" stroke="url(#paint59_linear_190_19479)" stroke-width="0.863256" stroke-miterlimit="10"/>
<path id="Vector_62" d="M0.70945 202.09C19.5587 205.132 41.7829 201.608 61.283 193.913C77.7107 187.423 86.9034 180.708 102.769 181.035C120.545 181.401 129.424 190.367 144.531 193.056C160.851 195.96 169.511 193.956 185.725 192.158C202.514 190.297 225.306 187.288 256.31 185.716C258.317 185.614 260.294 185.531 262.238 185.41C273.006 184.735 282.433 183.592 293.292 187.908C301.338 191.106 307.448 197.514 316.194 202.332C328.484 209.103 339.787 212.744 362.261 209.686C368.913 208.781 375.381 207.812 381.87 206.73C393.464 204.796 404.34 203.842 414.607 202.171C423.78 200.679 432.766 197.995 441.978 199.021C453.055 200.254 463.023 208.977 475.478 215.066C476.561 215.596 477.67 216.11 478.808 216.597C492.558 222.477 512.217 223.206 534.33 220.847" stroke="url(#paint60_linear_190_19479)" stroke-width="0.863256" stroke-miterlimit="10"/>
<path id="Vector_63" d="M0.699525 202.647C20.0222 206.643 43.0458 203.328 63.2416 195.363C80.0347 188.732 89.1933 181.671 105.636 181.947C122.827 182.236 131.741 190.708 146.102 193.66C161.671 196.859 170.317 195.734 185.988 194.143C203.059 192.409 225.211 189.316 256.523 186.694C258.535 186.525 260.52 186.363 262.469 186.16C273.286 185.033 282.815 183.308 293.84 187.518C301.873 190.586 307.811 197.146 316.299 202.353C328.116 209.6 339.409 214.168 362.075 211.66C368.848 210.911 375.384 210.099 381.873 209.161C393.624 207.462 404.495 206.54 414.648 204.658C423.85 202.951 432.828 199.841 441.968 200.565C453.126 201.449 463.041 210.081 475.662 216.181C476.743 216.703 477.85 217.211 478.991 217.695C492.522 223.437 511.905 224.558 534.336 222.425" stroke="url(#paint61_linear_190_19479)" stroke-width="0.863256" stroke-miterlimit="10"/>
<path id="Vector_64" d="M0.689603 203.199C20.4857 208.149 44.3086 205.044 65.1991 196.808C82.3566 190.038 91.481 182.639 108.502 182.854C125.106 183.064 134.058 191.046 147.673 194.258C162.49 197.754 171.124 197.512 186.25 196.121C203.604 194.523 225.118 191.345 256.734 187.664C258.752 187.43 260.744 187.189 262.7 186.904C273.565 185.324 283.193 183.02 294.386 187.122C302.406 190.062 308.176 196.771 316.403 202.368C327.753 210.089 339.03 215.589 361.887 213.629C368.783 213.037 375.385 212.382 381.875 211.586C393.783 210.125 404.646 209.23 414.689 207.138C423.918 205.215 432.888 201.675 441.958 202.103C453.196 202.634 463.059 211.182 475.848 217.291C476.925 217.805 478.032 218.308 479.175 218.789C492.485 224.394 511.595 225.908 534.342 224.001" stroke="url(#paint62_linear_190_19479)" stroke-width="0.863256" stroke-miterlimit="10"/>
<path id="Vector_65" d="M0.685586 203.722C20.9541 209.626 45.5774 206.731 67.1625 198.225C84.6855 191.313 93.7768 183.96 111.374 183.733C127.389 183.525 136.379 191.357 149.25 194.828C163.314 198.622 171.937 199.269 186.517 198.07C204.156 196.619 225.037 193.351 256.952 188.607C258.976 188.307 260.974 187.986 262.935 187.621C273.847 185.587 283.574 182.708 294.938 186.7C302.943 189.512 308.553 196.367 316.512 202.355C327.404 210.549 338.654 216.988 361.705 215.57C368.723 215.138 375.392 214.639 381.883 213.984C393.948 212.764 404.803 211.89 414.735 209.591C423.989 207.449 432.957 203.829 441.954 203.614C453.267 203.344 463.082 212.256 476.039 218.372C477.114 218.879 478.221 219.377 479.365 219.855C492.454 225.323 511.291 227.23 534.356 225.548" stroke="url(#paint63_linear_190_19479)" stroke-width="0.863256" stroke-miterlimit="10"/>
<path id="Vector_66" d="M0.675427 204.287C21.4173 211.146 46.84 208.46 69.1208 199.684C87.0093 192.632 96.0696 184.938 114.24 184.654C129.667 184.412 138.695 191.712 150.821 195.441C164.131 199.534 172.745 201.075 186.78 200.063C204.702 198.769 224.957 195.406 257.164 189.593C259.194 189.226 261.199 188.826 263.165 188.379C274.124 185.891 283.95 182.439 295.484 186.318C303.475 189.005 308.929 196.004 316.616 202.384C327.056 211.05 338.27 218.435 361.518 217.552C368.656 217.281 375.392 216.941 381.885 216.423C394.107 215.45 404.95 214.589 414.776 212.085C424.052 209.721 433.032 205.626 441.945 205.166C453.311 204.58 463.099 213.371 476.225 219.495C477.296 219.994 478.402 220.486 479.548 220.961C492.415 226.293 510.98 228.592 534.362 227.135" stroke="url(#paint64_linear_190_19479)" stroke-width="0.863256" stroke-miterlimit="10"/>
<path id="Vector_67" d="M0.665504 205.327C21.8808 213.139 48.1029 210.663 71.0784 201.616C89.3313 194.424 98.3605 186.394 117.106 186.048C131.944 185.774 141.007 192.542 152.391 196.527C164.945 200.922 173.549 203.36 187.041 202.528C205.248 201.405 224.884 197.938 257.375 191.051C259.413 190.619 261.423 190.138 263.396 189.611C274.4 186.669 284.325 182.648 296.031 186.41C304.007 188.974 309.313 196.114 316.72 202.887C326.714 212.024 337.883 220.358 361.329 220.009C368.589 219.9 375.392 219.717 381.887 219.336C394.264 218.611 405.095 217.76 414.817 215.054C424.112 212.466 433.065 207.631 441.934 207.193C453.4 206.627 463.114 214.963 476.41 221.092C477.477 221.584 478.583 222.07 479.732 222.542C492.378 227.739 510.669 230.428 534.368 229.198" stroke="url(#paint65_linear_190_19479)" stroke-width="0.863256" stroke-miterlimit="10"/>
<path id="Vector_68" d="M0.659598 206.376C22.3483 215.142 49.3698 212.876 73.0398 203.558C91.6583 196.226 100.657 187.865 119.976 187.452C134.226 187.147 143.321 193.383 153.965 197.623C165.761 202.321 174.358 205.66 187.307 205.003C205.798 204.065 224.823 200.484 257.59 192.519C259.636 192.022 261.649 191.459 263.629 190.853C274.67 187.442 284.701 182.869 296.581 186.512C304.54 188.954 309.702 196.235 316.827 203.399C326.383 213.008 337.495 222.296 361.145 222.475C368.523 222.53 375.395 222.504 381.892 222.259C394.422 221.786 405.238 220.939 414.86 218.031C424.172 215.217 433.119 209.947 441.927 209.229C453.46 208.287 463.132 216.564 476.598 222.699C477.662 223.184 478.766 223.665 479.918 224.133C492.328 229.212 510.361 232.275 534.377 231.27" stroke="url(#paint66_linear_190_19479)" stroke-width="0.863256" stroke-miterlimit="10"/>
<path id="Vector_69" d="M0.649674 207.418C22.8118 217.138 50.6326 215.081 74.9974 205.494C93.9802 198.022 102.95 189.337 122.842 188.85C136.504 188.515 145.629 194.22 155.536 198.713C166.571 203.717 175.16 207.96 187.568 207.473C206.343 206.736 224.766 203.028 257.802 193.982C259.855 193.42 261.872 192.777 263.859 192.089C274.945 188.228 285.073 183.086 297.127 186.608C305.07 188.93 310.093 196.349 316.93 203.905C326.054 213.988 337.1 224.231 360.956 224.935C368.453 225.155 375.391 225.287 381.894 225.176C394.576 224.959 405.376 224.11 414.9 221.004C424.225 217.961 433.165 212.257 441.917 211.259C453.513 209.937 463.13 218.179 476.783 224.3C477.842 224.779 478.948 225.254 480.102 225.718C492.292 230.658 510.05 234.116 534.384 233.338" stroke="url(#paint67_linear_190_19479)" stroke-width="0.863256" stroke-miterlimit="10"/>
<path id="Vector_70" d="M0.639516 208.46C23.2751 219.134 51.8953 217.287 76.9557 207.429C96.3041 199.816 105.244 190.815 125.709 190.247C138.783 189.883 147.934 195.057 157.107 199.801C167.377 205.112 175.96 210.263 187.831 209.941C206.886 209.424 224.717 205.572 258.014 195.443C260.075 194.815 262.097 194.092 264.09 193.323C275.223 189.012 285.446 183.306 297.674 186.703C305.602 188.906 310.49 196.464 317.036 204.411C325.731 214.969 336.702 226.168 360.77 227.394C368.383 227.782 375.389 228.071 381.898 228.092C394.729 228.134 405.513 227.28 414.942 223.975C424.278 220.703 433.207 214.562 441.909 213.288C453.562 211.581 463.152 219.767 476.97 225.9C478.027 226.371 479.132 226.839 480.287 227.301C492.259 232.102 509.741 235.956 534.392 235.402" stroke="url(#paint68_linear_190_19479)" stroke-width="0.863256" stroke-miterlimit="10"/>
<path id="Vector_71" d="M0.633607 209.501C23.7426 221.129 53.1622 219.492 78.9172 209.363C98.63 201.61 107.542 192.301 128.579 191.642C155.116 190.812 166.681 212.715 188.097 212.408C207.432 212.131 224.68 208.116 258.23 196.903C271.88 192.341 283.605 182.944 298.225 186.797C316.612 191.642 317.959 226.789 360.587 229.851C383.712 231.512 400.96 232.205 414.988 226.944C424.33 223.44 433.248 216.864 441.903 215.315C453.606 213.22 463.177 221.353 477.159 227.497C488.914 232.663 506.976 237.824 534.402 237.465" stroke="url(#paint69_linear_190_19479)" stroke-width="0.863256" stroke-miterlimit="10"/>
<path id="Vector_72" d="M0.607621 211.35C24.2285 222.704 53.4204 220.604 78.7854 210.491C84.6022 208.158 89.4807 205.707 93.9937 203.42C104.91 197.893 113.58 193.022 128.29 192.589C139.729 192.275 147.96 196.604 156.387 201.183C167.82 207.442 177.972 214.203 191.154 213.835C210.704 213.29 227.906 209.284 260.476 198.25C274.02 193.661 285.538 184.468 299.929 187.966C307.471 189.798 312.226 196.603 318.323 204.2C327.028 215.043 337.917 227.553 362.362 229.595C384.897 231.439 401.878 232.458 415.877 227.614C425.124 224.416 433.952 218.209 442.596 216.793C444.466 216.487 446.279 216.428 448.069 216.579C457.436 217.376 466.023 223.745 477.647 228.642C489.641 233.695 507.662 238.516 534.402 238.104" stroke="url(#paint70_linear_190_19479)" stroke-width="0.863256" stroke-miterlimit="10"/>
<path id="Vector_73" d="M0.585885 213.207C24.7187 224.287 53.7161 221.766 78.6579 211.627C84.4672 209.265 89.3297 206.782 93.8203 204.511C104.861 198.934 113.398 193.918 128.004 193.543C139.858 193.238 147.902 198.321 157.099 203.219C169.247 209.689 180.368 215.833 194.214 215.271C213.976 214.47 231.132 210.457 262.724 199.605C276.163 194.989 287.478 185.999 301.636 189.143C309.121 190.805 313.943 197.236 320.238 204.476C329.286 214.88 340.248 227.1 364.142 229.349C386.078 231.413 402.79 232.72 416.771 228.294C425.915 225.4 434.657 219.562 443.293 218.281C445.139 218.007 446.932 217.961 448.705 218.117C458.062 218.965 466.62 225.148 478.137 229.796C490.376 234.735 508.35 239.217 534.404 238.752" stroke="url(#paint71_linear_190_19479)" stroke-width="0.863256" stroke-miterlimit="10"/>
<path id="Vector_74" d="M0.559894 215.064C25.2046 225.869 53.9893 222.902 78.5261 212.762C84.3247 210.365 89.1744 207.857 93.6415 205.602C104.805 199.977 113.211 194.832 127.714 194.497C139.982 194.214 147.825 200.05 157.807 205.255C170.651 211.954 182.759 217.468 197.271 216.707C217.245 215.661 234.354 211.625 264.969 200.961C278.302 196.317 289.419 187.528 303.34 190.32C310.77 191.81 315.662 197.869 322.15 204.751C331.546 214.719 342.58 226.625 365.917 229.101C387.26 231.366 403.691 232.98 417.661 228.973C426.699 226.38 435.359 220.912 443.986 219.767C445.809 219.525 447.582 219.489 449.337 219.655C458.687 220.538 467.221 226.544 478.625 230.948C491.115 235.772 509.035 239.917 534.404 239.4" stroke="url(#paint72_linear_190_19479)" stroke-width="0.863256" stroke-miterlimit="10"/>
<path id="Vector_75" d="M0.533906 216.925C25.6905 227.458 54.2615 224.043 78.3933 213.902C84.1801 211.47 89.018 208.937 93.4627 206.698C104.75 201.022 113.025 195.751 127.424 195.455C140.108 195.195 147.747 201.785 158.514 207.295C172.052 214.224 185.147 219.111 200.326 218.147C220.511 216.865 237.571 212.794 267.213 202.321C280.44 197.647 291.363 189.058 305.042 191.501C312.42 192.819 317.385 198.506 324.059 205.031C333.811 214.564 344.907 226.154 367.691 228.858C388.438 231.321 404.581 233.243 418.549 229.656C427.475 227.364 436.056 222.266 444.677 221.258C446.477 221.048 448.229 221.023 449.966 221.196C459.307 222.126 467.825 227.939 479.11 232.104C491.856 236.809 509.718 240.62 534.401 240.051" stroke="url(#paint73_linear_190_19479)" stroke-width="0.863256" stroke-miterlimit="10"/>
<path id="Vector_76" d="M0.510041 218.785C26.1796 229.044 54.5337 225.179 78.2636 215.041C84.0376 212.574 88.8638 210.016 93.2859 207.791C104.696 202.067 112.841 196.67 127.136 196.412C140.236 196.175 147.67 203.519 159.223 209.334C173.454 216.495 187.539 220.759 203.384 219.585C223.781 218.076 240.79 213.956 269.46 203.678C282.58 198.974 293.314 190.583 306.747 192.68C314.075 193.824 319.118 199.142 325.973 205.309C336.089 214.408 347.238 225.678 369.469 228.613C389.62 231.274 405.467 233.503 419.442 230.338C428.25 228.343 436.757 223.617 445.373 222.748C447.15 222.569 448.882 222.557 450.601 222.737C459.933 223.713 468.442 229.329 479.6 233.261C492.608 237.844 510.406 241.323 534.403 240.701" stroke="url(#paint74_linear_190_19479)" stroke-width="0.863256" stroke-miterlimit="10"/>
<path id="Vector_77" d="M0.488069 220.652C26.6695 230.637 54.8077 226.32 78.1358 216.187C83.8981 213.684 88.7125 211.102 93.1122 208.892C104.646 203.119 112.659 197.599 126.85 197.376C140.365 197.164 147.593 205.262 159.935 211.38C174.855 218.775 189.932 222.417 206.445 221.031C227.053 219.302 244.008 215.123 271.71 205.044C284.723 200.309 295.272 192.113 308.457 193.867C315.737 194.836 320.861 199.786 327.889 205.594C338.378 214.261 349.573 225.21 371.25 228.376C390.804 231.232 406.347 233.766 420.337 231.026C429.022 229.326 437.458 224.973 446.071 224.244C447.823 224.096 449.535 224.097 451.238 224.284C460.56 225.308 469.065 230.72 480.092 234.423C493.367 238.881 511.095 242.032 534.406 241.358" stroke="url(#paint75_linear_190_19479)" stroke-width="0.863256" stroke-miterlimit="10"/>
<path id="Vector_78" d="M0.462079 222.518C27.1554 232.228 55.0745 227.457 78.004 217.331C83.7535 214.792 88.5572 212.186 92.9345 209.992C104.592 204.17 112.474 198.528 126.561 198.339C140.492 198.152 147.512 207.005 160.644 213.424C176.253 221.054 192.322 224.079 209.501 222.475C230.321 220.531 247.22 216.282 273.954 206.407C286.86 201.639 297.229 193.637 310.159 195.052C317.393 195.844 322.602 200.426 329.8 205.878C340.67 214.111 351.9 224.738 373.024 228.136C391.982 231.187 407.213 234.022 421.227 231.713C429.785 230.303 438.155 226.326 446.764 225.739C448.492 225.621 450.186 225.636 451.87 225.83C461.184 226.901 469.689 232.103 480.579 235.583C494.125 239.913 511.781 242.74 534.405 242.013" stroke="url(#paint76_linear_190_19479)" stroke-width="0.863256" stroke-miterlimit="10"/>
<path id="Vector_79" d="M0.436091 224.393C27.6413 233.83 55.3403 228.603 77.8722 218.485C83.6089 215.91 88.4019 213.28 92.7557 211.102C104.536 205.23 112.288 199.468 126.271 199.312C140.617 199.152 147.429 208.758 161.351 215.479C177.647 223.345 194.711 225.755 212.557 223.93C233.59 221.778 250.429 217.448 276.199 207.781C288.996 202.98 299.189 195.167 311.862 196.248C319.053 196.862 324.352 201.076 331.71 206.171C342.972 213.97 354.227 224.274 374.798 227.908C393.159 231.151 408.071 234.283 422.115 232.411C430.54 231.287 438.847 227.689 447.455 227.245C449.16 227.157 450.833 227.186 452.499 227.386C461.803 228.505 470.315 233.492 481.064 236.755C494.888 240.952 512.464 243.459 534.401 242.679" stroke="url(#paint77_linear_190_19479)" stroke-width="0.863256" stroke-miterlimit="10"/>
<path id="Vector_80" d="M0.410336 226.267C28.1275 235.43 55.6052 229.744 77.7407 219.638C83.4634 217.025 88.2457 214.372 92.5781 212.209C104.482 206.289 112.103 200.407 125.983 200.283C140.744 200.15 147.347 210.512 162.06 217.532C179.044 225.636 197.104 227.434 215.615 225.382C236.861 223.027 253.637 218.608 278.445 209.153C291.135 204.317 301.155 196.691 313.567 197.442C320.718 197.875 326.112 201.723 333.624 206.464C345.286 213.826 356.557 223.808 376.576 227.678C394.34 231.112 408.927 234.537 423.007 233.107C431.297 232.265 439.542 229.047 448.151 228.748C449.831 228.689 451.485 228.734 453.134 228.941C462.429 230.108 470.952 234.875 481.553 237.925C495.66 241.983 513.151 244.175 534.402 243.344" stroke="url(#paint78_linear_190_19479)" stroke-width="0.863256" stroke-miterlimit="10"/>
<path id="Vector_81" d="M0.38435 228.16C28.6134 237.048 55.8689 230.903 77.6089 220.809C83.3188 218.158 88.0905 215.484 92.4004 213.336C104.427 207.366 111.919 201.366 125.693 201.273C140.87 201.169 147.263 212.284 162.767 219.604C180.437 227.945 199.496 229.136 218.671 226.854C240.132 224.3 256.841 219.783 280.69 210.544C293.27 205.671 303.121 198.228 315.27 198.654C322.38 198.904 327.875 202.384 335.535 206.775C347.609 213.695 358.883 223.357 378.351 227.466C395.517 231.089 409.773 234.802 423.897 233.822C432.047 233.256 440.236 230.422 448.843 230.271C450.498 230.242 452.133 230.3 453.765 230.514C463.051 231.73 471.588 236.27 482.04 239.114C496.433 243.029 513.835 244.911 534.401 244.028" stroke="url(#paint79_linear_190_19479)" stroke-width="0.863256" stroke-miterlimit="10"/>
<path id="Vector_82" d="M0.364266 230.048C29.1063 238.662 56.1352 232.054 77.483 221.977C83.1791 219.287 87.9411 216.591 92.2275 214.458C104.378 208.439 111.738 202.188 125.409 202.258C141.002 202.337 147.184 214.052 163.48 221.67C181.836 230.251 201.894 230.836 221.733 228.321C243.41 225.572 260.047 220.949 282.94 211.931C295.408 207.019 305.115 200.376 316.978 199.862C324.037 199.557 329.65 203.039 337.45 207.082C349.943 213.557 361.215 222.9 380.131 227.25C396.699 231.059 410.621 235.053 424.791 234.531C432.799 234.237 440.941 232.074 449.54 231.788C451.169 231.734 452.787 231.862 454.401 232.083C463.677 233.348 472.232 237.656 482.532 240.297C497.215 244.062 514.525 245.642 534.404 244.705" stroke="url(#paint80_linear_190_19479)" stroke-width="0.863256" stroke-miterlimit="10"/>
<path id="Vector_83" d="M0.338513 231.951C29.5924 240.292 56.3948 233.22 77.3504 223.159C83.0315 220.432 87.7839 217.713 92.0489 215.596C104.323 209.528 111.552 203.164 125.119 203.259C141.128 203.37 147.099 215.837 164.189 223.753C183.229 232.573 204.289 232.556 224.789 229.803C246.684 226.863 263.244 222.126 285.185 213.333C297.542 208.38 307.119 201.916 318.683 201.086C325.683 200.585 331.426 203.704 339.363 207.404C352.284 213.427 363.544 222.457 381.908 227.049C397.88 231.044 411.55 236.373 425.683 235.257C433.5 234.64 441.627 233.173 450.235 233.321C451.842 233.349 453.438 233.44 455.035 233.667C464.301 234.982 472.878 239.052 483.02 241.496C497.998 245.104 515.211 246.387 534.404 245.398" stroke="url(#paint81_linear_190_19479)" stroke-width="0.863256" stroke-miterlimit="10"/>
<path id="Vector_84" d="M0.312523 233.828C30.0783 241.895 56.653 234.357 77.2186 224.314C82.8847 221.548 87.6286 218.808 91.8701 216.707C104.268 210.59 111.367 204.116 124.828 204.232C141.251 204.375 147.012 217.595 164.895 225.809C184.62 234.868 206.683 234.252 227.844 231.259C249.957 228.13 266.438 223.271 287.429 214.708C299.672 209.713 309.033 202.799 320.385 202.283C327.38 201.964 333.205 204.337 341.272 207.699C354.628 213.263 365.871 221.983 383.681 226.821C399.057 230.999 412.317 236.598 426.57 235.956C434.283 235.609 442.317 234.526 450.925 234.828C452.507 234.883 454.086 234.992 455.664 235.224C464.921 236.589 473.52 240.416 483.505 242.668C498.781 246.113 515.893 247.107 534.402 246.065" stroke="url(#paint82_linear_190_19479)" stroke-width="0.863256" stroke-miterlimit="10"/>
<path id="Vector_85" d="M0.286534 235.731C30.5642 243.524 56.9081 235.517 77.0868 225.496C82.7369 222.689 87.4733 219.93 91.6924 217.843C104.213 211.677 111.183 205.095 124.539 205.232C141.378 205.404 146.927 219.38 165.603 227.89C186.013 237.19 209.08 235.977 230.9 232.739C253.232 229.425 269.629 224.437 289.673 216.108C301.801 211.068 311.002 204.323 322.087 203.504C329.044 202.99 334.986 204.991 343.183 208.019C356.98 213.116 368.199 221.532 385.456 226.619C400.238 230.976 413.142 235.766 427.459 236.679C435.038 237.163 443.01 235.9 451.618 236.359C453.175 236.442 454.734 236.567 456.295 236.806C465.543 238.222 474.167 241.8 483.991 243.865C499.567 247.138 516.578 247.85 534.399 246.756" stroke="url(#paint83_linear_190_19479)" stroke-width="0.863256" stroke-miterlimit="10"/>
<path id="Vector_86" d="M0.262672 237.645C31.0523 245.164 57.1642 236.689 76.9572 226.69C82.5912 223.843 87.3201 221.062 91.5168 218.992C104.161 212.777 111 206.09 124.252 206.244C141.506 206.445 146.843 221.177 166.313 229.984C187.407 239.525 211.481 237.718 233.959 234.233C256.513 230.736 272.82 225.611 291.921 217.521C303.932 212.434 312.973 205.855 323.794 204.74C330.712 204.027 336.775 205.654 345.097 208.353C359.341 212.972 370.534 221.091 387.235 226.429C401.423 230.964 413.991 236.003 428.353 237.416C435.791 238.148 443.707 237.286 452.315 237.903C453.848 238.013 455.388 238.156 456.932 238.401C466.168 239.868 474.82 243.193 484.483 245.076C500.364 248.169 517.268 248.609 534.403 247.463" stroke="url(#paint84_linear_190_19479)" stroke-width="0.863256" stroke-miterlimit="10"/>
<path id="Vector_87" d="M0.236683 239.573C31.5382 246.818 57.4172 237.871 76.8254 227.896C82.4434 225.009 87.1637 222.209 91.338 220.154C104.105 213.89 110.812 207.199 123.962 207.269C141.634 207.362 146.756 222.988 167.021 232.09C188.799 241.872 213.881 239.475 237.016 235.739C259.792 232.061 276.004 226.794 294.167 218.946C306.058 213.809 314.94 207.394 325.498 205.987C332.375 205.07 338.563 206.323 347.01 208.698C361.702 212.831 372.868 220.66 389.012 226.252C402.607 230.962 414.844 236.242 429.244 238.166C436.544 239.141 444.401 238.682 453.008 239.461C454.516 239.597 456.037 239.759 457.563 240.01C466.79 241.529 475.47 244.595 484.97 246.299C501.156 249.203 517.953 249.379 534.402 248.181" stroke="url(#paint85_linear_190_19479)" stroke-width="0.863256" stroke-miterlimit="10"/>
<path id="Vector_88" d="M0.210694 241.519C32.0251 248.49 57.6669 239.07 76.6936 229.12C82.2945 226.191 87.0084 223.373 91.1602 221.333C104.052 215.019 110.627 208.217 123.673 208.311C141.76 208.441 146.644 224.846 167.729 234.215C190.161 244.27 216.281 241.252 240.071 237.263C263.07 233.407 279.182 227.991 296.411 220.39C308.179 215.198 316.901 208.945 327.201 207.251C334.035 206.128 340.348 207.003 348.919 209.061C364.059 212.697 375.202 220.243 390.784 226.093C403.79 230.975 415.7 236.487 430.132 238.932C437.299 240.145 445.095 240.092 453.699 241.035C455.183 241.198 456.684 241.377 458.193 241.635C467.41 243.206 476.118 246.008 485.455 247.539C501.949 250.243 518.635 250.166 534.398 248.915" stroke="url(#paint86_linear_190_19479)" stroke-width="0.863256" stroke-miterlimit="10"/>
<path id="Vector_89" d="M0.188721 243.49C32.5151 250.187 57.9185 240.292 76.5658 230.371C82.1486 227.4 86.8572 224.563 90.9855 222.539C104 216.177 110.445 209.262 123.387 209.38C141.89 209.549 146.564 226.698 168.44 236.365C191.561 246.658 218.687 243.058 243.132 238.813C266.355 234.78 282.362 229.208 298.659 221.86C310.3 216.612 318.861 210.519 328.907 208.544C335.695 207.209 342.136 207.706 350.834 209.452C366.421 212.58 377.545 219.85 392.563 225.96C404.982 231.012 416.572 236.751 431.025 239.726C438.062 241.175 445.794 241.527 454.396 242.637C455.856 242.825 457.337 243.024 458.829 243.288C468.034 244.912 476.772 247.445 485.946 248.807C502.748 251.302 519.324 250.981 534.401 249.678" stroke="url(#paint87_linear_190_19479)" stroke-width="0.863256" stroke-miterlimit="10"/>
<path id="Vector_90" d="M0.162968 245.496C33.0012 251.919 58.1653 241.548 76.4343 231.655C81.9989 228.642 86.7021 225.787 90.8079 223.779C103.946 217.367 110.26 210.341 123.098 210.483C142.017 210.691 146.482 228.583 169.149 238.55C192.957 249.079 221.092 244.902 246.189 240.398C269.638 236.189 285.533 230.456 300.905 223.364C312.416 218.054 320.815 212.122 330.612 209.869C337.35 208.32 343.921 208.439 352.747 209.876C368.778 212.487 379.89 219.488 394.34 225.862C406.176 231.082 417.454 237.039 431.917 240.554C438.831 242.235 446.495 242.994 455.091 244.273C456.528 244.487 457.989 244.705 459.463 244.975C468.658 246.652 477.423 248.912 486.436 250.109C503.547 252.383 520.011 251.831 534.402 250.474" stroke="url(#paint88_linear_190_19479)" stroke-width="0.863256" stroke-miterlimit="10"/>
<path id="Vector_91" d="M0.136979 247.541C33.4871 253.69 58.4097 242.841 76.3025 232.979C81.8468 229.923 86.5457 227.051 90.6302 225.058C103.891 218.597 110.075 211.461 122.809 211.625C142.142 211.875 146.399 230.508 169.857 240.774C194.353 251.541 223.498 246.787 249.246 242.021C272.923 237.639 288.699 231.738 303.151 224.907C314.526 219.529 322.761 213.76 332.316 211.233C339.001 209.466 345.7 209.204 354.658 210.338C371.128 212.424 382.237 219.161 396.116 225.801C407.371 231.186 418.348 237.356 432.807 241.42C439.604 243.33 447.196 244.495 455.783 245.946C457.196 246.184 458.636 246.424 460.094 246.699C469.278 248.43 478.071 250.412 486.922 251.449C504.343 253.489 520.696 252.717 534.4 251.308" stroke="url(#paint89_linear_190_19479)" stroke-width="0.863256" stroke-miterlimit="10"/>
<path id="Vector_92" d="M0.113118 249.64C33.9751 255.515 58.653 244.187 76.1718 234.357C81.6957 231.257 86.3915 228.369 90.4524 226.391C103.838 219.881 109.888 212.651 122.519 212.821C142.267 213.14 146.315 232.486 170.565 243.052C195.748 254.056 225.905 248.728 252.302 243.699C276.206 239.144 291.86 233.071 305.396 226.505C316.629 221.055 324.701 215.45 334.019 212.653C340.644 210.664 347.475 210.022 356.569 210.857C373.472 212.408 384.591 218.887 397.892 225.797C408.571 231.346 419.255 237.725 433.697 242.342C440.384 244.48 447.898 246.051 456.477 247.676C457.867 247.94 459.285 248.201 460.726 248.48C469.893 250.277 478.717 251.966 487.409 252.845C505.138 254.639 521.382 253.66 534.399 252.199" stroke="url(#paint90_linear_190_19479)" stroke-width="0.863256" stroke-miterlimit="10"/>
<path id="Vector_93" d="M0.0911452 251.765C34.4651 257.366 58.8757 245.538 76.044 235.76C81.5402 232.61 86.2402 229.712 90.2787 227.75C103.787 221.19 109.707 213.842 122.234 214.042C142.398 214.393 146.237 234.49 171.278 245.355C197.148 256.596 228.332 250.732 255.363 245.401C279.509 240.706 295.02 234.424 307.645 228.126C318.728 222.598 326.636 217.162 335.728 214.096C342.288 211.885 349.25 210.861 358.485 211.399C375.813 212.408 386.956 218.634 399.672 225.817C409.78 231.527 420.181 238.112 434.592 243.287C441.175 245.652 448.608 247.627 457.175 249.429C458.543 249.717 459.94 249.998 461.363 250.284C470.521 252.131 479.366 253.538 487.902 254.264C505.935 255.798 522.071 254.626 534.404 253.112" stroke="url(#paint91_linear_190_19479)" stroke-width="0.863256" stroke-miterlimit="10"/>
<path id="Vector_94" d="M0.0651556 253.935C46.3484 261.002 73.7919 237.061 90.101 229.154C103.733 222.546 109.522 215.08 121.945 215.311C142.525 215.693 146.154 236.541 171.986 247.705C198.544 259.184 230.729 252.716 258.42 247.152C322.103 234.355 324.431 211.054 360.398 211.988C399.405 213.002 406.711 240.672 461.995 252.136C491.153 258.181 517.433 256.356 534.404 254.074" stroke="url(#paint92_linear_190_19479)" stroke-width="0.863256" stroke-miterlimit="10"/>
</g>
</g>
<defs>
<linearGradient id="paint0_linear_190_19479" x1="1.01069" y1="115.454" x2="533.831" y2="115.454" gradientUnits="userSpaceOnUse">
<stop stop-color="#2D67FF"/>
<stop offset="1" stop-color="#A238FF"/>
</linearGradient>
<linearGradient id="paint1_linear_190_19479" x1="0.996747" y1="116.688" x2="533.858" y2="116.688" gradientUnits="userSpaceOnUse">
<stop stop-color="#2D67FF"/>
<stop offset="1" stop-color="#A238FF"/>
</linearGradient>
<linearGradient id="paint2_linear_190_19479" x1="0.980683" y1="117.921" x2="533.884" y2="117.921" gradientUnits="userSpaceOnUse">
<stop stop-color="#2D67FF"/>
<stop offset="1" stop-color="#A238FF"/>
</linearGradient>
<linearGradient id="paint3_linear_190_19479" x1="0.962727" y1="119.156" x2="533.907" y2="119.156" gradientUnits="userSpaceOnUse">
<stop stop-color="#2D67FF"/>
<stop offset="1" stop-color="#A238FF"/>
</linearGradient>
<linearGradient id="paint4_linear_190_19479" x1="0.944771" y1="120.39" x2="533.929" y2="120.39" gradientUnits="userSpaceOnUse">
<stop stop-color="#2D67FF"/>
<stop offset="1" stop-color="#A238FF"/>
</linearGradient>
<linearGradient id="paint5_linear_190_19479" x1="0.92894" y1="121.626" x2="533.957" y2="121.626" gradientUnits="userSpaceOnUse">
<stop stop-color="#2D67FF"/>
<stop offset="1" stop-color="#A238FF"/>
</linearGradient>
<linearGradient id="paint6_linear_190_19479" x1="0.912873" y1="122.858" x2="533.981" y2="122.858" gradientUnits="userSpaceOnUse">
<stop stop-color="#2D67FF"/>
<stop offset="1" stop-color="#A238FF"/>
</linearGradient>
<linearGradient id="paint7_linear_190_19479" x1="0.897046" y1="124.092" x2="534.004" y2="124.092" gradientUnits="userSpaceOnUse">
<stop stop-color="#2D67FF"/>
<stop offset="1" stop-color="#A238FF"/>
</linearGradient>
<linearGradient id="paint8_linear_190_19479" x1="0.880978" y1="125.323" x2="534.031" y2="125.323" gradientUnits="userSpaceOnUse">
<stop stop-color="#2D67FF"/>
<stop offset="1" stop-color="#A238FF"/>
</linearGradient>
<linearGradient id="paint9_linear_190_19479" x1="0.861132" y1="126.563" x2="534.054" y2="126.563" gradientUnits="userSpaceOnUse">
<stop stop-color="#2D67FF"/>
<stop offset="1" stop-color="#A238FF"/>
</linearGradient>
<linearGradient id="paint10_linear_190_19479" x1="0.845067" y1="127.791" x2="534.08" y2="127.791" gradientUnits="userSpaceOnUse">
<stop stop-color="#2D67FF"/>
<stop offset="1" stop-color="#A238FF"/>
</linearGradient>
<linearGradient id="paint11_linear_190_19479" x1="0.831128" y1="129.024" x2="534.103" y2="129.024" gradientUnits="userSpaceOnUse">
<stop stop-color="#2D67FF"/>
<stop offset="1" stop-color="#A238FF"/>
</linearGradient>
<linearGradient id="paint12_linear_190_19479" x1="0.813168" y1="130.261" x2="534.127" y2="130.261" gradientUnits="userSpaceOnUse">
<stop stop-color="#2D67FF"/>
<stop offset="1" stop-color="#A238FF"/>
</linearGradient>
<linearGradient id="paint13_linear_190_19479" x1="0.799229" y1="131.496" x2="534.155" y2="131.496" gradientUnits="userSpaceOnUse">
<stop stop-color="#2D67FF"/>
<stop offset="1" stop-color="#A238FF"/>
</linearGradient>
<linearGradient id="paint14_linear_190_19479" x1="0.779149" y1="132.727" x2="534.178" y2="132.727" gradientUnits="userSpaceOnUse">
<stop stop-color="#2D67FF"/>
<stop offset="1" stop-color="#A238FF"/>
</linearGradient>
<linearGradient id="paint15_linear_190_19479" x1="0.763318" y1="133.958" x2="534.203" y2="133.958" gradientUnits="userSpaceOnUse">
<stop stop-color="#2D67FF"/>
<stop offset="1" stop-color="#A238FF"/>
</linearGradient>
<linearGradient id="paint16_linear_190_19479" x1="0.751267" y1="135.195" x2="534.231" y2="135.195" gradientUnits="userSpaceOnUse">
<stop stop-color="#2D67FF"/>
<stop offset="1" stop-color="#A238FF"/>
</linearGradient>
<linearGradient id="paint17_linear_190_19479" x1="0.731423" y1="136.429" x2="534.253" y2="136.429" gradientUnits="userSpaceOnUse">
<stop stop-color="#2D67FF"/>
<stop offset="1" stop-color="#A238FF"/>
</linearGradient>
<linearGradient id="paint18_linear_190_19479" x1="0.715356" y1="137.659" x2="534.278" y2="137.659" gradientUnits="userSpaceOnUse">
<stop stop-color="#2D67FF"/>
<stop offset="1" stop-color="#A238FF"/>
</linearGradient>
<linearGradient id="paint19_linear_190_19479" x1="0.701416" y1="138.892" x2="534.303" y2="138.892" gradientUnits="userSpaceOnUse">
<stop stop-color="#2D67FF"/>
<stop offset="1" stop-color="#A238FF"/>
</linearGradient>
<linearGradient id="paint20_linear_190_19479" x1="0.679444" y1="140.126" x2="534.325" y2="140.126" gradientUnits="userSpaceOnUse">
<stop stop-color="#2D67FF"/>
<stop offset="1" stop-color="#A238FF"/>
</linearGradient>
<linearGradient id="paint21_linear_190_19479" x1="0.665505" y1="141.362" x2="534.352" y2="141.362" gradientUnits="userSpaceOnUse">
<stop stop-color="#2D67FF"/>
<stop offset="1" stop-color="#A238FF"/>
</linearGradient>
<linearGradient id="paint22_linear_190_19479" x1="0.649674" y1="142.597" x2="534.377" y2="142.597" gradientUnits="userSpaceOnUse">
<stop stop-color="#2D67FF"/>
<stop offset="1" stop-color="#A238FF"/>
</linearGradient>
<linearGradient id="paint23_linear_190_19479" x1="0.633608" y1="143.831" x2="534.402" y2="143.831" gradientUnits="userSpaceOnUse">
<stop stop-color="#2D67FF"/>
<stop offset="1" stop-color="#A238FF"/>
</linearGradient>
<linearGradient id="paint24_linear_190_19479" x1="0.643532" y1="145.653" x2="534.395" y2="145.653" gradientUnits="userSpaceOnUse">
<stop stop-color="#2D67FF"/>
<stop offset="1" stop-color="#A238FF"/>
</linearGradient>
<linearGradient id="paint25_linear_190_19479" x1="0.649674" y1="147.481" x2="534.384" y2="147.481" gradientUnits="userSpaceOnUse">
<stop stop-color="#2D67FF"/>
<stop offset="1" stop-color="#A238FF"/>
</linearGradient>
<linearGradient id="paint26_linear_190_19479" x1="0.659596" y1="149.31" x2="534.379" y2="149.31" gradientUnits="userSpaceOnUse">
<stop stop-color="#2D67FF"/>
<stop offset="1" stop-color="#A238FF"/>
</linearGradient>
<linearGradient id="paint27_linear_190_19479" x1="0.669521" y1="151.127" x2="534.371" y2="151.127" gradientUnits="userSpaceOnUse">
<stop stop-color="#2D67FF"/>
<stop offset="1" stop-color="#A238FF"/>
</linearGradient>
<linearGradient id="paint28_linear_190_19479" x1="0.673539" y1="152.961" x2="534.36" y2="152.961" gradientUnits="userSpaceOnUse">
<stop stop-color="#2D67FF"/>
<stop offset="1" stop-color="#A238FF"/>
</linearGradient>
<linearGradient id="paint29_linear_190_19479" x1="0.68157" y1="154.779" x2="534.352" y2="154.779" gradientUnits="userSpaceOnUse">
<stop stop-color="#2D67FF"/>
<stop offset="1" stop-color="#A238FF"/>
</linearGradient>
<linearGradient id="paint30_linear_190_19479" x1="0.689603" y1="156.61" x2="534.344" y2="156.61" gradientUnits="userSpaceOnUse">
<stop stop-color="#2D67FF"/>
<stop offset="1" stop-color="#A238FF"/>
</linearGradient>
<linearGradient id="paint31_linear_190_19479" x1="0.699525" y1="158.44" x2="534.337" y2="158.44" gradientUnits="userSpaceOnUse">
<stop stop-color="#2D67FF"/>
<stop offset="1" stop-color="#A238FF"/>
</linearGradient>
<linearGradient id="paint32_linear_190_19479" x1="0.705433" y1="160.264" x2="534.324" y2="160.264" gradientUnits="userSpaceOnUse">
<stop stop-color="#2D67FF"/>
<stop offset="1" stop-color="#A238FF"/>
</linearGradient>
<linearGradient id="paint33_linear_190_19479" x1="0.715356" y1="162.091" x2="534.317" y2="162.091" gradientUnits="userSpaceOnUse">
<stop stop-color="#2D67FF"/>
<stop offset="1" stop-color="#A238FF"/>
</linearGradient>
<linearGradient id="paint34_linear_190_19479" x1="0.725278" y1="163.911" x2="534.314" y2="163.911" gradientUnits="userSpaceOnUse">
<stop stop-color="#2D67FF"/>
<stop offset="1" stop-color="#A238FF"/>
</linearGradient>
<linearGradient id="paint35_linear_190_19479" x1="0.73544" y1="165.732" x2="534.308" y2="165.732" gradientUnits="userSpaceOnUse">
<stop stop-color="#2D67FF"/>
<stop offset="1" stop-color="#A238FF"/>
</linearGradient>
<linearGradient id="paint36_linear_190_19479" x1="0.741345" y1="167.563" x2="534.295" y2="167.563" gradientUnits="userSpaceOnUse">
<stop stop-color="#2D67FF"/>
<stop offset="1" stop-color="#A238FF"/>
</linearGradient>
<linearGradient id="paint37_linear_190_19479" x1="0.747252" y1="169.388" x2="534.285" y2="169.388" gradientUnits="userSpaceOnUse">
<stop stop-color="#2D67FF"/>
<stop offset="1" stop-color="#A238FF"/>
</linearGradient>
<linearGradient id="paint38_linear_190_19479" x1="0.757413" y1="171.213" x2="534.278" y2="171.213" gradientUnits="userSpaceOnUse">
<stop stop-color="#2D67FF"/>
<stop offset="1" stop-color="#A238FF"/>
</linearGradient>
<linearGradient id="paint39_linear_190_19479" x1="0.761193" y1="173.04" x2="534.265" y2="173.04" gradientUnits="userSpaceOnUse">
<stop stop-color="#2D67FF"/>
<stop offset="1" stop-color="#A238FF"/>
</linearGradient>
<linearGradient id="paint40_linear_190_19479" x1="0.769223" y1="174.867" x2="534.258" y2="174.867" gradientUnits="userSpaceOnUse">
<stop stop-color="#2D67FF"/>
<stop offset="1" stop-color="#A238FF"/>
</linearGradient>
<linearGradient id="paint41_linear_190_19479" x1="0.783166" y1="176.684" x2="534.256" y2="176.684" gradientUnits="userSpaceOnUse">
<stop stop-color="#2D67FF"/>
<stop offset="1" stop-color="#A238FF"/>
</linearGradient>
<linearGradient id="paint42_linear_190_19479" x1="0.793324" y1="178.514" x2="534.25" y2="178.514" gradientUnits="userSpaceOnUse">
<stop stop-color="#2D67FF"/>
<stop offset="1" stop-color="#A238FF"/>
</linearGradient>
<linearGradient id="paint43_linear_190_19479" x1="0.795212" y1="180.337" x2="534.235" y2="180.337" gradientUnits="userSpaceOnUse">
<stop stop-color="#2D67FF"/>
<stop offset="1" stop-color="#A238FF"/>
</linearGradient>
<linearGradient id="paint44_linear_190_19479" x1="0.809153" y1="182.166" x2="534.232" y2="182.166" gradientUnits="userSpaceOnUse">
<stop stop-color="#2D67FF"/>
<stop offset="1" stop-color="#A238FF"/>
</linearGradient>
<linearGradient id="paint45_linear_190_19479" x1="0.81506" y1="183.993" x2="534.22" y2="183.993" gradientUnits="userSpaceOnUse">
<stop stop-color="#2D67FF"/>
<stop offset="1" stop-color="#A238FF"/>
</linearGradient>
<linearGradient id="paint46_linear_190_19479" x1="0.819077" y1="185.826" x2="534.208" y2="185.826" gradientUnits="userSpaceOnUse">
<stop stop-color="#2D67FF"/>
<stop offset="1" stop-color="#A238FF"/>
</linearGradient>
<linearGradient id="paint47_linear_190_19479" x1="0.81506" y1="186.944" x2="534.221" y2="186.944" gradientUnits="userSpaceOnUse">
<stop stop-color="#2D67FF"/>
<stop offset="1" stop-color="#A238FF"/>
</linearGradient>
<linearGradient id="paint48_linear_190_19479" x1="0.805138" y1="188.069" x2="534.228" y2="188.069" gradientUnits="userSpaceOnUse">
<stop stop-color="#2D67FF"/>
<stop offset="1" stop-color="#A238FF"/>
</linearGradient>
<linearGradient id="paint49_linear_190_19479" x1="0.793324" y1="189.189" x2="534.233" y2="189.189" gradientUnits="userSpaceOnUse">
<stop stop-color="#2D67FF"/>
<stop offset="1" stop-color="#A238FF"/>
</linearGradient>
<linearGradient id="paint50_linear_190_19479" x1="0.787183" y1="190.32" x2="534.244" y2="190.32" gradientUnits="userSpaceOnUse">
<stop stop-color="#2D67FF"/>
<stop offset="1" stop-color="#A238FF"/>
</linearGradient>
<linearGradient id="paint51_linear_190_19479" x1="0.783166" y1="191.44" x2="534.256" y2="191.44" gradientUnits="userSpaceOnUse">
<stop stop-color="#2D67FF"/>
<stop offset="1" stop-color="#A238FF"/>
</linearGradient>
<linearGradient id="paint52_linear_190_19479" x1="0.769225" y1="192.57" x2="534.259" y2="192.57" gradientUnits="userSpaceOnUse">
<stop stop-color="#2D67FF"/>
<stop offset="1" stop-color="#A238FF"/>
</linearGradient>
<linearGradient id="paint53_linear_190_19479" x1="0.763318" y1="193.691" x2="534.267" y2="193.691" gradientUnits="userSpaceOnUse">
<stop stop-color="#2D67FF"/>
<stop offset="1" stop-color="#A238FF"/>
</linearGradient>
<linearGradient id="paint54_linear_190_19479" x1="0.753396" y1="194.818" x2="534.275" y2="194.818" gradientUnits="userSpaceOnUse">
<stop stop-color="#2D67FF"/>
<stop offset="1" stop-color="#A238FF"/>
</linearGradient>
<linearGradient id="paint55_linear_190_19479" x1="0.74725" y1="195.938" x2="534.284" y2="195.938" gradientUnits="userSpaceOnUse">
<stop stop-color="#2D67FF"/>
<stop offset="1" stop-color="#A238FF"/>
</linearGradient>
<linearGradient id="paint56_linear_190_19479" x1="0.741345" y1="197.066" x2="534.294" y2="197.066" gradientUnits="userSpaceOnUse">
<stop stop-color="#2D67FF"/>
<stop offset="1" stop-color="#A238FF"/>
</linearGradient>
<linearGradient id="paint57_linear_190_19479" x1="0.73544" y1="198.19" x2="534.305" y2="198.19" gradientUnits="userSpaceOnUse">
<stop stop-color="#2D67FF"/>
<stop offset="1" stop-color="#A238FF"/>
</linearGradient>
<linearGradient id="paint58_linear_190_19479" x1="0.725278" y1="199.314" x2="534.312" y2="199.314" gradientUnits="userSpaceOnUse">
<stop stop-color="#2D67FF"/>
<stop offset="1" stop-color="#A238FF"/>
</linearGradient>
<linearGradient id="paint59_linear_190_19479" x1="0.715356" y1="200.437" x2="534.319" y2="200.437" gradientUnits="userSpaceOnUse">
<stop stop-color="#2D67FF"/>
<stop offset="1" stop-color="#A238FF"/>
</linearGradient>
<linearGradient id="paint60_linear_190_19479" x1="0.70945" y1="201.562" x2="534.33" y2="201.562" gradientUnits="userSpaceOnUse">
<stop stop-color="#2D67FF"/>
<stop offset="1" stop-color="#A238FF"/>
</linearGradient>
<linearGradient id="paint61_linear_190_19479" x1="0.699525" y1="202.685" x2="534.336" y2="202.685" gradientUnits="userSpaceOnUse">
<stop stop-color="#2D67FF"/>
<stop offset="1" stop-color="#A238FF"/>
</linearGradient>
<linearGradient id="paint62_linear_190_19479" x1="0.689603" y1="203.817" x2="534.342" y2="203.817" gradientUnits="userSpaceOnUse">
<stop stop-color="#2D67FF"/>
<stop offset="1" stop-color="#A238FF"/>
</linearGradient>
<linearGradient id="paint63_linear_190_19479" x1="0.685586" y1="204.934" x2="534.356" y2="204.934" gradientUnits="userSpaceOnUse">
<stop stop-color="#2D67FF"/>
<stop offset="1" stop-color="#A238FF"/>
</linearGradient>
<linearGradient id="paint64_linear_190_19479" x1="0.675427" y1="206.069" x2="534.362" y2="206.069" gradientUnits="userSpaceOnUse">
<stop stop-color="#2D67FF"/>
<stop offset="1" stop-color="#A238FF"/>
</linearGradient>
<linearGradient id="paint65_linear_190_19479" x1="0.665504" y1="207.189" x2="534.368" y2="207.189" gradientUnits="userSpaceOnUse">
<stop stop-color="#2D67FF"/>
<stop offset="1" stop-color="#A238FF"/>
</linearGradient>
<linearGradient id="paint66_linear_190_19479" x1="0.659598" y1="208.316" x2="534.377" y2="208.316" gradientUnits="userSpaceOnUse">
<stop stop-color="#2D67FF"/>
<stop offset="1" stop-color="#A238FF"/>
</linearGradient>
<linearGradient id="paint67_linear_190_19479" x1="0.649674" y1="209.439" x2="534.384" y2="209.439" gradientUnits="userSpaceOnUse">
<stop stop-color="#2D67FF"/>
<stop offset="1" stop-color="#A238FF"/>
</linearGradient>
<linearGradient id="paint68_linear_190_19479" x1="0.639516" y1="210.563" x2="534.392" y2="210.563" gradientUnits="userSpaceOnUse">
<stop stop-color="#2D67FF"/>
<stop offset="1" stop-color="#A238FF"/>
</linearGradient>
<linearGradient id="paint69_linear_190_19479" x1="0.633607" y1="211.687" x2="534.402" y2="211.687" gradientUnits="userSpaceOnUse">
<stop stop-color="#2D67FF"/>
<stop offset="1" stop-color="#A238FF"/>
</linearGradient>
<linearGradient id="paint70_linear_190_19479" x1="0.607621" y1="212.659" x2="534.402" y2="212.659" gradientUnits="userSpaceOnUse">
<stop stop-color="#2D67FF"/>
<stop offset="1" stop-color="#A238FF"/>
</linearGradient>
<linearGradient id="paint71_linear_190_19479" x1="0.585885" y1="213.638" x2="534.404" y2="213.638" gradientUnits="userSpaceOnUse">
<stop stop-color="#2D67FF"/>
<stop offset="1" stop-color="#A238FF"/>
</linearGradient>
<linearGradient id="paint72_linear_190_19479" x1="0.559894" y1="214.614" x2="534.404" y2="214.614" gradientUnits="userSpaceOnUse">
<stop stop-color="#2D67FF"/>
<stop offset="1" stop-color="#A238FF"/>
</linearGradient>
<linearGradient id="paint73_linear_190_19479" x1="0.533906" y1="215.59" x2="534.401" y2="215.59" gradientUnits="userSpaceOnUse">
<stop stop-color="#2D67FF"/>
<stop offset="1" stop-color="#A238FF"/>
</linearGradient>
<linearGradient id="paint74_linear_190_19479" x1="0.510041" y1="216.562" x2="534.403" y2="216.562" gradientUnits="userSpaceOnUse">
<stop stop-color="#2D67FF"/>
<stop offset="1" stop-color="#A238FF"/>
</linearGradient>
<linearGradient id="paint75_linear_190_19479" x1="0.488069" y1="217.537" x2="534.406" y2="217.537" gradientUnits="userSpaceOnUse">
<stop stop-color="#2D67FF"/>
<stop offset="1" stop-color="#A238FF"/>
</linearGradient>
<linearGradient id="paint76_linear_190_19479" x1="0.462079" y1="218.507" x2="534.405" y2="218.507" gradientUnits="userSpaceOnUse">
<stop stop-color="#2D67FF"/>
<stop offset="1" stop-color="#A238FF"/>
</linearGradient>
<linearGradient id="paint77_linear_190_19479" x1="0.436091" y1="219.484" x2="534.401" y2="219.484" gradientUnits="userSpaceOnUse">
<stop stop-color="#2D67FF"/>
<stop offset="1" stop-color="#A238FF"/>
</linearGradient>
<linearGradient id="paint78_linear_190_19479" x1="0.410336" y1="220.455" x2="534.402" y2="220.455" gradientUnits="userSpaceOnUse">
<stop stop-color="#2D67FF"/>
<stop offset="1" stop-color="#A238FF"/>
</linearGradient>
<linearGradient id="paint79_linear_190_19479" x1="0.38435" y1="221.44" x2="534.401" y2="221.44" gradientUnits="userSpaceOnUse">
<stop stop-color="#2D67FF"/>
<stop offset="1" stop-color="#A238FF"/>
</linearGradient>
<linearGradient id="paint80_linear_190_19479" x1="0.364266" y1="222.406" x2="534.404" y2="222.406" gradientUnits="userSpaceOnUse">
<stop stop-color="#2D67FF"/>
<stop offset="1" stop-color="#A238FF"/>
</linearGradient>
<linearGradient id="paint81_linear_190_19479" x1="0.338513" y1="223.377" x2="534.404" y2="223.377" gradientUnits="userSpaceOnUse">
<stop stop-color="#2D67FF"/>
<stop offset="1" stop-color="#A238FF"/>
</linearGradient>
<linearGradient id="paint82_linear_190_19479" x1="0.312523" y1="224.356" x2="534.402" y2="224.356" gradientUnits="userSpaceOnUse">
<stop stop-color="#2D67FF"/>
<stop offset="1" stop-color="#A238FF"/>
</linearGradient>
<linearGradient id="paint83_linear_190_19479" x1="0.286534" y1="225.329" x2="534.399" y2="225.329" gradientUnits="userSpaceOnUse">
<stop stop-color="#2D67FF"/>
<stop offset="1" stop-color="#A238FF"/>
</linearGradient>
<linearGradient id="paint84_linear_190_19479" x1="0.262672" y1="226.307" x2="534.403" y2="226.307" gradientUnits="userSpaceOnUse">
<stop stop-color="#2D67FF"/>
<stop offset="1" stop-color="#A238FF"/>
</linearGradient>
<linearGradient id="paint85_linear_190_19479" x1="0.236683" y1="227.282" x2="534.402" y2="227.282" gradientUnits="userSpaceOnUse">
<stop stop-color="#2D67FF"/>
<stop offset="1" stop-color="#A238FF"/>
</linearGradient>
<linearGradient id="paint86_linear_190_19479" x1="0.210694" y1="228.254" x2="534.398" y2="228.254" gradientUnits="userSpaceOnUse">
<stop stop-color="#2D67FF"/>
<stop offset="1" stop-color="#A238FF"/>
</linearGradient>
<linearGradient id="paint87_linear_190_19479" x1="0.188721" y1="229.229" x2="534.401" y2="229.229" gradientUnits="userSpaceOnUse">
<stop stop-color="#2D67FF"/>
<stop offset="1" stop-color="#A238FF"/>
</linearGradient>
<linearGradient id="paint88_linear_190_19479" x1="0.162968" y1="230.203" x2="534.402" y2="230.203" gradientUnits="userSpaceOnUse">
<stop stop-color="#2D67FF"/>
<stop offset="1" stop-color="#A238FF"/>
</linearGradient>
<linearGradient id="paint89_linear_190_19479" x1="0.136979" y1="231.174" x2="534.4" y2="231.174" gradientUnits="userSpaceOnUse">
<stop stop-color="#2D67FF"/>
<stop offset="1" stop-color="#A238FF"/>
</linearGradient>
<linearGradient id="paint90_linear_190_19479" x1="0.113118" y1="232.157" x2="534.399" y2="232.157" gradientUnits="userSpaceOnUse">
<stop stop-color="#2D67FF"/>
<stop offset="1" stop-color="#A238FF"/>
</linearGradient>
<linearGradient id="paint91_linear_190_19479" x1="0.0911452" y1="233.121" x2="534.404" y2="233.121" gradientUnits="userSpaceOnUse">
<stop stop-color="#2D67FF"/>
<stop offset="1" stop-color="#A238FF"/>
</linearGradient>
<linearGradient id="paint92_linear_190_19479" x1="0.0651556" y1="234.094" x2="534.404" y2="234.094" gradientUnits="userSpaceOnUse">
<stop stop-color="#2D67FF"/>
<stop offset="1" stop-color="#A238FF"/>
</linearGradient>
</defs>
</svg>
