<svg preserveAspectRatio="none" width="100%" height="100%" overflow="visible" style="display: block;" viewBox="0 0 481 50" fill="none" xmlns="http://www.w3.org/2000/svg">
<path id="Vector" d="M479.94 23.3215C465.409 29.7323 445.029 43.6012 421.137 45.0968C418.254 45.2771 415.321 45.282 412.345 45.0933C384.255 43.305 363.439 32.4486 340.62 21.7525C333.894 18.5998 321.746 14.4219 307.391 11.2034C286.609 6.59195 262.24 3.14448 242.008 9.36796C236.833 10.9668 232.003 13.1567 227.672 16.0319C207.289 29.6435 189.784 44.2366 181.844 46.842C164.44 52.5529 147.813 45.3264 139.261 39.2458C127.638 30.983 122.306 24.9946 114.776 19.3871C111.16 16.6944 107.085 14.0564 101.498 11.3324C92.4594 6.92698 73.0503 -0.809351 47.8154 0.551601C24.0959 1.76827 7.65397 10.6991 0.201274 15.1392" stroke="url(#paint0_linear_233_19419)" stroke-width="0.786503" stroke-miterlimit="10"/>
<defs>
<linearGradient id="paint0_linear_233_19419" x1="0.201274" y1="24.6569" x2="479.94" y2="24.6569" gradientUnits="userSpaceOnUse">
<stop stop-color="#2D67FF"/>
<stop offset="1" stop-color="#A238FF"/>
</linearGradient>
</defs>
</svg>
