<svg preserveAspectRatio="none" width="100%" height="100%" overflow="visible" style="display: block;" viewBox="0 0 481 45" fill="none" xmlns="http://www.w3.org/2000/svg">
<path id="Vector" d="M0.159534 20.4238C20.1123 29.2797 45.1596 27.4054 67.0953 18.6702C84.1857 11.8627 92.2609 3.95014 110.17 3.5062C122.47 3.201 130.686 8.39924 139.605 12.4925C149.54 17.0512 157.272 20.9176 168.444 20.4737C185.346 19.8022 201.933 16.4234 231.675 8.18213C233.523 7.67021 235.34 7.08406 237.129 6.457C247.11 2.93947 256.228 -1.74478 267.08 1.46407C274.231 3.57902 278.753 10.3387 284.909 17.2232C293.123 26.4093 303.069 35.7418 324.546 36.3827C331.296 36.5839 337.542 36.7038 343.396 36.6026C354.814 36.4049 364.537 35.6315 373.112 32.8013C381.508 30.0295 389.556 24.8319 397.436 23.9232C407.876 22.7184 416.534 30.2279 428.825 35.8049C429.779 36.2412 430.775 36.6733 431.814 37.0965C442.789 41.5976 458.777 44.7482 480.684 44.0386" stroke="url(#paint0_linear_233_19325)" stroke-width="0.786503" stroke-miterlimit="10"/>
<defs>
<linearGradient id="paint0_linear_233_19325" x1="0.159534" y1="22.2652" x2="480.684" y2="22.2652" gradientUnits="userSpaceOnUse">
<stop stop-color="#2D67FF"/>
<stop offset="1" stop-color="#A238FF"/>
</linearGradient>
</defs>
</svg>
