<svg preserveAspectRatio="none" width="100%" height="100%" overflow="visible" style="display: block;" viewBox="0 0 481 38" fill="none" xmlns="http://www.w3.org/2000/svg">
<path id="Vector" d="M0.25202 29.121C23.478 9.73125 42.0385 5.58598 55.291 5.76078C78.4697 6.06668 86.7864 18.4346 108.757 19.0963C121.928 19.4931 129.475 17.0923 137.817 14.1464C148.137 10.47 157.125 4.44006 170.533 1.7126C184.37 -1.10225 213.568 -0.233802 238.987 12.5267C257.003 21.5719 267.56 35.0781 289.774 33.8157C311.416 32.5858 323.078 20.8755 350.43 7.61284C364.826 0.631891 382.06 0.878141 402.108 12.2458C411.851 17.77 421.715 28.1541 431.435 32.8903C445.681 39.7756 465.501 36.1574 480.496 32.0385" stroke="url(#paint0_linear_233_19405)" stroke-width="0.786503" stroke-miterlimit="10"/>
<defs>
<linearGradient id="paint0_linear_233_19405" x1="0.25202" y1="18.5726" x2="480.496" y2="18.5726" gradientUnits="userSpaceOnUse">
<stop stop-color="#2D67FF"/>
<stop offset="1" stop-color="#A238FF"/>
</linearGradient>
</defs>
</svg>
