<svg preserveAspectRatio="none" width="100%" height="100%" overflow="visible" style="display: block;" viewBox="0 0 481 39" fill="none" xmlns="http://www.w3.org/2000/svg">
<path id="Vector" d="M0.205895 38.4154C18.7039 27.0477 35.4701 21.1621 49.904 18.2237C70.8093 13.9675 86.5085 15.9569 99.2289 17.6314C134.357 22.2573 141.097 25.9941 161.597 26.2216C186.333 26.4775 206.188 11.2074 234.726 9.526C259.543 8.00481 270.108 29.8043 295.701 31.3956C318.993 32.8439 335.678 28.7382 352.028 21.7919C373.34 12.7369 389.662 1.40537 414.89 0.422458C422.664 0.120025 432.331 2.13024 443.269 8.15256C448.682 11.1318 454.281 15.3798 460.079 19.3502C466.502 23.7494 473.952 27.1899 480.717 31.2638" stroke="url(#paint0_linear_233_19497)" stroke-width="0.786503" stroke-miterlimit="10"/>
<defs>
<linearGradient id="paint0_linear_233_19497" x1="0.205895" y1="19.4043" x2="480.717" y2="19.4043" gradientUnits="userSpaceOnUse">
<stop stop-color="#2D67FF"/>
<stop offset="1" stop-color="#A238FF"/>
</linearGradient>
</defs>
</svg>
