<svg preserveAspectRatio="none" width="100%" height="100%" overflow="visible" style="display: block;" viewBox="0 0 458 41" fill="none" xmlns="http://www.w3.org/2000/svg">
<path id="Vector" d="M0.103771 29.8275C26.0572 36.9278 48.6386 29.6333 65.9353 20.5027C70.7785 17.9459 74.8384 15.4314 78.4549 13.5308C89.1873 7.91284 95.1617 1.9162 106.61 2.04036C121.045 2.19713 125.801 14.9305 141.809 22.6842C159.304 31.1572 179.077 30.0522 197.781 27.1021C216.923 24.0826 230.978 19.5378 248.16 11.9492C258.556 7.35793 266.442 1.21214 275.944 0.466461C281.908 -0.00175617 287.001 1.82116 294.027 4.57982C305.854 9.22315 315.47 16.8915 330.263 21.5258C342.933 25.4956 353.995 29.8601 366.267 30.6918C372.764 31.1323 379.596 29.9822 386.975 30.3998C388.31 30.4754 389.646 30.5891 390.985 30.8069C398.911 32.0971 406.304 35.3573 414.725 37.2385C428.076 40.2205 442.658 40.8698 457.934 39.873" stroke="url(#paint0_linear_190_19595)" stroke-width="0.786503" stroke-miterlimit="10"/>
<defs>
<linearGradient id="paint0_linear_190_19595" x1="0.103771" y1="20.3507" x2="457.934" y2="20.3507" gradientUnits="userSpaceOnUse">
<stop stop-color="#2D67FF"/>
<stop offset="1" stop-color="#A238FF"/>
</linearGradient>
</defs>
</svg>
