<svg preserveAspectRatio="none" width="100%" height="100%" overflow="visible" style="display: block;" viewBox="0 0 458 47" fill="none" xmlns="http://www.w3.org/2000/svg">
<path id="Vector" d="M0.176211 21.1573C19.579 30.8823 44.1116 29.1995 65.5928 20.2174C82.1778 13.2815 89.8405 5.0811 107.383 4.56294C118.59 4.23207 126.434 8.94615 134.297 13.2683C143.1 18.1066 150.457 22.7998 160.632 22.5064C176.966 22.0354 192.251 18.5255 220.792 9.29714C222.559 8.72557 224.292 8.0666 226.001 7.36601C235.543 3.43784 244.306 -1.76043 254.788 1.33466C261.583 3.34141 265.773 10.2273 271.384 17.4677C278.838 27.0873 288.242 37.291 308.872 38.4078C315.398 38.7609 321.404 39.0244 326.983 39.0439C337.982 39.082 347.225 38.3037 355.308 35.2926C363.31 32.3112 370.964 26.7169 378.423 25.5557C388.412 24.0006 396.632 31.4587 408.477 37.0461C409.383 37.4755 410.33 37.9021 411.32 38.3231C421.582 42.6973 436.567 46.2079 457.698 45.7037" stroke="url(#paint0_linear_190_19689)" stroke-width="0.786503" stroke-miterlimit="10"/>
<defs>
<linearGradient id="paint0_linear_190_19689" x1="0.176211" y1="23.0726" x2="457.698" y2="23.0726" gradientUnits="userSpaceOnUse">
<stop stop-color="#2D67FF"/>
<stop offset="1" stop-color="#A238FF"/>
</linearGradient>
</defs>
</svg>
