<svg preserveAspectRatio="none" width="100%" height="100%" overflow="visible" style="display: block;" viewBox="0 0 481 33" fill="none" xmlns="http://www.w3.org/2000/svg">
<path id="Vector" d="M0.230811 32.606C20.8301 17.673 38.3804 12.4921 52.3025 11.0056C74.1988 8.668 86.6796 15.3812 103.468 16.6034C128.95 18.4589 135.94 20.3811 151.033 19.1762C169.366 17.7119 184.397 6.59466 206.201 4.37427C226.148 2.34324 244.821 15.0794 270.499 21.3307C291.322 26.3999 305.506 30.1075 324.364 25.4572C345.938 20.1376 360.514 8.97181 386.246 1.93953C397.174 -1.04666 409.993 -0.104666 424.981 8.29273C432.318 12.4033 439.776 19.4148 447.353 23.6891C457.203 29.2453 470.201 29.4964 480.625 29.9292" stroke="url(#paint0_linear_233_19705)" stroke-width="0.786503" stroke-miterlimit="10"/>
<defs>
<linearGradient id="paint0_linear_233_19705" x1="0.230811" y1="16.4997" x2="480.625" y2="16.4997" gradientUnits="userSpaceOnUse">
<stop stop-color="#2D67FF"/>
<stop offset="1" stop-color="#A238FF"/>
</linearGradient>
</defs>
</svg>
