<svg preserveAspectRatio="none" width="100%" height="100%" overflow="visible" style="display: block;" viewBox="0 0 481 40" fill="none" xmlns="http://www.w3.org/2000/svg">
<path id="Vector" d="M0.202069 39.3366C18.4374 28.4143 35.1103 22.4482 49.6039 19.3205C70.3917 14.8346 86.4738 16.2379 98.6978 17.9547C134.99 23.051 141.741 26.8931 162.916 27.2975C188.453 27.772 208.912 11.9907 238.291 10.3654C263.718 8.91845 273.257 31.8063 298.85 32.8496C322.443 33.811 339.425 28.7473 355.485 21.5298C376.731 11.9816 393.382 1.69612 418.469 0.428807C425.839 0.0563139 435.121 2.60549 445.553 8.33092C450.725 11.1687 456.101 15.0649 461.667 19.0035C467.671 23.2522 474.418 27.0971 480.727 31.6267" stroke="url(#paint0_linear_233_19441)" stroke-width="0.786503" stroke-miterlimit="10"/>
<defs>
<linearGradient id="paint0_linear_233_19441" x1="0.202069" y1="19.8649" x2="480.727" y2="19.8649" gradientUnits="userSpaceOnUse">
<stop stop-color="#2D67FF"/>
<stop offset="1" stop-color="#A238FF"/>
</linearGradient>
</defs>
</svg>
