<svg preserveAspectRatio="none" width="100%" height="100%" overflow="visible" style="display: block;" viewBox="0 0 481 32" fill="none" xmlns="http://www.w3.org/2000/svg">
<path id="Vector" d="M480.64 25.1477C460.205 7.41305 439.782 1.37478 425.017 0.557655C421.866 0.383548 418.822 0.340542 415.857 0.463319C388.727 1.57386 369.702 15.3693 342.179 22.5299C331.968 25.1866 319.909 26.8201 305.454 26.4366C280.505 25.7748 270.729 3.73738 244.955 5.70736C238.874 6.18737 233.156 7.25906 227.749 8.76291C205.667 14.9045 187.613 25.7505 167.776 25.8497C152.482 25.926 143.094 23.9207 129.114 20.1139C120.877 17.8706 112.12 15.4102 99.9727 12.7376C95.9288 11.8476 91.2211 11.0159 85.7196 10.6337C73.8411 9.80755 57.759 10.5352 38.7789 15.4955C25.6333 18.9312 12.5665 24.6192 0.194442 31.657" stroke="url(#paint0_linear_233_19707)" stroke-width="0.786503" stroke-miterlimit="10"/>
<defs>
<linearGradient id="paint0_linear_233_19707" x1="0.194442" y1="16.0251" x2="480.64" y2="16.0251" gradientUnits="userSpaceOnUse">
<stop stop-color="#2D67FF"/>
<stop offset="1" stop-color="#A238FF"/>
</linearGradient>
</defs>
</svg>
