<svg preserveAspectRatio="none" width="100%" height="100%" overflow="visible" style="display: block;" viewBox="0 0 481 37" fill="none" xmlns="http://www.w3.org/2000/svg">
<path id="Vector" d="M0.0906149 21.8706C14.0781 18.5584 29.048 14.0108 42.2244 8.72512C54.7139 3.70583 63.199 0.0197353 73.8489 0.423443C93.5524 1.16982 101.31 12.5916 119.611 13.3407C139.042 14.1363 146.971 6.86543 164.947 3.72455C178.331 1.38624 202.866 -0.786288 228.811 4.27809C230.586 4.62422 232.315 5.0321 234.032 5.44344C243.42 7.69435 251.231 10.4378 259.998 14.9881C267.288 18.7727 273.993 23.5118 283.407 25.513C297.567 28.5234 307.729 26.2073 326.719 19.7535C331.946 17.9771 337.358 16.0959 343.177 14.1467C352.655 10.9712 362.439 10.0486 372.407 9.64213C380.449 9.31403 388.664 9.82456 397.368 12.7795C406.878 16.0078 416.116 24.6702 426.297 30.1355C427.29 30.6689 428.291 31.1725 429.305 31.6331C443.062 37.8822 462.499 36.0225 480.408 32.4336" stroke="url(#paint0_linear_233_19425)" stroke-width="0.786503" stroke-miterlimit="10"/>
<defs>
<linearGradient id="paint0_linear_233_19425" x1="0.0906149" y1="18.0632" x2="480.408" y2="18.0632" gradientUnits="userSpaceOnUse">
<stop stop-color="#2D67FF"/>
<stop offset="1" stop-color="#A238FF"/>
</linearGradient>
</defs>
</svg>
