<svg preserveAspectRatio="none" width="100%" height="100%" overflow="visible" style="display: block;" viewBox="0 0 115 115" fill="none" xmlns="http://www.w3.org/2000/svg">
<g id="Vector">
<path d="M102.844 88.4722C73.8099 88.4722 46.6767 100.026 36.7393 105.803C28.7456 109.765 25.6318 104.153 25.0741 100.851C25.0741 73.1218 12.9762 47.2077 6.92734 37.7168C3.81652 31.7747 8.22351 27.8134 10.8159 26.5754C46.0718 24.5947 69.5758 13.3708 76.9207 8.00648C86.2532 5.03543 89.4504 10.895 89.8825 14.1961C90.9194 40.9355 103.276 68.2526 109.325 78.5687C112.436 85.5012 106.301 88.0596 102.844 88.4722Z" stroke="var(--stroke-0, #7742FE)" stroke-opacity="0.08" stroke-width="6.95476"/>
<path d="M64.0101 109.12C45.4495 89.0372 19.7362 78.0026 9.19958 74.9958C1.22041 72.1181 3.29433 66.2078 5.32868 63.6124C25.4118 45.0518 36.4461 19.3383 39.4529 8.80167C41.7678 2.67263 47.4541 3.06944 50.0078 4.03397C73.9803 27.0948 97.1344 35.8399 105.715 37.3299C113.833 41.7965 111.633 47.9301 109.518 50.4385C90.8152 69.0536 78.9303 95.8853 75.3257 106.974C72.2936 113.766 66.5186 111.235 64.0101 109.12Z" stroke="var(--stroke-0, #7742FE)" stroke-opacity="0.08" stroke-width="6.95476"/>
</g>
</svg>
