<svg preserveAspectRatio="none" width="100%" height="100%" overflow="visible" style="display: block;" viewBox="0 0 481 26" fill="none" xmlns="http://www.w3.org/2000/svg">
<path id="Vector" d="M480.565 20.2337C460.752 5.04059 440.331 1.1582 424.607 0.524195C421.484 0.39795 418.452 0.349396 415.486 0.439571C388.255 1.2449 368.994 12.2879 342.014 17.7262C332.151 19.7142 320.105 20.7692 305.657 20.1109C281.152 18.9942 269.826 -1.09549 244.645 1.37045C238.657 1.95659 233.028 3.1469 227.741 4.80613C205.805 11.6886 187.828 22.76 169.256 23.3371C153.72 23.8199 143.475 21.6203 130.181 17.4057C121.494 14.6512 113.151 11.7683 101.531 8.71557C97.5168 7.66121 92.8995 6.58605 87.3797 5.98534C75.8158 4.72566 59.3951 4.69584 39.73 9.20043C25.4913 12.462 12.0494 18.4323 0.194887 25.1961" stroke="url(#paint0_linear_233_19476)" stroke-width="0.786503" stroke-miterlimit="10"/>
<defs>
<linearGradient id="paint0_linear_233_19476" x1="0.194887" y1="12.7947" x2="480.565" y2="12.7947" gradientUnits="userSpaceOnUse">
<stop stop-color="#2D67FF"/>
<stop offset="1" stop-color="#A238FF"/>
</linearGradient>
</defs>
</svg>
