<svg preserveAspectRatio="none" width="100%" height="100%" overflow="visible" style="display: block;" viewBox="0 0 481 38" fill="none" xmlns="http://www.w3.org/2000/svg">
<path id="Vector" d="M0.0251656 20.2405C16.1429 21.274 34.7121 17.6809 51.0174 11.1633C65.1502 5.50517 73.488 0.0481805 86.7309 0.410269C103.791 0.877099 111.718 9.95566 126.661 11.9236C142.708 14.0371 150.531 10.6236 166.106 8.59193C180.718 6.68576 202.399 4.09705 229.745 4.55764C231.543 4.58816 233.307 4.65336 235.049 4.69081C244.656 4.89891 252.959 4.92596 262.438 9.0435C269.702 12.1989 275.529 17.7468 283.854 21.4377C295.787 26.7283 305.964 28.3861 325.854 24.5779C331.621 23.4736 337.327 22.3048 343.166 21.0521C353.322 18.8726 363.117 17.9258 372.57 16.7986C380.772 15.8205 388.882 14.1502 397.302 15.6443C407.131 17.3882 416.196 25.5171 427.11 31.0456C428.092 31.5422 429.089 32.0208 430.111 32.4696C442.886 38.0792 461.079 38.0244 480.417 35.4635" stroke="url(#paint0_linear_233_19409)" stroke-width="0.786503" stroke-miterlimit="10"/>
<defs>
<linearGradient id="paint0_linear_233_19409" x1="0.0251656" y1="18.7626" x2="480.417" y2="18.7626" gradientUnits="userSpaceOnUse">
<stop stop-color="#2D67FF"/>
<stop offset="1" stop-color="#A238FF"/>
</linearGradient>
</defs>
</svg>
