<svg preserveAspectRatio="none" width="100%" height="100%" overflow="visible" style="display: block;" viewBox="0 0 481 39" fill="none" xmlns="http://www.w3.org/2000/svg">
<path id="Vector" d="M0.213363 27.1427C12.0698 19.4848 23.4422 13.982 33.4898 9.92831C44.3369 5.54788 52.9489 3.84564 61.0251 4.07732C83.3996 4.71826 90.9696 18.8952 112.619 18.3992C135.444 17.906 143.567 6.95252 163.847 2.49786C176.06 -0.184501 203.249 -1.89435 227.937 7.63855C229.678 8.3107 231.387 9.04736 233.074 9.83605C242.267 14.111 249.517 19.6214 257.616 24.5728C264.89 29.0191 272.497 32.839 283.018 33.2282C299.382 33.8337 309.684 27.7775 327.642 18.5692C332.364 16.1476 337.486 13.5617 343.245 10.8807C352.106 6.75692 361.815 5.09075 372.303 6.12499C380.232 6.90674 388.592 9.08205 397.49 13.5534C406.771 18.2161 416.062 27.4896 425.541 32.8647C426.544 33.4377 427.549 33.9649 428.557 34.4359C443.274 41.3474 463.976 37.6606 480.457 33.043" stroke="url(#paint0_linear_233_19513)" stroke-width="0.786503" stroke-miterlimit="10"/>
<defs>
<linearGradient id="paint0_linear_233_19513" x1="0.213363" y1="19.3273" x2="480.457" y2="19.3273" gradientUnits="userSpaceOnUse">
<stop stop-color="#2D67FF"/>
<stop offset="1" stop-color="#A238FF"/>
</linearGradient>
</defs>
</svg>
