<svg preserveAspectRatio="none" width="100%" height="100%" overflow="visible" style="display: block;" viewBox="0 0 458 40" fill="none" xmlns="http://www.w3.org/2000/svg">
<path id="Vector" d="M0.116312 18.6088C17.49 23.9881 38.5966 21.3502 57.0989 13.6007C72.1193 7.30365 79.9121 0.604324 94.9957 0.396921C108.724 0.208247 116.43 7.34319 127.462 10.5063C139.518 13.9627 146.91 14.5524 159.407 13.4598C174.527 12.1377 192.425 9.15987 219.782 4.8384C221.517 4.5644 223.23 4.27238 224.911 3.93942C234.265 2.08667 242.603 -0.536741 252.343 3.10009C259.205 5.66246 264.013 11.9081 270.836 17.3637C280.172 24.8289 289.816 30.6958 309.575 29.4035C315.59 29.0102 321.306 28.5559 326.87 27.9586C337.213 26.8474 346.517 26.0511 355.031 23.9562C362.963 22.005 370.65 18.7067 378.362 18.511C388.059 18.2648 396.472 26.3847 407.579 31.9569C408.5 32.4188 409.449 32.8718 410.43 33.3074C421.65 38.2899 437.796 40.0268 457.567 38.4946" stroke="url(#paint0_linear_190_19629)" stroke-width="0.786503" stroke-miterlimit="10"/>
<defs>
<linearGradient id="paint0_linear_190_19629" x1="0.116312" y1="19.7134" x2="457.567" y2="19.7134" gradientUnits="userSpaceOnUse">
<stop stop-color="#2D67FF"/>
<stop offset="1" stop-color="#A238FF"/>
</linearGradient>
</defs>
</svg>
