<svg preserveAspectRatio="none" width="100%" height="100%" overflow="visible" style="display: block;" viewBox="0 0 458 39" fill="none" xmlns="http://www.w3.org/2000/svg">
<path id="Vector" d="M0.0844314 19.2595C16.6474 22.9005 36.3827 19.8803 53.6941 12.6233C68.0888 6.58226 75.9393 0.148615 90.0336 0.400412C104.769 0.663307 112.411 8.38231 124.721 11.0716C138.065 13.9864 145.477 12.9611 158.91 11.5114C173.543 9.93192 192.531 7.11361 219.371 4.72466C221.096 4.57137 222.797 4.42362 224.468 4.23841C233.74 3.2118 241.907 1.63997 251.358 5.47588C258.244 8.27131 263.334 14.2479 270.61 18.9918C280.739 25.5947 290.419 29.7559 309.848 27.4717C315.654 26.7891 321.256 26.049 326.818 25.1944C336.891 23.6462 346.209 22.8069 354.913 21.0915C362.8 19.537 370.495 16.7027 378.33 17.3624C387.895 18.1684 396.394 26.033 407.212 31.5899C408.138 32.0658 409.087 32.5291 410.066 32.9696C421.664 38.2012 438.279 39.2229 457.506 37.2793" stroke="url(#paint0_linear_190_19635)" stroke-width="0.786503" stroke-miterlimit="10"/>
<defs>
<linearGradient id="paint0_linear_190_19635" x1="0.0844314" y1="19.2941" x2="457.506" y2="19.2941" gradientUnits="userSpaceOnUse">
<stop stop-color="#2D67FF"/>
<stop offset="1" stop-color="#A238FF"/>
</linearGradient>
</defs>
</svg>
