<svg preserveAspectRatio="none" width="100%" height="100%" overflow="visible" style="display: block;" viewBox="0 0 458 48" fill="none" xmlns="http://www.w3.org/2000/svg">
<path id="Vector" d="M457.001 22.6732C442.87 27.8132 423.469 40.6687 401.175 42.0082C398.416 42.1739 395.619 42.1726 392.785 41.9998C366.088 40.3642 346.438 30.7127 324.398 21.0487C317.843 18.1742 306.269 14.3029 292.586 11.2605C272.606 6.81834 250.12 2.43096 230.58 8.43039C225.607 9.9703 220.954 12.0929 216.787 14.9043C197.247 28.0844 180.552 42.4327 172.445 44.9923C155.874 50.2238 140.454 43.494 132.098 37.4939C121.119 29.6091 115.92 23.7678 108.553 18.2921C105.073 15.7054 101.19 13.1375 95.8615 10.5509C87.1343 6.31336 68.8051 -0.899969 45.0887 0.593471C23.0396 1.98217 7.55015 10.6869 0.208051 15.2643" stroke="url(#paint0_linear_190_19775)" stroke-width="0.786503" stroke-miterlimit="10"/>
<defs>
<linearGradient id="paint0_linear_190_19775" x1="0.208051" y1="23.6324" x2="457.001" y2="23.6324" gradientUnits="userSpaceOnUse">
<stop stop-color="#2D67FF"/>
<stop offset="1" stop-color="#A238FF"/>
</linearGradient>
</defs>
</svg>
