<svg preserveAspectRatio="none" width="100%" height="100%" overflow="visible" style="display: block;" viewBox="0 0 458 45" fill="none" xmlns="http://www.w3.org/2000/svg">
<path id="Vector" d="M0.166156 20.4251C19.1631 29.281 43.0105 27.4067 63.8954 18.6715C80.1671 11.864 87.8555 3.95146 104.907 3.50752C116.617 3.20231 124.44 8.40055 132.931 12.4938C142.39 17.0525 149.753 20.919 160.389 20.475C176.482 19.8036 192.274 16.4248 220.591 8.18344C222.351 7.67152 224.08 7.08538 225.783 6.45831C235.286 2.94079 243.968 -1.74347 254.3 1.46538C261.109 3.58034 265.414 10.34 271.275 17.2246C279.095 26.4106 288.565 35.7431 309.013 36.384C315.439 36.5852 321.386 36.7052 326.961 36.6039C337.831 36.4062 347.089 35.6328 355.253 32.8027C363.246 30.0308 370.909 24.8332 378.411 23.9246C388.351 22.7197 396.595 30.2292 408.297 35.8062C409.205 36.2425 410.153 36.6746 411.142 37.0978C421.592 41.5989 436.814 44.7495 457.672 44.0399" stroke="url(#paint0_linear_190_19587)" stroke-width="0.786503" stroke-miterlimit="10"/>
<defs>
<linearGradient id="paint0_linear_190_19587" x1="0.166156" y1="22.2665" x2="457.672" y2="22.2665" gradientUnits="userSpaceOnUse">
<stop stop-color="#2D67FF"/>
<stop offset="1" stop-color="#A238FF"/>
</linearGradient>
</defs>
</svg>
