<svg preserveAspectRatio="none" width="100%" height="100%" overflow="visible" style="display: block;" viewBox="0 0 458 34" fill="none" xmlns="http://www.w3.org/2000/svg">
<path id="Vector" d="M457.246 18.5534C441.044 14.7979 421.635 20.4484 402.535 20.8064C399.685 20.8598 396.847 20.8223 394.017 20.7647C367.657 20.1973 348.698 19.2116 324.945 16.5432C317.183 15.6712 305.634 14.037 291.906 12.0809C270.479 9.02809 253.072 -2.21121 231.612 2.28992C226.316 3.40116 221.344 5.1124 216.813 7.43476C196.612 17.7897 179.701 30.4239 167.509 32.4667C151.55 35.1408 138.561 31.0544 128.538 25.6543C118.515 20.2542 112.236 15.5693 103.36 11.0515C99.6827 9.18 95.6576 7.16979 90.3262 5.50224C80.6601 2.47929 63.4596 -1.40033 41.9188 1.3077C23.596 3.61133 9.27277 11.0244 0.204839 16.5577" stroke="url(#paint0_linear_190_19703)" stroke-width="0.786503" stroke-miterlimit="10"/>
<defs>
<linearGradient id="paint0_linear_190_19703" x1="0.204839" y1="16.8507" x2="457.246" y2="16.8507" gradientUnits="userSpaceOnUse">
<stop stop-color="#2D67FF"/>
<stop offset="1" stop-color="#A238FF"/>
</linearGradient>
</defs>
</svg>
