<svg preserveAspectRatio="none" width="100%" height="100%" overflow="visible" style="display: block;" viewBox="0 0 458 47" fill="none" xmlns="http://www.w3.org/2000/svg">
<path id="Vector" d="M0.172466 22.9129C20.8586 33.0076 45.7145 30.7102 67.0941 21.4728C72.0737 19.3211 76.2417 17.0591 80.091 14.9899C89.5546 9.9089 96.8729 5.3384 109.392 4.99643C119.553 4.71897 126.448 9.34982 134.332 13.8121C144.745 19.7068 154.278 25.3046 166.146 24.7934C183.086 24.0629 197.792 20.4067 224.872 10.52C236.391 6.31439 246.09 -1.87631 258.226 0.987793C264.642 2.50204 268.775 8.36136 274.172 14.9573C281.927 24.4368 291.324 35.57 311.804 37.6191C330.608 39.4996 344.933 40.6906 356.917 36.6583C364.756 34.0211 372.249 28.7021 379.651 27.5354C381.233 27.2857 382.77 27.2434 384.29 27.3862C392.311 28.1583 399.647 33.7915 409.519 38.0262C420.01 42.526 435.417 46.6102 457.75 46.1864" stroke="url(#paint0_linear_190_19751)" stroke-width="0.786503" stroke-miterlimit="10"/>
<defs>
<linearGradient id="paint0_linear_190_19751" x1="0.172466" y1="23.305" x2="457.75" y2="23.305" gradientUnits="userSpaceOnUse">
<stop stop-color="#2D67FF"/>
<stop offset="1" stop-color="#A238FF"/>
</linearGradient>
</defs>
</svg>
