<svg preserveAspectRatio="none" width="100%" height="100%" overflow="visible" style="display: block;" viewBox="0 0 458 33" fill="none" xmlns="http://www.w3.org/2000/svg">
<path id="Vector" d="M0.238228 32.6061C19.8507 17.673 36.5603 12.4921 49.8155 11.0056C70.6628 8.66801 82.5458 15.3812 98.5298 16.6034C122.791 18.459 129.446 20.3811 143.816 19.1762C161.272 17.7119 175.582 6.59467 196.341 4.37428C215.333 2.34326 233.111 15.0795 257.56 21.3307C277.385 26.3999 290.889 30.1075 308.845 25.4572C329.385 20.1376 343.262 8.97182 367.762 1.93954C378.166 -1.04664 390.371 -0.104654 404.641 8.29274C411.627 12.4033 418.728 19.4148 425.942 23.6891C435.319 29.2453 447.695 29.4964 457.619 29.9292" stroke="url(#paint0_linear_190_19611)" stroke-width="0.786503" stroke-miterlimit="10"/>
<defs>
<linearGradient id="paint0_linear_190_19611" x1="0.238228" y1="16.4997" x2="457.619" y2="16.4997" gradientUnits="userSpaceOnUse">
<stop stop-color="#2D67FF"/>
<stop offset="1" stop-color="#A238FF"/>
</linearGradient>
</defs>
</svg>
