<svg preserveAspectRatio="none" width="100%" height="100%" overflow="visible" style="display: block;" viewBox="0 0 481 44" fill="none" xmlns="http://www.w3.org/2000/svg">
<path id="Vector" d="M480.049 21.4202C464.586 24.0186 444.211 34.8355 421.749 35.8746C418.825 36.0099 415.873 35.9967 412.898 35.8566C384.958 34.5261 364.611 27.2989 340.864 19.6854C333.642 17.3699 321.472 14.1438 307.082 11.4191C285.669 7.36466 263.556 1.00731 242.471 6.60025C237.148 8.01253 232.165 10.0214 227.682 12.694C206.946 25.0584 189.32 38.8858 179.621 41.3371C162.312 45.712 146.898 39.8728 137.657 34.035C126.344 26.889 120.605 21.3571 112.438 16.147C108.711 13.7699 104.612 11.3497 99.0052 9.03221C89.5724 5.13317 70.6414 -1.10834 46.3879 0.721519C24.3454 2.38421 8.42883 10.7074 0.199694 15.5581" stroke="url(#paint0_linear_233_19647)" stroke-width="0.786503" stroke-miterlimit="10"/>
<defs>
<linearGradient id="paint0_linear_233_19647" x1="0.199694" y1="21.6284" x2="480.049" y2="21.6284" gradientUnits="userSpaceOnUse">
<stop stop-color="#2D67FF"/>
<stop offset="1" stop-color="#A238FF"/>
</linearGradient>
</defs>
</svg>
