<svg preserveAspectRatio="none" width="100%" height="100%" overflow="visible" style="display: block;" viewBox="0 0 458 32" fill="none" xmlns="http://www.w3.org/2000/svg">
<path id="Vector" d="M457.631 25.1477C438.176 7.41305 418.732 1.37478 404.673 0.557655C401.673 0.383548 398.776 0.340542 395.952 0.463319C370.122 1.57386 352.009 15.3693 325.803 22.5299C316.081 25.1866 304.601 26.8201 290.838 26.4366C267.084 25.7748 257.776 3.73738 233.237 5.70736C227.448 6.18737 222.004 7.25906 216.855 8.76291C195.831 14.9045 178.642 25.7505 159.756 25.8497C145.194 25.926 136.255 23.9207 122.945 20.1139C115.103 17.8706 106.765 15.4102 95.2001 12.7376C91.35 11.8476 86.8678 11.0159 81.6298 10.6337C70.3204 9.80755 55.0087 10.5352 36.9378 15.4955C24.4219 18.9312 11.9811 24.6192 0.201697 31.657" stroke="url(#paint0_linear_190_19707)" stroke-width="0.786503" stroke-miterlimit="10"/>
<defs>
<linearGradient id="paint0_linear_190_19707" x1="0.201697" y1="16.0251" x2="457.631" y2="16.0251" gradientUnits="userSpaceOnUse">
<stop stop-color="#2D67FF"/>
<stop offset="1" stop-color="#A238FF"/>
</linearGradient>
</defs>
</svg>
