<svg preserveAspectRatio="none" width="100%" height="100%" overflow="visible" style="display: block;" viewBox="0 0 458 32" fill="none" xmlns="http://www.w3.org/2000/svg">
<path id="Vector" d="M0.249818 29.5218C21.1127 12.3607 38.306 7.67649 51.2396 7.04179C72.7007 5.98813 82.8386 14.1088 101.049 16.5088C119.197 18.9005 126.375 17.4078 137.526 15.3199C151.174 12.7645 162.608 4.19989 179.363 1.70203C195.454 -0.696628 218.139 6.16293 242.559 15.5876C260.982 22.6969 272.826 31.3357 292.378 28.2954C312.946 25.0977 325.586 13.6405 350.712 3.43548C362.846 -1.49294 377.074 -0.953979 393.752 8.92853C401.884 13.746 410.119 22.4569 418.364 26.949C429.818 33.1905 445.458 31.4862 457.558 29.6432" stroke="url(#paint0_linear_190_19681)" stroke-width="0.786503" stroke-miterlimit="10"/>
<defs>
<linearGradient id="paint0_linear_190_19681" x1="0.249818" y1="15.8664" x2="457.558" y2="15.8664" gradientUnits="userSpaceOnUse">
<stop stop-color="#2D67FF"/>
<stop offset="1" stop-color="#A238FF"/>
</linearGradient>
</defs>
</svg>
