<svg preserveAspectRatio="none" width="100%" height="100%" overflow="visible" style="display: block;" viewBox="0 0 482 40" fill="none" xmlns="http://www.w3.org/2000/svg">
<path id="Vector" d="M0.0763634 33.87C29.6409 39.7223 52.2963 30.2733 68.744 21.26C73.7538 18.5145 77.9881 15.914 81.6847 14.0841C93.5132 8.24215 99.1975 1.8411 110.756 1.97012C127.788 2.16018 131.808 18.4611 152.216 27.5417C173.65 37.135 198.981 33.3289 221.575 29.2252C242.686 25.3907 256.997 20.1675 270.837 13.7061C281.2 8.86783 288.761 3.46356 297.582 1.41103C303.648 -0.000557156 309.564 0.107659 317.51 1.41728C331.943 3.79652 341.947 10.1747 354.957 15.982C365.613 20.7377 375.766 26.1648 388.788 29.3681C395.013 30.8997 401.912 31.5906 409.652 32.7559C410.945 32.9509 412.26 33.1499 413.588 33.3955C421.866 34.9236 429.757 36.9831 437.871 38.0735C453.277 40.1447 468.099 39.6419 481.055 38.4058" stroke="url(#paint0_linear_233_19303)" stroke-width="0.786503" stroke-miterlimit="10"/>
<defs>
<linearGradient id="paint0_linear_233_19303" x1="0.0763634" y1="19.937" x2="481.055" y2="19.937" gradientUnits="userSpaceOnUse">
<stop stop-color="#2D67FF"/>
<stop offset="1" stop-color="#A238FF"/>
</linearGradient>
</defs>
</svg>
