<svg preserveAspectRatio="none" width="100%" height="100%" overflow="visible" style="display: block;" viewBox="0 0 481 33" fill="none" xmlns="http://www.w3.org/2000/svg">
<path id="Vector" d="M0.233339 31.9704C21.0953 16.5921 38.7466 11.5069 52.6023 10.1945C74.6266 8.108 86.6918 15.4247 103.998 16.5664C128.251 18.166 135.295 19.769 149.713 18.3866C167.246 16.7052 181.673 6.10057 202.635 3.82191C221.973 1.72014 241.665 13.2938 267.349 20.1637C287.868 25.6526 301.715 30.3473 320.906 26.0064C342.49 21.1244 356.828 9.90526 382.665 2.22025C393.97 -1.14189 407.2 -0.292851 422.693 8.40143C430.271 12.6535 437.967 20.0063 445.762 24.3229C456.045 30.0178 469.731 29.8763 480.612 29.8534" stroke="url(#paint0_linear_233_19433)" stroke-width="0.786503" stroke-miterlimit="10"/>
<defs>
<linearGradient id="paint0_linear_233_19433" x1="0.233339" y1="16.1819" x2="480.612" y2="16.1819" gradientUnits="userSpaceOnUse">
<stop stop-color="#2D67FF"/>
<stop offset="1" stop-color="#A238FF"/>
</linearGradient>
</defs>
</svg>
