<svg preserveAspectRatio="none" width="100%" height="100%" overflow="visible" style="display: block;" viewBox="0 0 458 45" fill="none" xmlns="http://www.w3.org/2000/svg">
<path id="Vector" d="M0.153745 24.4784C22.1571 33.8247 46.4616 30.3037 66.8024 21.067C71.7518 18.8195 75.8886 16.4889 79.6792 14.462C89.4598 9.24709 96.441 4.32975 108.695 4.0946C119.924 3.87888 126.296 10.5699 136.199 15.8673C148.397 22.3918 160.471 26.2763 174.053 25.2074C191.537 23.8319 206.116 20.0785 230.692 10.7142C241.938 6.42877 251.139 -1.21672 262.654 0.694303C268.935 1.73617 273.258 6.58206 279.133 12.2C287.805 20.4905 297.362 30.7587 316.417 33.4328C333.69 35.8564 347.274 37.8874 359.253 35.0039C366.803 33.1865 374.095 28.8803 381.481 28.0888C383.004 27.9258 384.488 27.9147 385.962 28.0784C393.961 28.9684 401.255 34.0848 410.819 37.6668C421.969 41.8426 437.225 45.0126 457.795 44.4459" stroke="url(#paint0_linear_190_19665)" stroke-width="0.786503" stroke-miterlimit="10"/>
<defs>
<linearGradient id="paint0_linear_190_19665" x1="0.153745" y1="22.4524" x2="457.795" y2="22.4524" gradientUnits="userSpaceOnUse">
<stop stop-color="#2D67FF"/>
<stop offset="1" stop-color="#A238FF"/>
</linearGradient>
</defs>
</svg>
