<svg preserveAspectRatio="none" width="100%" height="100%" overflow="visible" style="display: block;" viewBox="0 0 481 40" fill="none" xmlns="http://www.w3.org/2000/svg">
<path id="Vector" d="M0.111196 18.6088C18.3591 23.9881 40.5276 21.3502 59.9608 13.6007C75.737 7.30365 83.9218 0.604324 99.7644 0.396921C114.183 0.208247 122.277 7.34319 133.864 10.5063C146.527 13.9627 154.29 14.5524 167.417 13.4598C183.297 12.1377 202.096 9.15987 230.829 4.8384C232.652 4.5644 234.451 4.27238 236.216 3.93942C246.041 2.08667 254.798 -0.536741 265.028 3.10009C272.236 5.66246 277.286 11.9081 284.452 17.3637C294.258 24.8289 304.386 30.6958 325.14 29.4035C331.458 29.0102 337.462 28.5559 343.306 27.9586C354.168 26.8474 363.941 26.0511 372.883 23.9562C381.214 22.005 389.288 18.7067 397.388 18.511C407.574 18.2648 416.41 26.3847 428.076 31.9569C429.043 32.4188 430.039 32.8718 431.07 33.3074C442.854 38.2899 459.813 40.0268 480.578 38.4946" stroke="url(#paint0_linear_233_19333)" stroke-width="0.786503" stroke-miterlimit="10"/>
<defs>
<linearGradient id="paint0_linear_233_19333" x1="0.111196" y1="19.7134" x2="480.578" y2="19.7134" gradientUnits="userSpaceOnUse">
<stop stop-color="#2D67FF"/>
<stop offset="1" stop-color="#A238FF"/>
</linearGradient>
</defs>
</svg>
