<svg preserveAspectRatio="none" width="100%" height="100%" overflow="visible" style="display: block;" viewBox="0 0 481 29" fill="none" xmlns="http://www.w3.org/2000/svg">
<path id="Vector" d="M480.6 22.6904C460.476 6.22647 440.054 1.26752 424.81 0.540573C421.673 0.390744 418.635 0.34496 415.669 0.451089C388.488 1.40903 369.341 13.8268 342.094 20.1273C332.055 22.449 320.005 23.7933 305.554 23.273C280.826 22.3824 270.274 1.30359 244.798 3.53786C238.764 4.06711 233.09 5.20194 227.743 6.78347C205.735 13.2941 187.721 24.2469 168.515 24.5924C153.103 24.8698 143.28 22.7792 129.647 18.7587C121.185 16.2637 112.635 13.591 100.751 10.7255C96.7228 9.7544 92.0593 8.79923 86.5491 8.30812C74.8275 7.26279 58.5789 7.61724 39.2544 12.3466C25.5642 15.6969 12.3079 21.5243 0.194652 28.4248" stroke="url(#paint0_linear_233_19474)" stroke-width="0.786503" stroke-miterlimit="10"/>
<defs>
<linearGradient id="paint0_linear_233_19474" x1="0.194652" y1="14.409" x2="480.6" y2="14.409" gradientUnits="userSpaceOnUse">
<stop stop-color="#2D67FF"/>
<stop offset="1" stop-color="#A238FF"/>
</linearGradient>
</defs>
</svg>
