<svg preserveAspectRatio="none" width="100%" height="100%" overflow="visible" style="display: block;" viewBox="0 0 481 38" fill="none" xmlns="http://www.w3.org/2000/svg">
<path id="Vector" d="M0.0449312 19.9133C16.5888 21.816 35.8777 18.4143 52.8084 11.6498C67.2702 5.86404 75.5773 0.0727224 89.3407 0.407064C105.873 0.808691 113.833 9.43013 128.105 11.6394C143.475 14.0187 151.284 11.3966 166.371 9.5647C181.234 7.76051 202.334 5.09478 229.964 4.61269C231.766 4.58147 233.539 4.57592 235.285 4.53916C244.936 4.33592 253.332 3.82747 262.959 7.85344C270.213 10.8875 275.875 16.5824 283.977 20.6216C295.473 26.3532 305.652 28.8365 325.714 25.5417C331.592 24.5768 337.356 23.5502 343.197 22.432C353.494 20.46 363.288 19.5547 372.635 18.2285C380.866 17.0603 388.965 15.0036 397.323 16.2162C407.223 17.652 416.243 25.6873 427.307 31.2262C428.285 31.7159 429.283 32.1897 430.306 32.6357C442.884 38.119 460.83 38.4235 480.452 36.0679" stroke="url(#paint0_linear_233_19337)" stroke-width="0.786503" stroke-miterlimit="10"/>
<defs>
<linearGradient id="paint0_linear_233_19337" x1="0.0449312" y1="18.9281" x2="480.452" y2="18.9281" gradientUnits="userSpaceOnUse">
<stop stop-color="#2D67FF"/>
<stop offset="1" stop-color="#A238FF"/>
</linearGradient>
</defs>
</svg>
