<svg preserveAspectRatio="none" width="100%" height="100%" overflow="visible" style="display: block;" viewBox="0 0 482 41" fill="none" xmlns="http://www.w3.org/2000/svg">
<path id="Vector" d="M0.0943469 30.5259C27.8144 37.3764 51.3232 29.6546 69.1429 20.5442C74.2153 17.9506 78.4728 15.4174 82.2511 13.5313C93.6351 7.86831 99.7918 1.77594 111.723 1.91606C127.257 2.09918 132.062 15.5214 149.591 23.5456C168.582 32.2385 190.256 30.5918 210.493 27.4169C230.798 24.2309 245.479 19.5619 262.676 12.1912C273.49 7.55616 281.63 1.56229 291.372 0.546086C297.6 -0.103869 303.059 1.37916 310.551 3.83748C323.375 8.04658 333.452 15.4437 348.488 20.3069C361.262 24.4383 372.577 29.0297 385.507 30.3171C392.204 30.9837 399.33 30.1985 407.08 30.761C408.46 30.8609 409.847 30.9913 411.237 31.2147C419.553 32.5513 427.342 35.5805 436.042 37.296C450.339 40.1143 465.558 40.5145 480.985 39.4706" stroke="url(#paint0_linear_233_19309)" stroke-width="0.786503" stroke-miterlimit="10"/>
<defs>
<linearGradient id="paint0_linear_233_19309" x1="0.0943469" y1="20.1953" x2="480.985" y2="20.1953" gradientUnits="userSpaceOnUse">
<stop stop-color="#2D67FF"/>
<stop offset="1" stop-color="#A238FF"/>
</linearGradient>
</defs>
</svg>
