<svg preserveAspectRatio="none" width="100%" height="100%" overflow="visible" style="display: block;" viewBox="0 0 481 36" fill="none" xmlns="http://www.w3.org/2000/svg">
<path id="Vector" d="M0.115869 22.2505C13.6772 18.0691 27.9273 13.3308 40.4784 8.29068C52.6398 3.39902 61.1403 0.322654 71.285 0.478726C91.5428 0.791565 99.2418 13.1733 118.213 13.6769C138.323 14.211 146.282 6.18959 164.728 2.80386C177.872 0.391327 202.959 -1.69103 228.637 4.27441C230.406 4.68505 232.13 5.15951 233.842 5.64576C243.188 8.30385 250.893 11.5959 259.523 16.2289C266.814 20.1432 273.7 24.7067 283.33 26.3798C297.937 28.9179 308.108 25.8381 326.905 18.8405C332.027 16.9336 337.381 14.9102 343.192 12.8175C352.541 9.44907 362.301 8.42385 372.388 8.26223C380.413 8.1339 388.644 9.00306 397.394 12.2577C406.85 15.7752 416.111 24.5534 426.148 30.0049C427.144 30.5459 428.145 31.0544 429.158 31.517C443.109 37.8959 462.797 35.6734 480.42 31.8784" stroke="url(#paint0_linear_233_19413)" stroke-width="0.786503" stroke-miterlimit="10"/>
<defs>
<linearGradient id="paint0_linear_233_19413" x1="0.115869" y1="17.9687" x2="480.42" y2="17.9687" gradientUnits="userSpaceOnUse">
<stop stop-color="#2D67FF"/>
<stop offset="1" stop-color="#A238FF"/>
</linearGradient>
</defs>
</svg>
