<svg preserveAspectRatio="none" width="100%" height="100%" overflow="visible" style="display: block;" viewBox="0 0 459 40" fill="none" xmlns="http://www.w3.org/2000/svg">
<path id="Vector" d="M0.0756329 34.9113C28.6626 40.5139 50.0257 30.6294 65.3631 21.6444C70.1155 18.8601 74.1433 16.2436 77.6445 14.4276C89.0117 8.54059 94.3119 2.03896 105.227 2.18879C121.8 2.41631 125.448 19.3928 145.556 28.7461C166.553 38.5557 191.536 34.2246 213.607 29.8823C233.902 25.8896 247.425 20.5138 259.813 14.2896C269.563 9.39031 276.622 4.1338 284.813 1.83156C290.542 0.221588 296.285 -0.0170295 303.963 1.01652C318.081 2.91644 327.604 9.05459 339.5 15.1046C349.148 20.0109 358.557 25.6323 370.951 29.3343C376.777 31.0747 383.285 32.1367 390.646 33.4581C391.857 33.6752 393.091 33.8937 394.341 34.1441C402.213 35.7215 409.75 37.5271 417.338 38.4718C432.27 40.3301 446.287 39.6274 458.035 38.3435" stroke="url(#paint0_linear_190_19741)" stroke-width="0.786503" stroke-miterlimit="10"/>
<defs>
<linearGradient id="paint0_linear_190_19741" x1="0.0756329" y1="19.9997" x2="458.035" y2="19.9997" gradientUnits="userSpaceOnUse">
<stop stop-color="#2D67FF"/>
<stop offset="1" stop-color="#A238FF"/>
</linearGradient>
</defs>
</svg>
