<svg preserveAspectRatio="none" width="100%" height="100%" overflow="visible" style="display: block;" viewBox="0 0 458 42" fill="none" xmlns="http://www.w3.org/2000/svg">
<path id="Vector" d="M0.114049 28.5624C25.1899 36.1614 48.1643 29.718 66.127 20.552C70.9967 18.0667 75.0703 15.5903 78.7263 13.6613C89.247 8.13283 95.4441 2.33456 107.073 2.42057C120.796 2.52184 125.914 13.8805 140.563 21.0931C156.884 29.1284 174.936 29.1131 192.508 26.6049C211.276 23.926 225.471 19.6101 244.278 11.599C254.871 7.0868 263.079 1.19696 272.992 0.44157C278.992 -0.0155489 283.915 2.82637 290.718 6.19754C301.794 11.685 311.446 19.9118 327.187 24.0959C340.878 27.7355 352.595 32.5911 364.71 31.5742C371.411 31.0117 378.377 29.675 385.756 29.8103C387.133 29.8352 388.501 29.9185 389.87 30.1252C397.813 31.3231 405.164 35.0314 413.859 37.258C426.697 40.546 441.452 41.7148 457.904 40.8137" stroke="url(#paint0_linear_190_19601)" stroke-width="0.786503" stroke-miterlimit="10"/>
<defs>
<linearGradient id="paint0_linear_190_19601" x1="0.114049" y1="20.7502" x2="457.904" y2="20.7502" gradientUnits="userSpaceOnUse">
<stop stop-color="#2D67FF"/>
<stop offset="1" stop-color="#A238FF"/>
</linearGradient>
</defs>
</svg>
