<svg preserveAspectRatio="none" width="100%" height="100%" overflow="visible" style="display: block;" viewBox="0 0 28 28" fill="none" xmlns="http://www.w3.org/2000/svg">
<g id="Frame">
<path id="Vector" d="M10.5 11.375C10.3269 11.375 10.1578 11.3237 10.0139 11.2275C9.86998 11.1314 9.75783 10.9947 9.69161 10.8348C9.62538 10.675 9.60805 10.499 9.64181 10.3293C9.67557 10.1596 9.75891 10.0037 9.88128 9.88128C10.0037 9.75891 10.1596 9.67557 10.3293 9.64181C10.499 9.60805 10.675 9.62538 10.8348 9.69161C10.9947 9.75783 11.1314 9.86998 11.2275 10.0139C11.3237 10.1578 11.375 10.3269 11.375 10.5C11.375 10.7321 11.2828 10.9546 11.1187 11.1187C10.9546 11.2828 10.7321 11.375 10.5 11.375ZM17.5 16.625C17.3269 16.625 17.1578 16.6763 17.0139 16.7725C16.87 16.8686 16.7578 17.0053 16.6916 17.1652C16.6254 17.325 16.6081 17.501 16.6418 17.6707C16.6756 17.8404 16.7589 17.9963 16.8813 18.1187C17.0037 18.2411 17.1596 18.3244 17.3293 18.3582C17.499 18.3919 17.675 18.3746 17.8348 18.3084C17.9947 18.2422 18.1314 18.13 18.2275 17.9861C18.3237 17.8422 18.375 17.6731 18.375 17.5C18.375 17.2679 18.2828 17.0454 18.1187 16.8813C17.9546 16.7172 17.7321 16.625 17.5 16.625ZM26.25 14C26.25 15.1419 25.4286 15.9983 24.7034 16.7541C24.2911 17.185 23.8645 17.6291 23.7038 18.0195C23.555 18.3772 23.5462 18.97 23.5375 19.5442C23.5211 20.6117 23.5036 21.8214 22.6625 22.6625C21.8214 23.5036 20.6117 23.5211 19.5442 23.5375C18.97 23.5462 18.3772 23.555 18.0195 23.7038C17.6291 23.8645 17.185 24.2911 16.7541 24.7034C15.9983 25.4286 15.1419 26.25 14 26.25C12.8581 26.25 12.0017 25.4286 11.2459 24.7034C10.815 24.2911 10.3709 23.8645 9.98047 23.7038C9.62281 23.555 9.03 23.5462 8.45578 23.5375C7.38828 23.5211 6.17859 23.5036 5.3375 22.6625C4.49641 21.8214 4.47891 20.6117 4.4625 19.5442C4.45375 18.97 4.445 18.3772 4.29625 18.0195C4.13547 17.6291 3.70891 17.185 3.29656 16.7541C2.57141 15.9983 1.75 15.1419 1.75 14C1.75 12.8581 2.57141 12.0017 3.29656 11.2459C3.70891 10.815 4.13547 10.3709 4.29625 9.98047C4.445 9.62281 4.45375 9.03 4.4625 8.45578C4.47891 7.38828 4.49641 6.17859 5.3375 5.3375C6.17859 4.49641 7.38828 4.47891 8.45578 4.4625C9.03 4.45375 9.62281 4.445 9.98047 4.29625C10.3709 4.13547 10.815 3.70891 11.2459 3.29656C12.0017 2.57141 12.8581 1.75 14 1.75C15.1419 1.75 15.9983 2.57141 16.7541 3.29656C17.185 3.70891 17.6291 4.13547 18.0195 4.29625C18.3772 4.445 18.97 4.45375 19.5442 4.4625C20.6117 4.47891 21.8214 4.49641 22.6625 5.3375C23.5036 6.17859 23.5211 7.38828 23.5375 8.45578C23.5462 9.03 23.555 9.62281 23.7038 9.98047C23.8645 10.3709 24.2911 10.815 24.7034 11.2459C25.4286 12.0017 26.25 12.8581 26.25 14ZM10.5 13.125C11.0192 13.125 11.5267 12.971 11.9584 12.6826C12.3901 12.3942 12.7265 11.9842 12.9252 11.5045C13.1239 11.0249 13.1758 10.4971 13.0746 9.98789C12.9733 9.47869 12.7233 9.01096 12.3562 8.64384C11.989 8.27673 11.5213 8.02672 11.0121 7.92544C10.5029 7.82415 9.97511 7.87614 9.49546 8.07482C9.0158 8.2735 8.60583 8.60995 8.31739 9.04163C8.02895 9.47331 7.875 9.98082 7.875 10.5C7.875 11.1962 8.15156 11.8639 8.64384 12.3562C9.13613 12.8484 9.80381 13.125 10.5 13.125ZM18.9941 10.2441C19.0754 10.1628 19.1398 10.0663 19.1838 9.96003C19.2278 9.85382 19.2505 9.73997 19.2505 9.625C19.2505 9.51003 19.2278 9.39618 19.1838 9.28997C19.1398 9.18375 19.0754 9.08723 18.9941 9.00594C18.9128 8.92464 18.8163 8.86015 18.71 8.81616C18.6038 8.77216 18.49 8.74951 18.375 8.74951C18.26 8.74951 18.1462 8.77216 18.04 8.81616C17.9337 8.86015 17.8372 8.92464 17.7559 9.00594L9.00594 17.7559C8.92464 17.8372 8.86015 17.9337 8.81616 18.04C8.77216 18.1462 8.74951 18.26 8.74951 18.375C8.74951 18.49 8.77216 18.6038 8.81616 18.71C8.86015 18.8163 8.92464 18.9128 9.00594 18.9941C9.17012 19.1582 9.39281 19.2505 9.625 19.2505C9.73997 19.2505 9.85382 19.2278 9.96003 19.1838C10.0663 19.1398 10.1628 19.0754 10.2441 18.9941L18.9941 10.2441ZM20.125 17.5C20.125 16.9808 19.971 16.4733 19.6826 16.0416C19.3942 15.6099 18.9842 15.2735 18.5045 15.0748C18.0249 14.8761 17.4971 14.8242 16.9879 14.9254C16.4787 15.0267 16.011 15.2767 15.6438 15.6438C15.2767 16.011 15.0267 16.4787 14.9254 16.9879C14.8242 17.4971 14.8761 18.0249 15.0748 18.5045C15.2735 18.9842 15.6099 19.3942 16.0416 19.6826C16.4733 19.971 16.9808 20.125 17.5 20.125C18.1962 20.125 18.8639 19.8484 19.3562 19.3562C19.8484 18.8639 20.125 18.1962 20.125 17.5Z" fill="var(--fill-0, #444CE7)"/>
</g>
</svg>
