<svg preserveAspectRatio="none" width="100%" height="100%" overflow="visible" style="display: block;" viewBox="0 0 482 41" fill="none" xmlns="http://www.w3.org/2000/svg">
<path id="Vector" d="M0.0639837 37.2987C31.0111 42.4019 52.9882 31.626 68.4449 22.7174C73.3931 19.847 77.6246 17.207 81.2605 15.4187C93.4219 9.44218 98.7521 2.74771 110.03 2.93014C128.184 3.24923 131.64 21.5597 154.185 31.4588C177.476 41.7006 205.551 36.3574 229.887 31.5011C251.626 27.2233 265.59 21.5 276.957 15.7621C286.935 10.7248 294.055 5.77205 302.24 2.97939C308.146 0.964322 314.414 0.0313597 322.729 0.521774C338.329 1.44087 348.361 7.11357 359.809 13.6575C368.91 18.8599 378.274 24.8594 391.248 29.5748C397.175 31.7293 403.867 33.5287 411.58 35.1706C412.811 35.4328 414.069 35.6894 415.35 35.9495C423.595 37.6323 431.559 38.9142 439.243 39.5753C455.479 40.973 470.006 39.9054 481.109 38.5265" stroke="url(#paint0_linear_233_19293)" stroke-width="0.786503" stroke-miterlimit="10"/>
<defs>
<linearGradient id="paint0_linear_233_19293" x1="0.0639837" y1="20.3121" x2="481.109" y2="20.3121" gradientUnits="userSpaceOnUse">
<stop stop-color="#2D67FF"/>
<stop offset="1" stop-color="#A238FF"/>
</linearGradient>
</defs>
</svg>
