<svg preserveAspectRatio="none" width="100%" height="100%" overflow="visible" style="display: block;" viewBox="0 0 458 44" fill="none" xmlns="http://www.w3.org/2000/svg">
<path id="Vector" d="M0.136028 26.1287C23.4558 34.7259 47.1987 29.9639 66.5126 20.7459C71.4299 18.3993 75.5384 16.0034 79.2704 14.0189C89.3679 8.6694 96.0129 3.41911 107.999 3.27691C120.296 3.13125 126.135 11.8838 138.069 18.0067C152.037 25.1735 166.665 27.3697 181.962 25.7063C199.99 23.746 214.425 19.8012 236.514 10.9931C247.484 6.61894 256.221 -0.499347 267.083 0.485644C273.247 1.04473 277.79 4.88481 284.097 9.52676C293.75 16.6319 303.398 26.0198 321.031 29.3306C336.77 32.2856 349.552 35.1393 361.59 33.4336C368.812 32.4097 375.932 29.1308 383.311 28.7264C384.772 28.6467 386.207 28.673 387.635 28.8555C395.61 29.8751 402.906 34.4186 412.12 37.3916C423.97 41.215 439.035 43.4992 457.84 42.7889" stroke="url(#paint0_linear_190_19749)" stroke-width="0.786503" stroke-miterlimit="10"/>
<defs>
<linearGradient id="paint0_linear_190_19749" x1="0.136028" y1="21.6555" x2="457.84" y2="21.6555" gradientUnits="userSpaceOnUse">
<stop stop-color="#2D67FF"/>
<stop offset="1" stop-color="#A238FF"/>
</linearGradient>
</defs>
</svg>
