<svg preserveAspectRatio="none" width="100%" height="100%" overflow="visible" style="display: block;" viewBox="0 0 458 38" fill="none" xmlns="http://www.w3.org/2000/svg">
<path id="Vector" d="M0.0264262 20.2405C15.372 21.2741 33.0517 17.681 48.5759 11.1634C62.0317 5.50522 69.9701 0.0482337 82.5785 0.410322C98.8219 0.877152 106.368 9.95571 120.596 11.9236C135.874 14.0372 143.322 10.6237 158.151 8.59198C172.063 6.68582 192.705 4.0971 218.741 4.55769C220.453 4.58821 222.133 4.65341 223.791 4.69087C232.938 4.89896 240.844 4.92601 249.868 9.04355C256.785 12.199 262.332 17.7469 270.259 21.4378C281.62 26.7283 291.309 28.3861 310.247 24.578C315.738 23.4737 321.17 22.3049 326.729 21.0521C336.399 18.8727 345.724 17.9258 354.724 16.7986C362.534 15.8206 370.255 14.1503 378.272 15.6444C387.631 17.3882 396.261 25.5172 406.652 31.0456C407.587 31.5423 408.537 32.0209 409.509 32.4697C421.673 38.0793 438.994 38.0245 457.406 35.4635" stroke="url(#paint0_linear_190_19725)" stroke-width="0.786503" stroke-miterlimit="10"/>
<defs>
<linearGradient id="paint0_linear_190_19725" x1="0.0264262" y1="18.7627" x2="457.406" y2="18.7627" gradientUnits="userSpaceOnUse">
<stop stop-color="#2D67FF"/>
<stop offset="1" stop-color="#A238FF"/>
</linearGradient>
</defs>
</svg>
