<svg preserveAspectRatio="none" width="100%" height="100%" overflow="visible" style="display: block;" viewBox="0 0 458 42" fill="none" xmlns="http://www.w3.org/2000/svg">
<path id="Vector" d="M457.107 20.8135C442.088 22.1411 422.688 31.9328 401.758 32.8276C398.961 32.9469 396.146 32.9281 393.313 32.8047C366.761 31.6269 347.498 25.6233 324.632 19.0231C317.588 16.99 306.001 14.0857 292.294 11.5171C271.701 7.65898 251.373 0.327044 231.022 5.70357C225.908 7.05481 221.117 9.00398 216.798 11.608C196.958 23.5666 180.142 37.1414 170.33 39.529C153.929 43.5196 139.603 38.0799 130.573 32.3247C119.924 25.5386 114.315 20.1697 106.328 15.0936C102.749 12.8198 98.8297 10.4766 93.4892 8.29159C84.3764 4.56389 66.5108 -1.19692 43.7296 0.804278C23.2753 2.60085 8.28788 10.736 0.20653 15.7234" stroke="url(#paint0_linear_190_19777)" stroke-width="0.786503" stroke-miterlimit="10"/>
<defs>
<linearGradient id="paint0_linear_190_19777" x1="0.20653" y1="20.646" x2="457.107" y2="20.646" gradientUnits="userSpaceOnUse">
<stop stop-color="#2D67FF"/>
<stop offset="1" stop-color="#A238FF"/>
</linearGradient>
</defs>
</svg>
