<svg preserveAspectRatio="none" width="100%" height="100%" overflow="visible" style="display: block;" viewBox="0 0 29 44" fill="none" xmlns="http://www.w3.org/2000/svg">
<g id="Shape">
<path d="M7.58333 0C5.1901 0 3.25 1.9401 3.25 4.33333V7.12998C4.25363 6.72372 5.35069 6.5 6.5 6.5H19.5C20.6493 6.5 21.7464 6.72372 22.75 7.12998V4.33333C22.75 1.9401 20.8099 0 18.4167 0H7.58333ZM6.5 8.66667C2.91015 8.66667 0 11.5768 0 15.1667V28.1667C0 31.7565 2.91015 34.6667 6.5 34.6667H19.5C23.0899 34.6667 26 31.7565 26 28.1667V23.8333C27.1966 23.8333 28.1667 22.8633 28.1667 21.6667V19.5C28.1667 18.3034 27.1966 17.3333 26 17.3333V15.1667C26 11.5768 23.0899 8.66667 19.5 8.66667H6.5ZM6.5 36.8333C5.35069 36.8333 4.25363 36.6096 3.25 36.2033V39C3.25 41.3932 5.1901 43.3333 7.58333 43.3333H18.4167C20.8099 43.3333 22.75 41.3932 22.75 39V36.2033C21.7464 36.6096 20.6493 36.8333 19.5 36.8333H6.5Z" fill="var(--fill-0, #1D4D38)"/>
<path d="M7.58333 0C5.1901 0 3.25 1.9401 3.25 4.33333V7.12998C4.25363 6.72372 5.35069 6.5 6.5 6.5H19.5C20.6493 6.5 21.7464 6.72372 22.75 7.12998V4.33333C22.75 1.9401 20.8099 0 18.4167 0H7.58333ZM6.5 8.66667C2.91015 8.66667 0 11.5768 0 15.1667V28.1667C0 31.7565 2.91015 34.6667 6.5 34.6667H19.5C23.0899 34.6667 26 31.7565 26 28.1667V23.8333C27.1966 23.8333 28.1667 22.8633 28.1667 21.6667V19.5C28.1667 18.3034 27.1966 17.3333 26 17.3333V15.1667C26 11.5768 23.0899 8.66667 19.5 8.66667H6.5ZM6.5 36.8333C5.35069 36.8333 4.25363 36.6096 3.25 36.2033V39C3.25 41.3932 5.1901 43.3333 7.58333 43.3333H18.4167C20.8099 43.3333 22.75 41.3932 22.75 39V36.2033C21.7464 36.6096 20.6493 36.8333 19.5 36.8333H6.5Z" fill="url(#paint0_linear_190_19859)"/>
</g>
<defs>
<linearGradient id="paint0_linear_190_19859" x1="23.4716" y1="1.2" x2="-10.0393" y2="29.7498" gradientUnits="userSpaceOnUse">
<stop stop-color="#A4BCFD"/>
<stop offset="1" stop-color="#444CE7"/>
</linearGradient>
</defs>
</svg>
