<svg preserveAspectRatio="none" width="100%" height="100%" overflow="visible" style="display: block;" viewBox="0 0 705 723" fill="none" xmlns="http://www.w3.org/2000/svg">
<g id="Group">
<g id="Vector">
</g>
<g id="Group_2">
<path id="Vector_2" d="M1.36984 196.795C11.886 187.834 36.1842 168.893 71.668 166.59C109.044 164.167 137.631 181.233 150.661 190.754C175.524 208.924 179.986 224.11 205.43 250.9C217.616 263.73 242.6 279.893 267.98 266.922C278.772 261.406 304.218 230.414 333.884 201.261C381.382 154.586 471.96 192.274 498.88 212.292C531.727 236.719 562.443 261.83 603.581 265.872C644.879 269.928 679.371 233.324 702.609 215.444" stroke="url(#paint0_linear_215_19362)" stroke-width="1.13612" stroke-miterlimit="10"/>
<path id="Vector_3" d="M702.641 218.59C681.399 231.94 651.607 260.82 616.681 263.934C612.466 264.309 608.179 264.319 603.829 263.926C562.766 260.203 532.337 237.596 498.98 215.323C489.147 208.758 471.389 200.058 450.404 193.356C420.025 183.754 384.402 176.575 354.826 189.534C347.261 192.864 340.201 197.424 333.87 203.411C304.074 231.755 278.485 262.143 266.877 267.568C241.435 279.46 217.13 264.412 204.628 251.75C187.638 234.544 179.843 222.074 168.836 210.397C163.551 204.79 157.593 199.297 149.426 193.625C136.213 184.451 107.841 168.341 70.9517 171.175C36.278 173.709 12.2428 192.306 1.34832 201.552" stroke="url(#paint1_linear_215_19362)" stroke-width="1.13612" stroke-miterlimit="10"/>
<path id="Vector_4" d="M702.674 221.713C680.978 232.416 651.19 259.185 616.96 261.975C612.725 262.32 608.429 262.317 604.079 261.957C563.089 258.551 532.919 238.454 499.079 218.33C489.015 212.344 471.244 204.283 450.235 197.948C419.559 188.697 385.034 179.561 355.033 192.054C347.399 195.261 340.254 199.681 333.856 205.535C303.856 232.981 278.221 262.859 265.774 268.189C240.332 279.082 216.656 265.069 203.828 252.574C186.97 236.156 178.988 223.992 167.677 212.59C162.334 207.203 156.372 201.856 148.19 196.47C134.791 187.646 106.649 172.625 70.2354 175.735C36.3817 178.627 12.5997 196.753 1.32689 206.285" stroke="url(#paint2_linear_215_19362)" stroke-width="1.13612" stroke-miterlimit="10"/>
<path id="Vector_5" d="M702.705 224.836C680.555 232.893 650.769 257.545 617.236 260.016C612.981 260.33 608.676 260.314 604.326 259.989C563.41 256.901 533.466 239.32 499.175 221.339C488.869 215.934 471.085 208.544 450.061 202.541C419.074 193.692 385.636 182.482 355.236 194.578C347.525 197.646 340.313 201.953 333.838 207.663C303.679 234.258 277.973 263.588 264.667 268.813C239.275 278.782 216.186 265.729 203.022 253.404C186.314 237.76 178.136 225.913 166.514 214.787C161.118 209.62 155.143 204.424 146.953 199.318C133.361 190.845 105.451 176.84 69.517 180.298C36.4791 183.477 12.9545 201.205 1.30327 211.02" stroke="url(#paint3_linear_215_19362)" stroke-width="1.13612" stroke-miterlimit="10"/>
<path id="Vector_6" d="M702.738 227.959C680.133 233.37 650.348 255.894 617.513 258.058C613.238 258.34 608.923 258.312 604.575 258.021C563.732 255.25 533.988 240.201 499.274 224.347C488.717 219.525 470.926 212.807 449.891 207.133C418.589 198.691 386.264 185.452 355.441 197.099C347.659 200.04 340.375 204.223 333.822 209.788C303.51 235.535 277.743 264.328 263.565 269.433C238.262 278.543 215.731 266.384 202.222 254.227C185.684 239.347 177.295 227.828 165.355 216.979C159.908 212.029 153.915 206.989 145.72 202.163C131.931 194.044 104.257 181.047 68.8026 184.857C36.5804 188.32 13.3132 205.651 1.28362 215.752" stroke="url(#paint4_linear_215_19362)" stroke-width="1.13612" stroke-miterlimit="10"/>
<path id="Vector_7" d="M702.77 231.08C679.711 233.845 649.924 254.235 617.789 256.098C613.494 256.346 609.172 256.307 604.823 256.05C564.055 253.598 534.48 241.096 499.372 227.352C488.556 223.119 470.767 217.071 449.721 211.722C418.103 203.688 386.892 188.421 355.646 199.616C347.794 202.43 340.438 206.489 333.806 211.911C303.345 236.813 277.527 265.081 262.461 270.053C237.279 278.362 215.283 267.035 201.418 255.051C185.07 240.92 176.458 229.74 164.193 219.17C158.7 214.435 152.681 209.556 144.482 205.006C130.49 197.243 103.06 185.247 68.0823 189.414C36.6772 193.156 13.666 210.096 1.25811 220.481" stroke="url(#paint5_linear_215_19362)" stroke-width="1.13612" stroke-miterlimit="10"/>
<path id="Vector_8" d="M702.805 234.205C679.292 234.324 649.504 252.57 618.069 254.141C613.754 254.356 609.422 254.307 605.075 254.085C564.38 251.95 534.951 242.02 499.474 230.364C488.393 226.723 470.609 221.344 449.555 216.319C417.619 208.698 387.525 191.4 355.856 202.143C347.933 204.831 340.507 208.766 333.795 214.042C303.189 238.104 277.327 265.858 261.36 270.68C236.324 278.241 214.851 267.69 200.621 255.882C184.477 242.486 175.633 231.656 163.037 221.369C157.501 216.847 151.451 212.131 143.251 207.857C129.054 200.455 101.871 189.454 67.3704 193.981C36.7839 197.995 14.0272 214.551 1.24099 225.219" stroke="url(#paint6_linear_215_19362)" stroke-width="1.13612" stroke-miterlimit="10"/>
<path id="Vector_9" d="M702.836 237.338C678.868 234.811 649.078 250.905 618.345 252.193C614.009 252.375 609.668 252.314 605.323 252.126C564.702 250.309 535.396 242.976 499.571 233.382C488.217 230.342 470.446 225.626 449.383 220.921C417.128 213.718 388.154 194.385 356.06 204.674C348.067 207.237 340.57 211.047 333.778 216.178C303.031 239.401 277.133 266.657 260.257 271.31C235.385 278.168 214.425 268.343 199.818 256.715C183.895 244.041 174.811 233.57 161.877 223.57C156.302 219.26 150.213 214.714 142.016 210.71C127.608 203.672 100.68 193.655 66.6546 198.548C36.8853 202.83 14.3846 219.006 1.22002 229.96" stroke="url(#paint7_linear_215_19362)" stroke-width="1.13612" stroke-miterlimit="10"/>
<path id="Vector_10" d="M702.869 240.484C678.447 235.31 648.652 249.244 618.623 250.257C614.266 250.404 609.917 250.335 605.572 250.18C565.025 248.681 535.824 243.974 499.671 236.412C488.036 233.98 470.284 229.922 449.214 225.535C416.638 218.752 388.787 197.386 356.266 207.219C348.204 209.657 340.637 213.343 333.764 218.326C302.88 240.718 276.948 267.492 259.153 271.955C234.46 278.15 214.01 269.006 199.017 257.564C183.332 245.596 173.996 235.495 160.717 225.788C155.105 221.686 148.973 217.317 140.781 213.581C126.158 206.912 99.4866 197.869 65.9381 203.132C36.9874 207.675 14.7412 223.477 1.19695 234.716" stroke="url(#paint8_linear_215_19362)" stroke-width="1.13612" stroke-miterlimit="10"/>
<path id="Vector_11" d="M702.901 243.644C678.025 235.824 648.224 247.59 618.899 248.335C614.522 248.447 610.165 248.369 605.821 248.249C565.348 247.067 536.24 245.015 499.769 239.458C487.852 237.642 470.12 234.239 449.042 230.166C416.144 223.809 389.417 200.405 356.469 209.778C348.337 212.092 340.703 215.655 333.746 220.491C302.731 242.053 276.766 268.362 258.047 272.616C233.544 278.184 213.601 269.675 198.212 258.43C182.822 247.186 173.182 237.43 159.554 228.022C153.908 224.125 147.728 219.939 139.542 216.467C124.701 210.172 98.292 202.093 65.2189 207.732C37.0867 212.529 15.0952 227.966 1.17254 239.488" stroke="url(#paint9_linear_215_19362)" stroke-width="1.13612" stroke-miterlimit="10"/>
<path id="Vector_12" d="M702.933 246.824C677.602 236.358 647.798 245.949 619.176 246.434C614.778 246.509 610.413 246.423 606.069 246.337C565.67 245.472 536.646 246.106 499.867 242.523C487.666 241.334 469.956 238.576 448.871 234.814C415.65 228.886 390.05 203.444 356.674 212.356C348.473 214.546 340.77 217.986 333.731 222.673C302.587 243.411 276.593 269.275 256.943 273.295C232.636 278.268 213.206 270.352 197.41 259.313C182.244 248.713 172.379 239.377 158.393 230.272C152.716 226.578 146.483 222.581 138.307 219.37C123.245 213.455 97.1005 206.327 64.5013 212.35C37.1863 217.397 15.4507 232.471 1.14972 244.279" stroke="url(#paint10_linear_215_19362)" stroke-width="1.13612" stroke-miterlimit="10"/>
<path id="Vector_13" d="M702.966 250.479C677.181 237.367 647.37 244.774 619.454 245.008C615.035 245.045 610.661 244.953 606.319 244.901C565.994 244.354 537.052 247.703 499.967 246.062C487.479 245.509 469.792 243.392 448.703 239.938C415.159 234.445 390.686 206.962 356.883 215.409C348.613 217.476 340.841 220.794 333.719 225.33C302.45 245.249 276.427 270.686 255.844 274.447C231.738 278.852 212.827 271.492 196.612 260.668C181.724 250.731 171.585 241.788 157.238 232.996C151.533 229.499 145.242 225.699 137.077 222.745C121.79 217.216 95.9142 211.026 63.7904 217.44C37.2925 222.729 15.8129 237.448 1.1336 249.541" stroke="url(#paint11_linear_215_19362)" stroke-width="1.13612" stroke-miterlimit="10"/>
<path id="Vector_14" d="M702.998 254.355C676.759 238.595 646.942 243.813 619.731 243.802C615.29 243.801 610.908 243.703 606.567 243.685C566.317 243.456 537.458 249.55 500.065 249.823C487.292 249.917 469.627 248.43 448.532 245.283C414.663 240.229 391.32 210.702 357.088 218.682C348.749 220.627 340.911 223.822 333.703 228.208C302.313 247.312 276.261 272.341 254.739 275.821C230.839 279.685 212.452 272.84 195.809 262.246C181.21 252.954 170.791 244.415 156.077 235.942C150.345 232.641 143.994 229.042 135.84 226.344C120.326 221.207 94.7195 215.944 63.0725 222.753C37.3918 228.279 16.1682 242.65 1.11053 255.027" stroke="url(#paint12_linear_215_19362)" stroke-width="1.13612" stroke-miterlimit="10"/>
<path id="Vector_15" d="M703.032 258.241C676.339 239.835 646.516 242.854 620.01 242.607C615.549 242.565 611.159 242.464 606.817 242.479C566.64 242.568 537.871 251.431 500.165 253.594C487.107 254.344 469.461 253.485 448.363 250.639C414.169 246.028 391.955 214.456 357.294 221.969C348.886 223.791 340.98 226.865 333.688 231.1C302.18 249.395 276.097 274.039 253.636 277.209C229.941 280.553 212.09 274.186 195.007 263.838C180.708 255.177 170.002 247.047 154.916 238.902C149.159 235.793 142.744 232.405 134.605 229.955C118.861 225.217 93.5248 220.864 62.356 228.078C37.491 233.833 16.5248 247.863 1.0888 260.525" stroke="url(#paint13_linear_215_19362)" stroke-width="1.13612" stroke-miterlimit="10"/>
<path id="Vector_16" d="M703.065 262.131C675.918 241.078 646.087 241.891 620.287 241.415C615.805 241.332 611.406 241.227 607.066 241.279C566.963 241.685 538.291 253.34 500.263 257.37C486.925 258.782 469.295 258.544 448.191 255.999C413.671 251.836 392.589 218.216 357.498 225.257C349.021 226.959 341.049 229.911 333.671 233.993C302.048 251.484 275.931 275.765 252.53 278.599C229.04 281.444 211.736 275.513 194.203 265.431C180.213 257.386 169.214 249.67 153.753 241.862C147.972 238.943 141.492 235.771 133.367 233.568C117.393 229.238 92.3279 225.779 61.6373 233.407C37.5867 239.384 16.8792 253.078 1.06489 266.025" stroke="url(#paint14_linear_215_19362)" stroke-width="1.13612" stroke-miterlimit="10"/>
<path id="Vector_17" d="M703.096 266.026C675.496 242.327 645.659 240.926 620.563 240.228C616.06 240.102 611.653 239.997 607.314 240.082C567.285 240.806 538.721 255.275 500.361 261.149C486.746 263.235 469.127 263.611 448.02 261.363C413.174 257.652 393.224 221.982 357.702 228.551C349.157 230.132 341.12 232.966 333.655 236.892C301.918 253.585 275.767 277.523 251.427 279.992C228.137 282.355 211.394 276.824 193.402 267.03C179.726 259.585 168.432 252.289 152.594 244.829C146.791 242.096 140.244 239.146 132.133 237.186C115.926 233.27 91.1315 230.688 60.9205 238.739C37.6828 244.931 17.2356 258.299 1.0429 271.53" stroke="url(#paint15_linear_215_19362)" stroke-width="1.13612" stroke-miterlimit="10"/>
<path id="Vector_18" d="M703.129 269.925C675.074 243.58 645.232 239.959 620.841 239.046C616.316 238.877 611.903 238.77 607.564 238.89C567.609 239.931 539.166 257.228 500.461 264.934C486.574 267.699 468.963 268.684 447.852 266.731C412.681 263.477 393.861 225.756 357.91 231.848C349.295 233.308 341.194 236.023 333.641 239.792C301.793 255.693 275.603 279.312 250.325 281.389C227.233 283.286 211.065 278.115 192.601 268.63C179.247 261.771 167.654 254.901 151.435 247.799C145.609 245.248 138.994 242.53 130.899 240.809C114.458 237.317 89.9325 235.594 60.2053 244.077C37.7778 250.477 17.5935 263.524 1.02251 277.04" stroke="url(#paint16_linear_215_19362)" stroke-width="1.13612" stroke-miterlimit="10"/>
<path id="Vector_19" d="M703.161 273.823C674.652 244.832 644.805 238.984 621.116 237.863C616.572 237.648 612.148 237.544 607.811 237.697C567.929 239.056 539.622 259.197 500.558 268.717C486.403 272.167 468.795 273.76 447.68 272.099C412.182 269.307 394.494 229.53 358.113 235.146C349.43 236.486 341.264 239.082 333.624 242.696C301.666 257.809 275.434 281.134 249.219 282.789C226.32 284.233 210.739 279.38 191.797 270.234C178.769 263.944 166.874 257.506 150.272 250.77C144.426 248.399 137.743 245.917 129.662 244.432C112.99 241.37 88.7266 240.487 59.4875 249.414C37.8686 256.014 17.9488 268.749 0.999442 282.551" stroke="url(#paint17_linear_215_19362)" stroke-width="1.13612" stroke-miterlimit="10"/>
<path id="Vector_20" d="M703.194 276.652C674.23 245.015 644.379 236.931 621.394 235.61C616.828 235.348 612.396 235.246 608.06 235.434C568.253 237.111 540.097 260.106 500.656 271.431C486.239 275.571 468.63 277.767 447.51 276.397C411.687 274.071 395.131 232.238 358.32 237.373C349.568 238.593 341.339 241.072 333.61 244.527C301.544 258.858 275.264 281.913 248.116 283.115C225.405 284.12 210.429 279.54 190.996 270.763C178.297 265.028 166.1 259.025 149.114 252.668C143.246 250.472 136.496 248.233 128.427 246.982C111.523 244.359 87.5188 244.297 58.772 253.677C37.9576 260.469 18.3078 272.901 0.978726 286.986" stroke="url(#paint18_linear_215_19362)" stroke-width="1.13612" stroke-miterlimit="10"/>
<path id="Vector_21" d="M703.226 280.746C673.808 246.463 643.955 236.137 621.671 234.623C617.085 234.311 612.644 234.216 608.309 234.437C568.575 236.431 540.585 262.29 500.755 275.409C486.08 280.244 468.465 283.043 447.34 281.96C411.192 280.105 395.766 236.212 358.526 240.864C349.704 241.966 341.41 244.33 333.595 247.623C301.422 261.18 275.088 283.988 247.014 284.707C224.484 285.285 210.125 280.931 190.195 272.559C177.825 267.364 165.326 261.798 147.955 255.831C142.066 253.809 135.249 251.82 127.194 250.798C110.059 248.621 86.3065 249.359 58.0576 259.207C38.0449 266.184 18.6666 278.318 0.95913 292.688" stroke="url(#paint19_linear_215_19362)" stroke-width="1.13612" stroke-miterlimit="10"/>
<path id="Vector_22" d="M703.26 284.84C673.388 247.911 643.534 235.337 621.949 233.635C617.343 233.273 612.894 233.183 608.56 233.439C568.9 235.751 541.09 264.478 500.855 279.389C485.928 284.921 468.301 288.323 447.17 287.524C410.699 286.146 396.408 240.257 358.731 244.359C349.842 245.358 341.484 247.59 333.579 250.721C301.299 263.51 274.907 286.095 245.91 286.302C223.553 286.461 209.828 282.285 189.392 274.358C177.352 269.687 164.55 264.563 146.793 258.998C140.882 257.145 134 255.413 125.958 254.617C108.593 252.897 85.0843 254.412 57.3389 264.741C38.1223 271.895 19.021 283.74 0.935238 298.395" stroke="url(#paint20_linear_215_19362)" stroke-width="1.13612" stroke-miterlimit="10"/>
<path id="Vector_23" d="M703.292 288.935C672.966 249.359 643.112 234.531 622.226 232.649C617.6 232.233 613.141 232.152 608.808 232.442C569.222 235.072 541.608 266.672 500.954 283.368C485.781 289.6 468.137 293.603 447.001 293.088C410.206 292.189 397.04 244.216 358.938 247.851C349.98 248.728 341.558 250.851 333.565 253.82C301.178 265.844 274.721 288.233 244.807 287.897C222.614 287.647 209.538 283.595 188.592 276.156C176.876 271.995 163.774 267.318 145.634 262.164C139.7 260.478 132.755 259.009 124.724 258.435C107.133 257.178 83.8575 259.449 56.624 270.273C38.1992 277.596 19.3793 289.16 0.913748 304.099" stroke="url(#paint21_linear_215_19362)" stroke-width="1.13612" stroke-miterlimit="10"/>
<path id="Vector_24" d="M703.324 293.028C672.543 250.805 642.693 233.716 622.503 231.66C617.858 231.188 613.389 231.12 609.057 231.445C569.545 234.392 542.14 268.869 501.053 287.347C485.638 294.28 467.974 298.914 446.83 298.65C409.712 298.286 397.673 248.173 359.143 251.343C350.115 252.097 341.636 254.128 333.549 256.916C301.074 268.243 274.525 290.401 243.704 289.488C221.667 288.835 209.251 284.854 187.79 277.953C176.393 274.288 162.997 270.059 144.475 265.328C138.517 263.807 131.511 262.606 123.489 262.252C105.673 261.466 82.6182 264.469 55.908 275.805C38.2694 283.29 19.7364 294.579 0.892508 309.804" stroke="url(#paint22_linear_215_19362)" stroke-width="1.13612" stroke-miterlimit="10"/>
<path id="Vector_25" d="M703.357 297.127C672.122 252.257 642.277 232.901 622.78 230.678C559.669 223.48 530.1 304.049 446.659 304.219C409.22 304.296 398.303 252.138 359.347 254.842C313.945 257.993 282.271 292.985 242.599 291.087C209.669 289.511 199.702 281.314 143.313 268.499C115.194 262.108 63.1952 265.227 0.870291 315.512" stroke="url(#paint23_linear_215_19362)" stroke-width="1.13612" stroke-miterlimit="10"/>
<path id="Vector_26" d="M0.88155 317.85C27.1544 296.034 51.4048 283.484 72.6635 276.536C102.9 266.773 126.943 268.424 144.094 272.08C198.828 283.75 208.734 291.892 240.675 293.101C279.175 294.544 309.966 260.617 354.142 257.348C392.205 254.49 404.64 304.405 442.062 305.446C476.986 306.418 502.239 293.889 525.302 278.3C556.25 257.382 580.952 232.961 617.552 234.919C627.806 235.468 640.742 240.428 655.253 251.732C662.461 257.347 669.998 264.725 677.791 272.864C685.959 281.394 694.791 290.247 703.346 300.626" stroke="url(#paint24_linear_215_19362)" stroke-width="1.13612" stroke-miterlimit="10"/>
<path id="Vector_27" d="M0.891776 320.341C27.5486 297.598 51.9213 285.174 73.1083 278.661C103.497 269.32 127.006 272.242 144.875 275.817C197.928 286.429 207.796 294.43 238.751 295.272C276.082 296.26 305.989 263.398 348.935 260.014C386.105 257 400.049 304.661 437.461 306.833C471.951 308.835 496.775 298.291 520.252 283.262C551.309 263.379 575.651 241.961 612.323 239.322C623.097 238.546 636.665 243.855 651.915 255.777C659.475 261.686 667.335 269.8 675.471 278.001C684.247 286.848 694.111 294.855 703.333 304.287" stroke="url(#paint25_linear_215_19362)" stroke-width="1.13612" stroke-miterlimit="10"/>
<path id="Vector_28" d="M0.903294 322.845C27.9441 299.174 52.4532 286.918 73.5531 280.799C104.113 271.936 127.062 276.079 145.657 279.565C197.009 289.198 206.861 296.98 236.829 297.453C272.988 297.986 302.012 266.189 343.73 262.687C380.007 259.52 395.452 304.914 432.864 308.227C466.913 311.243 491.304 302.694 515.204 288.229C546.359 269.374 570.218 245.777 607.097 243.731C618.462 243.101 632.592 247.287 648.583 259.827C656.495 266.031 664.68 274.877 673.155 283.145C682.545 292.305 693.435 299.47 703.325 307.953" stroke="url(#paint26_linear_215_19362)" stroke-width="1.13612" stroke-miterlimit="10"/>
<path id="Vector_29" d="M0.913764 325.436C28.3385 300.836 52.9855 288.752 73.9981 283.023C104.731 274.644 127.113 280.004 146.438 283.402C196.068 292.126 205.925 299.617 234.904 299.724C269.893 299.802 298.04 269.159 338.524 265.45C373.915 262.207 390.846 305.241 428.265 309.712C461.869 313.727 485.824 307.183 510.155 293.287C541.395 275.447 564.902 252.109 601.869 248.23C613.808 246.977 628.516 250.809 645.245 263.968C653.51 270.467 662.026 280.04 670.833 288.379C680.839 297.852 692.753 304.174 703.312 311.711" stroke="url(#paint27_linear_215_19362)" stroke-width="1.13612" stroke-miterlimit="10"/>
<path id="Vector_30" d="M0.925345 328.071C28.7341 302.544 53.5217 290.633 74.4429 285.291C105.353 277.399 127.16 283.98 147.219 287.28C195.111 295.16 204.989 302.295 232.98 302.035C266.799 301.66 294.064 272.099 333.318 268.256C367.818 264.877 386.235 305.596 423.666 311.239C456.821 316.237 480.334 311.709 505.107 298.388C536.417 281.553 559.602 258.388 596.641 252.772C609.163 250.874 624.44 254.375 641.911 268.152C650.527 274.945 659.378 285.244 668.516 293.655C679.142 303.435 692.076 308.921 703.303 315.509" stroke="url(#paint28_linear_215_19362)" stroke-width="1.13612" stroke-miterlimit="10"/>
<path id="Vector_31" d="M0.935233 330.748C29.1279 304.292 54.0562 292.56 74.886 287.601C105.975 280.201 127.201 288.004 147.998 291.202C194.141 298.296 204.049 305.018 231.055 304.391C263.702 303.561 290.087 275.084 328.111 271.104C361.721 267.587 381.619 305.979 419.067 312.808C451.769 318.772 474.837 316.269 500.059 303.532C531.43 287.689 554.305 264.623 591.413 257.356C604.52 254.79 620.365 257.983 638.575 272.378C647.543 279.466 656.73 290.487 666.197 298.975C677.446 309.06 691.396 313.712 703.292 319.353" stroke="url(#paint29_linear_215_19362)" stroke-width="1.13612" stroke-miterlimit="10"/>
<path id="Vector_32" d="M0.946219 333.45C29.5229 306.067 54.5946 294.516 75.3316 289.938C106.6 283.034 127.24 292.063 148.78 295.15C193.16 301.51 203.114 307.767 229.132 306.772C260.609 305.486 286.112 278.09 322.905 273.978C355.624 270.322 377.002 306.369 414.469 314.403C446.717 321.317 469.333 320.846 495.011 308.7C526.431 293.837 549.004 270.813 586.187 261.966C599.877 258.709 616.291 261.615 635.24 276.63C644.559 284.011 654.087 295.754 663.879 304.319C675.753 314.706 690.718 318.528 703.282 323.221" stroke="url(#paint30_linear_215_19362)" stroke-width="1.13612" stroke-miterlimit="10"/>
<path id="Vector_33" d="M0.957205 336.183C29.9178 307.871 55.1344 296.506 75.7758 292.304C107.227 285.901 127.275 296.159 149.561 299.128C192.168 304.801 202.177 310.546 227.206 309.184C257.511 307.443 282.134 281.126 317.697 276.882C349.525 273.085 372.38 306.775 409.869 316.028C441.662 323.875 463.818 325.444 489.96 313.899C521.421 300.003 543.689 276.969 580.957 266.605C595.229 262.636 612.213 265.278 631.904 280.911C641.575 288.586 651.444 301.046 661.559 309.692C674.061 320.378 690.039 323.372 703.271 327.116" stroke="url(#paint31_linear_215_19362)" stroke-width="1.13612" stroke-miterlimit="10"/>
<path id="Vector_34" d="M0.967215 338.939C30.3118 309.699 55.6732 298.522 76.219 294.693C107.855 288.797 127.306 300.289 150.34 303.127C191.168 308.159 201.239 313.345 225.281 311.617C254.416 309.422 278.157 284.18 312.49 279.81C343.428 275.871 367.762 307.186 405.268 317.677C436.607 326.441 458.298 330.057 484.909 319.121C516.403 306.179 538.361 283.099 575.727 271.269C590.573 266.568 608.136 268.965 628.565 285.216C638.587 293.186 648.8 306.363 659.236 315.091C672.368 326.075 689.355 328.241 703.255 331.039" stroke="url(#paint32_linear_215_19362)" stroke-width="1.13612" stroke-miterlimit="10"/>
<path id="Vector_35" d="M0.97869 341.711C30.7072 311.543 56.215 300.559 76.665 297.098C108.486 291.714 127.336 304.445 151.122 307.144C190.164 311.574 200.302 316.163 223.358 314.068C251.323 311.417 274.183 287.25 307.285 282.752C337.333 278.669 363.146 307.595 400.671 319.34C431.558 329.007 452.775 334.674 479.862 324.358C511.381 312.354 533.018 289.2 570.5 275.945C585.915 270.493 604.061 272.664 625.23 289.534C635.604 297.799 646.161 311.689 656.918 320.501C670.682 331.779 688.677 333.122 703.246 334.971" stroke="url(#paint33_linear_215_19362)" stroke-width="1.13612" stroke-miterlimit="10"/>
<path id="Vector_36" d="M0.989676 344.5C31.1022 313.404 56.7576 302.616 77.1092 299.52C109.118 294.653 127.362 308.632 151.904 311.177C189.154 315.041 199.372 319.043 221.435 316.534C248.236 313.485 270.208 290.335 302.081 285.712C331.24 281.482 358.537 308.003 396.074 321.021C426.513 331.577 447.247 339.297 474.815 329.614C506.352 318.536 527.659 295.285 565.275 280.642C581.25 274.423 599.988 276.385 621.898 293.871C632.624 302.431 643.527 317.031 654.603 325.932C669.001 337.502 688.002 338.024 703.24 338.926" stroke="url(#paint34_linear_215_19362)" stroke-width="1.13612" stroke-miterlimit="10"/>
<path id="Vector_37" d="M1.00176 347.303C31.4982 315.28 57.3013 304.691 77.5559 301.958C109.751 297.613 127.389 312.849 152.687 315.227C188.141 318.558 198.438 321.896 219.514 319.017C245.144 315.516 266.234 293.433 296.877 288.688C325.145 284.312 353.931 308.412 391.477 322.718C421.473 334.147 441.715 343.923 469.768 334.884C501.32 324.718 522.279 301.356 560.048 285.353C576.574 278.352 595.914 280.12 618.563 298.225C629.64 307.079 640.89 322.39 652.284 331.378C667.317 343.237 687.324 342.943 703.229 342.895" stroke="url(#paint35_linear_215_19362)" stroke-width="1.13612" stroke-miterlimit="10"/>
<path id="Vector_38" d="M1.01153 350.117C31.892 317.165 57.8441 306.78 77.9989 304.405C110.383 300.589 127.408 317.095 153.466 319.284C187.121 322.114 197.501 324.756 217.587 321.509C242.048 317.554 262.255 296.536 291.668 291.673C319.045 287.146 349.329 308.811 386.876 324.424C416.435 336.714 436.176 348.546 464.717 340.164C496.279 330.895 516.876 307.413 554.819 290.074C571.886 282.275 591.837 283.863 615.225 302.587C626.654 311.734 638.252 327.756 649.962 336.833C665.632 348.979 686.641 347.867 703.215 346.873" stroke="url(#paint36_linear_215_19362)" stroke-width="1.13612" stroke-miterlimit="10"/>
<path id="Vector_39" d="M1.02251 352.939C32.2869 319.06 58.3868 308.881 78.443 306.861C111.015 303.579 127.428 321.368 154.246 323.352C186.1 325.707 196.565 327.624 215.662 324.009C238.955 319.599 258.278 299.646 286.461 294.665C312.948 289.985 344.737 309.203 382.277 326.136C411.403 339.275 430.634 353.163 459.668 345.45C491.236 337.065 511.454 313.457 549.59 294.801C567.188 286.192 587.762 287.614 611.89 306.956C623.671 316.398 635.617 333.126 647.644 342.295C663.95 354.727 685.963 352.801 703.205 350.859" stroke="url(#paint37_linear_215_19362)" stroke-width="1.13612" stroke-miterlimit="10"/>
<path id="Vector_40" d="M1.03301 355.011C32.6814 320.204 58.9303 310.236 78.8881 308.566C111.65 305.824 127.877 321.389 155.027 326.667C184.61 332.418 195.631 329.74 213.739 325.759C235.863 320.894 254.302 302.002 281.255 296.909C306.851 292.073 340.155 308.83 377.678 327.102C406.38 341.078 425.093 357.018 454.619 349.991C486.193 342.475 506.015 318.742 544.362 298.783C562.482 289.352 583.685 290.619 608.553 310.579C620.687 320.316 632.982 337.751 645.324 347.011C662.271 359.726 685.283 356.987 703.193 354.097" stroke="url(#paint38_linear_215_19362)" stroke-width="1.13612" stroke-miterlimit="10"/>
<path id="Vector_41" d="M1.0429 356.716C33.0752 320.981 59.4733 311.227 79.3312 309.905C112.282 307.711 127.847 324.621 155.807 329.618C183.672 334.599 194.693 331.49 211.814 327.143C232.767 321.821 250.323 303.987 276.048 298.786C300.753 293.791 335.584 308.075 373.078 327.7C401.363 342.504 419.549 360.493 449.569 354.162C481.148 347.503 500.555 323.646 539.133 302.395C557.763 292.133 579.608 293.255 605.216 313.834C617.701 323.865 630.345 342.004 643.003 351.359C660.59 364.356 684.603 360.807 703.181 356.969" stroke="url(#paint39_linear_215_19362)" stroke-width="1.13612" stroke-miterlimit="10"/>
<path id="Vector_42" d="M1.05388 358.39C33.4702 321.726 60.0159 312.19 79.7768 311.212C112.916 309.571 127.806 327.927 156.588 332.536C182.737 336.725 193.758 333.206 209.889 328.495C229.674 322.716 246.345 305.939 270.841 300.63C294.653 295.472 331.026 307.275 368.478 328.265C396.356 343.888 414.004 363.919 444.521 358.3C476.106 352.485 495.079 328.508 533.905 305.975C553.037 294.871 575.533 295.858 601.881 317.055C614.718 327.381 627.713 346.225 640.685 355.673C658.912 368.949 683.924 364.591 703.172 359.806" stroke="url(#paint40_linear_215_19362)" stroke-width="1.13612" stroke-miterlimit="10"/>
<path id="Vector_43" d="M1.0665 360.473C33.8668 322.881 60.5602 313.566 80.2226 312.928C113.55 311.846 127.757 331.772 157.372 335.864C181.803 339.24 192.825 335.331 207.968 330.255C226.583 324.017 242.369 308.293 265.639 302.885C288.557 297.559 326.483 306.871 363.884 329.241C391.362 345.676 408.467 367.742 439.476 362.85C471.069 357.865 489.588 333.774 528.681 309.965C548.305 298.014 571.462 298.872 598.549 320.687C611.737 331.308 625.083 350.854 638.369 360.398C657.238 373.952 683.248 368.787 703.163 363.054" stroke="url(#paint41_linear_215_19362)" stroke-width="1.13612" stroke-miterlimit="10"/>
<path id="Vector_44" d="M1.07805 362.8C34.2623 324.28 61.1034 315.191 80.6673 314.889C114.181 314.373 127.698 336.025 158.153 339.435C180.866 341.979 191.888 337.698 206.044 332.261C223.489 325.56 238.387 310.886 260.432 305.383C282.456 299.884 321.951 306.7 359.285 330.46C386.373 347.7 402.927 371.795 434.427 367.643C466.03 363.478 484.079 339.281 523.453 314.2C543.56 301.392 567.386 302.13 595.214 324.563C608.754 335.478 622.452 355.727 636.051 365.367C655.563 379.197 682.57 373.228 703.154 366.547" stroke="url(#paint42_linear_215_19362)" stroke-width="1.13612" stroke-miterlimit="10"/>
<path id="Vector_45" d="M1.08697 365.154C34.6552 325.706 61.6439 316.637 81.1108 316.877C114.808 317.29 127.64 340.51 158.932 343.035C179.921 344.728 190.949 340.091 204.119 334.293C220.391 327.131 234.405 313.504 255.225 307.908C276.353 302.231 317.431 306.545 354.685 331.706C381.393 349.746 397.389 375.861 429.377 372.464C460.995 369.106 478.552 344.81 518.223 318.46C538.803 304.79 563.309 305.412 591.876 328.465C605.768 339.674 619.817 360.625 633.73 370.362C653.884 384.467 681.888 377.694 703.14 370.065" stroke="url(#paint43_linear_215_19362)" stroke-width="1.13612" stroke-miterlimit="10"/>
<path id="Vector_46" d="M1.0982 367.561C35.0504 327.185 62.1826 318.553 81.5553 318.917C115.439 319.554 127.596 345.309 159.713 346.687C178.967 347.513 190 342.514 202.194 336.379C217.28 328.724 230.419 316.167 250.018 310.488C270.246 304.626 312.928 306.435 350.085 333.006C376.423 351.842 391.855 379.966 424.327 377.337C455.964 374.776 473.012 350.392 512.995 322.774C534.04 308.237 559.233 308.75 588.54 332.421C602.783 343.925 617.202 365.548 631.41 375.41C652.236 389.748 681.209 382.214 703.129 373.637" stroke="url(#paint44_linear_215_19362)" stroke-width="1.13612" stroke-miterlimit="10"/>
<path id="Vector_47" d="M1.10999 370.006C35.4461 328.703 62.7218 320.341 82.0017 320.995C116.065 322.284 127.615 351.601 160.495 350.376C177.989 349.725 189.065 345.004 200.272 338.502C214.186 330.391 226.432 318.862 244.813 313.103C264.139 307.048 308.442 306.351 345.487 334.343C371.464 353.971 386.326 384.093 419.279 382.248C450.94 380.474 467.46 356.009 507.768 327.125C529.272 311.718 555.158 312.125 585.205 336.413C599.8 348.211 614.563 370.548 629.092 380.495C650.549 395.125 680.53 386.769 703.118 377.244" stroke="url(#paint45_linear_215_19362)" stroke-width="1.13612" stroke-miterlimit="10"/>
<path id="Vector_48" d="M1.11907 372.504C35.8392 330.272 63.2583 322.111 82.4439 323.127C116.689 324.941 127.67 356.154 161.274 354.118C196.628 351.978 208.672 326.278 239.606 315.772C258.025 309.516 303.967 306.316 340.887 335.732C366.513 356.151 380.801 388.262 414.229 387.21C445.921 386.214 461.892 361.678 502.538 331.529C524.49 315.244 551.081 315.552 581.867 340.458C596.814 352.551 611.919 375.601 626.77 385.633C648.859 400.554 679.847 391.377 703.106 380.905" stroke="url(#paint46_linear_215_19362)" stroke-width="1.13612" stroke-miterlimit="10"/>
<path id="Vector_49" d="M1.11004 372.784C17.8189 355.028 33.3913 343.172 47.1649 335.243C62.5404 326.388 75.1705 323.565 86.2211 324.081C119.699 325.641 130.72 356.021 163.346 354.489C197.708 352.906 209.661 328.641 239.955 318.76C257.478 313.045 297.952 309.678 333.711 331.375C336.244 332.912 338.737 334.583 341.196 336.38C354.574 346.137 365.002 358.757 376.656 369.229C387.274 378.77 398.656 386.323 414.372 386.474C438.92 386.711 454.069 372.583 479.989 352.243C486.753 346.936 494.155 341.259 502.547 335.366C515.332 326.391 529.505 322.72 544.973 325.358C556.536 327.329 568.809 332.664 581.859 342.613C595.374 352.916 608.966 372.469 622.608 383.64C624.076 384.848 625.546 385.957 627.017 386.944C648.817 401.6 679.445 393.174 703.12 383.129" stroke="url(#paint47_linear_215_19362)" stroke-width="1.13612" stroke-miterlimit="10"/>
<path id="Vector_50" d="M1.09818 373.063C18.4301 357.117 35.0546 345.658 49.7423 337.217C65.5989 328.095 78.1882 324.551 89.9941 325.033C122.702 326.368 133.768 355.889 165.415 354.856C198.782 353.829 210.655 331.02 240.301 321.744C258.154 316.158 297.9 312.598 333.99 332.449C336.534 333.848 339.033 335.382 341.499 337.025C354.938 345.927 365.535 357.401 377.375 367.711C388.008 376.97 399.128 384.925 414.507 385.735C438.429 386.996 453.489 374.385 479.741 355.21C486.644 350.167 494.13 344.783 502.549 339.2C515.502 330.613 529.696 327.143 545.026 329.297C556.617 330.925 568.838 335.455 581.846 344.765C595.413 354.475 608.994 373.785 622.852 384.978C624.317 386.171 625.786 387.269 627.26 388.25C648.773 402.642 679.036 394.965 703.129 385.349" stroke="url(#paint48_linear_215_19362)" stroke-width="1.13612" stroke-miterlimit="10"/>
<path id="Vector_51" d="M1.08697 373.347C19.042 359.21 36.7171 348.15 52.3204 339.195C68.6566 329.808 81.2065 325.544 93.7677 325.99C125.703 327.127 136.814 355.761 167.484 355.228C199.858 354.757 211.661 333.425 240.647 324.733C258.835 319.281 297.835 315.527 334.27 333.527C336.827 334.79 339.33 336.186 341.804 337.673C355.303 345.721 366.067 356.05 378.097 366.197C388.741 375.176 399.597 383.527 414.647 384.999C437.934 387.277 452.922 376.196 479.496 358.181C486.541 353.404 494.112 348.311 502.555 343.037C515.68 334.84 529.893 331.564 545.083 333.238C556.704 334.519 568.874 338.246 581.836 346.92C595.458 356.036 609.056 375.063 623.099 386.318C624.564 387.492 626.029 388.584 627.505 389.559C648.73 403.687 678.631 396.76 703.14 387.572" stroke="url(#paint49_linear_215_19362)" stroke-width="1.13612" stroke-miterlimit="10"/>
<path id="Vector_52" d="M1.07805 373.633C19.6561 361.306 38.3832 350.643 54.9022 341.175C71.7194 331.522 84.2271 326.54 97.545 326.95C128.707 327.908 139.864 355.637 169.556 355.603C200.936 355.69 212.677 335.852 240.998 327.727C259.524 322.412 297.764 318.463 334.555 334.612C337.122 335.738 339.628 337.002 342.113 338.328C355.656 345.556 366.6 354.708 378.822 364.69C389.473 373.39 400.067 382.133 414.79 384.271C437.437 387.56 452.37 378.02 479.255 361.159C486.446 356.649 494.102 351.848 502.563 346.883C515.864 339.078 530.096 335.988 545.141 337.188C556.798 338.119 568.918 341.044 581.828 349.082C595.511 357.603 609.095 376.377 623.347 387.667C624.808 388.825 626.272 389.907 627.75 390.878C648.687 404.741 678.226 398.564 703.154 389.805" stroke="url(#paint50_linear_215_19362)" stroke-width="1.13612" stroke-miterlimit="10"/>
<path id="Vector_53" d="M1.06646 373.936C20.2676 363.419 40.0468 353.154 57.4799 343.173C74.7767 333.253 87.2451 327.559 101.318 327.927C131.706 328.724 142.912 355.458 171.625 355.995C202.013 356.564 213.696 338.315 241.343 330.736C260.213 325.564 297.677 321.421 334.834 335.71C337.411 336.7 339.924 337.826 342.417 338.996C356.019 345.377 367.125 353.379 379.542 363.196C390.197 371.619 400.528 380.747 414.927 383.555C436.929 387.846 451.823 379.861 479.009 364.149C486.348 359.908 494.087 355.401 502.567 350.74C516.049 343.329 530.3 340.417 545.196 341.151C556.889 341.727 568.964 343.85 581.816 351.257C595.567 359.182 609.131 377.706 623.592 389.028C625.051 390.17 626.515 391.239 627.993 392.208C648.671 405.761 677.817 400.379 703.163 392.048" stroke="url(#paint51_linear_215_19362)" stroke-width="1.13612" stroke-miterlimit="10"/>
<path id="Vector_54" d="M1.05388 374.241C20.8781 365.534 41.7093 355.667 60.0567 345.172C77.8344 334.986 90.2606 328.58 105.09 328.905C134.704 329.556 145.958 355.339 173.691 356.388C203.088 357.5 214.722 340.797 241.687 333.746C260.902 328.723 297.574 324.386 335.111 336.808C337.696 337.664 340.217 338.652 342.719 339.664C356.381 345.199 367.646 352.054 380.26 361.702C390.919 369.853 400.985 379.356 415.062 382.839C436.415 388.125 451.283 381.711 478.761 367.14C486.249 363.169 494.075 358.956 502.57 354.598C516.237 347.584 530.504 345.449 545.249 345.112C556.981 344.845 569.013 346.655 581.803 353.432C595.626 360.757 609.165 379.036 623.837 390.388C625.293 391.515 626.755 392.573 628.236 393.537C648.63 406.82 677.411 402.192 703.173 394.289" stroke="url(#paint52_linear_215_19362)" stroke-width="1.13612" stroke-miterlimit="10"/>
<path id="Vector_55" d="M1.0429 375.389C21.4902 368.492 43.3734 359.022 62.635 348.016C80.8924 337.564 93.2961 329.888 108.864 330.729C137.667 332.283 149.008 356.067 175.76 357.627C204.165 359.284 215.756 344.143 242.033 337.603C261.598 332.734 297.465 328.21 335.392 338.756C337.985 339.476 340.514 340.326 343.023 341.182C356.747 345.869 368.165 351.582 380.981 361.058C391.638 368.938 401.439 378.807 415.2 382.974C435.901 389.243 450.754 384.42 478.515 370.981C486.157 367.282 494.067 363.364 502.573 359.306C516.43 352.693 530.732 350.772 545.303 349.925C557.058 349.242 569.068 350.305 581.791 356.459C595.693 363.181 609.197 381.219 624.081 392.6C625.532 393.71 626.995 394.759 628.477 395.718C648.587 408.731 677.001 404.858 703.181 397.385" stroke="url(#paint53_linear_215_19362)" stroke-width="1.13612" stroke-miterlimit="10"/>
<path id="Vector_56" d="M1.03301 376.583C22.1033 371.496 45.0386 362.423 65.2158 350.904C83.9542 340.186 96.3157 331.748 112.641 332.596C140.67 334.05 152.06 356.839 177.832 358.91C205.247 361.113 216.798 347.55 242.383 341.504C262.302 336.796 297.349 332.089 335.676 340.745C338.278 341.333 340.815 342.041 343.331 342.742C357.117 346.581 368.687 351.152 381.704 360.455C392.358 368.068 401.896 378.293 415.341 383.149C435.387 390.39 450.237 387.178 478.272 374.863C486.068 371.438 494.064 367.817 502.58 364.054C516.628 357.846 530.922 355.406 545.361 354.778C557.176 354.265 569.133 353.991 581.781 359.523C595.766 365.64 609.232 383.44 624.328 394.851C625.777 395.946 627.238 396.984 628.723 397.939C648.548 410.683 676.597 407.565 703.194 400.519" stroke="url(#paint54_linear_215_19362)" stroke-width="1.13612" stroke-miterlimit="10"/>
<path id="Vector_57" d="M1.02251 377.762C22.7145 374.485 46.7032 365.811 67.7946 353.778C87.014 342.794 99.3333 333.605 116.415 334.448C143.671 335.795 155.11 357.597 179.901 360.178C206.326 362.928 217.842 350.958 242.73 345.388C263.004 340.852 297.224 335.965 335.956 342.719C338.565 343.174 341.112 343.742 343.637 344.286C357.487 347.276 369.202 350.713 382.426 359.837C393.074 367.185 402.353 377.758 415.481 383.31C434.872 391.512 449.726 389.933 478.028 378.73C485.98 375.583 494.062 372.258 502.585 368.788C516.828 362.99 531.132 360.685 545.416 359.618C557.275 358.731 569.201 357.659 581.771 362.576C595.845 368.082 609.266 385.65 624.574 397.089C626.019 398.169 627.479 399.196 628.966 400.147C648.503 412.624 676.188 410.258 703.204 403.641" stroke="url(#paint55_linear_215_19362)" stroke-width="1.13612" stroke-miterlimit="10"/>
<path id="Vector_58" d="M1.01153 378.928C23.3266 377.461 48.3673 369.184 70.373 356.638C90.072 345.388 102.349 335.461 120.189 336.289C146.673 337.516 158.161 358.345 181.971 361.433C207.405 364.732 218.892 354.37 243.076 349.261C263.709 344.903 297.093 339.843 336.236 344.681C338.852 345.004 341.411 345.429 343.941 345.817C357.855 347.957 369.715 350.261 383.146 359.206C393.786 366.292 402.807 377.202 415.618 383.458C434.356 392.61 449.217 392.685 477.781 382.584C485.892 379.715 494.059 376.688 502.588 373.509C517.031 368.125 531.342 365.943 545.47 364.442C557.373 363.178 569.272 361.305 581.758 365.613C595.926 370.501 609.295 387.849 624.819 399.312C626.26 400.376 627.72 401.395 629.21 402.339C648.46 414.551 675.781 412.936 703.214 406.746" stroke="url(#paint56_linear_215_19362)" stroke-width="1.13612" stroke-miterlimit="10"/>
<path id="Vector_59" d="M1.00181 380.077C23.9399 380.419 50.0327 372.54 72.954 359.481C93.134 347.964 105.366 337.312 123.965 338.111C149.677 339.214 161.213 359.076 184.043 362.67C208.488 366.52 219.948 357.778 243.425 353.115C264.419 348.947 296.961 343.718 336.519 346.625C339.141 346.818 341.711 347.099 344.248 347.332C358.227 348.619 370.227 349.796 383.87 358.558C394.5 365.384 403.266 376.62 415.758 383.588C433.847 393.678 448.716 395.431 477.538 386.421C485.808 383.835 494.061 381.104 502.595 378.212C517.239 373.248 531.554 371.178 545.528 369.25C557.474 367.601 569.349 364.928 581.75 368.633C596.016 372.897 609.329 390.029 625.068 401.517C626.505 402.567 627.965 403.573 629.456 404.512C648.419 416.458 675.377 415.594 703.227 409.834" stroke="url(#paint57_linear_215_19362)" stroke-width="1.13612" stroke-miterlimit="10"/>
<path id="Vector_60" d="M0.989676 381.208C24.5509 383.36 51.6957 375.878 75.5311 362.306C96.1908 350.524 108.379 339.16 127.738 339.914C152.677 340.887 164.264 359.791 186.109 363.889C209.566 368.29 221.002 361.182 243.77 356.951C265.13 352.982 296.824 347.592 336.798 348.551C339.427 348.614 342.006 348.75 344.552 348.828C358.596 349.261 370.734 349.318 384.59 357.892C395.209 364.463 403.727 376.015 415.897 383.701C433.341 394.718 448.217 398.17 477.293 390.24C485.724 387.94 494.064 385.506 502.6 382.898C517.447 378.359 531.764 376.388 545.583 374.041C557.573 372.004 569.428 368.526 581.738 371.637C596.106 375.268 609.357 392.196 625.312 403.708C626.746 404.742 628.205 405.738 629.698 406.673C648.373 418.354 674.968 418.24 703.237 412.907" stroke="url(#paint58_linear_215_19362)" stroke-width="1.13612" stroke-miterlimit="10"/>
<path id="Vector_61" d="M0.97869 382.315C25.1629 386.278 53.3598 379.194 78.1094 365.108C99.2501 353.06 111.394 341.001 131.513 341.697C155.68 342.533 167.316 360.486 188.18 365.086C210.648 370.041 222.063 364.581 244.118 360.766C265.845 357.009 296.689 351.458 337.08 350.454C339.714 350.389 342.305 350.378 344.858 350.301C358.966 349.878 371.239 348.819 385.312 357.203C395.917 363.521 404.192 375.379 416.036 383.79C432.842 395.726 447.721 400.897 477.049 394.036C485.641 392.026 494.067 389.889 502.606 387.56C517.658 383.454 531.976 381.569 545.639 378.807C557.67 376.375 569.51 372.092 581.728 374.617C596.201 377.607 609.386 394.339 625.559 405.873C626.99 406.892 628.448 407.879 629.943 408.808C648.33 420.226 674.563 420.86 703.248 415.955" stroke="url(#paint59_linear_215_19362)" stroke-width="1.13612" stroke-miterlimit="10"/>
<path id="Vector_62" d="M0.967215 383.401C25.7745 389.173 55.0235 382.487 80.6873 367.888C102.308 355.574 114.406 342.836 135.286 343.455C158.682 344.15 170.367 361.16 190.248 366.261C211.728 371.772 223.125 367.969 244.464 364.558C266.559 361.028 296.556 355.318 337.36 352.337C340.001 352.144 342.603 351.986 345.161 351.755C359.333 350.475 371.741 348.307 386.032 356.494C396.621 362.562 404.662 374.719 416.172 383.86C432.347 396.706 447.223 403.614 476.801 397.812C485.555 396.095 494.068 394.256 502.608 392.203C517.867 388.534 532.181 386.725 545.693 383.556C557.765 380.724 569.591 375.633 581.715 377.578C596.293 379.917 609.413 396.467 625.804 408.02C627.23 409.025 628.689 410 630.186 410.925C648.283 422.08 674.155 423.462 703.258 418.986" stroke="url(#paint60_linear_215_19362)" stroke-width="1.13612" stroke-miterlimit="10"/>
<path id="Vector_63" d="M0.957205 384.46C26.3876 392.042 56.6886 385.753 83.268 370.641C105.369 358.061 117.423 344.664 139.063 345.189C161.687 345.736 173.42 361.81 192.32 367.41C212.809 373.479 224.189 371.344 244.814 368.326C267.281 365.037 296.434 359.168 337.643 354.193C340.292 353.874 342.904 353.566 345.469 353.181C359.705 351.043 372.245 347.77 386.756 355.758C397.328 361.579 405.143 374.024 416.314 383.902C431.866 397.652 446.729 406.317 476.559 401.56C485.473 400.139 494.075 398.598 502.615 396.818C518.081 393.594 532.387 391.847 545.75 388.275C557.86 385.038 569.676 379.136 581.705 380.509C596.39 382.188 609.439 398.565 626.05 410.136C627.472 411.127 628.929 412.092 630.431 413.009C648.238 423.903 673.749 426.03 703.269 421.983" stroke="url(#paint61_linear_215_19362)" stroke-width="1.13612" stroke-miterlimit="10"/>
<path id="Vector_64" d="M0.946244 385.493C26.9997 394.885 58.3527 388.995 85.8464 373.369C108.427 360.523 120.436 346.488 142.837 346.895C164.689 347.293 176.471 362.437 194.389 368.531C213.89 375.163 225.253 374.705 245.16 372.064C268 369.034 296.313 363.004 337.924 356.021C340.579 355.576 343.201 355.118 345.775 354.578C360.074 351.581 372.745 347.21 387.476 354.993C398.032 360.57 405.626 373.298 416.453 383.916C431.391 398.565 446.232 409 476.313 405.281C485.389 404.158 494.078 402.916 502.62 401.405C518.292 398.633 532.589 396.936 545.806 392.967C557.952 389.318 569.758 382.603 581.694 383.415C596.485 384.422 609.465 400.64 626.296 412.228C627.714 413.205 629.171 414.158 630.675 415.071C648.192 425.705 673.343 428.578 703.28 424.959" stroke="url(#paint62_linear_215_19362)" stroke-width="1.13612" stroke-miterlimit="10"/>
<path id="Vector_65" d="M0.935238 386.501C27.6103 397.703 60.0168 392.21 88.4247 376.072C111.487 362.96 123.451 349.01 146.61 348.578C167.688 348.185 179.52 363.042 196.458 369.629C214.969 376.826 226.318 378.054 245.506 375.779C268.72 373.026 296.201 366.825 338.204 357.826C340.868 357.256 343.498 356.648 346.079 355.954C360.44 352.096 373.242 346.634 388.197 354.207C398.733 359.542 406.115 372.548 416.591 383.908C430.925 399.453 445.731 411.67 476.069 408.979C485.305 408.16 494.081 407.214 502.624 405.971C518.503 403.657 532.789 401.998 545.861 397.636C558.039 393.573 569.842 386.705 581.683 386.298C596.572 385.785 609.489 402.693 626.543 414.296C627.956 415.258 629.413 416.201 630.92 417.109C648.146 427.484 672.936 431.101 703.292 427.91" stroke="url(#paint63_linear_215_19362)" stroke-width="1.13612" stroke-miterlimit="10"/>
<path id="Vector_66" d="M0.925345 387.554C28.2235 400.566 61.682 395.47 91.0055 378.82C114.548 365.441 126.472 350.844 150.387 350.305C170.689 349.847 182.571 363.696 198.53 370.771C216.048 378.537 227.384 381.46 245.855 379.539C269.443 377.085 296.1 370.703 338.486 359.675C341.159 358.98 343.797 358.221 346.385 357.373C360.807 352.652 373.74 346.103 388.92 353.463C399.436 358.56 406.614 371.839 416.731 383.943C430.471 400.384 445.229 414.394 475.825 412.72C485.221 412.206 494.086 411.56 502.631 410.578C518.716 408.731 532.986 407.099 545.918 402.348C558.126 397.863 569.945 390.093 581.675 389.221C596.634 388.109 609.516 404.788 626.79 416.405C628.199 417.353 629.655 418.286 631.164 419.187C648.098 429.304 672.531 433.665 703.303 430.901" stroke="url(#paint64_linear_215_19362)" stroke-width="1.13612" stroke-miterlimit="10"/>
<path id="Vector_67" d="M0.913764 389.535C28.835 404.356 63.3455 399.659 93.5832 382.495C117.606 368.85 129.489 353.615 154.16 352.959C173.687 352.439 185.616 365.28 200.597 372.84C217.12 381.177 228.444 385.804 246.201 384.225C270.163 382.094 296.005 375.517 338.766 362.45C341.448 361.631 344.094 360.718 346.69 359.719C361.173 354.138 374.234 346.508 389.641 353.646C400.137 358.51 407.12 372.057 416.869 384.905C430.022 402.24 444.721 418.052 475.579 417.389C485.133 417.184 494.087 416.836 502.635 416.114C518.924 414.737 533.178 413.124 545.973 407.989C558.206 403.079 569.99 393.906 581.662 393.075C596.752 392.002 609.537 407.817 627.035 419.444C628.44 420.378 629.895 421.299 631.407 422.195C648.05 432.054 672.123 437.157 703.313 434.823" stroke="url(#paint65_linear_215_19362)" stroke-width="1.13612" stroke-miterlimit="10"/>
<path id="Vector_68" d="M0.90325 391.521C29.4475 408.153 65.0101 403.853 96.162 386.176C120.666 372.266 132.508 356.403 157.934 355.619C176.688 355.04 188.658 366.872 202.667 374.915C218.192 383.828 229.505 390.164 246.547 388.917C270.883 387.138 295.921 380.343 339.047 365.233C341.739 364.29 344.388 363.221 346.995 362.071C361.525 355.6 374.727 346.923 390.362 353.836C400.837 358.469 407.63 372.282 417.007 385.874C429.584 404.104 444.208 421.724 475.333 422.064C485.044 422.169 494.087 422.12 502.639 421.655C519.13 420.758 533.364 419.15 546.027 413.634C558.283 408.296 570.058 398.297 581.65 396.934C596.829 395.147 609.557 410.851 627.28 422.49C628.681 423.41 630.134 424.323 631.65 425.21C647.982 434.846 671.715 440.658 703.322 438.751" stroke="url(#paint66_linear_215_19362)" stroke-width="1.13612" stroke-miterlimit="10"/>
<path id="Vector_69" d="M0.891776 393.504C30.0591 411.945 66.6738 408.042 98.7398 389.853C123.723 375.677 135.527 359.2 161.707 358.276C179.688 357.64 191.698 368.465 204.736 376.989C219.259 386.481 230.563 394.533 246.893 393.608C271.602 392.21 295.848 385.174 339.326 368.013C342.028 366.947 344.684 365.726 347.298 364.421C361.889 357.096 375.218 347.342 391.082 354.024C401.536 358.428 408.146 372.504 417.145 386.84C429.152 405.968 443.691 425.401 475.087 426.736C484.954 427.155 494.084 427.405 502.643 427.194C519.333 426.782 533.547 425.172 546.081 419.278C558.354 413.507 570.119 402.683 581.638 400.791C596.9 398.282 609.557 413.92 627.524 425.533C628.918 426.441 630.374 427.341 631.893 428.222C647.937 437.595 671.308 444.156 703.333 442.678" stroke="url(#paint67_linear_215_19362)" stroke-width="1.13612" stroke-miterlimit="10"/>
<path id="Vector_70" d="M0.881522 395.482C30.672 415.733 68.3386 412.229 101.32 393.525C126.784 379.082 138.55 362.006 165.483 360.927C182.69 360.238 194.734 370.054 206.807 379.054C220.323 389.129 231.618 398.902 247.242 398.291C272.32 397.311 295.787 390.002 339.609 370.785C342.322 369.595 344.983 368.223 347.606 366.764C362.257 358.584 375.711 347.759 391.805 354.204C402.239 358.383 408.672 372.722 417.286 387.799C428.731 407.83 443.17 429.078 474.845 431.403C484.865 432.139 494.085 432.687 502.651 432.728C519.538 432.807 533.731 431.187 546.14 424.916C558.427 418.708 570.178 407.059 581.631 404.641C596.967 401.403 609.589 416.933 627.775 428.568C629.166 429.462 630.62 430.35 632.14 431.227C647.895 440.336 670.904 447.646 703.347 446.596" stroke="url(#paint68_linear_215_19362)" stroke-width="1.13612" stroke-miterlimit="10"/>
<path id="Vector_71" d="M0.870276 397.458C31.2838 419.519 70.0025 416.412 103.898 397.195C129.842 382.486 141.571 364.825 169.257 363.576C204.182 362 219.403 403.555 247.589 402.973C273.035 402.447 295.735 394.831 339.89 373.557C357.855 364.902 373.285 347.073 392.527 354.384C416.725 363.576 418.499 430.257 474.6 436.066C505.035 439.218 527.735 440.531 546.197 430.55C558.492 423.903 570.229 411.427 581.62 408.488C597.022 404.514 609.618 419.943 628.019 431.6C643.49 441.4 667.261 451.192 703.357 450.51" stroke="url(#paint69_linear_215_19362)" stroke-width="1.13612" stroke-miterlimit="10"/>
<path id="Vector_72" d="M0.838065 400.967C31.9253 422.508 70.3444 418.523 103.727 399.336C111.382 394.911 117.803 390.259 123.742 385.922C138.109 375.435 149.52 366.195 168.879 365.372C183.934 364.777 194.766 372.99 205.858 381.677C220.904 393.551 234.266 406.379 251.614 405.682C277.343 404.647 299.983 397.047 342.848 376.113C360.673 367.407 375.831 349.966 394.772 356.601C404.697 360.078 410.955 372.988 418.98 387.401C430.436 407.972 444.766 431.706 476.939 435.581C506.596 439.08 528.945 441.012 547.37 431.823C559.538 425.755 571.157 413.978 582.534 411.293C584.994 410.713 587.381 410.6 589.737 410.886C602.064 412.4 613.365 424.482 628.664 433.773C644.448 443.36 668.166 452.506 703.358 451.724" stroke="url(#paint70_linear_215_19362)" stroke-width="1.13612" stroke-miterlimit="10"/>
<path id="Vector_73" d="M0.806082 404.485C32.567 425.506 70.7301 420.722 103.556 401.487C111.201 397.006 117.601 392.296 123.511 387.987C138.041 377.407 149.277 367.889 168.499 367.177C184.1 366.599 194.686 376.242 206.791 385.534C222.779 397.809 237.415 409.466 255.637 408.401C281.646 406.88 304.225 399.267 345.803 378.679C363.49 369.922 378.381 352.866 397.014 358.83C406.865 361.983 413.211 374.184 421.497 387.919C433.404 407.659 447.831 430.842 479.277 435.109C508.148 439.024 530.142 441.505 548.541 433.108C560.577 427.616 572.082 416.54 583.447 414.111C585.876 413.591 588.236 413.503 590.57 413.8C602.885 415.408 614.148 427.138 629.305 435.956C645.412 445.326 669.068 453.831 703.357 452.949" stroke="url(#paint71_linear_215_19362)" stroke-width="1.13612" stroke-miterlimit="10"/>
<path id="Vector_74" d="M0.773612 408.006C33.2082 428.507 71.0915 422.878 103.384 403.64C111.016 399.093 117.398 394.335 123.277 390.057C137.969 379.384 149.032 369.622 168.12 368.988C184.266 368.451 194.588 379.522 207.724 389.398C224.629 402.106 240.564 412.568 259.662 411.125C285.951 409.139 308.467 401.483 348.76 381.251C366.307 372.44 380.938 355.766 399.259 361.063C409.038 363.889 415.475 375.384 424.014 388.442C436.38 407.352 450.902 429.942 481.616 434.639C509.705 438.935 531.329 441.998 549.716 434.395C561.61 429.476 573.007 419.101 584.361 416.93C586.761 416.471 589.094 416.401 591.404 416.716C603.709 418.393 614.941 429.787 629.949 438.143C646.387 447.293 669.972 455.158 703.359 454.178" stroke="url(#paint72_linear_215_19362)" stroke-width="1.13612" stroke-miterlimit="10"/>
<path id="Vector_75" d="M0.740042 411.533C33.8483 431.515 71.4503 425.036 103.21 405.797C110.826 401.184 117.193 396.378 123.042 392.129C137.898 381.362 148.788 371.361 167.739 370.8C184.432 370.306 194.485 382.808 208.656 393.262C226.473 406.408 243.708 415.68 263.684 413.851C290.249 411.419 312.702 403.694 351.713 383.825C369.121 374.959 383.497 358.663 401.499 363.298C411.21 365.798 417.744 376.588 426.528 388.967C439.362 407.052 453.965 429.041 483.951 434.172C511.256 438.844 532.501 442.491 550.885 435.685C562.632 431.336 573.926 421.664 585.272 419.753C587.64 419.355 589.947 419.307 592.232 419.635C604.526 421.4 615.736 432.428 630.588 440.331C647.363 449.256 670.871 456.487 703.356 455.406" stroke="url(#paint73_linear_215_19362)" stroke-width="1.13612" stroke-miterlimit="10"/>
<path id="Vector_76" d="M0.707571 415.067C34.491 434.53 71.8074 427.198 103.038 407.964C110.637 403.284 116.989 398.431 122.809 394.21C137.826 383.351 148.544 373.111 167.359 372.622C184.599 372.172 194.383 386.105 209.588 397.136C228.317 410.723 246.854 418.811 267.707 416.586C294.551 413.721 316.937 405.906 354.669 386.406C371.937 377.482 386.063 361.562 403.743 365.541C413.387 367.71 420.024 377.801 429.045 389.5C442.359 406.763 457.032 428.145 486.29 433.714C512.81 438.76 533.667 442.99 552.059 436.985C563.651 433.201 574.847 424.234 586.187 422.586C588.525 422.246 590.804 422.223 593.067 422.564C605.349 424.417 616.547 435.071 631.232 442.53C648.352 451.226 671.775 457.827 703.357 456.647" stroke="url(#paint74_linear_215_19362)" stroke-width="1.13612" stroke-miterlimit="10"/>
<path id="Vector_77" d="M0.674857 418.608C35.1319 437.55 72.1643 429.36 102.866 410.136C110.45 405.388 116.786 400.489 122.576 396.297C137.756 385.344 148.302 374.872 166.979 374.449C184.765 374.046 194.278 389.41 210.521 401.016C230.157 415.046 250 421.956 271.732 419.327C298.855 416.045 321.168 408.117 357.627 388.995C374.753 380.013 388.637 364.463 405.988 367.791C415.571 369.63 422.313 379.02 431.564 390.04C445.368 406.482 460.101 427.255 488.63 433.261C514.365 438.679 534.821 443.487 553.233 438.289C564.663 435.064 575.766 426.805 587.101 425.422C589.407 425.141 591.661 425.144 593.901 425.498C606.17 427.44 617.364 437.707 631.876 444.733C649.347 453.192 672.679 459.17 703.358 457.89" stroke="url(#paint75_linear_215_19362)" stroke-width="1.13612" stroke-miterlimit="10"/>
<path id="Vector_78" d="M0.642874 422.154C35.7737 440.576 72.5177 431.525 102.695 412.314C110.262 407.497 116.584 402.553 122.345 398.39C137.686 387.345 148.061 376.64 166.601 376.282C184.934 375.928 194.173 392.724 211.456 404.902C231.999 419.378 253.148 425.116 275.757 422.073C303.158 418.385 325.398 410.324 360.582 391.588C377.568 382.543 391.214 367.361 408.231 370.046C417.752 371.548 424.608 380.242 434.08 390.584C448.387 406.204 463.166 426.366 490.968 432.814C515.917 438.602 535.963 443.979 554.406 439.6C565.669 436.925 576.685 429.379 588.015 428.265C590.29 428.041 592.519 428.07 594.736 428.437C606.993 430.469 618.187 440.339 632.519 446.942C650.347 455.156 673.584 460.519 703.359 459.14" stroke="url(#paint76_linear_215_19362)" stroke-width="1.13612" stroke-miterlimit="10"/>
<path id="Vector_79" d="M0.611014 425.709C36.4155 443.611 72.8698 433.695 102.524 414.5C110.074 409.614 116.382 404.625 122.112 400.492C137.615 389.353 147.818 378.42 166.221 378.124C185.102 377.821 194.067 396.046 212.389 408.796C233.836 423.72 256.294 428.293 279.781 424.83C307.462 420.748 329.624 412.533 363.539 394.192C380.382 385.083 393.797 370.26 410.474 372.312C419.939 373.476 426.913 381.472 436.597 391.138C451.418 405.934 466.231 425.482 493.304 432.377C517.469 438.53 537.095 444.472 555.577 440.92C566.666 438.788 577.598 431.961 588.927 431.119C591.171 430.952 593.373 431.007 595.566 431.387C607.81 433.511 619.013 442.972 633.159 449.162C651.353 457.124 674.484 461.881 703.356 460.401" stroke="url(#paint77_linear_215_19362)" stroke-width="1.13612" stroke-miterlimit="10"/>
<path id="Vector_80" d="M0.578753 429.272C37.0569 446.656 73.2201 435.869 102.352 416.696C109.884 411.738 116.178 406.706 121.88 402.602C137.546 391.371 147.576 380.211 165.843 379.975C185.271 379.724 193.96 399.381 213.324 412.7C235.676 428.075 259.445 431.487 283.806 427.594C311.768 423.126 333.847 414.743 366.497 396.805C383.197 387.63 396.384 373.161 412.721 374.586C422.131 375.407 429.231 382.708 439.117 391.703C454.466 405.669 469.299 424.607 495.646 431.949C519.024 438.465 538.223 444.963 556.753 442.249C567.663 440.652 578.515 434.546 589.844 433.98C592.055 433.869 594.232 433.952 596.403 434.345C608.636 436.559 619.853 445.603 633.805 451.389C652.37 459.088 675.39 463.248 703.359 461.671" stroke="url(#paint78_linear_215_19362)" stroke-width="1.13612" stroke-miterlimit="10"/>
<path id="Vector_81" d="M0.545735 432.842C37.6976 449.706 73.5682 438.047 102.18 418.898C109.695 413.868 115.975 408.794 121.647 404.719C137.475 393.394 147.335 382.01 165.463 381.832C185.437 381.636 193.851 402.723 214.256 416.61C237.511 432.435 262.594 434.694 287.83 430.365C316.075 425.521 338.065 416.951 369.453 399.423C386.008 390.177 398.973 376.056 414.963 376.865C424.321 377.339 431.553 383.941 441.633 392.271C457.523 405.401 472.361 423.731 497.983 431.527C520.575 438.401 539.337 445.445 557.925 443.585C568.651 442.511 579.429 437.135 590.757 436.848C592.935 436.793 595.087 436.904 597.235 437.31C609.456 439.617 620.69 448.23 634.447 453.625C653.389 461.052 676.292 464.624 703.359 462.947" stroke="url(#paint79_linear_215_19362)" stroke-width="1.13612" stroke-miterlimit="10"/>
<path id="Vector_82" d="M0.513255 436.44C38.3403 452.783 73.9127 440.247 102.008 421.127C109.505 416.025 115.772 410.909 121.413 406.863C137.405 395.444 147.091 383.585 165.083 383.716C185.605 383.867 193.741 406.094 215.188 420.546C239.346 436.825 265.744 437.935 291.854 433.164C320.382 427.949 342.278 419.177 372.408 402.068C388.817 392.75 401.592 380.146 417.205 379.172C426.495 378.593 433.882 385.198 444.147 392.868C460.589 405.153 475.425 422.879 500.319 431.131C522.125 438.359 540.447 445.937 559.095 444.946C569.636 444.387 580.351 440.285 591.668 439.741C593.811 439.639 595.941 439.882 598.066 440.3C610.274 442.701 621.533 450.874 635.088 455.884C654.412 463.027 677.194 466.024 703.357 464.248" stroke="url(#paint80_linear_215_19362)" stroke-width="1.13612" stroke-miterlimit="10"/>
<path id="Vector_83" d="M0.479178 440.056C38.9799 455.88 74.2541 442.463 101.834 423.376C109.31 418.201 115.565 413.044 121.178 409.027C137.331 397.515 146.846 385.441 164.701 385.62C185.77 385.831 193.628 409.484 216.12 424.503C241.18 441.235 268.895 441.203 295.876 435.98C324.691 430.402 346.486 421.415 375.362 404.733C391.625 395.337 404.229 383.072 419.448 381.499C428.661 380.547 436.219 386.465 446.665 393.485C463.67 404.912 478.489 422.043 502.658 430.756C523.679 438.335 541.669 448.446 560.269 446.328C570.558 445.157 581.254 442.373 592.583 442.655C594.697 442.707 596.798 442.88 598.9 443.311C611.095 445.805 622.382 453.527 635.731 458.164C655.442 465.01 678.096 467.444 703.357 465.568" stroke="url(#paint81_linear_215_19362)" stroke-width="1.13612" stroke-miterlimit="10"/>
<path id="Vector_84" d="M0.447196 443.608C39.6216 458.911 74.5962 444.612 101.662 425.558C109.119 420.309 115.363 415.112 120.945 411.125C137.261 399.519 146.605 387.237 164.321 387.458C185.935 387.729 193.516 412.811 217.052 428.394C243.012 445.581 272.049 444.412 299.899 438.733C329.001 432.798 350.692 423.579 378.318 407.332C394.43 397.857 406.751 384.739 421.69 383.759C430.897 383.156 438.562 387.658 449.18 394.035C466.758 404.591 481.554 421.135 504.994 430.315C525.23 438.24 542.682 448.863 561.44 447.645C571.59 446.986 582.164 444.931 593.493 445.504C595.575 445.61 597.652 445.815 599.73 446.255C611.912 448.845 623.23 456.106 636.371 460.379C656.475 466.915 678.997 468.8 703.355 466.824" stroke="url(#paint82_linear_215_19362)" stroke-width="1.13612" stroke-miterlimit="10"/>
<path id="Vector_85" d="M0.414481 447.218C40.2626 462.003 74.9334 446.814 101.49 427.801C108.926 422.476 115.16 417.24 120.713 413.283C137.191 401.584 146.364 389.097 163.942 389.356C186.104 389.682 193.406 416.198 217.985 432.343C244.846 449.987 275.205 447.686 303.922 441.543C333.313 435.255 354.893 425.791 381.272 409.989C397.234 400.429 409.343 387.631 423.932 386.078C433.088 385.103 440.908 388.899 451.696 394.644C469.855 404.313 484.62 420.281 507.331 429.931C526.786 438.198 543.769 447.286 562.611 449.018C572.586 449.935 583.077 447.54 594.406 448.41C596.455 448.567 598.507 448.804 600.562 449.258C612.732 451.944 624.082 458.733 637.012 462.65C657.511 468.86 679.899 470.212 703.354 468.136" stroke="url(#paint83_linear_215_19362)" stroke-width="1.13612" stroke-miterlimit="10"/>
<path id="Vector_86" d="M0.38201 450.85C40.9038 465.115 75.2695 449.036 101.319 430.065C108.734 424.664 114.957 419.389 120.48 415.462C137.122 403.669 146.122 390.983 163.563 391.275C186.271 391.656 193.295 419.606 218.919 436.315C246.68 454.416 278.364 450.987 307.947 444.376C337.629 437.742 359.091 428.019 384.23 412.671C400.037 403.019 411.936 390.538 426.178 388.422C435.282 387.068 443.262 390.157 454.215 395.276C472.96 404.041 487.691 419.444 509.672 429.571C528.344 438.174 544.885 447.734 563.787 450.415C573.576 451.803 583.994 450.168 595.323 451.34C597.34 451.548 599.366 451.819 601.399 452.284C613.555 455.068 624.942 461.376 637.659 464.948C658.559 470.816 680.807 471.65 703.358 469.476" stroke="url(#paint84_linear_215_19362)" stroke-width="1.13612" stroke-miterlimit="10"/>
<path id="Vector_87" d="M0.350028 454.502C41.5455 468.247 75.6046 451.274 101.147 432.349C108.541 426.872 114.754 421.559 120.247 417.66C137.05 405.776 145.877 393.082 163.184 393.215C186.441 393.391 193.183 423.038 219.853 440.306C248.514 458.864 281.524 454.316 311.973 447.228C341.948 440.251 363.284 430.259 387.188 415.37C402.838 405.623 414.527 393.452 428.423 390.782C437.474 389.043 445.617 391.419 456.734 395.926C476.07 403.766 490.766 418.621 512.012 429.23C529.905 438.166 546.009 448.183 564.962 451.833C574.569 453.683 584.909 452.812 596.237 454.29C598.222 454.548 600.223 454.854 602.232 455.331C614.375 458.213 625.798 464.029 638.302 467.263C659.604 472.773 681.71 473.106 703.358 470.833" stroke="url(#paint85_linear_215_19362)" stroke-width="1.13612" stroke-miterlimit="10"/>
<path id="Vector_88" d="M0.317069 458.195C42.1877 471.42 75.9345 453.548 100.975 434.672C108.347 429.116 114.55 423.768 120.015 419.899C136.981 407.92 145.635 395.014 162.804 395.193C186.608 395.44 193.036 426.563 220.785 444.337C250.309 463.414 284.684 457.688 315.995 450.12C346.263 442.804 367.467 432.529 390.142 418.109C405.631 408.26 417.109 396.396 430.664 393.183C439.659 391.051 447.968 392.712 459.248 396.616C479.173 403.513 493.839 417.83 514.346 428.928C531.463 438.191 547.137 448.649 566.131 453.287C575.563 455.589 585.823 455.488 597.148 457.276C599.1 457.585 601.076 457.926 603.062 458.414C615.192 461.396 626.653 466.711 638.941 469.616C660.649 474.747 682.609 474.599 703.355 472.226" stroke="url(#paint86_linear_215_19362)" stroke-width="1.13612" stroke-miterlimit="10"/>
<path id="Vector_89" d="M0.285941 461.936C42.8302 474.642 76.2634 455.87 100.805 437.046C108.152 431.41 114.349 426.028 119.782 422.189C136.91 410.118 145.393 396.999 162.425 397.223C186.777 397.544 192.929 430.078 221.719 448.42C252.148 467.947 287.848 461.118 320.02 453.063C350.584 445.411 371.65 434.84 393.099 420.9C408.419 410.942 419.687 399.384 432.908 395.636C441.841 393.104 450.318 394.047 461.765 397.359C482.28 403.294 496.92 417.087 516.685 428.679C533.03 438.264 548.283 449.15 567.304 454.795C576.566 457.544 586.742 458.213 598.062 460.317C599.983 460.674 601.933 461.053 603.896 461.552C616.012 464.633 627.511 469.44 639.585 472.024C661.698 476.756 683.514 476.148 703.356 473.675" stroke="url(#paint87_linear_215_19362)" stroke-width="1.13612" stroke-miterlimit="10"/>
<path id="Vector_90" d="M0.251259 465.745C43.4693 477.932 76.5874 458.256 100.631 439.487C107.954 433.77 114.144 428.355 119.548 424.544C136.839 412.379 145.149 399.05 162.044 399.319C186.943 399.714 192.819 433.658 222.652 452.567C253.985 472.544 291.014 464.618 324.043 456.073C354.904 448.088 375.824 437.212 396.054 423.757C411.203 413.682 422.257 402.428 435.151 398.154C444.019 395.215 452.668 395.44 464.282 398.167C485.381 403.122 500.005 416.403 519.023 428.496C534.6 438.399 549.442 449.7 568.478 456.371C577.577 459.56 587.663 460.999 598.977 463.425C600.867 463.831 602.79 464.246 604.731 464.757C616.832 467.939 628.368 472.228 640.229 474.498C662.749 478.811 684.417 477.764 703.357 475.19" stroke="url(#paint88_linear_215_19362)" stroke-width="1.13612" stroke-miterlimit="10"/>
<path id="Vector_91" d="M0.218802 469.628C44.1105 481.295 76.9108 460.712 100.459 442.002C107.756 436.204 113.94 430.756 119.316 426.974C136.769 414.716 144.906 401.177 161.666 401.489C187.11 401.963 192.712 437.314 223.586 456.79C255.823 477.217 294.182 468.198 328.068 459.156C359.228 450.842 379.992 439.648 399.012 426.687C413.982 416.485 424.821 405.539 437.396 400.745C446.193 397.393 455.01 396.896 466.799 399.048C488.476 403.004 503.096 415.786 521.362 428.384C536.175 438.601 550.621 450.306 569.65 458.015C578.595 461.639 588.587 463.851 599.889 466.602C601.749 467.054 603.643 467.509 605.563 468.031C617.649 471.315 629.221 475.075 640.871 477.043C663.798 480.912 685.32 479.449 703.356 476.775" stroke="url(#paint89_linear_215_19362)" stroke-width="1.13612" stroke-miterlimit="10"/>
<path id="Vector_92" d="M0.187064 473.596C44.7524 484.742 77.2306 463.251 100.287 444.602C107.557 438.72 113.737 433.241 119.082 429.489C136.698 417.137 144.661 403.421 161.284 403.743C187.274 404.348 192.602 441.051 224.516 461.097C257.66 481.973 297.349 471.867 332.09 462.325C363.55 453.683 384.152 442.162 401.966 429.704C416.75 419.365 427.373 408.731 439.637 403.424C448.356 399.651 457.346 398.434 469.315 400.017C491.56 402.959 506.194 415.251 523.699 428.362C537.754 438.889 551.814 450.99 570.821 459.751C579.622 463.807 589.512 466.787 600.802 469.871C602.631 470.37 604.498 470.866 606.394 471.396C618.458 474.805 630.072 478.009 641.512 479.677C664.844 483.08 686.222 481.224 703.354 478.452" stroke="url(#paint90_linear_215_19362)" stroke-width="1.13612" stroke-miterlimit="10"/>
<path id="Vector_93" d="M0.154105 477.647C45.3932 488.273 77.5198 465.834 100.115 447.283C107.348 441.306 113.534 435.809 118.849 432.085C136.627 419.64 144.418 405.7 160.905 406.08C187.442 406.744 192.494 444.873 225.451 465.486C259.499 486.813 300.539 475.687 336.115 465.574C367.892 456.666 388.306 444.748 404.922 432.8C419.508 422.311 429.916 411.997 441.881 406.182C450.515 401.986 459.677 400.043 471.832 401.065C494.636 402.978 509.302 414.791 526.037 428.418C539.341 439.251 553.029 451.744 571.995 461.563C580.659 466.049 590.442 469.796 601.716 473.215C603.517 473.761 605.355 474.296 607.229 474.837C619.281 478.341 630.922 481.011 642.155 482.387C665.889 485.298 687.126 483.075 703.356 480.203" stroke="url(#paint91_linear_215_19362)" stroke-width="1.13612" stroke-miterlimit="10"/>
<path id="Vector_94" d="M0.122122 481.765C61.0349 495.174 97.153 449.752 118.617 434.752C136.558 422.214 144.177 408.05 160.527 408.488C187.612 409.213 192.388 448.766 226.385 469.947C261.337 491.725 303.696 479.454 340.14 468.897C423.952 444.619 427.017 400.412 474.351 402.185C525.689 404.107 535.303 456.603 608.063 478.352C646.437 489.822 681.024 486.359 703.358 482.03" stroke="url(#paint92_linear_215_19362)" stroke-width="1.13612" stroke-miterlimit="10"/>
</g>
</g>
<defs>
<linearGradient id="paint0_linear_215_19362" x1="1.36984" y1="219.029" x2="702.609" y2="219.029" gradientUnits="userSpaceOnUse">
<stop stop-color="#2D67FF"/>
<stop offset="1" stop-color="#A238FF"/>
</linearGradient>
<linearGradient id="paint1_linear_215_19362" x1="1.34832" y1="221.371" x2="702.641" y2="221.371" gradientUnits="userSpaceOnUse">
<stop stop-color="#2D67FF"/>
<stop offset="1" stop-color="#A238FF"/>
</linearGradient>
<linearGradient id="paint2_linear_215_19362" x1="1.32689" y1="223.71" x2="702.674" y2="223.71" gradientUnits="userSpaceOnUse">
<stop stop-color="#2D67FF"/>
<stop offset="1" stop-color="#A238FF"/>
</linearGradient>
<linearGradient id="paint3_linear_215_19362" x1="1.30327" y1="226.052" x2="702.705" y2="226.052" gradientUnits="userSpaceOnUse">
<stop stop-color="#2D67FF"/>
<stop offset="1" stop-color="#A238FF"/>
</linearGradient>
<linearGradient id="paint4_linear_215_19362" x1="1.28362" y1="228.393" x2="702.738" y2="228.393" gradientUnits="userSpaceOnUse">
<stop stop-color="#2D67FF"/>
<stop offset="1" stop-color="#A238FF"/>
</linearGradient>
<linearGradient id="paint5_linear_215_19362" x1="1.25811" y1="230.732" x2="702.77" y2="230.732" gradientUnits="userSpaceOnUse">
<stop stop-color="#2D67FF"/>
<stop offset="1" stop-color="#A238FF"/>
</linearGradient>
<linearGradient id="paint6_linear_215_19362" x1="1.24099" y1="233.075" x2="702.805" y2="233.075" gradientUnits="userSpaceOnUse">
<stop stop-color="#2D67FF"/>
<stop offset="1" stop-color="#A238FF"/>
</linearGradient>
<linearGradient id="paint7_linear_215_19362" x1="1.22002" y1="235.413" x2="702.836" y2="235.413" gradientUnits="userSpaceOnUse">
<stop stop-color="#2D67FF"/>
<stop offset="1" stop-color="#A238FF"/>
</linearGradient>
<linearGradient id="paint8_linear_215_19362" x1="1.19695" y1="237.755" x2="702.869" y2="237.755" gradientUnits="userSpaceOnUse">
<stop stop-color="#2D67FF"/>
<stop offset="1" stop-color="#A238FF"/>
</linearGradient>
<linearGradient id="paint9_linear_215_19362" x1="1.17254" y1="240.098" x2="702.901" y2="240.098" gradientUnits="userSpaceOnUse">
<stop stop-color="#2D67FF"/>
<stop offset="1" stop-color="#A238FF"/>
</linearGradient>
<linearGradient id="paint10_linear_215_19362" x1="1.14972" y1="242.439" x2="702.933" y2="242.439" gradientUnits="userSpaceOnUse">
<stop stop-color="#2D67FF"/>
<stop offset="1" stop-color="#A238FF"/>
</linearGradient>
<linearGradient id="paint11_linear_215_19362" x1="1.1336" y1="244.777" x2="702.966" y2="244.777" gradientUnits="userSpaceOnUse">
<stop stop-color="#2D67FF"/>
<stop offset="1" stop-color="#A238FF"/>
</linearGradient>
<linearGradient id="paint12_linear_215_19362" x1="1.11053" y1="247.117" x2="702.998" y2="247.117" gradientUnits="userSpaceOnUse">
<stop stop-color="#2D67FF"/>
<stop offset="1" stop-color="#A238FF"/>
</linearGradient>
<linearGradient id="paint13_linear_215_19362" x1="1.0888" y1="249.461" x2="703.032" y2="249.461" gradientUnits="userSpaceOnUse">
<stop stop-color="#2D67FF"/>
<stop offset="1" stop-color="#A238FF"/>
</linearGradient>
<linearGradient id="paint14_linear_215_19362" x1="1.06489" y1="251.801" x2="703.065" y2="251.801" gradientUnits="userSpaceOnUse">
<stop stop-color="#2D67FF"/>
<stop offset="1" stop-color="#A238FF"/>
</linearGradient>
<linearGradient id="paint15_linear_215_19362" x1="1.0429" y1="254.141" x2="703.096" y2="254.141" gradientUnits="userSpaceOnUse">
<stop stop-color="#2D67FF"/>
<stop offset="1" stop-color="#A238FF"/>
</linearGradient>
<linearGradient id="paint16_linear_215_19362" x1="1.02251" y1="256.481" x2="703.129" y2="256.481" gradientUnits="userSpaceOnUse">
<stop stop-color="#2D67FF"/>
<stop offset="1" stop-color="#A238FF"/>
</linearGradient>
<linearGradient id="paint17_linear_215_19362" x1="0.999442" y1="258.822" x2="703.161" y2="258.822" gradientUnits="userSpaceOnUse">
<stop stop-color="#2D67FF"/>
<stop offset="1" stop-color="#A238FF"/>
</linearGradient>
<linearGradient id="paint18_linear_215_19362" x1="0.978726" y1="261.162" x2="703.194" y2="261.162" gradientUnits="userSpaceOnUse">
<stop stop-color="#2D67FF"/>
<stop offset="1" stop-color="#A238FF"/>
</linearGradient>
<linearGradient id="paint19_linear_215_19362" x1="0.95913" y1="263.502" x2="703.226" y2="263.502" gradientUnits="userSpaceOnUse">
<stop stop-color="#2D67FF"/>
<stop offset="1" stop-color="#A238FF"/>
</linearGradient>
<linearGradient id="paint20_linear_215_19362" x1="0.935238" y1="265.844" x2="703.26" y2="265.844" gradientUnits="userSpaceOnUse">
<stop stop-color="#2D67FF"/>
<stop offset="1" stop-color="#A238FF"/>
</linearGradient>
<linearGradient id="paint21_linear_215_19362" x1="0.913748" y1="268.184" x2="703.292" y2="268.184" gradientUnits="userSpaceOnUse">
<stop stop-color="#2D67FF"/>
<stop offset="1" stop-color="#A238FF"/>
</linearGradient>
<linearGradient id="paint22_linear_215_19362" x1="0.892508" y1="270.524" x2="703.324" y2="270.524" gradientUnits="userSpaceOnUse">
<stop stop-color="#2D67FF"/>
<stop offset="1" stop-color="#A238FF"/>
</linearGradient>
<linearGradient id="paint23_linear_215_19362" x1="0.870291" y1="272.867" x2="703.357" y2="272.867" gradientUnits="userSpaceOnUse">
<stop stop-color="#2D67FF"/>
<stop offset="1" stop-color="#A238FF"/>
</linearGradient>
<linearGradient id="paint24_linear_215_19362" x1="0.88155" y1="276.329" x2="703.346" y2="276.329" gradientUnits="userSpaceOnUse">
<stop stop-color="#2D67FF"/>
<stop offset="1" stop-color="#A238FF"/>
</linearGradient>
<linearGradient id="paint25_linear_215_19362" x1="0.891776" y1="279.795" x2="703.333" y2="279.795" gradientUnits="userSpaceOnUse">
<stop stop-color="#2D67FF"/>
<stop offset="1" stop-color="#A238FF"/>
</linearGradient>
<linearGradient id="paint26_linear_215_19362" x1="0.903294" y1="283.257" x2="703.325" y2="283.257" gradientUnits="userSpaceOnUse">
<stop stop-color="#2D67FF"/>
<stop offset="1" stop-color="#A238FF"/>
</linearGradient>
<linearGradient id="paint27_linear_215_19362" x1="0.913764" y1="286.721" x2="703.312" y2="286.721" gradientUnits="userSpaceOnUse">
<stop stop-color="#2D67FF"/>
<stop offset="1" stop-color="#A238FF"/>
</linearGradient>
<linearGradient id="paint28_linear_215_19362" x1="0.925345" y1="290.183" x2="703.303" y2="290.183" gradientUnits="userSpaceOnUse">
<stop stop-color="#2D67FF"/>
<stop offset="1" stop-color="#A238FF"/>
</linearGradient>
<linearGradient id="paint29_linear_215_19362" x1="0.935233" y1="293.649" x2="703.292" y2="293.649" gradientUnits="userSpaceOnUse">
<stop stop-color="#2D67FF"/>
<stop offset="1" stop-color="#A238FF"/>
</linearGradient>
<linearGradient id="paint30_linear_215_19362" x1="0.946219" y1="297.109" x2="703.282" y2="297.109" gradientUnits="userSpaceOnUse">
<stop stop-color="#2D67FF"/>
<stop offset="1" stop-color="#A238FF"/>
</linearGradient>
<linearGradient id="paint31_linear_215_19362" x1="0.957205" y1="300.572" x2="703.271" y2="300.572" gradientUnits="userSpaceOnUse">
<stop stop-color="#2D67FF"/>
<stop offset="1" stop-color="#A238FF"/>
</linearGradient>
<linearGradient id="paint32_linear_215_19362" x1="0.967215" y1="304.037" x2="703.255" y2="304.037" gradientUnits="userSpaceOnUse">
<stop stop-color="#2D67FF"/>
<stop offset="1" stop-color="#A238FF"/>
</linearGradient>
<linearGradient id="paint33_linear_215_19362" x1="0.97869" y1="307.497" x2="703.246" y2="307.497" gradientUnits="userSpaceOnUse">
<stop stop-color="#2D67FF"/>
<stop offset="1" stop-color="#A238FF"/>
</linearGradient>
<linearGradient id="paint34_linear_215_19362" x1="0.989676" y1="310.961" x2="703.24" y2="310.961" gradientUnits="userSpaceOnUse">
<stop stop-color="#2D67FF"/>
<stop offset="1" stop-color="#A238FF"/>
</linearGradient>
<linearGradient id="paint35_linear_215_19362" x1="1.00176" y1="314.426" x2="703.229" y2="314.426" gradientUnits="userSpaceOnUse">
<stop stop-color="#2D67FF"/>
<stop offset="1" stop-color="#A238FF"/>
</linearGradient>
<linearGradient id="paint36_linear_215_19362" x1="1.01153" y1="317.89" x2="703.215" y2="317.89" gradientUnits="userSpaceOnUse">
<stop stop-color="#2D67FF"/>
<stop offset="1" stop-color="#A238FF"/>
</linearGradient>
<linearGradient id="paint37_linear_215_19362" x1="1.02251" y1="321.351" x2="703.205" y2="321.351" gradientUnits="userSpaceOnUse">
<stop stop-color="#2D67FF"/>
<stop offset="1" stop-color="#A238FF"/>
</linearGradient>
<linearGradient id="paint38_linear_215_19362" x1="1.03301" y1="324.814" x2="703.193" y2="324.814" gradientUnits="userSpaceOnUse">
<stop stop-color="#2D67FF"/>
<stop offset="1" stop-color="#A238FF"/>
</linearGradient>
<linearGradient id="paint39_linear_215_19362" x1="1.0429" y1="328.281" x2="703.181" y2="328.281" gradientUnits="userSpaceOnUse">
<stop stop-color="#2D67FF"/>
<stop offset="1" stop-color="#A238FF"/>
</linearGradient>
<linearGradient id="paint40_linear_215_19362" x1="1.05388" y1="331.743" x2="703.172" y2="331.743" gradientUnits="userSpaceOnUse">
<stop stop-color="#2D67FF"/>
<stop offset="1" stop-color="#A238FF"/>
</linearGradient>
<linearGradient id="paint41_linear_215_19362" x1="1.0665" y1="335.205" x2="703.163" y2="335.205" gradientUnits="userSpaceOnUse">
<stop stop-color="#2D67FF"/>
<stop offset="1" stop-color="#A238FF"/>
</linearGradient>
<linearGradient id="paint42_linear_215_19362" x1="1.07805" y1="338.67" x2="703.154" y2="338.67" gradientUnits="userSpaceOnUse">
<stop stop-color="#2D67FF"/>
<stop offset="1" stop-color="#A238FF"/>
</linearGradient>
<linearGradient id="paint43_linear_215_19362" x1="1.08697" y1="342.132" x2="703.14" y2="342.132" gradientUnits="userSpaceOnUse">
<stop stop-color="#2D67FF"/>
<stop offset="1" stop-color="#A238FF"/>
</linearGradient>
<linearGradient id="paint44_linear_215_19362" x1="1.0982" y1="345.596" x2="703.129" y2="345.596" gradientUnits="userSpaceOnUse">
<stop stop-color="#2D67FF"/>
<stop offset="1" stop-color="#A238FF"/>
</linearGradient>
<linearGradient id="paint45_linear_215_19362" x1="1.10999" y1="349.057" x2="703.118" y2="349.057" gradientUnits="userSpaceOnUse">
<stop stop-color="#2D67FF"/>
<stop offset="1" stop-color="#A238FF"/>
</linearGradient>
<linearGradient id="paint46_linear_215_19362" x1="1.11907" y1="352.518" x2="703.106" y2="352.518" gradientUnits="userSpaceOnUse">
<stop stop-color="#2D67FF"/>
<stop offset="1" stop-color="#A238FF"/>
</linearGradient>
<linearGradient id="paint47_linear_215_19362" x1="1.11004" y1="354.657" x2="703.12" y2="354.657" gradientUnits="userSpaceOnUse">
<stop stop-color="#2D67FF"/>
<stop offset="1" stop-color="#A238FF"/>
</linearGradient>
<linearGradient id="paint48_linear_215_19362" x1="1.09818" y1="356.789" x2="703.129" y2="356.789" gradientUnits="userSpaceOnUse">
<stop stop-color="#2D67FF"/>
<stop offset="1" stop-color="#A238FF"/>
</linearGradient>
<linearGradient id="paint49_linear_215_19362" x1="1.08697" y1="358.922" x2="703.14" y2="358.922" gradientUnits="userSpaceOnUse">
<stop stop-color="#2D67FF"/>
<stop offset="1" stop-color="#A238FF"/>
</linearGradient>
<linearGradient id="paint50_linear_215_19362" x1="1.07805" y1="361.058" x2="703.154" y2="361.058" gradientUnits="userSpaceOnUse">
<stop stop-color="#2D67FF"/>
<stop offset="1" stop-color="#A238FF"/>
</linearGradient>
<linearGradient id="paint51_linear_215_19362" x1="1.06646" y1="363.192" x2="703.163" y2="363.192" gradientUnits="userSpaceOnUse">
<stop stop-color="#2D67FF"/>
<stop offset="1" stop-color="#A238FF"/>
</linearGradient>
<linearGradient id="paint52_linear_215_19362" x1="1.05388" y1="365.325" x2="703.173" y2="365.325" gradientUnits="userSpaceOnUse">
<stop stop-color="#2D67FF"/>
<stop offset="1" stop-color="#A238FF"/>
</linearGradient>
<linearGradient id="paint53_linear_215_19362" x1="1.0429" y1="367.461" x2="703.181" y2="367.461" gradientUnits="userSpaceOnUse">
<stop stop-color="#2D67FF"/>
<stop offset="1" stop-color="#A238FF"/>
</linearGradient>
<linearGradient id="paint54_linear_215_19362" x1="1.03301" y1="369.594" x2="703.195" y2="369.594" gradientUnits="userSpaceOnUse">
<stop stop-color="#2D67FF"/>
<stop offset="1" stop-color="#A238FF"/>
</linearGradient>
<linearGradient id="paint55_linear_215_19362" x1="1.02251" y1="371.727" x2="703.204" y2="371.727" gradientUnits="userSpaceOnUse">
<stop stop-color="#2D67FF"/>
<stop offset="1" stop-color="#A238FF"/>
</linearGradient>
<linearGradient id="paint56_linear_215_19362" x1="1.01153" y1="373.862" x2="703.214" y2="373.862" gradientUnits="userSpaceOnUse">
<stop stop-color="#2D67FF"/>
<stop offset="1" stop-color="#A238FF"/>
</linearGradient>
<linearGradient id="paint57_linear_215_19362" x1="1.00181" y1="375.994" x2="703.227" y2="375.994" gradientUnits="userSpaceOnUse">
<stop stop-color="#2D67FF"/>
<stop offset="1" stop-color="#A238FF"/>
</linearGradient>
<linearGradient id="paint58_linear_215_19362" x1="0.989676" y1="378.13" x2="703.237" y2="378.13" gradientUnits="userSpaceOnUse">
<stop stop-color="#2D67FF"/>
<stop offset="1" stop-color="#A238FF"/>
</linearGradient>
<linearGradient id="paint59_linear_215_19362" x1="0.97869" y1="380.264" x2="703.248" y2="380.264" gradientUnits="userSpaceOnUse">
<stop stop-color="#2D67FF"/>
<stop offset="1" stop-color="#A238FF"/>
</linearGradient>
<linearGradient id="paint60_linear_215_19362" x1="0.967215" y1="382.4" x2="703.258" y2="382.4" gradientUnits="userSpaceOnUse">
<stop stop-color="#2D67FF"/>
<stop offset="1" stop-color="#A238FF"/>
</linearGradient>
<linearGradient id="paint61_linear_215_19362" x1="0.957205" y1="384.532" x2="703.269" y2="384.532" gradientUnits="userSpaceOnUse">
<stop stop-color="#2D67FF"/>
<stop offset="1" stop-color="#A238FF"/>
</linearGradient>
<linearGradient id="paint62_linear_215_19362" x1="0.946244" y1="386.666" x2="703.28" y2="386.666" gradientUnits="userSpaceOnUse">
<stop stop-color="#2D67FF"/>
<stop offset="1" stop-color="#A238FF"/>
</linearGradient>
<linearGradient id="paint63_linear_215_19362" x1="0.935238" y1="388.801" x2="703.292" y2="388.801" gradientUnits="userSpaceOnUse">
<stop stop-color="#2D67FF"/>
<stop offset="1" stop-color="#A238FF"/>
</linearGradient>
<linearGradient id="paint64_linear_215_19362" x1="0.925345" y1="390.935" x2="703.303" y2="390.935" gradientUnits="userSpaceOnUse">
<stop stop-color="#2D67FF"/>
<stop offset="1" stop-color="#A238FF"/>
</linearGradient>
<linearGradient id="paint65_linear_215_19362" x1="0.913764" y1="393.068" x2="703.313" y2="393.068" gradientUnits="userSpaceOnUse">
<stop stop-color="#2D67FF"/>
<stop offset="1" stop-color="#A238FF"/>
</linearGradient>
<linearGradient id="paint66_linear_215_19362" x1="0.90325" y1="395.203" x2="703.322" y2="395.203" gradientUnits="userSpaceOnUse">
<stop stop-color="#2D67FF"/>
<stop offset="1" stop-color="#A238FF"/>
</linearGradient>
<linearGradient id="paint67_linear_215_19362" x1="0.891776" y1="397.339" x2="703.333" y2="397.339" gradientUnits="userSpaceOnUse">
<stop stop-color="#2D67FF"/>
<stop offset="1" stop-color="#A238FF"/>
</linearGradient>
<linearGradient id="paint68_linear_215_19362" x1="0.881522" y1="399.47" x2="703.347" y2="399.47" gradientUnits="userSpaceOnUse">
<stop stop-color="#2D67FF"/>
<stop offset="1" stop-color="#A238FF"/>
</linearGradient>
<linearGradient id="paint69_linear_215_19362" x1="0.870276" y1="401.604" x2="703.357" y2="401.604" gradientUnits="userSpaceOnUse">
<stop stop-color="#2D67FF"/>
<stop offset="1" stop-color="#A238FF"/>
</linearGradient>
<linearGradient id="paint70_linear_215_19362" x1="0.838065" y1="403.45" x2="703.358" y2="403.45" gradientUnits="userSpaceOnUse">
<stop stop-color="#2D67FF"/>
<stop offset="1" stop-color="#A238FF"/>
</linearGradient>
<linearGradient id="paint71_linear_215_19362" x1="0.806082" y1="405.302" x2="703.357" y2="405.302" gradientUnits="userSpaceOnUse">
<stop stop-color="#2D67FF"/>
<stop offset="1" stop-color="#A238FF"/>
</linearGradient>
<linearGradient id="paint72_linear_215_19362" x1="0.773612" y1="407.153" x2="703.359" y2="407.153" gradientUnits="userSpaceOnUse">
<stop stop-color="#2D67FF"/>
<stop offset="1" stop-color="#A238FF"/>
</linearGradient>
<linearGradient id="paint73_linear_215_19362" x1="0.740042" y1="408.999" x2="703.356" y2="408.999" gradientUnits="userSpaceOnUse">
<stop stop-color="#2D67FF"/>
<stop offset="1" stop-color="#A238FF"/>
</linearGradient>
<linearGradient id="paint74_linear_215_19362" x1="0.707571" y1="410.849" x2="703.357" y2="410.849" gradientUnits="userSpaceOnUse">
<stop stop-color="#2D67FF"/>
<stop offset="1" stop-color="#A238FF"/>
</linearGradient>
<linearGradient id="paint75_linear_215_19362" x1="0.674857" y1="412.698" x2="703.358" y2="412.698" gradientUnits="userSpaceOnUse">
<stop stop-color="#2D67FF"/>
<stop offset="1" stop-color="#A238FF"/>
</linearGradient>
<linearGradient id="paint76_linear_215_19362" x1="0.642874" y1="414.544" x2="703.359" y2="414.544" gradientUnits="userSpaceOnUse">
<stop stop-color="#2D67FF"/>
<stop offset="1" stop-color="#A238FF"/>
</linearGradient>
<linearGradient id="paint77_linear_215_19362" x1="0.611014" y1="416.395" x2="703.356" y2="416.395" gradientUnits="userSpaceOnUse">
<stop stop-color="#2D67FF"/>
<stop offset="1" stop-color="#A238FF"/>
</linearGradient>
<linearGradient id="paint78_linear_215_19362" x1="0.578753" y1="418.245" x2="703.359" y2="418.245" gradientUnits="userSpaceOnUse">
<stop stop-color="#2D67FF"/>
<stop offset="1" stop-color="#A238FF"/>
</linearGradient>
<linearGradient id="paint79_linear_215_19362" x1="0.545735" y1="420.093" x2="703.359" y2="420.093" gradientUnits="userSpaceOnUse">
<stop stop-color="#2D67FF"/>
<stop offset="1" stop-color="#A238FF"/>
</linearGradient>
<linearGradient id="paint80_linear_215_19362" x1="0.513255" y1="421.942" x2="703.357" y2="421.942" gradientUnits="userSpaceOnUse">
<stop stop-color="#2D67FF"/>
<stop offset="1" stop-color="#A238FF"/>
</linearGradient>
<linearGradient id="paint81_linear_215_19362" x1="0.479178" y1="423.789" x2="703.357" y2="423.789" gradientUnits="userSpaceOnUse">
<stop stop-color="#2D67FF"/>
<stop offset="1" stop-color="#A238FF"/>
</linearGradient>
<linearGradient id="paint82_linear_215_19362" x1="0.447196" y1="425.637" x2="703.355" y2="425.637" gradientUnits="userSpaceOnUse">
<stop stop-color="#2D67FF"/>
<stop offset="1" stop-color="#A238FF"/>
</linearGradient>
<linearGradient id="paint83_linear_215_19362" x1="0.414481" y1="427.484" x2="703.354" y2="427.484" gradientUnits="userSpaceOnUse">
<stop stop-color="#2D67FF"/>
<stop offset="1" stop-color="#A238FF"/>
</linearGradient>
<linearGradient id="paint84_linear_215_19362" x1="0.38201" y1="429.338" x2="703.358" y2="429.338" gradientUnits="userSpaceOnUse">
<stop stop-color="#2D67FF"/>
<stop offset="1" stop-color="#A238FF"/>
</linearGradient>
<linearGradient id="paint85_linear_215_19362" x1="0.350028" y1="431.183" x2="703.358" y2="431.183" gradientUnits="userSpaceOnUse">
<stop stop-color="#2D67FF"/>
<stop offset="1" stop-color="#A238FF"/>
</linearGradient>
<linearGradient id="paint86_linear_215_19362" x1="0.317069" y1="433.029" x2="703.355" y2="433.029" gradientUnits="userSpaceOnUse">
<stop stop-color="#2D67FF"/>
<stop offset="1" stop-color="#A238FF"/>
</linearGradient>
<linearGradient id="paint87_linear_215_19362" x1="0.285941" y1="434.88" x2="703.356" y2="434.88" gradientUnits="userSpaceOnUse">
<stop stop-color="#2D67FF"/>
<stop offset="1" stop-color="#A238FF"/>
</linearGradient>
<linearGradient id="paint88_linear_215_19362" x1="0.251259" y1="436.732" x2="703.357" y2="436.732" gradientUnits="userSpaceOnUse">
<stop stop-color="#2D67FF"/>
<stop offset="1" stop-color="#A238FF"/>
</linearGradient>
<linearGradient id="paint89_linear_215_19362" x1="0.218802" y1="438.577" x2="703.356" y2="438.577" gradientUnits="userSpaceOnUse">
<stop stop-color="#2D67FF"/>
<stop offset="1" stop-color="#A238FF"/>
</linearGradient>
<linearGradient id="paint90_linear_215_19362" x1="0.187064" y1="440.428" x2="703.354" y2="440.428" gradientUnits="userSpaceOnUse">
<stop stop-color="#2D67FF"/>
<stop offset="1" stop-color="#A238FF"/>
</linearGradient>
<linearGradient id="paint91_linear_215_19362" x1="0.154105" y1="442.275" x2="703.356" y2="442.275" gradientUnits="userSpaceOnUse">
<stop stop-color="#2D67FF"/>
<stop offset="1" stop-color="#A238FF"/>
</linearGradient>
<linearGradient id="paint92_linear_215_19362" x1="0.122122" y1="444.124" x2="703.358" y2="444.124" gradientUnits="userSpaceOnUse">
<stop stop-color="#2D67FF"/>
<stop offset="1" stop-color="#A238FF"/>
</linearGradient>
</defs>
</svg>
