<svg preserveAspectRatio="none" width="100%" height="100%" overflow="visible" style="display: block;" viewBox="0 0 481 37" fill="none" xmlns="http://www.w3.org/2000/svg">
<path id="Vector" d="M0.0414777 21.2197C14.8805 19.6458 31.2907 15.4804 45.7188 9.70155C58.8664 4.42699 67.2938 0.0139519 78.9789 0.419047C97.6241 1.06553 105.449 11.5356 122.409 12.7751C140.485 14.0959 148.363 8.34753 165.388 5.67279C179.257 3.49402 202.666 1.14739 229.162 4.39092C230.947 4.60942 232.69 4.88203 234.417 5.14354C243.891 6.57941 251.905 8.22961 260.951 12.6114C268.236 16.1401 274.583 21.2176 283.563 23.884C296.828 27.8226 306.989 27.0644 326.351 21.6844C331.79 20.173 337.319 18.5762 343.149 16.91C352.893 14.1257 362.678 13.0186 372.449 12.506C380.562 12.0801 388.72 11.5654 397.319 13.9266C406.947 16.5708 416.127 25.0078 426.599 30.5008C427.588 31.0197 428.587 31.5129 429.604 31.9693C442.969 37.9611 461.908 36.8249 480.388 33.6472" stroke="url(#paint0_linear_233_19358)" stroke-width="0.786503" stroke-miterlimit="10"/>
<defs>
<linearGradient id="paint0_linear_233_19358" x1="0.0414777" y1="18.3215" x2="480.388" y2="18.3215" gradientUnits="userSpaceOnUse">
<stop stop-color="#2D67FF"/>
<stop offset="1" stop-color="#A238FF"/>
</linearGradient>
</defs>
</svg>
