<svg preserveAspectRatio="none" width="100%" height="100%" overflow="visible" style="display: block;" viewBox="0 0 481 46" fill="none" xmlns="http://www.w3.org/2000/svg">
<path id="Vector" d="M480.014 22.04C464.861 25.9092 444.485 37.7478 421.546 38.9346C418.636 39.0852 415.691 39.0775 412.715 38.9215C384.725 37.4384 364.241 28.9959 340.783 20.3606C333.733 17.765 321.568 14.2162 307.186 11.3334C285.988 7.08408 263.114 1.70062 242.318 7.50929C237.043 8.98261 232.109 11.0511 227.68 13.7931C207.049 26.5647 189.464 40.6501 180.362 43.159C162.992 47.9466 147.197 41.6781 138.192 35.7591C126.762 28.2468 121.168 22.5574 113.217 17.2142C109.526 14.733 105.439 12.2379 99.836 9.78586C90.5379 5.71688 71.4453 -1.00881 46.8637 0.651802C24.2632 2.17854 8.1705 10.6918 0.200173 15.4052" stroke="url(#paint0_linear_233_19653)" stroke-width="0.786503" stroke-miterlimit="10"/>
<defs>
<linearGradient id="paint0_linear_233_19653" x1="0.200173" y1="22.6241" x2="480.014" y2="22.6241" gradientUnits="userSpaceOnUse">
<stop stop-color="#2D67FF"/>
<stop offset="1" stop-color="#A238FF"/>
</linearGradient>
</defs>
</svg>
