<svg preserveAspectRatio="none" width="100%" height="100%" overflow="visible" style="display: block;" viewBox="0 0 481 48" fill="none" xmlns="http://www.w3.org/2000/svg">
<path id="Vector" d="M479.977 22.6732C465.135 27.8132 444.758 40.6687 421.342 42.0082C418.445 42.1739 415.506 42.1726 412.53 41.9998C384.49 40.3642 363.851 30.7127 340.702 21.0487C333.817 18.1742 321.661 14.3029 307.289 11.2605C286.304 6.81833 262.687 2.43096 242.163 8.43039C236.941 9.9703 232.053 12.0929 227.676 14.9043C207.154 28.0844 189.618 42.4327 181.103 44.9923C163.699 50.2238 147.503 43.494 138.727 37.4939C127.195 29.6091 121.735 23.7678 113.997 18.2921C110.342 15.7054 106.264 13.1375 100.667 10.5509C91.5006 6.31336 72.2493 -0.89997 47.3396 0.59347C24.181 1.98217 7.91224 10.6868 0.200729 15.2643" stroke="url(#paint0_linear_233_19668)" stroke-width="0.786503" stroke-miterlimit="10"/>
<defs>
<linearGradient id="paint0_linear_233_19668" x1="0.200729" y1="23.6324" x2="479.977" y2="23.6324" gradientUnits="userSpaceOnUse">
<stop stop-color="#2D67FF"/>
<stop offset="1" stop-color="#A238FF"/>
</linearGradient>
</defs>
</svg>
