<svg preserveAspectRatio="none" width="100%" height="100%" overflow="visible" style="display: block;" viewBox="0 0 458 37" fill="none" xmlns="http://www.w3.org/2000/svg">
<path id="Vector" d="M0.223756 36.0247C18.5859 23.3197 34.8219 17.6859 48.3885 15.3045C68.6367 11.751 82.4617 15.4981 96.0072 17.0338C126.06 20.4404 132.513 23.6686 150.102 23.3676C171.366 22.9687 188.551 9.29333 213.316 7.38231C235.207 5.69326 248.166 24.1299 272.557 27.4095C293.856 30.2736 308.88 29.0715 325.307 22.9549C345.739 15.3469 360.638 4.26988 384.807 0.780096C393.344 -0.45253 403.664 1.08113 415.524 7.9941C421.364 11.3979 427.348 16.6905 433.514 20.7664C440.84 25.6095 449.927 27.8438 457.675 30.5525" stroke="url(#paint0_linear_190_19645)" stroke-width="0.786503" stroke-miterlimit="10"/>
<defs>
<linearGradient id="paint0_linear_190_19645" x1="0.223756" y1="18.209" x2="457.675" y2="18.209" gradientUnits="userSpaceOnUse">
<stop stop-color="#2D67FF"/>
<stop offset="1" stop-color="#A238FF"/>
</linearGradient>
</defs>
</svg>
