<svg preserveAspectRatio="none" width="100%" height="100%" overflow="visible" style="display: block;" viewBox="0 0 458 26" fill="none" xmlns="http://www.w3.org/2000/svg">
<path id="Vector" d="M457.56 20.2337C438.696 5.04059 419.254 1.1582 404.283 0.524195C401.31 0.39795 398.423 0.349396 395.599 0.439571C369.672 1.2449 351.334 12.2879 325.646 17.7262C316.256 19.7142 304.787 20.7692 291.032 20.1109C267.7 18.9942 256.916 -1.09549 232.942 1.37045C227.241 1.95659 221.881 3.1469 216.848 4.80613C195.963 11.6886 178.846 22.76 161.165 23.3371C146.373 23.8199 136.619 21.6203 123.962 17.4057C115.691 14.6512 107.747 11.7683 96.6836 8.71557C92.8619 7.66121 88.4658 6.58605 83.2105 5.98534C72.2005 4.72566 56.5664 4.69584 37.8433 9.20043C24.2868 12.462 11.4887 18.4323 0.202148 25.1961" stroke="url(#paint0_linear_190_19789)" stroke-width="0.786503" stroke-miterlimit="10"/>
<defs>
<linearGradient id="paint0_linear_190_19789" x1="0.202148" y1="12.7947" x2="457.56" y2="12.7947" gradientUnits="userSpaceOnUse">
<stop stop-color="#2D67FF"/>
<stop offset="1" stop-color="#A238FF"/>
</linearGradient>
</defs>
</svg>
