<svg preserveAspectRatio="none" width="100%" height="100%" overflow="visible" style="display: block;" viewBox="0 0 458 46" fill="none" xmlns="http://www.w3.org/2000/svg">
<path id="Vector" d="M0.159884 23.9478C21.7236 33.5439 46.2141 30.4321 66.8993 21.1933C71.8596 18.9778 76.0066 16.67 79.8164 14.6293C89.4917 9.45876 96.5846 4.6559 108.927 4.38676C119.8 4.14953 126.348 10.1531 135.577 15.1738C147.181 21.4867 158.407 25.9393 171.417 25.0612C188.72 23.893 203.343 20.1834 228.752 10.6414C240.089 6.38378 249.452 -1.44202 261.178 0.783915C267.502 1.98463 271.758 7.16623 277.479 13.1109C285.838 21.7961 295.349 32.3556 314.879 34.8195C332.663 37.0635 346.5 38.8149 358.474 35.5464C366.124 33.4578 373.48 28.8131 380.87 27.8954C382.413 27.704 383.915 27.6811 385.404 27.8385C393.411 28.6862 400.712 33.9822 410.385 37.7772C421.311 42.0633 436.621 45.5358 457.779 45.0169" stroke="url(#paint0_linear_190_19607)" stroke-width="0.786503" stroke-miterlimit="10"/>
<defs>
<linearGradient id="paint0_linear_190_19607" x1="0.159884" y1="22.7308" x2="457.779" y2="22.7308" gradientUnits="userSpaceOnUse">
<stop stop-color="#2D67FF"/>
<stop offset="1" stop-color="#A238FF"/>
</linearGradient>
</defs>
</svg>
