<svg preserveAspectRatio="none" width="100%" height="100%" overflow="visible" style="display: block;" viewBox="0 0 481 44" fill="none" xmlns="http://www.w3.org/2000/svg">
<path id="Vector" d="M0.130243 26.1287C24.6233 34.7259 49.5609 29.9639 69.8465 20.7459C75.0113 18.3993 79.3265 16.0034 83.2462 14.0189C93.8518 8.6694 100.831 3.41911 113.421 3.27691C126.336 3.13124 132.469 11.8838 145.003 18.0067C159.674 25.1735 175.038 27.3697 191.104 25.7063C210.04 23.746 225.201 19.8012 248.401 10.9931C259.923 6.61894 269.1 -0.499348 280.509 0.485642C286.983 1.04473 291.754 4.88481 298.379 9.52675C308.518 16.6319 318.651 26.0198 337.171 29.3306C353.701 32.2856 367.127 35.1393 379.77 33.4336C387.356 32.4097 394.835 29.1308 402.585 28.7264C404.119 28.6467 405.626 28.673 407.126 28.8555C415.502 29.8751 423.166 34.4186 432.843 37.3916C445.289 41.215 461.112 43.4992 480.863 42.7889" stroke="url(#paint0_linear_233_19317)" stroke-width="0.786503" stroke-miterlimit="10"/>
<defs>
<linearGradient id="paint0_linear_233_19317" x1="0.130243" y1="21.6555" x2="480.863" y2="21.6555" gradientUnits="userSpaceOnUse">
<stop stop-color="#2D67FF"/>
<stop offset="1" stop-color="#A238FF"/>
</linearGradient>
</defs>
</svg>
