<svg preserveAspectRatio="none" width="100%" height="100%" overflow="visible" style="display: block;" viewBox="0 0 458 32" fill="none" xmlns="http://www.w3.org/2000/svg">
<path id="Vector" d="M457.282 18.0463C440.784 13.02 421.372 17.6259 402.73 17.859C399.866 17.895 397.022 17.8534 394.194 17.8125C367.881 17.397 348.978 17.7015 325.023 15.9806C317.076 15.4097 305.542 14.0855 291.809 12.2785C270.172 9.43175 253.498 -2.78629 231.761 1.49356C226.419 2.54514 221.402 4.19743 216.817 6.44835C196.533 16.4072 179.603 28.8277 166.805 30.7582C150.974 33.1464 138.318 29.3452 128.03 24.0436C118.153 18.9536 111.727 14.4698 102.618 10.0977C98.9212 8.3233 94.8613 6.40395 89.5363 4.86196C79.7264 2.02144 62.698 -1.40176 41.4659 1.49078C23.6754 3.91442 9.51884 11.1534 0.204497 16.824" stroke="url(#paint0_linear_190_19783)" stroke-width="0.786503" stroke-miterlimit="10"/>
<defs>
<linearGradient id="paint0_linear_190_19783" x1="0.204497" y1="15.9403" x2="457.282" y2="15.9403" gradientUnits="userSpaceOnUse">
<stop stop-color="#2D67FF"/>
<stop offset="1" stop-color="#A238FF"/>
</linearGradient>
</defs>
</svg>
