<svg preserveAspectRatio="none" width="100%" height="100%" overflow="visible" style="display: block;" viewBox="0 0 458 40" fill="none" xmlns="http://www.w3.org/2000/svg">
<path id="Vector" d="M0.130387 18.3527C17.9099 24.6011 39.7017 22.1539 58.8003 14.1581C74.134 7.7335 81.9002 0.723407 97.4757 0.464674C110.699 0.244785 118.438 6.89557 128.832 10.2931C140.241 14.0222 147.625 15.4261 159.655 14.5036C175.018 13.3251 192.38 10.2605 219.987 4.96442C221.727 4.63078 223.446 4.26592 225.131 3.85874C234.524 1.59188 242.947 -1.55316 252.834 1.98101C259.683 4.42892 264.359 10.8057 270.948 16.6185C279.897 24.5137 289.509 31.2422 309.437 30.4382C315.556 30.1913 321.33 29.8812 326.895 29.4095C337.371 28.5223 346.666 27.7385 355.089 25.4571C363.04 23.3033 370.737 19.5721 378.377 19.1532C388.12 18.619 396.51 26.6287 407.761 32.2077C408.679 32.6628 409.627 33.1109 410.61 33.5437C421.639 38.4021 437.553 40.4962 457.595 39.1693" stroke="url(#paint0_linear_190_19627)" stroke-width="0.786503" stroke-miterlimit="10"/>
<defs>
<linearGradient id="paint0_linear_190_19627" x1="0.130387" y1="19.9762" x2="457.595" y2="19.9762" gradientUnits="userSpaceOnUse">
<stop stop-color="#2D67FF"/>
<stop offset="1" stop-color="#A238FF"/>
</linearGradient>
</defs>
</svg>
