<svg preserveAspectRatio="none" width="100%" height="100%" overflow="visible" style="display: block;" viewBox="0 0 481 45" fill="none" xmlns="http://www.w3.org/2000/svg">
<path id="Vector" d="M0.141585 25.0173C23.7129 34.1139 49.046 30.1808 70.0484 20.949C75.2362 18.6689 79.5707 16.3161 83.5318 14.3031C93.9161 9.04309 101.13 4.01409 113.906 3.81085C126.074 3.61732 132.581 10.9957 143.693 16.5692C157.125 23.3067 170.699 26.6252 185.566 25.3627C204.12 23.7867 219.384 19.9793 244.325 10.7966C256.041 6.4828 265.538 -0.984399 277.408 0.613783C283.963 1.49681 288.575 6.00626 294.903 11.2982C304.347 19.194 314.425 29.1702 333.941 32.0544C351.546 34.6563 365.539 36.9648 378.135 34.469C385.954 32.9201 393.549 28.9538 401.303 28.2899C402.881 28.1547 404.422 28.1561 405.955 28.326C414.347 29.259 422.005 34.1895 431.932 37.5634C443.884 41.6255 459.845 44.4965 480.832 43.8819" stroke="url(#paint0_linear_233_19319)" stroke-width="0.786503" stroke-miterlimit="10"/>
<defs>
<linearGradient id="paint0_linear_233_19319" x1="0.141585" y1="22.179" x2="480.832" y2="22.179" gradientUnits="userSpaceOnUse">
<stop stop-color="#2D67FF"/>
<stop offset="1" stop-color="#A238FF"/>
</linearGradient>
</defs>
</svg>
