<svg preserveAspectRatio="none" width="100%" height="100%" overflow="visible" style="display: block;" viewBox="0 0 458 44" fill="none" xmlns="http://www.w3.org/2000/svg">
<path id="Vector" d="M457.07 21.4202C442.347 24.0186 422.948 34.8355 401.562 35.8746C398.778 36.0099 395.968 35.9967 393.135 35.8566C366.534 34.5261 347.162 27.2989 324.552 19.6854C317.676 17.3699 306.089 14.1438 292.389 11.4191C272.001 7.36466 250.948 1.00731 230.873 6.60025C225.804 8.01253 221.06 10.0214 216.792 12.694C197.049 25.0584 180.267 38.8858 171.033 41.3371C154.553 45.712 139.878 39.8728 131.08 34.035C120.309 26.889 114.844 21.3571 107.068 16.147C103.52 13.7699 99.6171 11.3497 94.2793 9.03221C85.2984 5.13317 67.2743 -1.10834 44.1826 0.721521C23.1961 2.38421 8.04194 10.7074 0.207006 15.5581" stroke="url(#paint0_linear_190_19701)" stroke-width="0.786503" stroke-miterlimit="10"/>
<defs>
<linearGradient id="paint0_linear_190_19701" x1="0.207006" y1="21.6284" x2="457.07" y2="21.6284" gradientUnits="userSpaceOnUse">
<stop stop-color="#2D67FF"/>
<stop offset="1" stop-color="#A238FF"/>
</linearGradient>
</defs>
</svg>
