<svg preserveAspectRatio="none" width="100%" height="100%" overflow="visible" style="display: block;" viewBox="0 0 24 24" fill="none" xmlns="http://www.w3.org/2000/svg">
<path id="Vector" d="M23.088 10.542C22.992 9.807 23.751 9.498 23.592 8.895C23.43 8.289 22.617 8.403 22.329 7.719C22.05 7.032 22.707 6.54 22.395 5.997C22.083 5.46 21.327 5.778 20.877 5.184C20.43 4.599 20.928 3.957 20.487 3.513C20.043 3.072 19.401 3.57 18.816 3.123C18.222 2.673 18.54 1.917 18.003 1.605C17.46 1.293 16.968 1.95 16.281 1.671C15.597 1.383 15.711 0.57 15.105 0.408C14.502 0.249 14.193 1.008 13.458 0.912C12.726 0.81 12.627 0 12 0C11.373 0 11.274 0.81 10.542 0.912C9.807 1.008 9.498 0.249 8.895 0.408C8.289 0.57 8.403 1.383 7.719 1.671C7.032 1.95 6.54 1.293 5.997 1.605C5.46 1.917 5.778 2.673 5.184 3.123C4.599 3.57 3.957 3.072 3.513 3.513C3.072 3.957 3.57 4.599 3.123 5.184C2.673 5.778 1.917 5.46 1.605 5.997C1.293 6.54 1.95 7.032 1.671 7.719C1.383 8.403 0.57 8.289 0.408 8.895C0.249 9.498 1.008 9.807 0.912 10.542C0.81 11.274 0 11.373 0 12C0 12.627 0.81 12.726 0.912 13.458C1.008 14.193 0.249 14.502 0.408 15.105C0.567 15.711 1.38 15.597 1.659 16.281C1.947 16.968 1.293 17.46 1.602 18.003C1.914 18.54 2.673 18.222 3.123 18.816C3.57 19.401 3.078 20.043 3.513 20.487C3.957 20.922 4.599 20.427 5.184 20.871C5.778 21.324 5.46 22.083 5.997 22.386C6.54 22.704 7.032 22.05 7.719 22.329C8.403 22.617 8.289 23.43 8.895 23.592C9.498 23.751 9.807 22.992 10.542 23.088C11.274 23.19 11.373 24 12 24C12.627 24 12.726 23.19 13.458 23.088C14.193 22.992 14.502 23.751 15.105 23.592C15.711 23.43 15.597 22.617 16.281 22.329C16.968 22.05 17.46 22.704 18.003 22.386C18.54 22.083 18.222 21.324 18.816 20.871C19.401 20.427 20.043 20.922 20.487 20.487C20.922 20.043 20.43 19.401 20.877 18.816C21.327 18.222 22.086 18.54 22.398 18.003C22.707 17.46 22.053 16.968 22.341 16.281C22.62 15.597 23.433 15.711 23.592 15.105C23.751 14.502 22.992 14.193 23.088 13.458C23.19 12.726 24 12.627 24 12C24 11.373 23.19 11.274 23.088 10.542Z" fill="var(--fill-0, #299D6B)"/>
</svg>
