<svg preserveAspectRatio="none" width="100%" height="100%" overflow="visible" style="display: block;" viewBox="0 0 481 42" fill="none" xmlns="http://www.w3.org/2000/svg">
<path id="Vector" d="M0.137318 19.0167C19.2376 26.1343 42.8455 23.8786 63.5305 15.6359C79.9638 9.08359 88.0928 1.76692 104.97 1.452C118.328 1.20228 126.488 7.36887 136.736 10.9995C148.04 15.0032 155.786 17.225 167.933 16.4669C184.325 15.4437 202.003 12.2848 231.255 6.01C233.09 5.6167 234.899 5.17832 236.675 4.69831C246.583 2.01802 255.518 -1.64587 266.057 1.78218C273.237 4.11771 278.015 10.6235 284.683 16.7936C293.681 25.1181 303.736 32.7116 324.845 32.3932C331.381 32.2947 337.506 32.1275 343.354 31.7807C354.497 31.1196 364.248 30.3448 373 27.8789C381.369 25.5211 389.43 21.1157 397.415 20.7169C407.737 20.2015 416.483 27.7963 428.453 33.3803C429.414 33.8284 430.41 34.2709 431.444 34.701C442.829 39.4359 459.297 41.8866 480.633 40.7656" stroke="url(#paint0_linear_233_19329)" stroke-width="0.786503" stroke-miterlimit="10"/>
<defs>
<linearGradient id="paint0_linear_233_19329" x1="0.137318" y1="20.7134" x2="480.634" y2="20.7134" gradientUnits="userSpaceOnUse">
<stop stop-color="#2D67FF"/>
<stop offset="1" stop-color="#A238FF"/>
</linearGradient>
</defs>
</svg>
