<svg preserveAspectRatio="none" width="100%" height="100%" overflow="visible" style="display: block;" viewBox="0 0 458 36" fill="none" xmlns="http://www.w3.org/2000/svg">
<path id="Vector" d="M0.226923 35.2977C18.8391 22.1473 35.1685 16.6002 48.6747 14.402C69.0402 11.0863 82.4832 15.4224 96.5124 16.9047C125.417 19.9589 131.9 22.9638 148.846 22.4858C169.347 21.8685 185.958 8.71193 209.921 6.73709C231.231 4.98145 245.155 22.2923 269.558 26.1504C290.561 29.471 305.291 29.2448 322.015 23.4119C342.48 16.2741 357.181 5.2173 381.399 0.968659C390.315 -0.595533 401.006 0.800103 413.348 8.01065C419.417 11.5552 425.623 17.1946 432 21.308C439.734 26.2961 449.481 28.1315 457.664 30.3852" stroke="url(#paint0_linear_190_19735)" stroke-width="0.786503" stroke-miterlimit="10"/>
<defs>
<linearGradient id="paint0_linear_190_19735" x1="0.226923" y1="17.8455" x2="457.664" y2="17.8455" gradientUnits="userSpaceOnUse">
<stop stop-color="#2D67FF"/>
<stop offset="1" stop-color="#A238FF"/>
</linearGradient>
</defs>
</svg>
