<svg preserveAspectRatio="none" width="100%" height="100%" overflow="visible" style="display: block;" viewBox="0 0 481 39" fill="none" xmlns="http://www.w3.org/2000/svg">
<path id="Vector" d="M0.0633924 19.5867C17.0335 22.3586 37.0421 19.1476 54.5982 12.1369C69.3881 6.22345 77.6644 0.10611 91.9482 0.403688C107.952 0.737336 115.946 8.90581 129.547 11.3558C144.24 14.0021 152.036 12.1757 166.634 10.538C181.749 8.84271 202.27 6.10068 230.182 4.66897C231.989 4.57602 233.769 4.50041 235.519 4.38943C245.213 3.77485 253.701 2.73368 263.478 6.66532C270.722 9.57936 276.222 15.4172 284.096 19.8073C295.161 25.976 305.337 29.2937 325.571 26.5073C331.559 25.6826 337.383 24.7995 343.225 23.8139C353.663 22.052 363.455 21.1828 372.698 19.661C380.956 18.3014 389.047 15.8562 397.34 16.7906C407.313 17.9136 416.288 25.8615 427.5 31.4094C428.476 31.8922 429.474 32.3604 430.499 32.8043C442.878 38.1614 460.577 38.8253 480.485 36.6756" stroke="url(#paint0_linear_233_19335)" stroke-width="0.786503" stroke-miterlimit="10"/>
<defs>
<linearGradient id="paint0_linear_233_19335" x1="0.0633924" y1="19.106" x2="480.485" y2="19.106" gradientUnits="userSpaceOnUse">
<stop stop-color="#2D67FF"/>
<stop offset="1" stop-color="#A238FF"/>
</linearGradient>
</defs>
</svg>
