<svg preserveAspectRatio="none" width="100%" height="100%" overflow="visible" style="display: block;" viewBox="0 0 459 40" fill="none" xmlns="http://www.w3.org/2000/svg">
<path id="Vector" d="M0.084565 32.9254C27.794 39.0268 49.5693 30.0121 65.5534 20.9723C70.3388 18.2657 74.3749 15.6811 77.9136 13.8374C89.0692 8.04053 94.5938 1.74074 105.687 1.84826C121.548 2.00225 125.554 17.6261 144.306 26.4342C164.124 35.8117 187.376 32.5321 208.33 28.6643C228.237 24.9893 241.957 19.9131 255.927 13.2187C265.905 8.43659 273.244 2.88597 281.854 1.08593C287.673 -0.130046 293.194 0.322907 300.65 1.91346C314.011 4.76369 323.546 11.3874 336.42 16.954C347.065 21.5571 356.999 26.7852 369.388 29.496C375.42 30.816 382.048 31.1372 389.421 32.1478C390.672 32.3192 391.942 32.5009 393.221 32.7409C401.112 34.2205 408.601 36.529 416.465 37.7699C430.867 40.0423 445.076 39.7503 458 38.5627" stroke="url(#paint0_linear_190_19578)" stroke-width="0.786503" stroke-miterlimit="10"/>
<defs>
<linearGradient id="paint0_linear_190_19578" x1="0.084565" y1="19.932" x2="458" y2="19.932" gradientUnits="userSpaceOnUse">
<stop stop-color="#2D67FF"/>
<stop offset="1" stop-color="#A238FF"/>
</linearGradient>
</defs>
</svg>
