<svg preserveAspectRatio="none" width="100%" height="100%" overflow="visible" style="display: block;" viewBox="0 0 481 36" fill="none" xmlns="http://www.w3.org/2000/svg">
<path id="Vector" d="M0.219497 35.2976C19.7682 22.1473 36.9192 16.6002 51.1049 14.402C72.4951 11.0863 86.6144 15.4223 101.35 16.9047C131.709 19.9589 138.518 22.9638 156.316 22.4858C177.849 21.8685 195.295 8.71192 220.465 6.73708C242.847 4.98144 257.471 22.2923 283.102 26.1504C305.162 29.471 320.633 29.2448 338.198 23.4119C359.692 16.2741 375.134 5.21729 400.57 0.968653C409.935 -0.59554 421.163 0.800096 434.126 8.01064C440.501 11.5552 447.019 17.1946 453.717 21.308C461.84 26.2961 472.078 28.1315 480.672 30.3852" stroke="url(#paint0_linear_233_19703)" stroke-width="0.786503" stroke-miterlimit="10"/>
<defs>
<linearGradient id="paint0_linear_233_19703" x1="0.219497" y1="17.8455" x2="480.672" y2="17.8455" gradientUnits="userSpaceOnUse">
<stop stop-color="#2D67FF"/>
<stop offset="1" stop-color="#A238FF"/>
</linearGradient>
</defs>
</svg>
