<svg preserveAspectRatio="none" width="100%" height="100%" overflow="visible" style="display: block;" viewBox="0 0 481 38" fill="none" xmlns="http://www.w3.org/2000/svg">
<path id="Vector" d="M0.166044 24.6692C12.8749 18.7495 25.6857 13.6289 36.986 9.08203C48.4902 4.44633 57.0465 2.05392 66.157 2.25091C87.474 2.71081 95.1066 16.0269 115.418 16.011C136.884 16.0526 144.916 6.52592 164.29 2.62411C176.963 0.0714583 203.123 -1.825 228.29 5.93007C230.046 6.47112 231.761 7.07806 233.461 7.71484C242.725 11.1859 250.211 15.5809 258.572 20.3747C265.859 24.5526 273.105 28.7513 283.177 29.7779C298.669 31.3574 308.885 26.7758 327.277 18.6788C332.196 16.5132 337.433 14.2075 343.221 11.8234C352.32 8.07485 362.056 6.59113 372.348 7.16755C380.322 7.61427 388.613 9.01891 397.444 12.8791C406.805 16.971 416.097 25.9871 425.846 31.4087C426.846 31.965 427.848 32.4846 428.859 32.9507C443.181 39.6084 463.388 36.6417 480.441 32.4353" stroke="url(#paint0_linear_233_19486)" stroke-width="0.786503" stroke-miterlimit="10"/>
<defs>
<linearGradient id="paint0_linear_233_19486" x1="0.166044" y1="18.6305" x2="480.441" y2="18.6305" gradientUnits="userSpaceOnUse">
<stop stop-color="#2D67FF"/>
<stop offset="1" stop-color="#A238FF"/>
</linearGradient>
</defs>
</svg>
