<svg preserveAspectRatio="none" width="100%" height="100%" overflow="visible" style="display: block;" viewBox="0 0 20 20" fill="none" xmlns="http://www.w3.org/2000/svg">
<g id="send">
<path id="Vector" d="M4.83718 3.01771C5.57378 3.08795 6.53383 3.38699 7.70144 3.97181L14.8343 7.53919C16.3617 8.30294 16.9583 9.22364 16.9583 10.0001C16.9582 10.7766 16.3617 11.6974 14.8343 12.4611L7.70144 16.0275C6.53173 16.6123 5.57131 16.9123 4.83425 16.9826C4.09526 17.053 3.6494 16.8897 3.39968 16.6398C3.14996 16.3897 2.98684 15.9432 3.05789 15.2042C3.12877 14.4675 3.42816 13.5076 4.01296 12.34L4.73855 10.8995L4.7405 10.8947C5.01674 10.3309 5.0168 9.67713 4.7405 9.11341L4.73855 9.10951L4.01394 7.65931L3.80789 7.23158C3.35774 6.25562 3.12034 5.44059 3.05886 4.79603C2.98843 4.05735 3.15231 3.61079 3.40261 3.36048C3.65292 3.11035 4.09894 2.94738 4.83718 3.01771ZM7.86648 8.87513C7.24876 8.87523 6.74148 9.38239 6.74148 10.0001C6.74155 10.6178 7.2488 11.125 7.86648 11.1251H12.3665C12.9842 11.1251 13.4914 10.6179 13.4915 10.0001C13.4915 9.38232 12.9843 8.87513 12.3665 8.87513H7.86648Z" fill="var(--fill-0, white)" stroke="var(--stroke-0, white)"/>
<g id="Vector_2" opacity="0">
</g>
</g>
</svg>
