<svg preserveAspectRatio="none" width="100%" height="100%" overflow="visible" style="display: block;" viewBox="0 0 458 43" fill="none" xmlns="http://www.w3.org/2000/svg">
<path id="Vector" d="M0.12481 27.2912C24.3221 35.3896 47.6849 29.7904 66.32 20.5946C71.2145 18.1793 75.3046 15.7425 78.999 13.7857C89.3082 8.34672 95.7297 2.88002 107.537 2.7947C120.546 2.70037 126.026 12.827 139.316 19.4958C154.462 27.0955 170.799 28.1804 187.235 26.1015C205.631 23.775 219.954 19.6595 240.397 11.242C251.18 6.80195 259.624 0.0207814 270.038 0.409228C276.133 0.636747 280.843 3.80744 287.408 7.80775C297.758 14.1131 307.422 22.9156 324.11 26.6592C338.824 29.9603 351.044 33.3433 363.151 32.4499C370.136 31.9345 377.156 29.3527 384.534 29.2147C385.953 29.1883 387.354 29.2417 388.753 29.4366C396.713 30.5444 404.03 34.6807 412.99 37.2715C425.327 40.8382 440.244 42.5536 457.872 41.7483" stroke="url(#paint0_linear_190_19663)" stroke-width="0.786503" stroke-miterlimit="10"/>
<defs>
<linearGradient id="paint0_linear_190_19663" x1="0.12481" y1="21.1687" x2="457.872" y2="21.1687" gradientUnits="userSpaceOnUse">
<stop stop-color="#2D67FF"/>
<stop offset="1" stop-color="#A238FF"/>
</linearGradient>
</defs>
</svg>
