<svg preserveAspectRatio="none" width="100%" height="100%" overflow="visible" style="display: block;" viewBox="0 0 459 41" fill="none" xmlns="http://www.w3.org/2000/svg">
<path id="Vector" d="M0.0671114 37.2987C29.5317 42.4019 50.456 31.626 65.1723 22.7174C69.8835 19.847 73.9122 17.207 77.374 15.4187C88.9528 9.44218 94.0277 2.74771 104.766 2.93014C122.049 3.24922 125.34 21.5597 146.805 31.4588C168.98 41.7006 195.711 36.3574 218.881 31.5011C239.578 27.2233 252.874 21.5 263.696 15.7621C273.196 10.7247 279.975 5.77205 287.768 2.97939C293.391 0.964321 299.358 0.0313588 307.275 0.521773C322.127 1.44087 331.679 7.11357 342.579 13.6575C351.244 18.8599 360.159 24.8594 372.512 29.5748C378.155 31.7293 384.527 33.5287 391.87 35.1706C393.042 35.4328 394.239 35.6894 395.46 35.9495C403.309 37.6323 410.891 38.9142 418.208 39.5753C433.666 40.973 447.497 39.9054 458.069 38.5265" stroke="url(#paint0_linear_190_19625)" stroke-width="0.786503" stroke-miterlimit="10"/>
<defs>
<linearGradient id="paint0_linear_190_19625" x1="0.0671114" y1="20.3121" x2="458.069" y2="20.3121" gradientUnits="userSpaceOnUse">
<stop stop-color="#2D67FF"/>
<stop offset="1" stop-color="#A238FF"/>
</linearGradient>
</defs>
</svg>
