<svg preserveAspectRatio="none" width="100%" height="100%" overflow="visible" style="display: block;" viewBox="0 0 481 37" fill="none" xmlns="http://www.w3.org/2000/svg">
<path id="Vector" d="M0.018136 20.8931C15.2834 20.1884 32.4132 16.2137 47.4668 10.1886C60.9425 4.78644 69.3409 0.0189366 81.5447 0.416401C99.6617 1.00601 107.52 11.0085 123.808 12.4916C141.208 14.0759 149.065 9.09958 165.609 6.64612C179.724 4.55337 202.561 2.12349 229.338 4.44655C231.128 4.60192 232.878 4.80587 234.609 4.99246C244.127 6.01976 252.24 7.12614 261.428 11.4219C268.707 14.825 274.878 20.0642 283.641 23.0684C296.46 27.4634 306.626 27.4995 326.166 22.6488C331.714 21.2712 337.301 19.8173 343.136 18.2905C353.016 15.7053 362.806 14.6572 372.47 13.9364C380.613 13.3295 388.752 12.4298 397.294 14.499C406.986 16.8463 416.132 25.1771 426.751 30.682C427.737 31.1932 428.736 31.6822 429.755 32.1359C442.924 38 461.613 37.2245 480.379 34.2522" stroke="url(#paint0_linear_233_19345)" stroke-width="0.786503" stroke-miterlimit="10"/>
<defs>
<linearGradient id="paint0_linear_233_19345" x1="0.018136" y1="18.4601" x2="480.379" y2="18.4601" gradientUnits="userSpaceOnUse">
<stop stop-color="#2D67FF"/>
<stop offset="1" stop-color="#A238FF"/>
</linearGradient>
</defs>
</svg>
