<svg preserveAspectRatio="none" width="100%" height="100%" overflow="visible" style="display: block;" viewBox="0 0 83 82" fill="none" xmlns="http://www.w3.org/2000/svg">
<g id="AI symbol">
<path id="Vector 1" d="M67.4352 59.4579C50.3165 59.4579 34.3186 66.2702 28.4595 69.6763C23.7464 72.012 21.9105 68.7031 21.5816 66.7567C21.5816 50.4072 14.4487 35.1281 10.8823 29.5323C9.04812 26.0288 11.6465 23.6932 13.175 22.9633C33.962 21.7955 47.82 15.1778 52.1506 12.015C57.6531 10.2632 59.5382 13.7181 59.7929 15.6644C60.4043 31.4301 67.69 47.5363 71.2564 53.6187C73.0905 57.7061 69.4732 59.2146 67.4352 59.4579Z" stroke="var(--stroke-0, white)" stroke-width="4.10055"/>
<path id="Vector 2" d="M44.538 71.6318C33.5946 59.7908 18.4339 53.2848 12.2215 51.5119C7.51695 49.8152 8.73974 46.3305 9.9392 44.8003C21.7803 33.8568 28.2862 18.6961 30.059 12.4836C31.4239 8.86994 34.7765 9.10389 36.2822 9.67258C50.4164 23.2693 64.0682 28.4255 69.1273 29.304C73.9135 31.9375 72.6165 35.5539 71.3697 37.0329C60.3423 48.0084 53.335 63.8284 51.2097 70.3665C49.4219 74.3711 46.017 72.8786 44.538 71.6318Z" stroke="var(--stroke-0, white)" stroke-width="4.10055"/>
</g>
</svg>
