<svg preserveAspectRatio="none" width="100%" height="100%" overflow="visible" style="display: block;" viewBox="0 0 481 31" fill="none" xmlns="http://www.w3.org/2000/svg">
<path id="Vector" d="M480.305 18.0036C462.666 11.7066 442.273 15.2637 423.176 15.376C420.153 15.3941 417.161 15.3497 414.191 15.3247C386.606 15.0618 366.807 16.6704 341.438 15.8824C332.895 15.6167 320.796 14.5998 306.369 12.9413C283.422 10.3033 266.681 -2.89486 243.557 1.16164C237.9 2.15426 232.583 3.74758 227.711 5.92635C206.321 15.4919 188.519 27.7071 174.439 29.5134C157.949 31.6291 145.012 28.0942 133.919 22.8966C123.735 18.1243 116.799 13.8299 106.984 9.60759C103.082 7.92825 98.7782 6.10324 93.193 4.68472C82.7355 2.0294 65.0342 -0.942909 43.059 2.13692C24.9324 4.67709 10.2387 11.7454 0.196871 17.5527" stroke="url(#paint0_linear_233_19525)" stroke-width="0.786503" stroke-miterlimit="10"/>
<defs>
<linearGradient id="paint0_linear_233_19525" x1="0.196871" y1="15.2649" x2="480.305" y2="15.2649" gradientUnits="userSpaceOnUse">
<stop stop-color="#2D67FF"/>
<stop offset="1" stop-color="#A238FF"/>
</linearGradient>
</defs>
</svg>
