<svg preserveAspectRatio="none" width="100%" height="100%" overflow="visible" style="display: block;" viewBox="0 0 481 38" fill="none" xmlns="http://www.w3.org/2000/svg">
<path id="Vector" d="M0.213019 36.7831C19.2363 24.5241 36.193 18.8043 50.5048 16.2391C71.6496 12.449 86.5675 15.6093 100.289 17.1943C133.051 20.9782 139.808 24.4048 158.957 24.28C182.091 24.0996 200.743 9.90395 227.595 8.05814C251.196 6.43568 263.795 25.9898 289.401 28.6999C312.081 31.1 328.166 28.9254 345.112 22.5285C366.531 14.4439 382.391 3.31909 407.729 0.622161C416.295 -0.289302 426.746 1.39211 438.697 8.00819C444.591 11.2705 450.646 16.2162 456.897 20.2554C464.166 24.9521 473.014 27.5866 480.695 30.7504" stroke="url(#paint0_linear_233_19670)" stroke-width="0.786503" stroke-miterlimit="10"/>
<defs>
<linearGradient id="paint0_linear_233_19670" x1="0.213019" y1="18.5882" x2="480.695" y2="18.5882" gradientUnits="userSpaceOnUse">
<stop stop-color="#2D67FF"/>
<stop offset="1" stop-color="#A238FF"/>
</linearGradient>
</defs>
</svg>
