<svg preserveAspectRatio="none" width="100%" height="100%" overflow="visible" style="display: block;" viewBox="0 0 458 38" fill="none" xmlns="http://www.w3.org/2000/svg">
<path id="Vector" d="M0.216936 37.5774C18.0789 25.7638 34.1317 19.9606 47.8174 17.2096C67.8339 13.1857 82.4118 15.7599 94.9983 17.3913C127.323 21.581 133.742 25.1783 152.617 25.2296C175.405 25.2671 193.738 10.5519 220.105 8.77058C243.156 7.21332 254.183 27.8794 278.554 30.0263C300.441 31.9546 316.043 28.8117 331.89 22.1387C352.236 13.5714 367.547 2.36398 391.624 0.500819C399.4 -0.10058 408.979 1.73969 419.875 8.05889C425.258 11.1796 430.805 15.7772 436.541 19.7817C443.058 24.3307 450.818 27.3668 457.694 30.9863" stroke="url(#paint0_linear_190_19781)" stroke-width="0.786503" stroke-miterlimit="10"/>
<defs>
<linearGradient id="paint0_linear_190_19781" x1="0.216936" y1="18.9853" x2="457.694" y2="18.9853" gradientUnits="userSpaceOnUse">
<stop stop-color="#2D67FF"/>
<stop offset="1" stop-color="#A238FF"/>
</linearGradient>
</defs>
</svg>
