<svg preserveAspectRatio="none" width="100%" height="100%" overflow="visible" style="display: block;" viewBox="0 0 481 43" fill="none" xmlns="http://www.w3.org/2000/svg">
<path id="Vector" d="M0.119395 27.2912C25.5342 35.3896 50.0725 29.7904 69.6452 20.5946C74.7859 18.1793 79.0818 15.7425 82.9621 13.7857C93.79 8.34672 100.535 2.88002 112.936 2.7947C126.6 2.70036 132.355 12.827 146.314 19.4958C162.222 27.0955 179.381 28.1804 196.644 26.1015C215.966 23.775 231.009 19.6595 252.481 11.242C263.806 6.80195 272.675 0.0207813 283.613 0.409228C290.015 0.636747 294.962 3.80744 301.858 7.80775C312.728 14.1131 322.878 22.9156 340.405 26.6592C355.86 29.9603 368.695 33.3433 381.411 32.4499C388.748 31.9345 396.121 29.3527 403.87 29.2147C405.36 29.1883 406.832 29.2417 408.301 29.4366C416.661 30.5444 424.347 34.6807 433.758 37.2715C446.716 40.8382 462.383 42.5536 480.898 41.7483" stroke="url(#paint0_linear_233_19499)" stroke-width="0.786503" stroke-miterlimit="10"/>
<defs>
<linearGradient id="paint0_linear_233_19499" x1="0.119395" y1="21.1687" x2="480.898" y2="21.1687" gradientUnits="userSpaceOnUse">
<stop stop-color="#2D67FF"/>
<stop offset="1" stop-color="#A238FF"/>
</linearGradient>
</defs>
</svg>
