<svg preserveAspectRatio="none" width="100%" height="100%" overflow="visible" style="display: block;" viewBox="0 0 458 38" fill="none" xmlns="http://www.w3.org/2000/svg">
<path id="Vector" d="M0.00432705 20.5669C14.9441 20.7313 31.9386 16.9474 46.8673 10.6761C60.0108 5.14559 67.9776 0.0298874 80.0914 0.413479C96.8376 0.943431 104.351 10.4819 119.22 12.2077C135.142 14.0563 142.606 9.8583 157.897 7.61918C171.57 5.61729 192.765 3.10625 218.53 4.50257C220.237 4.59483 221.911 4.7301 223.563 4.84178C232.668 5.45983 240.483 6.02515 249.369 10.2329C256.293 13.5111 262.002 18.907 270.139 22.2532C281.92 27.0984 291.604 27.9405 310.376 23.6135C315.762 22.3718 321.138 21.0601 326.696 19.6714C336.234 17.2873 345.557 16.2933 354.658 15.3673C362.439 14.5758 370.173 13.2919 378.25 15.0711C387.542 17.1188 396.213 25.3462 406.463 30.8629C407.4 31.3672 408.35 31.8506 409.322 32.3015C421.673 38.038 439.23 37.6232 457.369 34.8569" stroke="url(#paint0_linear_190_19643)" stroke-width="0.786503" stroke-miterlimit="10"/>
<defs>
<linearGradient id="paint0_linear_190_19643" x1="0.00432705" y1="18.6062" x2="457.369" y2="18.6062" gradientUnits="userSpaceOnUse">
<stop stop-color="#2D67FF"/>
<stop offset="1" stop-color="#A238FF"/>
</linearGradient>
</defs>
</svg>
