<svg preserveAspectRatio="none" width="100%" height="100%" overflow="visible" style="display: block;" viewBox="0 0 482 40" fill="none" xmlns="http://www.w3.org/2000/svg">
<path id="Vector" d="M0.0721347 34.9113C30.0975 40.5139 52.5354 30.6294 68.6445 21.6444C73.636 18.8601 77.8665 16.2436 81.5438 14.4276C93.4829 8.54059 99.0498 2.03896 110.515 2.18879C127.921 2.41631 131.753 19.3928 152.873 28.7461C174.926 38.5557 201.166 34.2246 224.347 29.8823C245.663 25.8896 259.867 20.5138 272.878 14.2896C283.119 9.39032 290.533 4.13381 299.135 1.83156C305.154 0.221589 311.185 -0.0170286 319.25 1.01652C334.078 2.91644 344.08 9.05459 356.575 15.1046C366.708 20.0109 376.59 25.6323 389.608 29.3343C395.727 31.0747 402.562 32.1367 410.294 33.4581C411.566 33.6752 412.862 33.8937 414.175 34.1441C422.443 35.7215 430.359 37.5271 438.328 38.4718C454.012 40.3301 468.735 39.6274 481.073 38.3435" stroke="url(#paint0_linear_233_19301)" stroke-width="0.786503" stroke-miterlimit="10"/>
<defs>
<linearGradient id="paint0_linear_233_19301" x1="0.0721347" y1="19.9997" x2="481.073" y2="19.9997" gradientUnits="userSpaceOnUse">
<stop stop-color="#2D67FF"/>
<stop offset="1" stop-color="#A238FF"/>
</linearGradient>
</defs>
</svg>
