<svg preserveAspectRatio="none" width="100%" height="100%" overflow="visible" style="display: block;" viewBox="0 0 458 38" fill="none" xmlns="http://www.w3.org/2000/svg">
<path id="Vector" d="M0.0471602 19.9133C15.7985 21.816 34.1634 18.4143 50.283 11.6498C64.0521 5.86404 71.9612 0.0727224 85.0652 0.407064C100.806 0.808691 108.384 9.43013 121.973 11.6394C136.606 14.0187 144.041 11.3966 158.406 9.5647C172.557 7.76051 192.646 5.09478 218.952 4.61269C220.668 4.58147 222.356 4.57592 224.018 4.53916C233.207 4.33592 241.2 3.82747 250.366 7.85344C257.273 10.8875 262.663 16.5824 270.377 20.6216C281.323 26.3532 291.014 28.8365 310.115 25.5417C315.712 24.5768 321.2 23.5502 326.761 22.432C336.564 20.46 345.89 19.5547 354.789 18.2285C362.625 17.0603 370.336 15.0036 378.294 16.2162C387.72 17.652 396.308 25.6873 406.841 31.2262C407.773 31.7159 408.723 32.1897 409.697 32.6357C421.672 38.119 438.758 38.4235 457.441 36.0679" stroke="url(#paint0_linear_190_19773)" stroke-width="0.786503" stroke-miterlimit="10"/>
<defs>
<linearGradient id="paint0_linear_190_19773" x1="0.0471602" y1="18.9281" x2="457.441" y2="18.9281" gradientUnits="userSpaceOnUse">
<stop stop-color="#2D67FF"/>
<stop offset="1" stop-color="#A238FF"/>
</linearGradient>
</defs>
</svg>
