<svg preserveAspectRatio="none" width="100%" height="100%" overflow="visible" style="display: block;" viewBox="0 0 482 40" fill="none" xmlns="http://www.w3.org/2000/svg">
<path id="Vector" d="M0.0851301 32.0637C28.7279 38.4148 51.8133 29.8322 68.9432 20.7675C73.9857 18.099 78.2297 15.5311 81.9676 13.6728C93.5738 7.92031 99.4939 1.7225 111.239 1.80851C127.523 1.92713 131.92 16.8733 150.903 25.4088C171.099 34.5699 194.614 31.8202 216.033 28.1862C236.74 24.6728 251.245 19.7381 266.756 12.8134C277.351 8.08333 285.203 2.38633 294.476 0.842949C300.629 -0.180887 306.313 0.616818 314.03 2.49177C327.66 5.80397 337.692 12.6795 351.721 18.0088C363.431 22.4573 374.153 27.4793 387.146 29.7067C393.598 30.8123 400.617 30.7638 408.364 31.6225C409.7 31.771 411.051 31.9347 412.41 32.1691C420.707 33.6008 428.548 36.1535 436.954 37.5484C451.804 40.0123 466.826 39.9415 481.018 38.8019" stroke="url(#paint0_linear_233_19305)" stroke-width="0.786503" stroke-miterlimit="10"/>
<defs>
<linearGradient id="paint0_linear_233_19305" x1="0.0851301" y1="19.9785" x2="481.018" y2="19.9785" gradientUnits="userSpaceOnUse">
<stop stop-color="#2D67FF"/>
<stop offset="1" stop-color="#A238FF"/>
</linearGradient>
</defs>
</svg>
