<svg preserveAspectRatio="none" width="100%" height="100%" overflow="visible" style="display: block;" viewBox="0 0 458 44" fill="none" xmlns="http://www.w3.org/2000/svg">
<path id="Vector" d="M0.141818 25.5675C23.0228 34.4144 46.9545 30.0679 66.6091 20.8423C71.5374 18.529 75.655 16.1546 79.4072 14.1555C89.3994 8.85111 96.1561 3.71043 108.231 3.5384C120.172 3.36846 126.19 11.4343 137.446 17.2825C150.826 24.2343 164.6 26.9902 179.326 25.5287C197.172 23.7578 211.657 19.8865 234.573 10.8891C245.636 6.5454 254.524 -0.745607 265.607 0.543898C271.809 1.2653 276.273 5.44041 282.443 10.407C291.761 17.9082 301.387 27.5902 319.494 30.6867C335.744 33.4662 348.8 36.0486 360.812 33.9455C368.148 32.6608 375.323 29.0372 382.702 28.5024C384.183 28.3948 385.635 28.4087 387.079 28.5849C395.062 29.5609 402.353 34.3006 411.688 37.4713C423.299 41.4161 438.433 43.9917 457.826 43.3292" stroke="url(#paint0_linear_190_19836)" stroke-width="0.786503" stroke-miterlimit="10"/>
<defs>
<linearGradient id="paint0_linear_190_19836" x1="0.141818" y1="21.9131" x2="457.826" y2="21.9131" gradientUnits="userSpaceOnUse">
<stop stop-color="#2D67FF"/>
<stop offset="1" stop-color="#A238FF"/>
</linearGradient>
</defs>
</svg>
