<svg preserveAspectRatio="none" width="100%" height="100%" overflow="visible" style="display: block;" viewBox="0 0 458 37" fill="none" xmlns="http://www.w3.org/2000/svg">
<path id="Vector" d="M0.0435396 21.2197C14.1717 19.6458 29.7958 15.4804 43.5328 9.70154C56.0505 4.42699 64.0741 0.0139474 75.1995 0.419042C92.9515 1.06553 100.402 11.5356 116.549 12.7751C133.76 14.0959 141.26 8.34752 157.469 5.67279C170.674 3.49402 192.962 1.14738 218.189 4.39091C219.888 4.60942 221.547 4.88203 223.191 5.14354C232.211 6.5794 239.842 8.2296 248.455 12.6114C255.39 16.1401 261.433 21.2176 269.984 23.884C282.613 27.8226 292.287 27.0644 310.721 21.6844C315.9 20.173 321.164 18.5762 326.715 16.91C335.992 14.1257 345.308 13.0186 354.611 12.506C362.336 12.0801 370.103 11.5654 378.289 13.9266C387.456 16.5708 396.197 25.0078 406.167 30.5008C407.109 31.0197 408.06 31.5128 409.028 31.9693C421.753 37.9611 439.784 36.8249 457.38 33.6472" stroke="url(#paint0_linear_190_19731)" stroke-width="0.786503" stroke-miterlimit="10"/>
<defs>
<linearGradient id="paint0_linear_190_19731" x1="0.0435396" y1="18.3215" x2="457.38" y2="18.3215" gradientUnits="userSpaceOnUse">
<stop stop-color="#2D67FF"/>
<stop offset="1" stop-color="#A238FF"/>
</linearGradient>
</defs>
</svg>
