<svg preserveAspectRatio="none" width="100%" height="100%" overflow="visible" style="display: block;" viewBox="0 0 458 40" fill="none" xmlns="http://www.w3.org/2000/svg">
<path id="Vector" d="M0.209403 39.3366C17.5712 28.4143 33.4453 22.4482 47.2446 19.3205C67.0367 14.8346 82.3484 16.2379 93.9867 17.9547C128.541 23.051 134.968 26.8931 155.129 27.2975C179.443 27.772 198.922 11.9907 226.893 10.3654C251.102 8.91846 260.184 31.8063 284.551 32.8496C307.014 33.811 323.182 28.7473 338.473 21.5298C358.701 11.9816 374.555 1.69612 398.44 0.428808C405.457 0.0563152 414.294 2.60549 424.226 8.33093C429.15 11.1687 434.269 15.0649 439.568 19.0035C445.284 23.2522 451.709 27.0971 457.715 31.6267" stroke="url(#paint0_linear_190_19705)" stroke-width="0.786503" stroke-miterlimit="10"/>
<defs>
<linearGradient id="paint0_linear_190_19705" x1="0.209403" y1="19.8649" x2="457.715" y2="19.8649" gradientUnits="userSpaceOnUse">
<stop stop-color="#2D67FF"/>
<stop offset="1" stop-color="#A238FF"/>
</linearGradient>
</defs>
</svg>
