<svg preserveAspectRatio="none" width="100%" height="100%" overflow="visible" style="display: block;" viewBox="0 0 458 31" fill="none" xmlns="http://www.w3.org/2000/svg">
<path id="Vector" d="M457.313 18.0036C440.519 11.7066 421.103 15.2637 402.921 15.376C400.043 15.3941 397.194 15.3497 394.366 15.3247C368.102 15.0618 349.252 16.6704 325.099 15.8824C316.965 15.6167 305.445 14.5998 291.71 12.9413C269.862 10.3033 253.923 -2.89486 231.907 1.16164C226.52 2.15426 221.458 3.74758 216.819 5.92635C196.454 15.4919 179.505 27.7071 166.099 29.5134C150.399 31.6291 138.082 28.0942 127.521 22.8966C117.824 18.1243 111.221 13.8299 101.876 9.60759C98.1605 7.92825 94.063 6.10324 88.7454 4.68472C78.7889 2.0294 61.9355 -0.942909 41.013 2.13692C23.7548 4.67709 9.76491 11.7454 0.204154 17.5527" stroke="url(#paint0_linear_190_19765)" stroke-width="0.786503" stroke-miterlimit="10"/>
<defs>
<linearGradient id="paint0_linear_190_19765" x1="0.204154" y1="15.2649" x2="457.313" y2="15.2649" gradientUnits="userSpaceOnUse">
<stop stop-color="#2D67FF"/>
<stop offset="1" stop-color="#A238FF"/>
</linearGradient>
</defs>
</svg>
