<svg preserveAspectRatio="none" width="100%" height="100%" overflow="visible" style="display: block;" viewBox="0 0 481 39" fill="none" xmlns="http://www.w3.org/2000/svg">
<path id="Vector" d="M0.0964743 18.9333C17.9191 23.4434 39.367 20.6147 58.1748 13.1107C73.6219 6.94205 81.8366 0.201799 97.1605 0.39741C112.109 0.588165 120.169 7.86115 132.427 10.7877C145.767 13.9722 153.54 13.7524 167.158 12.4844C182.782 11.0291 202.151 8.13305 230.615 4.77992C232.432 4.56627 234.225 4.34639 235.986 4.08696C245.768 2.64762 254.436 0.548631 264.513 4.28605C271.734 6.96425 276.929 13.0767 284.335 18.1758C294.554 25.2109 304.707 30.2218 325.285 28.4357C331.493 27.8967 337.437 27.3001 343.28 26.5746C354.002 25.2434 363.782 24.4284 372.823 22.5222C381.132 20.7701 389.208 17.5453 397.374 17.9351C407.491 18.4186 416.371 26.2069 427.885 31.7721C428.855 32.2411 429.852 32.6989 430.88 33.1373C442.863 38.2439 460.068 39.6236 480.547 37.886" stroke="url(#paint0_linear_233_19666)" stroke-width="0.786503" stroke-miterlimit="10"/>
<defs>
<linearGradient id="paint0_linear_233_19666" x1="0.0964743" y1="19.4965" x2="480.547" y2="19.4965" gradientUnits="userSpaceOnUse">
<stop stop-color="#2D67FF"/>
<stop offset="1" stop-color="#A238FF"/>
</linearGradient>
</defs>
</svg>
