<svg preserveAspectRatio="none" width="100%" height="100%" overflow="visible" style="display: block;" viewBox="0 0 458 26" fill="none" xmlns="http://www.w3.org/2000/svg">
<path id="Vector" d="M457.49 18.9978C439.218 6.3462 419.781 4.60722 403.895 4.16882C400.948 4.08767 398.074 4.03633 395.248 4.0939C369.225 4.59403 350.7 12.9005 325.491 16.6012C316.446 17.9289 304.976 18.4019 291.226 17.4641C268.319 15.9013 256.061 -2.2135 232.646 0.712335C227.036 1.41362 221.759 2.717 216.84 4.52744C196.097 12.1632 179.039 23.5059 162.575 24.5033C147.536 25.4141 137.005 22.9308 124.979 18.3763C116.282 15.0821 108.731 11.7831 98.1672 8.37237C94.373 7.14738 90.0648 5.84192 84.7921 5.01578C74.0844 3.33852 58.1104 2.51099 38.7489 6.58482C24.1417 9.65841 10.9955 15.9242 0.202667 22.4147" stroke="url(#paint0_linear_190_19621)" stroke-width="0.786503" stroke-miterlimit="10"/>
<defs>
<linearGradient id="paint0_linear_190_19621" x1="0.202667" y1="12.5416" x2="457.49" y2="12.5416" gradientUnits="userSpaceOnUse">
<stop stop-color="#2D67FF"/>
<stop offset="1" stop-color="#A238FF"/>
</linearGradient>
</defs>
</svg>
