<svg preserveAspectRatio="none" width="100%" height="100%" overflow="visible" style="display: block;" viewBox="0 0 458 37" fill="none" xmlns="http://www.w3.org/2000/svg">
<path id="Vector" d="M0.0689241 21.5453C13.7922 19.1022 28.7301 14.7454 41.8717 9.2135C54.0762 4.06657 62.1273 0.0142388 72.7598 0.421415C91.0157 1.11993 98.4338 12.0637 115.219 13.0584C133.075 14.1162 140.598 7.60282 157.262 4.69918C170.235 2.43856 193.062 0.177936 218.024 4.33501C219.719 4.61733 221.372 4.95723 223.01 5.29365C231.989 7.13739 239.525 9.3328 248.003 13.7999C254.942 17.4562 261.155 22.3666 269.911 24.6987C282.967 28.176 292.639 26.6333 310.899 20.7191C315.976 19.0745 321.184 17.3355 326.731 15.5285C335.88 12.5472 345.19 11.3756 354.594 11.0739C362.29 10.8276 370.077 10.6958 378.315 13.3525C387.423 16.2902 396.194 24.8381 406.026 30.318C406.97 30.8438 407.921 31.3425 408.889 31.801C421.8 37.9211 440.069 36.4235 457.392 33.0399" stroke="url(#paint0_linear_190_19683)" stroke-width="0.786503" stroke-miterlimit="10"/>
<defs>
<linearGradient id="paint0_linear_190_19683" x1="0.0689241" y1="18.1891" x2="457.392" y2="18.1891" gradientUnits="userSpaceOnUse">
<stop stop-color="#2D67FF"/>
<stop offset="1" stop-color="#A238FF"/>
</linearGradient>
</defs>
</svg>
