<svg preserveAspectRatio="none" width="100%" height="100%" overflow="visible" style="display: block;" viewBox="0 0 458 36" fill="none" xmlns="http://www.w3.org/2000/svg">
<path id="Vector" d="M457.21 19.0881C441.304 16.6035 421.898 23.2952 402.34 23.7814C399.502 23.8522 396.669 23.8189 393.84 23.7446C367.431 23.0246 348.412 20.764 324.865 17.1327C317.288 15.9646 305.725 14.0161 292.002 11.9095C270.786 8.65209 252.646 -1.60846 231.464 3.11326C226.214 4.28415 221.285 6.05435 216.809 8.44746C196.694 19.2005 179.804 32.0581 168.214 34.2015C152.131 37.1766 138.812 32.7851 129.047 27.2906C118.831 21.543 112.75 16.6923 104.102 12.0309C100.447 10.0609 96.4531 7.9626 91.1172 6.1688C81.593 2.9662 64.2221 -1.37678 42.3717 1.1509C23.5158 3.33245 9.02675 10.921 0.205238 16.3184" stroke="url(#paint0_linear_190_19761)" stroke-width="0.786503" stroke-miterlimit="10"/>
<defs>
<linearGradient id="paint0_linear_190_19761" x1="0.205238" y1="17.7778" x2="457.21" y2="17.7778" gradientUnits="userSpaceOnUse">
<stop stop-color="#2D67FF"/>
<stop offset="1" stop-color="#A238FF"/>
</linearGradient>
</defs>
</svg>
