<svg preserveAspectRatio="none" width="100%" height="100%" overflow="visible" style="display: block;" viewBox="0 0 481 40" fill="none" xmlns="http://www.w3.org/2000/svg">
<path id="Vector" d="M480.123 20.2187C464.038 20.2755 443.661 29.0378 422.158 29.7925C419.206 29.8958 416.242 29.8723 413.268 29.7654C385.43 28.7402 365.298 23.9713 341.029 18.3742C333.449 16.6255 321.283 14.0424 306.88 11.6291C285.034 7.9694 264.447 -0.337821 242.783 4.82159C237.363 6.11248 232.283 8.002 227.692 10.5359C206.755 22.0908 189.063 35.4194 178.141 37.7348C161.014 41.3661 146.325 36.299 136.59 30.6283C125.547 24.1954 119.497 18.9944 110.88 14.0541C107.093 11.883 102.954 9.61821 97.3446 7.56568C87.6328 4.0107 69.0376 -1.27218 45.4364 0.90174C24.5129 2.82941 8.94553 10.7801 0.198757 15.9034" stroke="url(#paint0_linear_233_19480)" stroke-width="0.786503" stroke-miterlimit="10"/>
<defs>
<linearGradient id="paint0_linear_233_19480" x1="0.198757" y1="19.676" x2="480.123" y2="19.676" gradientUnits="userSpaceOnUse">
<stop stop-color="#2D67FF"/>
<stop offset="1" stop-color="#A238FF"/>
</linearGradient>
</defs>
</svg>
