<svg preserveAspectRatio="none" width="100%" height="100%" overflow="visible" style="display: block;" viewBox="0 0 458 48" fill="none" xmlns="http://www.w3.org/2000/svg">
<path id="Vector" d="M0.185463 21.9046C19.994 32.4988 45.2118 31.0068 67.2885 21.7784C84.1859 14.7149 91.8248 6.23354 109.857 5.63353C132.604 4.87675 142.518 24.8325 160.875 24.553C177.448 24.3005 192.233 20.6428 220.992 10.4267C232.692 6.27029 242.742 -2.29149 255.275 1.2191C271.035 5.63352 272.19 37.6554 308.73 40.4453C328.552 41.9589 343.337 42.5894 355.361 37.7962C363.369 34.604 371.013 28.6129 378.432 27.2014C388.464 25.2931 396.668 32.7027 408.653 38.3005C418.729 43.007 434.211 47.7093 457.721 47.3819" stroke="url(#paint0_linear_190_19615)" stroke-width="0.786503" stroke-miterlimit="10"/>
<defs>
<linearGradient id="paint0_linear_190_19615" x1="0.185463" y1="23.8957" x2="457.721" y2="23.8957" gradientUnits="userSpaceOnUse">
<stop stop-color="#2D67FF"/>
<stop offset="1" stop-color="#A238FF"/>
</linearGradient>
</defs>
</svg>
