<svg preserveAspectRatio="none" width="100%" height="100%" overflow="visible" style="display: block;" viewBox="0 0 52 52" fill="none" xmlns="http://www.w3.org/2000/svg">
<g id="Frame">
<path id="Vector" d="M48.75 20.7188C48.75 34.9375 27.6677 46.4466 26.7698 46.9219C26.5332 47.0492 26.2687 47.1158 26 47.1158C25.7313 47.1158 25.4668 47.0492 25.2302 46.9219C24.3323 46.4466 3.25 34.9375 3.25 20.7188C3.25376 17.3798 4.58181 14.1788 6.94278 11.8178C9.30375 9.45681 12.5048 8.12876 15.8438 8.125C20.0383 8.125 23.7108 9.92875 26 12.9777C28.2892 9.92875 31.9617 8.125 36.1563 8.125C39.4952 8.12876 42.6963 9.45681 45.0572 11.8178C47.4182 14.1788 48.7462 17.3798 48.75 20.7188Z" fill="url(#paint0_linear_190_19872)"/>
</g>
<defs>
<linearGradient id="paint0_linear_190_19872" x1="41.1656" y1="9.20475" x2="13.1894" y2="51.9948" gradientUnits="userSpaceOnUse">
<stop stop-color="#A4BCFD"/>
<stop offset="1" stop-color="#444CE7"/>
</linearGradient>
</defs>
</svg>
