<svg preserveAspectRatio="none" width="100%" height="100%" overflow="visible" style="display: block;" viewBox="0 0 481 25" fill="none" xmlns="http://www.w3.org/2000/svg">
<path id="Vector" d="M480.529 19.2277C461.026 5.30536 440.609 2.49675 424.403 1.95847C421.295 1.85512 418.269 1.80517 415.302 1.8787C388.019 2.53143 368.655 12.2038 341.932 16.7757C332.249 18.4321 320.204 19.1972 305.76 18.3995C281.476 17.0587 269.377 -2.04322 244.489 0.653712C238.549 1.29742 232.963 2.54392 227.736 4.27945C205.875 11.5372 187.93 22.7383 169.997 23.5332C154.332 24.2269 143.674 21.8962 130.716 17.504C121.803 14.4831 113.666 11.3915 102.309 8.15698C98.3099 7.01799 93.7388 5.82629 88.2103 5.11322C76.8052 3.64267 60.2074 3.21884 40.2056 7.50563C25.4166 10.6749 11.7899 16.7909 0.195159 23.4188" stroke="url(#paint0_linear_233_19493)" stroke-width="0.786503" stroke-miterlimit="10"/>
<defs>
<linearGradient id="paint0_linear_233_19493" x1="0.195159" y1="12.0236" x2="480.529" y2="12.0236" gradientUnits="userSpaceOnUse">
<stop stop-color="#2D67FF"/>
<stop offset="1" stop-color="#A238FF"/>
</linearGradient>
</defs>
</svg>
