<svg preserveAspectRatio="none" width="100%" height="100%" overflow="visible" style="display: block;" viewBox="0 0 458 38" fill="none" xmlns="http://www.w3.org/2000/svg">
<path id="Vector" d="M0.197435 25.9014C11.8917 19.1125 23.4036 13.8012 33.5662 9.50057C44.2061 4.9925 52.3799 2.94483 60.5611 3.15917C81.3608 3.70508 88.5976 17.4561 108.573 17.2001C129.658 16.974 137.346 6.72942 156.225 2.5557C168.071 -0.0628519 193.472 -1.86567 217.202 6.77866C218.867 7.38492 220.498 8.05568 222.109 8.76945C230.901 12.6345 237.912 17.5948 245.747 22.4678C252.68 26.7795 259.75 30.7902 269.552 31.4971C284.719 32.591 294.481 27.2692 311.789 18.618C316.378 16.3241 321.309 13.8782 326.808 11.3457C335.356 7.4092 344.613 5.83599 354.506 6.63993C362.075 7.25521 370.002 9.04483 378.444 13.2102C387.316 17.5879 396.172 26.7254 405.319 32.1304C406.273 32.6943 407.227 33.2187 408.188 33.6869C422.012 40.4716 441.487 37.1448 457.45 32.7325" stroke="url(#paint0_linear_190_19669)" stroke-width="0.786503" stroke-miterlimit="10"/>
<defs>
<linearGradient id="paint0_linear_190_19669" x1="0.197435" y1="18.9741" x2="457.45" y2="18.9741" gradientUnits="userSpaceOnUse">
<stop stop-color="#2D67FF"/>
<stop offset="1" stop-color="#A238FF"/>
</linearGradient>
</defs>
</svg>
