<svg preserveAspectRatio="none" width="100%" height="100%" overflow="visible" style="display: block;" viewBox="0 0 481 38" fill="none" xmlns="http://www.w3.org/2000/svg">
<path id="Vector" d="M0.00411979 20.5669C15.6956 20.7313 33.5451 16.9474 49.225 10.6761C63.0297 5.1456 71.3974 0.0298925 84.1207 0.413484C101.709 0.943437 109.601 10.4819 125.218 12.2077C141.941 14.0563 149.781 9.8583 165.841 7.61918C180.202 5.61729 202.463 3.10625 229.524 4.50258C231.318 4.59483 233.076 4.73011 234.811 4.84179C244.374 5.45983 252.583 6.02516 261.916 10.2329C269.187 13.5111 275.184 18.907 283.73 22.2532C296.104 27.0984 306.276 27.9405 325.992 23.6135C331.649 22.3718 337.295 21.0601 343.133 19.6714C353.151 17.2874 362.944 16.2933 372.502 15.3673C380.675 14.5758 388.798 13.2919 397.281 15.0711C407.04 17.1188 416.148 25.3462 426.914 30.8629C427.897 31.3672 428.896 31.8506 429.916 32.3015C442.888 38.038 461.33 37.6232 480.381 34.8569" stroke="url(#paint0_linear_233_19343)" stroke-width="0.786503" stroke-miterlimit="10"/>
<defs>
<linearGradient id="paint0_linear_233_19343" x1="0.00411979" y1="18.6062" x2="480.381" y2="18.6062" gradientUnits="userSpaceOnUse">
<stop stop-color="#2D67FF"/>
<stop offset="1" stop-color="#A238FF"/>
</linearGradient>
</defs>
</svg>
