<svg preserveAspectRatio="none" width="100%" height="100%" overflow="visible" style="display: block;" viewBox="0 0 458 48" fill="none" xmlns="http://www.w3.org/2000/svg">
<path id="Vector" d="M0.178916 22.406C20.4263 32.7505 45.4489 30.8367 67.1913 21.6229C72.1773 19.4976 76.359 17.264 80.2275 15.1809C89.5849 10.145 97.0168 5.70768 109.625 5.3123C119.431 5.02651 126.486 8.97064 133.71 13.1423C143.51 18.8448 152.212 25.0052 163.512 24.6701C180.269 24.1735 195.014 20.5235 222.933 10.4703C234.543 6.28967 244.415 -2.08623 256.751 1.10042C263.216 2.77005 267.291 8.96994 272.518 15.8912C279.979 25.7703 289.313 37.1677 310.267 39.0288C329.583 40.7088 344.139 41.637 356.139 37.2239C364.065 34.3099 371.632 28.6545 379.042 27.365C380.644 27.0861 382.199 27.032 383.733 27.1694C391.762 27.8963 399.123 33.6988 409.087 38.1603C419.367 42.7641 434.815 47.1564 457.736 46.7811" stroke="url(#paint0_linear_190_19593)" stroke-width="0.786503" stroke-miterlimit="10"/>
<defs>
<linearGradient id="paint0_linear_190_19593" x1="0.178916" y1="23.5984" x2="457.736" y2="23.5984" gradientUnits="userSpaceOnUse">
<stop stop-color="#2D67FF"/>
<stop offset="1" stop-color="#A238FF"/>
</linearGradient>
</defs>
</svg>
