<svg preserveAspectRatio="none" width="100%" height="100%" overflow="visible" style="display: block;" viewBox="0 0 481 46" fill="none" xmlns="http://www.w3.org/2000/svg">
<path id="Vector" d="M0.153415 23.9478C22.8021 33.5439 48.5248 30.4321 70.2507 21.1933C75.4607 18.9778 79.8163 16.67 83.8178 14.6293C93.9799 9.45875 101.43 4.65589 114.394 4.38675C125.813 4.14952 132.69 10.1531 142.384 15.1738C154.572 21.4867 166.362 25.9393 180.027 25.0612C198.2 23.893 213.56 20.1834 240.247 10.6414C252.155 6.38378 261.989 -1.44203 274.304 0.783908C280.947 1.98463 285.417 7.16623 291.425 13.1109C300.205 21.7961 310.195 32.3556 330.708 34.8195C349.386 37.0635 363.919 38.8149 376.496 35.5464C384.531 33.4578 392.257 28.8131 400.019 27.8954C401.639 27.704 403.217 27.6811 404.78 27.8385C413.19 28.6862 420.859 33.9822 431.019 37.7772C442.494 42.0633 458.575 45.5358 480.798 45.0169" stroke="url(#paint0_linear_233_19395)" stroke-width="0.786503" stroke-miterlimit="10"/>
<defs>
<linearGradient id="paint0_linear_233_19395" x1="0.153415" y1="22.7308" x2="480.798" y2="22.7308" gradientUnits="userSpaceOnUse">
<stop stop-color="#2D67FF"/>
<stop offset="1" stop-color="#A238FF"/>
</linearGradient>
</defs>
</svg>
