<svg preserveAspectRatio="none" width="100%" height="100%" overflow="visible" style="display: block;" viewBox="0 0 481 38" fill="none" xmlns="http://www.w3.org/2000/svg">
<path id="Vector" d="M480.158 19.6449C463.763 18.431 443.384 26.1597 422.36 26.7784C419.394 26.8658 416.425 26.8367 413.452 26.7465C385.664 25.8739 365.616 22.3522 341.11 17.7449C333.342 16.2848 321.186 14.02 306.777 11.7608C284.712 8.30152 264.891 -0.982374 242.936 3.95853C237.469 5.18908 232.34 7.01894 227.694 9.48281C206.661 20.6354 188.944 33.7247 177.4 35.9589C160.385 39.2524 146.047 34.5342 136.055 28.9502C125.162 22.8634 118.948 17.8351 110.1 13.0329C106.286 10.9631 102.121 8.78013 96.5138 6.85732C86.6577 3.47714 68.2367 -1.33336 44.9607 1.01675C24.5962 3.07274 9.20394 10.841 0.198357 16.1017" stroke="url(#paint0_linear_233_19515)" stroke-width="0.786503" stroke-miterlimit="10"/>
<defs>
<linearGradient id="paint0_linear_233_19515" x1="0.198357" y1="18.7201" x2="480.159" y2="18.7201" gradientUnits="userSpaceOnUse">
<stop stop-color="#2D67FF"/>
<stop offset="1" stop-color="#A238FF"/>
</linearGradient>
</defs>
</svg>
