<svg preserveAspectRatio="none" width="100%" height="100%" overflow="visible" style="display: block;" viewBox="0 0 24 24" fill="none" xmlns="http://www.w3.org/2000/svg">
<g id="Frame">
<path id="Vector" d="M21.75 20.25C21.75 20.4489 21.671 20.6397 21.5303 20.7803C21.3897 20.921 21.1989 21 21 21H3C2.80109 21 2.61032 20.921 2.46967 20.7803C2.32902 20.6397 2.25 20.4489 2.25 20.25C2.25 20.0511 2.32902 19.8603 2.46967 19.7197C2.61032 19.579 2.80109 19.5 3 19.5H16.9922C18.0276 18.6628 18.7922 17.5382 19.19 16.2675C19.5877 14.9968 19.6007 13.6368 19.2275 12.3587C18.8542 11.0807 18.1112 9.94151 17.0921 9.08464C16.073 8.22776 14.8232 7.69143 13.5 7.54312V12.75C13.5 13.1478 13.342 13.5294 13.0607 13.8107C12.7794 14.092 12.3978 14.25 12 14.25H7.5C7.10218 14.25 6.72064 14.092 6.43934 13.8107C6.15804 13.5294 6 13.1478 6 12.75V3C6 2.60218 6.15804 2.22064 6.43934 1.93934C6.72064 1.65804 7.10218 1.5 7.5 1.5H12C12.3978 1.5 12.7794 1.65804 13.0607 1.93934C13.342 2.22064 13.5 2.60218 13.5 3V6.03469C14.9941 6.17185 16.4226 6.71365 17.6319 7.60184C18.8411 8.49003 19.7855 9.69101 20.3633 11.0757C20.9412 12.4603 21.1307 13.9763 20.9115 15.4606C20.6923 16.9449 20.0728 18.3414 19.1194 19.5H21C21.1989 19.5 21.3897 19.579 21.5303 19.7197C21.671 19.8603 21.75 20.0511 21.75 20.25ZM12.75 17.25C12.9489 17.25 13.1397 17.171 13.2803 17.0303C13.421 16.8897 13.5 16.6989 13.5 16.5C13.5 16.3011 13.421 16.1103 13.2803 15.9697C13.1397 15.829 12.9489 15.75 12.75 15.75H6.75C6.55109 15.75 6.36032 15.829 6.21967 15.9697C6.07902 16.1103 6 16.3011 6 16.5C6 16.6989 6.07902 16.8897 6.21967 17.0303C6.36032 17.171 6.55109 17.25 6.75 17.25H12.75Z" fill="var(--fill-0, #A238FF)"/>
</g>
</svg>
