<svg preserveAspectRatio="none" width="100%" height="100%" overflow="visible" style="display: block;" viewBox="0 0 458 33" fill="none" xmlns="http://www.w3.org/2000/svg">
<path id="Vector" d="M0.251862 28.9272C21.3649 11.3202 38.6543 6.74069 51.5247 6.27108C73.1086 5.48309 82.8067 14.2981 101.553 16.5115C118.584 18.5231 125.762 16.8334 136.268 14.5707C149.154 11.7953 160.012 3.73855 175.967 1.18936C191.475 -1.28768 215.165 4.38018 239.558 14.4604C257.715 21.963 269.21 31.5826 289.085 28.8842C309.657 26.0916 322.014 14.5769 347.302 3.75589C359.763 -1.57624 374.415 -1.10248 391.575 9.07692C399.936 14.0359 408.4 23.0853 416.849 27.6225C428.72 33.9979 445.011 31.9051 457.547 29.607" stroke="url(#paint0_linear_190_19771)" stroke-width="0.786503" stroke-miterlimit="10"/>
<defs>
<linearGradient id="paint0_linear_190_19771" x1="0.251862" y1="16.1304" x2="457.547" y2="16.1304" gradientUnits="userSpaceOnUse">
<stop stop-color="#2D67FF"/>
<stop offset="1" stop-color="#A238FF"/>
</linearGradient>
</defs>
</svg>
