<svg preserveAspectRatio="none" width="100%" height="100%" overflow="visible" style="display: block;" viewBox="0 0 458 28" fill="none" xmlns="http://www.w3.org/2000/svg">
<path id="Vector" d="M457.421 18.5648C439.741 8.45477 420.311 8.8453 403.508 8.6164C400.588 8.57686 397.724 8.52622 394.897 8.55119C368.777 8.7461 350.103 14.3432 325.335 16.2785C316.648 16.9569 305.166 16.8425 291.42 15.6202C268.937 13.6211 255.206 -2.52441 232.351 0.857158C226.83 1.67428 221.638 3.09212 216.832 5.05239C196.236 13.4519 179.226 25.1122 163.985 26.4732C148.685 27.8397 137.415 24.9915 125.995 20.1498C116.884 16.2861 109.72 12.5806 99.65 8.83143C95.885 7.42955 91.6648 5.90628 86.3728 4.84845C75.9684 2.76888 59.6435 1.10757 39.6545 4.77077C23.9902 7.64111 10.5032 14.2177 0.20322 20.4349" stroke="url(#paint0_linear_190_19743)" stroke-width="0.786503" stroke-miterlimit="10"/>
<defs>
<linearGradient id="paint0_linear_190_19743" x1="0.20322" y1="13.6044" x2="457.421" y2="13.6044" gradientUnits="userSpaceOnUse">
<stop stop-color="#2D67FF"/>
<stop offset="1" stop-color="#A238FF"/>
</linearGradient>
</defs>
</svg>
