<svg preserveAspectRatio="none" width="100%" height="100%" overflow="visible" style="display: block;" viewBox="0 0 459 40" fill="none" xmlns="http://www.w3.org/2000/svg">
<path id="Vector" d="M0.08005 33.87C28.2283 39.7223 49.7984 30.2733 65.4582 21.26C70.228 18.5145 74.2595 15.914 77.779 14.0841C89.0408 8.24215 94.4528 1.8411 105.457 1.97012C121.674 2.16018 125.501 18.4611 144.931 27.5417C165.339 37.135 189.456 33.3289 210.968 29.2252C231.068 25.3907 244.693 20.1675 257.87 13.7061C267.736 8.86783 274.936 3.46356 283.334 1.41103C289.11 -0.000557067 294.742 0.107659 302.307 1.41728C316.049 3.79652 325.574 10.1747 337.96 15.982C348.106 20.7377 357.773 26.1648 370.17 29.3681C376.097 30.8997 382.666 31.5906 390.035 32.7559C391.266 32.9509 392.518 33.1499 393.782 33.3955C401.664 34.9236 409.177 36.9831 416.903 38.0735C431.57 40.1447 445.683 39.6419 458.018 38.4058" stroke="url(#paint0_linear_190_19576)" stroke-width="0.786503" stroke-miterlimit="10"/>
<defs>
<linearGradient id="paint0_linear_190_19576" x1="0.08005" y1="19.937" x2="458.018" y2="19.937" gradientUnits="userSpaceOnUse">
<stop stop-color="#2D67FF"/>
<stop offset="1" stop-color="#A238FF"/>
</linearGradient>
</defs>
</svg>
