<svg preserveAspectRatio="none" width="100%" height="100%" overflow="visible" style="display: block;" viewBox="0 0 458 38" fill="none" xmlns="http://www.w3.org/2000/svg">
<path id="Vector" d="M0.259265 29.121C22.3726 9.73125 40.044 5.58598 52.6616 5.76078C74.73 6.06668 82.6483 18.4346 103.566 19.0963C116.107 19.4931 123.292 17.0923 131.234 14.1464C141.06 10.47 149.618 4.44005 162.383 1.7126C175.557 -1.10226 203.356 -0.233806 227.557 12.5267C244.711 21.5719 254.762 35.0781 275.912 33.8157C296.517 32.5858 307.621 20.8755 333.662 7.61283C347.369 0.631887 363.777 0.878137 382.865 12.2458C392.141 17.77 401.533 28.154 410.787 32.8903C424.35 39.7755 443.221 36.1574 457.497 32.0385" stroke="url(#paint0_linear_190_19677)" stroke-width="0.786503" stroke-miterlimit="10"/>
<defs>
<linearGradient id="paint0_linear_190_19677" x1="0.259265" y1="18.5726" x2="457.497" y2="18.5726" gradientUnits="userSpaceOnUse">
<stop stop-color="#2D67FF"/>
<stop offset="1" stop-color="#A238FF"/>
</linearGradient>
</defs>
</svg>
