<svg preserveAspectRatio="none" width="100%" height="100%" overflow="visible" style="display: block;" viewBox="0 0 458 25" fill="none" xmlns="http://www.w3.org/2000/svg">
<path id="Vector" d="M457.526 19.2277C438.958 5.30536 419.518 2.49675 404.089 1.95847C401.13 1.85512 398.249 1.80517 395.424 1.8787C369.448 2.53143 351.012 12.2038 325.569 16.7757C316.35 18.4321 304.882 19.1972 291.129 18.3995C268.009 17.0587 256.489 -2.04322 232.794 0.653712C227.138 1.29742 221.819 2.54392 216.843 4.27945C196.029 11.5372 178.944 22.7383 161.87 23.5332C146.956 24.2269 136.808 21.8962 124.47 17.504C115.985 14.4831 108.238 11.3915 97.425 8.15698C93.617 7.01799 89.2649 5.82629 84.0013 5.11322C73.1425 3.64267 57.3398 3.21884 38.2962 7.50563C24.2156 10.6749 11.2417 16.7909 0.202423 23.4188" stroke="url(#paint0_linear_190_19733)" stroke-width="0.786503" stroke-miterlimit="10"/>
<defs>
<linearGradient id="paint0_linear_190_19733" x1="0.202423" y1="12.0236" x2="457.526" y2="12.0236" gradientUnits="userSpaceOnUse">
<stop stop-color="#2D67FF"/>
<stop offset="1" stop-color="#A238FF"/>
</linearGradient>
</defs>
</svg>
