<svg preserveAspectRatio="none" width="100%" height="100%" overflow="visible" style="display: block;" viewBox="0 0 482 41" fill="none" xmlns="http://www.w3.org/2000/svg">
<path id="Vector" d="M0.0680089 36.053C30.5542 41.406 52.7718 31.0851 68.5441 22.1293C73.5174 19.3047 77.745 16.6737 81.4011 14.8716C93.4519 8.94015 98.8995 2.35318 110.271 2.50787C128.05 2.79851 131.695 20.4243 153.527 30.0508C176.199 40.0762 203.35 35.2227 227.116 30.6405C248.637 26.4903 262.73 20.9577 274.916 14.975C285.029 10.0098 292.296 4.90306 300.686 2.35457C306.65 0.542745 312.8 -0.0419952 320.988 0.718251C336.205 2.13123 346.216 8.03423 358.191 14.3305C367.806 19.3859 377.424 25.1973 390.426 29.4044C396.447 31.3521 403.212 32.7832 410.935 34.2641C412.187 34.5041 413.464 34.742 414.761 34.9966C423.014 36.6336 430.958 38.1722 438.784 38.9733C454.745 40.6076 469.37 39.7162 481.089 38.3851" stroke="url(#paint0_linear_233_19295)" stroke-width="0.786503" stroke-miterlimit="10"/>
<defs>
<linearGradient id="paint0_linear_233_19295" x1="0.0680089" y1="20.1251" x2="481.089" y2="20.1251" gradientUnits="userSpaceOnUse">
<stop stop-color="#2D67FF"/>
<stop offset="1" stop-color="#A238FF"/>
</linearGradient>
</defs>
</svg>
