<svg preserveAspectRatio="none" width="100%" height="100%" overflow="visible" style="display: block;" viewBox="0 0 458 42" fill="none" xmlns="http://www.w3.org/2000/svg">
<path id="Vector" d="M0.119369 27.9116C24.7564 35.7603 47.925 29.7401 66.2239 20.5582C71.1064 18.1082 75.1883 15.6513 78.8626 13.7083C89.278 8.2243 95.5868 2.52938 107.305 2.59251C120.671 2.66465 125.97 13.3386 139.939 20.2793C155.673 28.0968 172.866 28.6296 189.872 26.3384C208.453 23.8343 222.714 19.6218 242.337 11.4054C253.025 6.93063 261.345 0.877793 271.514 0.410269C277.565 0.132113 282.376 3.3042 289.062 6.98751C299.77 12.8871 309.433 21.3996 325.647 25.3624C339.849 28.8335 351.783 32.4724 363.928 31.9966C370.793 31.7281 377.773 29.7581 385.143 29.4973C386.539 29.4481 387.926 29.5646 389.31 29.7658C397.261 30.9186 404.594 34.8433 413.423 37.2496C426.009 40.6797 440.847 42.1191 457.887 41.2659" stroke="url(#paint0_linear_190_19597)" stroke-width="0.786503" stroke-miterlimit="10"/>
<defs>
<linearGradient id="paint0_linear_190_19597" x1="0.119369" y1="20.9496" x2="457.887" y2="20.9496" gradientUnits="userSpaceOnUse">
<stop stop-color="#2D67FF"/>
<stop offset="1" stop-color="#A238FF"/>
</linearGradient>
</defs>
</svg>
