<svg preserveAspectRatio="none" width="100%" height="100%" overflow="visible" style="display: block;" viewBox="0 0 481 32" fill="none" xmlns="http://www.w3.org/2000/svg">
<path id="Vector" d="M480.272 18.0463C462.944 13.02 442.555 17.6259 422.976 17.859C419.967 17.895 416.981 17.8534 414.01 17.8125C386.373 17.397 366.519 17.7015 341.359 15.9806C333.012 15.4097 320.897 14.0855 306.474 12.2785C283.748 9.43175 266.235 -2.78629 243.404 1.49356C237.794 2.54514 232.524 4.19743 227.708 6.44834C206.404 16.4072 188.622 28.8277 175.18 30.7582C158.552 33.1464 145.26 29.3452 134.455 24.0436C124.08 18.9536 117.331 14.4698 107.764 10.0977C103.881 8.32329 99.6166 6.40395 94.0237 4.86195C83.7202 2.02144 65.835 -1.40176 43.5347 1.49078C24.849 3.91441 9.9802 11.1534 0.19721 16.824" stroke="url(#paint0_linear_233_19538)" stroke-width="0.786503" stroke-miterlimit="10"/>
<defs>
<linearGradient id="paint0_linear_233_19538" x1="0.19721" y1="15.9403" x2="480.272" y2="15.9403" gradientUnits="userSpaceOnUse">
<stop stop-color="#2D67FF"/>
<stop offset="1" stop-color="#A238FF"/>
</linearGradient>
</defs>
</svg>
