<svg preserveAspectRatio="none" width="100%" height="100%" overflow="visible" style="display: block;" viewBox="0 0 481 40" fill="none" xmlns="http://www.w3.org/2000/svg">
<path id="Vector" d="M0.235147 28.3923C11.6653 19.8652 22.3181 14.1716 31.7403 10.3642C42.2583 6.11136 50.8983 4.75597 58.4578 5.00361C81.3595 5.75275 88.8988 20.3424 111.217 19.6064C134.723 18.8462 142.901 7.19347 163.624 2.44817C175.611 -0.295926 203.299 -1.91283 227.76 8.50657C229.493 9.24462 231.199 10.0472 232.88 10.9101C242.032 15.5957 249.165 21.6562 257.138 26.6852C264.402 31.2668 272.187 34.8939 282.938 34.9667C299.731 35.0805 310.095 28.2959 327.826 18.5278C332.453 15.9793 337.516 13.2532 343.257 10.4231C352.003 6.11275 361.699 4.35017 372.28 5.61679C380.19 6.56363 388.586 9.12529 397.513 13.9032C406.758 18.851 416.056 28.2411 425.388 33.6058C426.393 34.1857 427.398 34.7184 428.405 35.1922C443.318 42.2307 464.269 38.1839 480.465 33.3602" stroke="url(#paint0_linear_233_19371)" stroke-width="0.786503" stroke-miterlimit="10"/>
<defs>
<linearGradient id="paint0_linear_233_19371" x1="0.235147" y1="19.6869" x2="480.465" y2="19.6869" gradientUnits="userSpaceOnUse">
<stop stop-color="#2D67FF"/>
<stop offset="1" stop-color="#A238FF"/>
</linearGradient>
</defs>
</svg>
