<svg preserveAspectRatio="none" width="100%" height="100%" overflow="visible" style="display: block;" viewBox="0 0 458 41" fill="none" xmlns="http://www.w3.org/2000/svg">
<path id="Vector" d="M0.0988011 30.5259C26.491 37.3764 48.8736 29.6546 65.8397 20.5442C70.6691 17.9506 74.7226 15.4174 78.3199 13.5313C89.1585 7.8683 95.0203 1.77593 106.38 1.91605C121.17 2.09917 125.744 15.5214 142.434 23.5456C160.515 32.2385 181.15 30.5918 200.419 27.4169C219.751 24.2309 233.729 19.5619 250.102 12.1912C260.398 7.55615 268.147 1.56229 277.423 0.54608C283.353 -0.103875 288.55 1.37916 295.684 3.83747C307.893 8.04657 317.487 15.4437 331.803 20.3069C343.965 24.4383 354.738 29.0296 367.049 30.3171C373.425 30.9837 380.21 30.1984 387.589 30.761C388.902 30.8609 390.222 30.9913 391.546 31.2147C399.463 32.5513 406.88 35.5805 415.162 37.2959C428.775 40.1143 443.265 40.5145 457.953 39.4705" stroke="url(#paint0_linear_190_19589)" stroke-width="0.786503" stroke-miterlimit="10"/>
<defs>
<linearGradient id="paint0_linear_190_19589" x1="0.0988011" y1="20.1953" x2="457.953" y2="20.1953" gradientUnits="userSpaceOnUse">
<stop stop-color="#2D67FF"/>
<stop offset="1" stop-color="#A238FF"/>
</linearGradient>
</defs>
</svg>
