<svg preserveAspectRatio="none" width="100%" height="100%" overflow="visible" style="display: block;" viewBox="0 0 458 35" fill="none" xmlns="http://www.w3.org/2000/svg">
<path id="Vector" d="M0.255708 28.8278C21.8689 10.3294 39.3507 5.96418 52.0929 5.81921C73.9204 5.57157 82.7245 15.9695 102.56 17.6072C117.353 18.8287 124.532 16.7727 133.752 14.1618C145.114 10.9439 154.817 3.89708 169.175 1.25426C183.52 -1.38649 209.243 1.88688 233.559 13.2968C251.202 21.5763 261.983 33.1471 282.499 31.1536C303.083 29.1531 314.838 17.533 340.483 5.48833C353.579 -0.662311 369.097 -0.307853 387.221 10.4653C396.04 15.7066 404.962 25.4309 413.819 30.0604C426.527 36.7021 444.117 33.8353 457.523 30.6271" stroke="url(#paint0_linear_190_19679)" stroke-width="0.786503" stroke-miterlimit="10"/>
<defs>
<linearGradient id="paint0_linear_190_19679" x1="0.255708" y1="17.2397" x2="457.523" y2="17.2397" gradientUnits="userSpaceOnUse">
<stop stop-color="#2D67FF"/>
<stop offset="1" stop-color="#A238FF"/>
</linearGradient>
</defs>
</svg>
