<svg preserveAspectRatio="none" width="100%" height="100%" overflow="visible" style="display: block;" viewBox="0 0 482 41" fill="none" xmlns="http://www.w3.org/2000/svg">
<path id="Vector" d="M0.089684 31.2676C28.2706 37.8684 51.5697 29.7172 69.043 20.629C74.101 17.9986 78.3507 15.4474 82.1088 13.5752C93.6034 7.8678 99.6418 1.77196 111.481 1.83577C127.391 1.9204 132.002 16.1577 150.247 24.4503C169.854 33.3624 192.435 31.1781 213.264 27.7743C233.769 24.424 248.365 19.6253 264.717 12.4751C275.423 7.79428 283.419 1.94953 292.925 0.667652C299.116 -0.167509 304.687 0.973562 312.292 3.13777C325.519 6.90293 335.573 14.0365 350.107 19.1314C362.347 23.4223 373.363 28.2328 386.328 29.9857C392.9 30.8743 399.974 30.456 407.723 31.1656C409.081 31.2898 410.45 31.4368 411.824 31.6657C420.131 33.0496 427.945 35.8429 436.499 37.396C451.071 40.0416 466.193 40.2019 481.002 39.11" stroke="url(#paint0_linear_233_19307)" stroke-width="0.786503" stroke-miterlimit="10"/>
<defs>
<linearGradient id="paint0_linear_233_19307" x1="0.089684" y1="20.0692" x2="481.002" y2="20.0692" gradientUnits="userSpaceOnUse">
<stop stop-color="#2D67FF"/>
<stop offset="1" stop-color="#A238FF"/>
</linearGradient>
</defs>
</svg>
