<svg preserveAspectRatio="none" width="100%" height="100%" overflow="visible" style="display: block;" viewBox="0 0 481 48" fill="none" xmlns="http://www.w3.org/2000/svg">
<path id="Vector" d="M0.178444 21.9046C20.9837 32.4988 47.4703 31.0067 70.6577 21.7783C88.4053 14.7149 96.4285 6.23353 115.368 5.63352C139.26 4.87674 149.672 24.8325 168.953 24.553C186.36 24.3005 201.889 20.6428 232.094 10.4267C244.384 6.27028 254.939 -2.29151 268.102 1.21908C284.656 5.63351 285.869 37.6554 324.247 40.4453C345.066 41.9589 360.595 42.5894 373.224 37.7962C381.635 34.604 389.664 28.6129 397.457 27.2013C407.993 25.2931 416.61 32.7027 429.197 38.3005C439.781 43.007 456.042 47.7093 480.734 47.3819" stroke="url(#paint0_linear_233_19321)" stroke-width="0.786503" stroke-miterlimit="10"/>
<defs>
<linearGradient id="paint0_linear_233_19321" x1="0.178444" y1="23.8957" x2="480.734" y2="23.8957" gradientUnits="userSpaceOnUse">
<stop stop-color="#2D67FF"/>
<stop offset="1" stop-color="#A238FF"/>
</linearGradient>
</defs>
</svg>
