<svg preserveAspectRatio="none" width="100%" height="100%" overflow="visible" style="display: block;" viewBox="0 0 481 28" fill="none" xmlns="http://www.w3.org/2000/svg">
<path id="Vector" d="M480.419 18.5648C461.849 8.45477 441.442 8.8453 423.792 8.6164C420.726 8.57686 417.717 8.52622 414.748 8.55119C387.315 8.7461 367.701 14.3432 341.687 16.2785C332.563 16.9569 320.502 16.8425 306.065 15.6202C282.451 13.6211 268.029 -2.52441 244.024 0.857158C238.225 1.67428 232.772 3.09212 227.725 5.05239C206.092 13.4519 188.226 25.1122 172.218 26.4732C156.148 27.8397 144.311 24.9915 132.317 20.1498C122.747 16.2861 115.223 12.5806 104.646 8.83143C100.692 7.42955 96.2594 5.90628 90.7011 4.84845C79.7732 2.76888 62.627 1.10757 41.6322 4.77077C25.1797 7.64111 11.0142 14.2177 0.195947 20.4349" stroke="url(#paint0_linear_233_19505)" stroke-width="0.786503" stroke-miterlimit="10"/>
<defs>
<linearGradient id="paint0_linear_233_19505" x1="0.195947" y1="13.6044" x2="480.419" y2="13.6044" gradientUnits="userSpaceOnUse">
<stop stop-color="#2D67FF"/>
<stop offset="1" stop-color="#A238FF"/>
</linearGradient>
</defs>
</svg>
