<svg preserveAspectRatio="none" width="100%" height="100%" overflow="visible" style="display: block;" viewBox="0 0 171 102" fill="none" xmlns="http://www.w3.org/2000/svg">
<path id="Vector 2" d="M38.5227 9.3093V60.5105C33.307 62.1064 30.5769 61.872 29.8638 61.5554C28.7772 61.1754 26.4207 60.1115 25.6872 58.8956C24.9538 57.6797 23.0726 53.2593 22.2237 51.2012L21.9181 49.5863L22.2237 45.3116C22.9707 43.0318 23.6295 38.2821 20.2882 37.5222C16.9468 36.7623 15.0928 39.612 14.5835 41.1319C14.5156 41.8602 14.2371 44.0197 13.6667 46.8315C13.0962 49.6433 11.7312 50.1562 11.1199 50.0613L3.78537 50.4412L2.46104 51.2012C-0.554301 53.405 1.00091 55.6658 2.15543 56.5208C-1.43036 58.2686 0.253878 60.9854 1.54422 62.1254C-1.30812 65.1651 0.966962 67.1283 2.46104 67.7299C2.01961 67.6033 1.21824 67.8439 1.54422 69.8198C1.8702 71.7956 5.07568 72.6062 6.63768 72.7646H11.5274C13.8908 72.9165 15.704 71.4347 16.3152 70.6747C20.879 69.9908 23.1744 67.8566 23.7517 66.875C30.8418 70.2188 36.689 68.9015 38.7264 67.8249V89.9583C38.7264 95.2779 42.4616 96.4811 44.3292 96.4178L126.741 101.832C130.979 102.136 133.329 100.566 133.974 99.7425L147.013 88.4384L152.209 83.4038V72.4796C157.587 84.0307 157.777 88.8817 157.2 89.8633L154.348 95.7528L154.144 96.7028C153.492 102.25 157.404 101.864 159.441 100.977C160.018 100.471 161.295 99.1916 161.784 98.1277C162.273 97.0637 163.142 97.3677 163.516 97.6527C163.55 99.4892 164.575 102.82 168.406 101.452C172.236 100.085 168.847 90.7499 166.674 86.2536C164.908 81.7572 160.929 71.8336 159.136 68.1099C157.343 64.3862 153.906 61.3654 152.412 60.3205L152.82 7.31445C152.494 2.60281 148.541 1.55155 146.606 1.61488L72.2413 0L43.4124 4.46467C39.5006 5.52859 38.5227 8.13772 38.5227 9.3093Z" fill="var(--fill-0, #D9D9D9)"/>
</svg>
