<svg preserveAspectRatio="none" width="100%" height="100%" overflow="visible" style="display: block;" viewBox="0 0 458 36" fill="none" xmlns="http://www.w3.org/2000/svg">
<path id="Vector" d="M0.257518 28.9477C22.1208 10.004 39.6987 5.64852 52.3777 5.76367C74.3252 5.96206 82.6823 17.1133 103.063 18.3258C116.734 19.1387 123.916 16.9121 132.494 14.1278C143.092 10.6879 152.219 4.14398 165.779 1.45676C179.54 -1.26931 206.295 0.801948 230.559 12.8854C247.954 21.5485 258.372 34.0898 279.206 32.4583C299.8 30.8456 311.235 19.1783 337.073 6.52392C350.476 -0.0408401 366.437 0.258126 385.043 11.3289C394.091 16.7116 403.241 26.7731 412.303 31.449C425.43 38.2226 443.669 34.97 457.51 31.3061" stroke="url(#paint0_linear_190_19591)" stroke-width="0.786503" stroke-miterlimit="10"/>
<defs>
<linearGradient id="paint0_linear_190_19591" x1="0.257518" y1="17.8919" x2="457.51" y2="17.8919" gradientUnits="userSpaceOnUse">
<stop stop-color="#2D67FF"/>
<stop offset="1" stop-color="#A238FF"/>
</linearGradient>
</defs>
</svg>
