<svg preserveAspectRatio="none" width="100%" height="100%" overflow="visible" style="display: block;" viewBox="0 0 481 47" fill="none" xmlns="http://www.w3.org/2000/svg">
<path id="Vector" d="M0.159495 23.4258C22.3473 33.2708 48.2624 30.5676 70.353 21.3289C75.5736 19.1452 79.9398 16.8603 83.9615 14.8057C94.0119 9.68031 101.58 4.99258 114.637 4.68807C125.683 4.43003 132.744 9.7469 141.73 14.4894C153.294 20.5922 164.195 25.6163 177.26 24.9234C195.243 23.9696 210.646 20.2932 238.209 10.5772C250.213 6.3459 260.222 -1.66166 272.755 0.881973C279.444 2.23946 283.848 7.75957 289.689 14.0302C298.148 23.1115 308.082 33.9596 329.093 36.2154C348.308 38.2783 363.101 39.7496 375.679 36.0982C383.816 33.7363 391.612 28.7537 399.379 27.7112C401.021 27.4906 402.617 27.4573 404.197 27.6085C412.614 28.4138 420.298 33.8854 430.565 37.8982C441.809 42.2925 457.943 46.0695 480.783 45.5985" stroke="url(#paint0_linear_233_19349)" stroke-width="0.786503" stroke-miterlimit="10"/>
<defs>
<linearGradient id="paint0_linear_233_19349" x1="0.159495" y1="23.0158" x2="480.783" y2="23.0158" gradientUnits="userSpaceOnUse">
<stop stop-color="#2D67FF"/>
<stop offset="1" stop-color="#A238FF"/>
</linearGradient>
</defs>
</svg>
