<svg preserveAspectRatio="none" width="100%" height="100%" overflow="visible" style="display: block;" viewBox="0 0 481 37" fill="none" xmlns="http://www.w3.org/2000/svg">
<path id="Vector" d="M0.141134 23.4512C13.2762 18.4007 26.8067 13.4709 38.7324 8.67771C50.5647 3.91369 59.094 1.17929 68.7212 1.35617C89.5091 1.73907 97.1744 14.5773 116.816 14.8353C137.604 15.1086 145.597 6.34494 164.509 2.70533C177.417 0.22135 203.046 -1.76804 228.464 5.0936C230.227 5.56945 231.946 6.1098 233.651 6.67166C242.956 9.73623 250.554 13.5791 259.048 18.2932C266.337 22.3386 273.404 26.7218 283.254 28.0702C298.305 30.1311 308.494 26.2966 327.091 18.751C332.111 16.7144 337.406 14.5502 343.207 12.3118C352.43 8.75262 362.178 7.35422 372.368 7.70659C380.367 7.98336 388.627 9.00303 397.419 12.5601C406.826 16.3655 416.105 25.2616 425.998 30.6985C426.995 31.2472 427.997 31.7605 429.008 32.2259C443.153 38.7345 463.092 36.1499 480.43 32.1489" stroke="url(#paint0_linear_233_19362)" stroke-width="0.786503" stroke-miterlimit="10"/>
<defs>
<linearGradient id="paint0_linear_233_19362" x1="0.141134" y1="18.2916" x2="480.43" y2="18.2916" gradientUnits="userSpaceOnUse">
<stop stop-color="#2D67FF"/>
<stop offset="1" stop-color="#A238FF"/>
</linearGradient>
</defs>
</svg>
