<svg preserveAspectRatio="none" width="100%" height="100%" overflow="visible" style="display: block;" viewBox="0 0 481 39" fill="none" xmlns="http://www.w3.org/2000/svg">
<path id="Vector" d="M0.0805606 19.2595C17.4769 22.9005 38.2052 19.8803 56.3876 12.6233C71.5066 6.58226 79.7521 0.148615 94.5555 0.400412C110.032 0.663307 118.059 8.38231 130.988 11.0716C145.004 13.9864 152.789 12.9611 166.897 11.5114C182.267 9.93192 202.21 7.11361 230.4 4.72466C232.212 4.57137 233.999 4.42362 235.754 4.23841C245.492 3.2118 254.071 1.63997 263.997 5.47588C271.229 8.27131 276.575 14.2479 284.217 18.9918C294.856 25.5947 305.023 29.7559 325.429 27.4717C331.527 26.7891 337.412 26.049 343.254 25.1944C353.834 23.6462 363.62 22.8069 372.762 21.0915C381.046 19.537 389.129 16.7027 397.358 17.3624C407.403 18.1684 416.33 26.033 427.693 31.5899C428.666 32.0658 429.662 32.5291 430.69 32.9696C442.871 38.2012 460.323 39.2229 480.517 37.2793" stroke="url(#paint0_linear_233_19684)" stroke-width="0.786503" stroke-miterlimit="10"/>
<defs>
<linearGradient id="paint0_linear_233_19684" x1="0.0805606" y1="19.2941" x2="480.517" y2="19.2941" gradientUnits="userSpaceOnUse">
<stop stop-color="#2D67FF"/>
<stop offset="1" stop-color="#A238FF"/>
</linearGradient>
</defs>
</svg>
