<svg preserveAspectRatio="none" width="100%" height="100%" overflow="visible" style="display: block;" viewBox="0 0 458 41" fill="none" xmlns="http://www.w3.org/2000/svg">
<path id="Vector" d="M0.205334 40.2718C17.3171 29.7956 33.1115 23.7684 46.9575 20.4319C66.6507 15.7435 82.3105 16.5364 93.4807 18.292C129.13 23.896 135.581 27.8062 156.385 28.3867C181.46 29.0797 201.514 12.7871 230.287 11.2174C255.077 9.84465 263.176 33.8153 287.549 34.3154C310.296 34.7823 326.743 28.7655 341.765 21.2789C361.921 11.2333 378.01 -0.494286 401.848 0.446311C408.526 0.7099 416.952 3.09191 426.403 8.52046C431.097 11.2167 436.006 14.7599 441.082 18.6686C446.402 22.7647 452.154 27.0161 457.726 32.0007" stroke="url(#paint0_linear_190_19787)" stroke-width="0.786503" stroke-miterlimit="10"/>
<defs>
<linearGradient id="paint0_linear_190_19787" x1="0.205334" y1="20.3325" x2="457.726" y2="20.3325" gradientUnits="userSpaceOnUse">
<stop stop-color="#2D67FF"/>
<stop offset="1" stop-color="#A238FF"/>
</linearGradient>
</defs>
</svg>
