<svg preserveAspectRatio="none" width="100%" height="100%" overflow="visible" style="display: block;" viewBox="0 0 458 40" fill="none" xmlns="http://www.w3.org/2000/svg">
<path id="Vector" d="M457.14 20.2187C441.826 20.2755 422.425 29.0378 401.951 29.7925C399.141 29.8958 396.319 29.8723 393.488 29.7654C366.983 28.7402 347.816 23.9713 324.709 18.3742C317.492 16.6255 305.909 14.0424 292.196 11.6291C271.397 7.9694 251.796 -0.337819 231.169 4.82159C226.009 6.11248 221.173 8.002 216.801 10.5359C196.867 22.0908 180.023 35.4194 169.624 37.7348C153.317 41.3661 139.332 36.299 130.064 30.6283C119.549 24.1954 113.789 18.9944 105.585 14.0541C101.98 11.883 98.0387 9.61821 92.6982 7.56569C83.4516 4.0107 65.7472 -1.27217 43.2767 0.901742C23.3554 2.82941 8.53382 10.7801 0.20606 15.9034" stroke="url(#paint0_linear_190_19745)" stroke-width="0.786503" stroke-miterlimit="10"/>
<defs>
<linearGradient id="paint0_linear_190_19745" x1="0.20606" y1="19.676" x2="457.14" y2="19.676" gradientUnits="userSpaceOnUse">
<stop stop-color="#2D67FF"/>
<stop offset="1" stop-color="#A238FF"/>
</linearGradient>
</defs>
</svg>
