<svg preserveAspectRatio="none" width="100%" height="100%" overflow="visible" style="display: block;" viewBox="0 0 481 41" fill="none" xmlns="http://www.w3.org/2000/svg">
<path id="Vector" d="M0.0991236 29.8275C27.3583 36.9278 51.0759 29.6333 69.243 20.5027C74.3298 17.9459 78.5939 15.4314 82.3925 13.5308C93.6648 7.91285 99.9399 1.9162 111.965 2.04037C127.125 2.19713 132.12 14.9306 148.935 22.6842C167.31 31.1572 188.077 30.0523 207.722 27.1021C227.828 24.0827 242.59 19.5378 260.636 11.9492C271.555 7.35793 279.838 1.21215 289.818 0.466467C296.082 -0.0017508 301.431 1.82116 308.811 4.57983C321.233 9.22316 331.333 16.8915 346.87 21.5258C360.178 25.4956 371.796 29.8601 384.686 30.6918C391.509 31.1323 398.686 29.9822 406.436 30.3998C407.838 30.4754 409.241 30.5891 410.647 30.8069C418.972 32.0971 426.737 35.3573 435.582 37.2385C449.605 40.2205 464.92 40.8698 480.965 39.873" stroke="url(#paint0_linear_233_19311)" stroke-width="0.786503" stroke-miterlimit="10"/>
<defs>
<linearGradient id="paint0_linear_233_19311" x1="0.0991236" y1="20.3507" x2="480.965" y2="20.3507" gradientUnits="userSpaceOnUse">
<stop stop-color="#2D67FF"/>
<stop offset="1" stop-color="#A238FF"/>
</linearGradient>
</defs>
</svg>
