<svg preserveAspectRatio="none" width="100%" height="100%" overflow="visible" style="display: block;" viewBox="0 0 459 41" fill="none" xmlns="http://www.w3.org/2000/svg">
<path id="Vector" d="M0.0713208 36.053C29.0971 41.406 50.2504 31.0851 65.2671 22.1293C70.0022 19.3047 74.0273 16.6737 77.5082 14.8716C88.9817 8.94015 94.1684 2.35318 104.995 2.50787C121.923 2.79851 125.393 20.4243 146.179 30.0508C167.765 40.0762 193.615 35.2227 216.242 30.6405C236.732 26.4903 250.151 20.9577 261.753 14.9749C271.382 10.0098 278.301 4.90306 286.289 2.35457C291.967 0.542744 297.823 -0.0419966 305.618 0.71825C320.106 2.13123 329.638 8.03423 341.039 14.3305C350.193 19.3859 359.351 25.1973 371.73 29.4044C377.462 31.3521 383.903 32.7832 391.256 34.2641C392.448 34.5041 393.664 34.742 394.899 34.9966C402.756 36.6336 410.32 38.1722 417.771 38.9733C432.968 40.6076 446.891 39.7162 458.05 38.3851" stroke="url(#paint0_linear_190_19785)" stroke-width="0.786503" stroke-miterlimit="10"/>
<defs>
<linearGradient id="paint0_linear_190_19785" x1="0.0713208" y1="20.1251" x2="458.05" y2="20.1251" gradientUnits="userSpaceOnUse">
<stop stop-color="#2D67FF"/>
<stop offset="1" stop-color="#A238FF"/>
</linearGradient>
</defs>
</svg>
