<svg preserveAspectRatio="none" width="100%" height="100%" overflow="visible" style="display: block;" viewBox="0 0 458 39" fill="none" xmlns="http://www.w3.org/2000/svg">
<path id="Vector" d="M0.21326 38.4154C17.8251 27.0477 33.7881 21.1621 47.5306 18.2237C67.4345 13.9675 82.3816 15.9569 94.4926 17.6314C127.938 22.2573 134.355 25.9941 153.873 26.2216C177.424 26.4775 196.327 11.2074 223.499 9.526C247.127 8.00482 257.186 29.8043 281.553 31.3956C303.729 32.8439 319.615 28.7382 335.182 21.7919C355.473 12.7369 371.013 1.40537 395.032 0.422459C402.434 0.120025 411.637 2.13024 422.052 8.15256C427.206 11.1318 432.536 15.3798 438.056 19.3502C444.172 23.7494 451.265 27.1899 457.706 31.2638" stroke="url(#paint0_linear_190_19671)" stroke-width="0.786503" stroke-miterlimit="10"/>
<defs>
<linearGradient id="paint0_linear_190_19671" x1="0.21326" y1="19.4043" x2="457.706" y2="19.4043" gradientUnits="userSpaceOnUse">
<stop stop-color="#2D67FF"/>
<stop offset="1" stop-color="#A238FF"/>
</linearGradient>
</defs>
</svg>
