<svg preserveAspectRatio="none" width="100%" height="100%" overflow="visible" style="display: block;" viewBox="0 0 52 52" fill="none" xmlns="http://www.w3.org/2000/svg">
<g id="Frame">
<path id="Vector" d="M45.0308 40.5783L32.5 19.6869V8.125H34.125C34.556 8.125 34.9693 7.9538 35.2741 7.64905C35.5788 7.3443 35.75 6.93098 35.75 6.5C35.75 6.06902 35.5788 5.6557 35.2741 5.35095C34.9693 5.0462 34.556 4.875 34.125 4.875L17.875 4.875C17.444 4.875 17.0307 5.0462 16.726 5.35095C16.4212 5.6557 16.25 6.06902 16.25 6.5C16.25 6.93098 16.4212 7.3443 16.726 7.64905C17.0307 7.9538 17.444 8.125 17.875 8.125H19.5V19.6869L6.96922 40.5783C6.67368 41.071 6.51404 41.6333 6.50658 42.2078C6.49911 42.7823 6.64408 43.3485 6.92671 43.8487C7.20935 44.349 7.61954 44.7653 8.1155 45.0554C8.61145 45.3455 9.17544 45.4989 9.75 45.5L42.25 45.5C42.8251 45.5 43.3898 45.3473 43.8866 45.0577C44.3835 44.7681 44.7945 44.3518 45.0779 43.8514C45.3612 43.351 45.5067 42.7843 45.4995 42.2093C45.4923 41.6343 45.3327 41.0714 45.0369 40.5783H45.0308ZM26.7333 31.8622C23.5016 30.227 20.4262 29.3597 17.548 29.2602L22.5184 20.9727C22.6704 20.7207 22.7505 20.432 22.75 20.1378V8.125L29.25 8.125V20.1378C29.2495 20.432 29.3296 20.7207 29.4816 20.9727L37.245 33.9219C34.8156 34.3972 31.3402 34.1941 26.7333 31.8622Z" fill="url(#paint0_linear_233_19773)"/>
</g>
<defs>
<linearGradient id="paint0_linear_233_19773" x1="39" y1="6" x2="7.99995" y2="45" gradientUnits="userSpaceOnUse">
<stop stop-color="#A4BCFD"/>
<stop offset="1" stop-color="#444CE7"/>
</linearGradient>
</defs>
</svg>
