<svg preserveAspectRatio="none" width="100%" height="100%" overflow="visible" style="display: block;" viewBox="0 0 458 43" fill="none" xmlns="http://www.w3.org/2000/svg">
<path id="Vector" d="M0.155223 19.7108C18.7463 27.6975 41.9085 25.6325 62.198 17.1436C78.1573 10.4637 85.8704 2.84592 102.431 2.46927C114.645 2.19111 122.442 7.87354 131.565 11.7358C141.677 16.0164 149.045 19.0587 160.145 18.4601C175.995 17.6055 192.303 14.3426 220.391 7.08624C222.144 6.63329 223.87 6.11999 225.567 5.56784C235.031 2.46026 243.63 -1.70652 253.813 1.61331C260.635 3.83786 265.06 10.4713 271.167 16.9986C279.358 25.7532 288.883 34.2151 309.155 34.3781C315.48 34.4287 321.37 34.4052 326.939 34.1818C337.68 33.751 346.951 32.979 355.199 30.3299C363.181 27.7662 370.85 22.9647 378.4 22.3099C388.286 21.4518 396.576 28.9933 408.119 34.5827C409.032 35.0246 409.978 35.463 410.966 35.8889C421.603 40.5163 437.06 43.3075 457.646 42.3919" stroke="url(#paint0_linear_190_19639)" stroke-width="0.786503" stroke-miterlimit="10"/>
<defs>
<linearGradient id="paint0_linear_190_19639" x1="0.155223" y1="21.4786" x2="457.646" y2="21.4786" gradientUnits="userSpaceOnUse">
<stop stop-color="#2D67FF"/>
<stop offset="1" stop-color="#A238FF"/>
</linearGradient>
</defs>
</svg>
