<svg preserveAspectRatio="none" width="100%" height="100%" overflow="visible" style="display: block;" viewBox="0 0 458 29" fill="none" xmlns="http://www.w3.org/2000/svg">
<path id="Vector" d="M457.385 18.3646C439.999 9.52538 420.576 10.9751 403.312 10.8565C400.406 10.8364 397.547 10.7878 394.719 10.7955C368.552 10.8378 349.814 15.094 325.256 16.1331C316.751 16.4931 305.258 16.0804 291.517 14.7139C269.246 12.4998 254.778 -2.66214 232.203 0.945559C226.727 1.82095 221.578 3.29705 216.828 5.33085C196.307 14.1167 179.319 25.9511 164.689 27.4737C149.257 29.0795 137.63 26.0219 126.504 21.0525C117.191 16.8934 110.218 12.9888 100.392 9.07728C96.6429 7.58453 92.4648 5.95721 87.1637 4.78077C76.9095 2.50558 60.4078 0.414908 40.1073 3.87972C23.9126 6.64324 10.2571 13.3807 0.203517 19.4613" stroke="url(#paint0_linear_190_19747)" stroke-width="0.786503" stroke-miterlimit="10"/>
<defs>
<linearGradient id="paint0_linear_190_19747" x1="0.203517" y1="14.1484" x2="457.385" y2="14.1484" gradientUnits="userSpaceOnUse">
<stop stop-color="#2D67FF"/>
<stop offset="1" stop-color="#A238FF"/>
</linearGradient>
</defs>
</svg>
