<svg preserveAspectRatio="none" width="100%" height="100%" overflow="visible" style="display: block;" viewBox="0 0 24 24" fill="none" xmlns="http://www.w3.org/2000/svg">
<g id="user">
<path id="Vector" d="M11.8615 11.8615C14.5911 11.8615 16.8038 9.64879 16.8038 6.91923C16.8038 4.18967 14.5911 1.97692 11.8615 1.97692C9.13198 1.97692 6.91923 4.18967 6.91923 6.91923C6.91923 9.64879 9.13198 11.8615 11.8615 11.8615Z" fill="var(--fill-0, #4B4AD5)" stroke="var(--stroke-0, #4B4AD5)" stroke-width="1.48269" stroke-linecap="round" stroke-linejoin="round"/>
<g id="Vector_2">
<mask id="path-2-inside-1_190_19709" fill="white">
<path d="M20.3523 21.7462C20.3523 17.9208 16.5468 14.8269 11.8614 14.8269C7.17614 14.8269 3.37057 17.9208 3.37057 21.7462"/>
</mask>
<path d="M20.3523 21.7462C20.3523 17.9208 16.5468 14.8269 11.8614 14.8269C7.17614 14.8269 3.37057 17.9208 3.37057 21.7462" fill="var(--fill-0, #4B4AD5)"/>
<path d="M18.8696 21.7462C18.8696 22.565 19.5335 23.2288 20.3523 23.2288C21.1712 23.2288 21.835 22.565 21.835 21.7462H20.3523H18.8696ZM1.88787 21.7462C1.88787 22.565 2.5517 23.2288 3.37057 23.2288C4.18944 23.2288 4.85326 22.565 4.85326 21.7462H3.37057H1.88787ZM20.3523 21.7462H21.835C21.835 16.8318 17.0664 13.3442 11.8614 13.3442V14.8269V16.3096C16.0271 16.3096 18.8696 19.0098 18.8696 21.7462H20.3523ZM11.8614 14.8269V13.3442C6.65646 13.3442 1.88787 16.8318 1.88787 21.7462H3.37057H4.85326C4.85326 19.0098 7.69582 16.3096 11.8614 16.3096V14.8269Z" fill="var(--stroke-0, #4B4AD5)" mask="url(#path-2-inside-1_190_19709)"/>
</g>
<g id="Vector_3" opacity="0">
</g>
</g>
</svg>
