<svg preserveAspectRatio="none" width="100%" height="100%" overflow="visible" style="display: block;" viewBox="0 0 458 50" fill="none" xmlns="http://www.w3.org/2000/svg">
<path id="Vector" d="M456.966 23.3215C443.131 29.7323 423.727 43.6012 400.98 45.0968C398.235 45.2771 395.442 45.282 392.609 45.0933C365.864 43.305 346.046 32.4487 324.32 21.7525C317.916 18.5998 306.35 14.4219 292.682 11.2034C272.896 6.59195 249.694 3.14448 230.432 9.36796C225.504 10.9668 220.906 13.1567 216.783 16.0319C197.376 29.6435 180.71 44.2366 173.15 46.842C156.579 52.5529 140.749 45.3264 132.606 39.2458C121.541 30.983 116.464 24.9946 109.295 19.3871C105.852 16.6944 101.972 14.0564 96.6525 11.3324C88.0472 6.92698 69.5678 -0.80935 45.5418 0.551602C22.9586 1.76827 7.30428 10.6991 0.208601 15.1392" stroke="url(#paint0_linear_190_19816)" stroke-width="0.786503" stroke-miterlimit="10"/>
<defs>
<linearGradient id="paint0_linear_190_19816" x1="0.208601" y1="24.6569" x2="456.966" y2="24.6569" gradientUnits="userSpaceOnUse">
<stop stop-color="#2D67FF"/>
<stop offset="1" stop-color="#A238FF"/>
</linearGradient>
</defs>
</svg>
