<svg preserveAspectRatio="none" width="100%" height="100%" overflow="visible" style="display: block;" viewBox="0 0 481 32" fill="none" xmlns="http://www.w3.org/2000/svg">
<path id="Vector" d="M0.238092 30.732C21.6254 14.4623 39.4797 9.57413 53.1998 8.60371C75.4819 7.02772 86.709 15.5708 105.055 16.5232C126.845 17.6545 134.005 18.575 147.069 16.8388C163.002 14.7211 176.221 5.1389 195.501 2.74718C213.619 0.499734 235.366 9.72883 261.046 17.8605C280.971 24.17 294.126 30.8395 313.987 27.1354C335.583 23.1087 349.413 11.7716 375.502 2.81238C387.54 -1.32181 401.614 -0.639242 418.119 8.6495C426.178 13.1839 434.351 21.2171 442.578 25.6205C453.733 31.5908 468.791 30.6654 480.586 29.7331" stroke="url(#paint0_linear_233_19423)" stroke-width="0.786503" stroke-miterlimit="10"/>
<defs>
<linearGradient id="paint0_linear_233_19423" x1="0.238092" y1="15.5627" x2="480.586" y2="15.5627" gradientUnits="userSpaceOnUse">
<stop stop-color="#2D67FF"/>
<stop offset="1" stop-color="#A238FF"/>
</linearGradient>
</defs>
</svg>
