<svg preserveAspectRatio="none" width="100%" height="100%" overflow="visible" style="display: block;" viewBox="0 0 481 36" fill="none" xmlns="http://www.w3.org/2000/svg">
<path id="Vector" d="M480.676 27.6057C459.93 8.6002 439.508 1.47913 425.22 0.575292C422.056 0.375519 419.006 0.336679 416.041 0.476104C388.961 1.73925 370.072 16.9143 342.261 24.9323C331.882 27.9247 319.812 29.8476 305.353 29.5999C280.182 29.1685 271.176 6.13009 245.11 7.87602C238.983 8.29706 233.221 9.31674 227.754 10.7422C205.598 16.5169 187.5 27.2685 167.036 27.1069C151.855 26.9869 142.91 25.0412 128.581 21.4689C120.566 19.4705 111.604 17.2244 99.194 14.7494C95.1348 13.9399 90.3838 13.2345 84.89 12.9584C72.8566 12.3549 56.9342 13.4454 38.3044 18.6436C25.7004 22.1605 12.8261 27.7139 0.1942 34.8877" stroke="url(#paint0_linear_233_19482)" stroke-width="0.786503" stroke-miterlimit="10"/>
<defs>
<linearGradient id="paint0_linear_233_19482" x1="0.1942" y1="17.6405" x2="480.676" y2="17.6405" gradientUnits="userSpaceOnUse">
<stop stop-color="#2D67FF"/>
<stop offset="1" stop-color="#A238FF"/>
</linearGradient>
</defs>
</svg>
