<svg preserveAspectRatio="none" width="100%" height="100%" overflow="visible" style="display: block;" viewBox="0 0 481 47" fill="none" xmlns="http://www.w3.org/2000/svg">
<path id="Vector" d="M0.165701 22.9129C21.8926 33.0076 47.9992 30.7102 70.4545 21.4728C75.6846 19.3211 80.0624 17.0591 84.1053 14.9899C94.0451 9.90889 101.732 5.33839 114.881 4.99642C125.553 4.71896 132.795 9.34981 141.075 13.8121C152.013 19.7068 162.025 25.3046 174.49 24.7934C192.282 24.0629 207.728 20.4067 236.171 10.52C248.27 6.31438 258.457 -1.87632 271.203 0.987783C277.942 2.50203 282.283 8.36135 287.951 14.9573C296.096 24.4368 305.966 35.57 327.477 37.619C347.227 39.4995 362.273 40.6905 374.86 36.6583C383.093 34.021 390.963 28.7021 398.738 27.5354C400.399 27.2856 402.014 27.2433 403.61 27.3862C412.035 28.1583 419.739 33.7914 430.108 38.0262C441.127 42.526 457.309 46.6102 480.766 46.1864" stroke="url(#paint0_linear_233_19429)" stroke-width="0.786503" stroke-miterlimit="10"/>
<defs>
<linearGradient id="paint0_linear_233_19429" x1="0.165701" y1="23.305" x2="480.766" y2="23.305" gradientUnits="userSpaceOnUse">
<stop stop-color="#2D67FF"/>
<stop offset="1" stop-color="#A238FF"/>
</linearGradient>
</defs>
</svg>
