<svg preserveAspectRatio="none" width="100%" height="100%" overflow="visible" style="display: block;" viewBox="0 0 458 43" fill="none" xmlns="http://www.w3.org/2000/svg">
<path id="Vector" d="M0.130365 26.7021C23.8889 35.0502 47.4422 29.87 66.4163 20.6624C71.3217 18.2818 75.421 15.8651 79.1346 13.8944C89.3385 8.50054 95.8708 3.14136 107.768 3.0283C120.422 2.9076 126.081 12.3475 138.693 18.7437C153.251 26.127 168.732 27.7654 184.599 25.896C202.811 23.7506 217.191 19.7246 238.456 11.1101C249.333 6.70398 257.922 -0.244372 268.562 0.440266C274.691 0.834263 279.315 4.34069 285.754 8.66008C295.751 15.367 305.411 24.4615 322.572 27.9874C337.798 31.1165 350.302 34.2372 362.371 32.9339C369.477 32.1667 376.545 29.2346 383.924 28.9627C385.364 28.9093 386.782 28.9495 388.195 29.1382C396.163 30.2016 403.468 34.5445 412.556 37.3233C424.647 41.0205 439.64 43.0182 457.857 42.2607" stroke="url(#paint0_linear_190_19603)" stroke-width="0.786503" stroke-miterlimit="10"/>
<defs>
<linearGradient id="paint0_linear_190_19603" x1="0.130365" y1="21.4065" x2="457.857" y2="21.4065" gradientUnits="userSpaceOnUse">
<stop stop-color="#2D67FF"/>
<stop offset="1" stop-color="#A238FF"/>
</linearGradient>
</defs>
</svg>
