<svg preserveAspectRatio="none" width="100%" height="100%" overflow="visible" style="display: block;" viewBox="0 0 481 34" fill="none" xmlns="http://www.w3.org/2000/svg">
<path id="Vector" d="M0.246511 28.751C22.6845 10.6986 40.9448 6.22524 54.3955 5.91864C77.1942 5.39909 86.9128 14.9681 107.171 16.9332C123.885 18.5543 131.424 16.6772 141.783 14.2397C154.517 11.2438 165.316 3.69271 181.235 1.09567C196.913 -1.46184 222.857 3.01016 248.442 13.7528C267.239 21.6452 278.941 32.2422 300.153 29.8928C321.765 27.499 334.434 15.9295 361.176 4.49595C374.601 -1.24335 390.441 -0.831305 408.971 9.64497C417.993 14.7454 427.123 24.132 436.211 28.7149C449.119 35.2242 466.912 32.7437 480.536 29.9906" stroke="url(#paint0_linear_233_19417)" stroke-width="0.786503" stroke-miterlimit="10"/>
<defs>
<linearGradient id="paint0_linear_233_19417" x1="0.246511" y1="16.6169" x2="480.536" y2="16.6169" gradientUnits="userSpaceOnUse">
<stop stop-color="#2D67FF"/>
<stop offset="1" stop-color="#A238FF"/>
</linearGradient>
</defs>
</svg>
