<svg preserveAspectRatio="none" width="100%" height="100%" overflow="visible" style="display: block;" viewBox="0 0 481 43" fill="none" xmlns="http://www.w3.org/2000/svg">
<path id="Vector" d="M0.148876 19.7109C19.6754 27.6976 44.003 25.6326 65.3133 17.1436C82.0756 10.4637 90.1768 2.84602 107.57 2.46937C120.399 2.19121 128.588 7.87364 138.171 11.7359C148.791 16.0165 156.53 19.0588 168.189 18.4602C184.836 17.6056 201.964 14.3427 231.465 7.08634C233.307 6.63338 235.12 6.12008 236.902 5.56794C246.842 2.46036 255.874 -1.70643 266.569 1.61341C273.735 3.83796 278.382 10.4714 284.796 16.9987C293.4 25.7533 303.404 34.2152 324.696 34.3782C331.339 34.4288 337.525 34.4053 343.375 34.1819C354.656 33.7511 364.394 32.9791 373.056 30.33C381.44 27.7663 389.495 22.9648 397.425 22.31C407.808 21.4519 416.516 28.9934 428.639 34.5828C429.598 35.0247 430.592 35.4631 431.629 35.889C442.801 40.5164 459.036 43.3076 480.658 42.392" stroke="url(#paint0_linear_233_19511)" stroke-width="0.786503" stroke-miterlimit="10"/>
<defs>
<linearGradient id="paint0_linear_233_19511" x1="0.148876" y1="21.4787" x2="480.658" y2="21.4787" gradientUnits="userSpaceOnUse">
<stop stop-color="#2D67FF"/>
<stop offset="1" stop-color="#A238FF"/>
</linearGradient>
</defs>
</svg>
