<svg preserveAspectRatio="none" width="100%" height="100%" overflow="visible" style="display: block;" viewBox="0 0 481 30" fill="none" xmlns="http://www.w3.org/2000/svg">
<path id="Vector" d="M480.342 18.1776C462.393 10.6091 441.995 13.1146 423.381 13.1098C420.344 13.1091 417.346 13.0619 414.376 13.0536C386.842 12.9433 367.1 15.8698 341.521 16.0009C332.783 16.046 320.698 15.3322 306.268 13.8208C283.099 11.3937 267.13 -2.78605 243.713 1.0464C238.008 1.98006 232.646 3.51442 227.716 5.62106C206.243 14.7953 188.421 26.815 173.698 28.486C157.349 30.3416 144.771 27.0543 133.386 21.967C123.399 17.5048 116.271 13.4039 106.206 9.33489C102.285 7.74989 97.9399 6.02129 92.3624 4.72554C81.749 2.2589 64.2324 -0.268775 42.5834 3.00112C25.0158 5.65504 10.4972 12.5562 0.196548 18.5002" stroke="url(#paint0_linear_233_19523)" stroke-width="0.786503" stroke-miterlimit="10"/>
<defs>
<linearGradient id="paint0_linear_233_19523" x1="0.196548" y1="14.7015" x2="480.342" y2="14.7015" gradientUnits="userSpaceOnUse">
<stop stop-color="#2D67FF"/>
<stop offset="1" stop-color="#A238FF"/>
</linearGradient>
</defs>
</svg>
