<svg preserveAspectRatio="none" width="100%" height="100%" overflow="visible" style="display: block;" viewBox="0 0 458 36" fill="none" xmlns="http://www.w3.org/2000/svg">
<path id="Vector" d="M0.121157 22.2505C13.0328 18.0691 26.6004 13.3308 38.5502 8.29068C50.129 3.39902 58.2222 0.322654 67.881 0.478726C87.1683 0.791565 94.4985 13.1733 112.561 13.6769C131.707 14.211 139.285 6.18959 156.847 2.80386C169.362 0.391327 193.247 -1.69103 217.696 4.27441C219.379 4.68505 221.021 5.15951 222.65 5.64576C231.549 8.30385 238.885 11.5959 247.102 16.2289C254.043 20.1432 260.599 24.7067 269.768 26.3798C283.676 28.9179 293.359 25.8381 311.256 18.8405C316.133 16.9336 321.23 14.9102 326.763 12.8175C335.664 9.44907 344.956 8.42385 354.56 8.26223C362.201 8.1339 370.038 9.00306 378.368 12.2577C387.371 15.7752 396.189 24.5534 405.745 30.0049C406.693 30.5459 407.646 31.0544 408.61 31.517C421.893 37.8959 440.638 35.6734 457.417 31.8784" stroke="url(#paint0_linear_190_19667)" stroke-width="0.786503" stroke-miterlimit="10"/>
<defs>
<linearGradient id="paint0_linear_190_19667" x1="0.121157" y1="17.9687" x2="457.417" y2="17.9687" gradientUnits="userSpaceOnUse">
<stop stop-color="#2D67FF"/>
<stop offset="1" stop-color="#A238FF"/>
</linearGradient>
</defs>
</svg>
