<svg preserveAspectRatio="none" width="100%" height="100%" overflow="visible" style="display: block;" viewBox="0 0 458 32" fill="none" xmlns="http://www.w3.org/2000/svg">
<path id="Vector" d="M0.247694 30.1233C20.8605 13.4076 37.9567 8.62064 50.9554 7.81878C72.2937 6.50222 82.8621 13.9771 100.545 16.5117C119.813 19.2731 126.991 17.9871 138.785 16.0754C153.194 13.7391 165.204 4.66681 182.759 2.22098C199.43 -0.101378 221.121 7.94572 245.56 16.7205C264.254 23.4323 276.442 31.0868 295.672 27.7121C316.236 24.103 329.146 12.7056 354.122 3.12065C365.924 -1.40823 379.734 -0.799897 395.931 8.78573C403.833 13.4617 411.841 21.8341 419.88 26.2811C430.917 32.3874 445.905 31.0722 457.57 29.6842" stroke="url(#paint0_linear_190_19685)" stroke-width="0.786503" stroke-miterlimit="10"/>
<defs>
<linearGradient id="paint0_linear_190_19685" x1="0.247694" y1="15.6218" x2="457.57" y2="15.6218" gradientUnits="userSpaceOnUse">
<stop stop-color="#2D67FF"/>
<stop offset="1" stop-color="#A238FF"/>
</linearGradient>
</defs>
</svg>
