<svg preserveAspectRatio="none" width="100%" height="100%" overflow="visible" style="display: block;" viewBox="0 0 481 42" fill="none" xmlns="http://www.w3.org/2000/svg">
<path id="Vector" d="M0.109016 28.5624C26.4465 36.1614 50.5769 29.718 69.4434 20.5521C74.5581 18.0667 78.8367 15.5903 82.6766 13.6613C93.7267 8.13284 100.236 2.33457 112.45 2.42058C126.863 2.52186 132.238 13.8805 147.625 21.0931C164.767 29.1284 183.727 29.1131 202.183 26.6049C221.896 23.926 236.805 19.6101 256.558 11.599C267.684 7.08681 276.305 1.19697 286.717 0.441582C293.019 -0.0155371 298.189 2.82638 305.335 6.19755C316.968 11.6851 327.105 19.9118 343.638 24.0959C358.018 27.7355 370.325 32.5911 383.049 31.5742C390.087 31.0117 397.404 29.675 405.154 29.8103C406.601 29.8352 408.038 29.9185 409.475 30.1252C417.818 31.3231 425.539 35.0314 434.671 37.258C448.155 40.546 463.652 41.7148 480.932 40.8137" stroke="url(#paint0_linear_233_19313)" stroke-width="0.786503" stroke-miterlimit="10"/>
<defs>
<linearGradient id="paint0_linear_233_19313" x1="0.109016" y1="20.7503" x2="480.932" y2="20.7503" gradientUnits="userSpaceOnUse">
<stop stop-color="#2D67FF"/>
<stop offset="1" stop-color="#A238FF"/>
</linearGradient>
</defs>
</svg>
