<svg preserveAspectRatio="none" width="100%" height="100%" overflow="visible" style="display: block;" viewBox="0 0 481 40" fill="none" xmlns="http://www.w3.org/2000/svg">
<path id="Vector" d="M0.124784 18.3527C18.7989 24.6012 41.6871 22.154 61.7466 14.1582C77.8518 7.73358 86.0088 0.723482 102.368 0.464749C116.256 0.24486 124.385 6.89564 135.302 10.2932C147.285 14.0223 155.04 15.4262 167.676 14.5037C183.812 13.3251 202.047 10.2606 231.043 4.9645C232.871 4.63085 234.676 4.26599 236.446 3.85882C246.312 1.59195 255.159 -1.55309 265.543 1.98109C272.737 4.429 277.648 10.8058 284.568 16.6186C293.968 24.5138 304.063 31.2422 324.993 30.4383C331.421 30.1914 337.485 29.8813 343.331 29.4096C354.334 28.5224 364.096 27.7386 372.942 25.4572C381.294 23.3034 389.379 19.5722 397.403 19.1532C407.636 18.6191 416.448 26.6287 428.265 32.2078C429.229 32.6629 430.225 33.111 431.257 33.5438C442.842 38.4022 459.556 40.4963 480.606 39.1693" stroke="url(#paint0_linear_233_19331)" stroke-width="0.786503" stroke-miterlimit="10"/>
<defs>
<linearGradient id="paint0_linear_233_19331" x1="0.124784" y1="19.9763" x2="480.606" y2="19.9763" gradientUnits="userSpaceOnUse">
<stop stop-color="#2D67FF"/>
<stop offset="1" stop-color="#A238FF"/>
</linearGradient>
</defs>
</svg>
