<svg preserveAspectRatio="none" width="100%" height="100%" overflow="visible" style="display: block;" viewBox="0 0 481 39" fill="none" xmlns="http://www.w3.org/2000/svg">
<path id="Vector" d="M480.712 30.0637C459.656 9.78674 439.235 1.58012 425.424 0.593045C422.247 0.366219 419.189 0.333618 416.226 0.489691C389.197 1.90475 370.45 18.4616 342.343 27.3355C331.798 30.6651 319.714 32.8903 305.251 32.7634C279.859 32.5886 271.623 8.52292 245.265 10.0455C239.089 10.4076 233.29 11.3829 227.757 12.7216C205.542 18.1613 187.38 28.8019 166.296 28.3635C151.221 28.05 142.728 26.1383 128.046 22.824C120.25 21.0642 111.086 19.0332 98.4155 16.7615C94.3399 16.031 89.5475 15.4539 84.0595 15.284C71.8721 14.9066 56.1008 16.3487 37.8289 21.7925C25.7627 25.3871 13.0847 30.8087 0.194007 38.1198" stroke="url(#paint0_linear_233_19478)" stroke-width="0.786503" stroke-miterlimit="10"/>
<defs>
<linearGradient id="paint0_linear_233_19478" x1="0.194007" y1="19.2565" x2="480.712" y2="19.2565" gradientUnits="userSpaceOnUse">
<stop stop-color="#2D67FF"/>
<stop offset="1" stop-color="#A238FF"/>
</linearGradient>
</defs>
</svg>
