<svg preserveAspectRatio="none" width="100%" height="100%" overflow="visible" style="display: block;" viewBox="0 0 481 37" fill="none" xmlns="http://www.w3.org/2000/svg">
<path id="Vector" d="M0.216338 36.0247C19.5023 23.3197 36.5552 17.6859 50.8044 15.3045C72.0715 11.7509 86.592 15.4981 100.819 17.0338C132.384 20.4404 139.162 23.6686 157.636 23.3676C179.969 22.9687 198.019 9.29333 224.03 7.38231C247.022 5.69326 260.634 24.1299 286.251 27.4095C308.622 30.2736 324.402 29.0715 341.656 22.9549C363.116 15.3469 378.765 4.26987 404.15 0.78009C413.116 -0.452536 423.955 1.08113 436.412 7.9941C442.546 11.3979 448.831 16.6905 455.307 20.7664C463.002 25.6095 472.546 27.8438 480.684 30.5525" stroke="url(#paint0_linear_233_19509)" stroke-width="0.786503" stroke-miterlimit="10"/>
<defs>
<linearGradient id="paint0_linear_233_19509" x1="0.216338" y1="18.209" x2="480.684" y2="18.209" gradientUnits="userSpaceOnUse">
<stop stop-color="#2D67FF"/>
<stop offset="1" stop-color="#A238FF"/>
</linearGradient>
</defs>
</svg>
