<svg preserveAspectRatio="none" width="100%" height="100%" overflow="visible" style="display: block;" viewBox="0 0 458 41" fill="none" xmlns="http://www.w3.org/2000/svg">
<path id="Vector" d="M0.262563 29.6509C22.876 9.36978 40.7343 5.45062 53.2301 5.93826C75.534 6.80949 82.6864 21.7987 104.573 20.8213C127.599 19.7933 135.443 7.45182 155.591 2.40617C167.587 -0.598051 197.51 -2.1345 221.556 11.9918C238.246 21.7973 247.552 37.218 269.324 36.713C289.965 36.2343 300.368 24.4519 326.841 9.97325C341.138 2.15298 358.457 2.30073 378.508 14.2614C388.243 20.0687 398.082 31.1381 407.754 35.9555C422.141 43.121 442.324 38.7142 457.472 33.6852" stroke="url(#paint0_linear_190_19613)" stroke-width="0.786503" stroke-miterlimit="10"/>
<defs>
<linearGradient id="paint0_linear_190_19613" x1="0.262563" y1="20.0527" x2="457.472" y2="20.0527" gradientUnits="userSpaceOnUse">
<stop stop-color="#2D67FF"/>
<stop offset="1" stop-color="#A238FF"/>
</linearGradient>
</defs>
</svg>
