<svg preserveAspectRatio="none" width="100%" height="100%" overflow="visible" style="display: block;" viewBox="0 0 458 41" fill="none" xmlns="http://www.w3.org/2000/svg">
<path id="Vector" d="M0.0939447 31.2676C26.9249 37.8684 49.1078 29.7172 65.7441 20.629C70.5598 17.9986 74.6059 15.4474 78.184 13.5752C89.128 7.8678 94.8771 1.77195 106.149 1.83577C121.297 1.9204 125.687 16.1577 143.058 24.4503C161.725 33.3624 183.225 31.1781 203.056 27.7743C222.579 24.424 236.476 19.6253 252.045 12.4751C262.238 7.79428 269.851 1.94952 278.901 0.667648C284.796 -0.167513 290.1 0.973557 297.34 3.13776C309.934 6.90292 319.506 14.0365 333.344 19.1314C344.998 23.4223 355.486 28.2328 367.83 29.9857C374.087 30.8743 380.822 30.456 388.2 31.1656C389.493 31.2898 390.796 31.4368 392.104 31.6657C400.013 33.0496 407.453 35.8429 415.597 37.396C429.472 40.0416 443.869 40.2019 457.969 39.11" stroke="url(#paint0_linear_190_19582)" stroke-width="0.786503" stroke-miterlimit="10"/>
<defs>
<linearGradient id="paint0_linear_190_19582" x1="0.0939447" y1="20.0692" x2="457.969" y2="20.0692" gradientUnits="userSpaceOnUse">
<stop stop-color="#2D67FF"/>
<stop offset="1" stop-color="#A238FF"/>
</linearGradient>
</defs>
</svg>
