<svg preserveAspectRatio="none" width="100%" height="100%" overflow="visible" style="display: block;" viewBox="0 0 481 35" fill="none" xmlns="http://www.w3.org/2000/svg">
<path id="Vector" d="M0.222522 34.5962C20.0338 20.9998 37.284 15.5422 51.4043 13.5243C72.9195 10.4494 86.6338 15.3757 101.879 16.8012C131.026 19.5258 137.872 22.2845 154.994 21.6304C175.726 20.7945 192.57 8.15613 216.897 6.11817C238.67 4.29455 254.305 20.4734 279.95 24.9169C301.699 28.6856 316.855 29.4389 334.739 23.8945C356.261 17.2215 371.493 6.15978 396.988 1.18281C406.751 -0.723359 418.369 0.545339 431.839 8.05277C438.455 11.7389 445.206 17.7223 452.126 21.8746C460.678 27.0062 471.608 28.4442 480.66 30.2421" stroke="url(#paint0_linear_233_19664)" stroke-width="0.786503" stroke-miterlimit="10"/>
<defs>
<linearGradient id="paint0_linear_233_19664" x1="0.222522" y1="17.4947" x2="480.66" y2="17.4947" gradientUnits="userSpaceOnUse">
<stop stop-color="#2D67FF"/>
<stop offset="1" stop-color="#A238FF"/>
</linearGradient>
</defs>
</svg>
