<svg preserveAspectRatio="none" width="100%" height="100%" overflow="visible" style="display: block;" viewBox="0 0 458 32" fill="none" xmlns="http://www.w3.org/2000/svg">
<path id="Vector" d="M0.243164 31.3464C20.3558 15.5221 37.2587 10.5347 50.3856 9.39431C71.4776 7.56168 82.5663 15.4881 99.5378 16.5397C121.458 17.8985 128.218 19.1672 141.3 17.6079C157.232 15.7087 170.393 5.61529 189.55 3.27975C207.381 1.10583 227.105 11.51 251.56 19.0077C270.812 24.91 283.669 30.5917 302.259 26.5665C322.815 22.1153 336.23 10.8385 360.942 2.51187C372.058 -1.23318 385.052 -0.470842 400.285 8.52101C407.729 12.9139 415.283 20.6079 422.91 24.9669C433.116 30.7998 446.799 30.2657 457.594 29.7885" stroke="url(#paint0_linear_190_19826)" stroke-width="0.786503" stroke-miterlimit="10"/>
<defs>
<linearGradient id="paint0_linear_190_19826" x1="0.243164" y1="15.8699" x2="457.594" y2="15.8699" gradientUnits="userSpaceOnUse">
<stop stop-color="#2D67FF"/>
<stop offset="1" stop-color="#A238FF"/>
</linearGradient>
</defs>
</svg>
