<svg preserveAspectRatio="none" width="100%" height="100%" overflow="visible" style="display: block;" viewBox="0 0 458 33" fill="none" xmlns="http://www.w3.org/2000/svg">
<path id="Vector" d="M0.240746 31.9704C20.1033 16.5921 36.9091 11.5069 50.1011 10.1945C71.0702 8.10801 82.5574 15.4247 99.0343 16.5665C122.126 18.166 128.832 19.7691 142.559 18.3866C159.252 16.7052 172.988 6.10058 192.946 3.82192C211.358 1.72015 230.107 13.2938 254.56 20.1637C274.097 25.6526 287.281 30.3473 305.552 26.0064C326.102 21.1245 339.753 9.90527 364.352 2.22027C375.116 -1.14188 387.712 -0.292839 402.463 8.40144C409.678 12.6535 417.005 20.0063 424.426 24.3229C434.217 30.0178 447.248 29.8763 457.607 29.8534" stroke="url(#paint0_linear_190_19729)" stroke-width="0.786503" stroke-miterlimit="10"/>
<defs>
<linearGradient id="paint0_linear_190_19729" x1="0.240746" y1="16.1819" x2="457.607" y2="16.1819" gradientUnits="userSpaceOnUse">
<stop stop-color="#2D67FF"/>
<stop offset="1" stop-color="#A238FF"/>
</linearGradient>
</defs>
</svg>
