<svg preserveAspectRatio="none" width="100%" height="100%" overflow="visible" style="display: block;" viewBox="0 0 458 40" fill="none" xmlns="http://www.w3.org/2000/svg">
<path id="Vector" d="M0.242545 28.3923C11.1252 19.8652 21.2676 14.1716 30.2384 10.3642C40.2526 6.11135 48.4787 4.75597 55.6761 5.0036C77.4807 5.75275 84.6588 20.3424 105.908 19.6064C128.288 18.8462 136.074 7.19347 155.804 2.44817C167.217 -0.295932 193.578 -1.91284 216.868 8.50656C218.518 9.24461 220.142 10.0472 221.743 10.9101C230.457 15.5957 237.248 21.6562 244.838 26.6852C251.755 31.2668 259.167 34.8939 269.403 34.9667C285.392 35.0805 295.258 28.2959 312.14 18.5278C316.546 15.9793 321.367 13.2532 326.833 10.4231C335.16 6.11275 344.391 4.35017 354.465 5.61678C361.996 6.56362 369.989 9.12529 378.489 13.9032C387.292 18.851 396.144 28.241 405.029 33.6058C405.985 34.1857 406.943 34.7184 407.901 35.1922C422.1 42.2307 442.047 38.1839 457.467 33.3602" stroke="url(#paint0_linear_190_19675)" stroke-width="0.786503" stroke-miterlimit="10"/>
<defs>
<linearGradient id="paint0_linear_190_19675" x1="0.242545" y1="19.6869" x2="457.467" y2="19.6869" gradientUnits="userSpaceOnUse">
<stop stop-color="#2D67FF"/>
<stop offset="1" stop-color="#A238FF"/>
</linearGradient>
</defs>
</svg>
