<svg preserveAspectRatio="none" width="100%" height="100%" overflow="visible" style="display: block;" viewBox="0 0 458 38" fill="none" xmlns="http://www.w3.org/2000/svg">
<path id="Vector" d="M457.174 19.6449C441.563 18.431 422.161 26.1597 402.144 26.7784C399.32 26.8658 396.493 26.8367 393.662 26.7465C367.206 25.8739 348.119 22.3522 324.786 17.7449C317.391 16.2848 305.817 14.02 292.098 11.7608C271.09 8.30152 252.219 -0.982372 231.316 3.95854C226.11 5.18908 221.227 7.01894 216.804 9.48281C196.778 20.6354 179.91 33.7247 168.918 35.9589C152.719 39.2524 139.068 34.5342 129.554 28.9502C119.183 22.8634 113.267 17.8351 104.843 13.0329C101.212 10.9631 97.2459 8.78014 91.9072 6.85732C82.5233 3.47714 64.9847 -1.33336 42.8237 1.01675C23.4347 3.07274 8.77983 10.841 0.205656 16.1017" stroke="url(#paint0_linear_190_19769)" stroke-width="0.786503" stroke-miterlimit="10"/>
<defs>
<linearGradient id="paint0_linear_190_19769" x1="0.205656" y1="18.7201" x2="457.174" y2="18.7201" gradientUnits="userSpaceOnUse">
<stop stop-color="#2D67FF"/>
<stop offset="1" stop-color="#A238FF"/>
</linearGradient>
</defs>
</svg>
