<svg preserveAspectRatio="none" width="100%" height="100%" overflow="visible" style="display: block;" viewBox="0 0 458 39" fill="none" xmlns="http://www.w3.org/2000/svg">
<path id="Vector" d="M0.0664928 19.5867C16.2237 22.3586 35.2738 19.1476 51.9888 12.1369C66.0703 6.22345 73.9501 0.10611 87.5497 0.403688C102.787 0.737336 110.398 8.90581 123.347 11.3558C137.337 14.0021 144.759 12.1757 158.658 10.538C173.049 8.84271 192.586 6.10068 219.161 4.66897C220.882 4.57602 222.576 4.50041 224.243 4.38943C233.473 3.77485 241.554 2.73368 250.862 6.66532C257.759 9.57936 262.996 15.4172 270.493 19.8073C281.027 25.976 290.717 29.2937 309.981 26.5073C315.682 25.6826 321.227 24.7995 326.789 23.8139C336.728 22.052 346.05 21.1828 354.851 19.661C362.713 18.3014 370.416 15.8562 378.312 16.7906C387.807 17.9136 396.352 25.8615 407.028 31.4094C407.956 31.8922 408.906 32.3604 409.882 32.8043C421.669 38.1614 438.519 38.8253 457.474 36.6756" stroke="url(#paint0_linear_190_19641)" stroke-width="0.786503" stroke-miterlimit="10"/>
<defs>
<linearGradient id="paint0_linear_190_19641" x1="0.0664928" y1="19.106" x2="457.474" y2="19.106" gradientUnits="userSpaceOnUse">
<stop stop-color="#2D67FF"/>
<stop offset="1" stop-color="#A238FF"/>
</linearGradient>
</defs>
</svg>
