<svg preserveAspectRatio="none" width="100%" height="100%" overflow="visible" style="display: block;" viewBox="0 0 458 38" fill="none" xmlns="http://www.w3.org/2000/svg">
<path id="Vector" d="M0.172816 24.6692C12.2729 18.7495 24.47 13.6289 35.2289 9.08203C46.1821 4.44633 54.3285 2.05392 63.0025 2.25091C83.2984 2.71081 90.5654 16.0269 109.904 16.011C130.342 16.0526 137.989 6.52592 156.434 2.62411C168.501 0.0714573 193.407 -1.825 217.369 5.93007C219.041 6.47112 220.673 7.07806 222.292 7.71484C231.112 11.1859 238.24 15.5809 246.2 20.3747C253.138 24.5526 260.037 28.7513 269.626 29.7779C284.377 31.3574 294.103 26.7758 311.613 18.6788C316.297 16.5132 321.283 14.2075 326.794 11.8234C335.457 8.07485 344.727 6.59113 354.526 7.16755C362.118 7.61427 370.011 9.01891 378.42 12.8791C387.332 16.971 396.179 25.9871 405.461 31.4087C406.413 31.965 407.367 32.4846 408.329 32.9507C421.966 39.6084 441.204 36.6417 457.44 32.4353" stroke="url(#paint0_linear_190_19609)" stroke-width="0.786503" stroke-miterlimit="10"/>
<defs>
<linearGradient id="paint0_linear_190_19609" x1="0.172816" y1="18.6305" x2="457.44" y2="18.6305" gradientUnits="userSpaceOnUse">
<stop stop-color="#2D67FF"/>
<stop offset="1" stop-color="#A238FF"/>
</linearGradient>
</defs>
</svg>
