<svg preserveAspectRatio="none" width="100%" height="100%" overflow="visible" style="display: block;" viewBox="0 0 458 42" fill="none" xmlns="http://www.w3.org/2000/svg">
<path id="Vector" d="M0.143329 19.0166C18.3287 26.1342 40.8057 23.8785 60.4997 15.6358C76.1458 9.0835 83.8854 1.76683 99.9538 1.45191C112.672 1.20219 120.441 7.36878 130.199 10.9994C140.961 15.0032 148.336 17.2249 159.901 16.4668C175.507 15.4436 192.339 12.2847 220.189 6.00991C221.936 5.61661 223.659 5.17823 225.35 4.69822C234.783 2.01793 243.29 -1.64596 253.324 1.78209C260.161 4.11762 264.709 10.6234 271.058 16.7935C279.625 25.118 289.199 32.7115 309.297 32.3931C315.519 32.2946 321.351 32.1274 326.919 31.7806C337.527 31.1195 346.811 30.3447 355.145 27.8788C363.112 25.5211 370.787 21.1157 378.389 20.7168C388.218 20.2014 396.544 27.7963 407.941 33.3802C408.856 33.8283 409.804 34.2708 410.789 34.7009C421.628 39.4358 437.307 41.8865 457.622 40.7655" stroke="url(#paint0_linear_190_19623)" stroke-width="0.786503" stroke-miterlimit="10"/>
<defs>
<linearGradient id="paint0_linear_190_19623" x1="0.143329" y1="20.7133" x2="457.622" y2="20.7133" gradientUnits="userSpaceOnUse">
<stop stop-color="#2D67FF"/>
<stop offset="1" stop-color="#A238FF"/>
</linearGradient>
</defs>
</svg>
