<svg preserveAspectRatio="none" width="100%" height="100%" overflow="visible" style="display: block;" viewBox="0 0 481 42" fill="none" xmlns="http://www.w3.org/2000/svg">
<path id="Vector" d="M480.088 20.8135C464.314 22.1411 443.938 31.9327 421.955 32.8276C419.017 32.9469 416.06 32.9281 413.085 32.8047C385.197 31.6268 364.965 25.6233 340.948 19.0231C333.549 16.99 321.38 14.0857 306.983 11.5171C285.354 7.65898 264.003 0.327042 242.628 5.70357C237.257 7.05481 232.225 9.00398 227.688 11.608C206.85 23.5666 189.189 37.1414 178.882 39.529C161.656 43.5196 146.609 38.0799 137.125 32.3247C125.941 25.5386 120.049 20.1697 111.66 15.0936C107.902 12.8198 103.785 10.4766 98.1753 8.29159C88.604 4.56388 69.8395 -1.19692 45.9122 0.804277C24.4287 2.60084 8.68718 10.736 0.199222 15.7234" stroke="url(#paint0_linear_233_19660)" stroke-width="0.786503" stroke-miterlimit="10"/>
<defs>
<linearGradient id="paint0_linear_233_19660" x1="0.199222" y1="20.646" x2="480.088" y2="20.646" gradientUnits="userSpaceOnUse">
<stop stop-color="#2D67FF"/>
<stop offset="1" stop-color="#A238FF"/>
</linearGradient>
</defs>
</svg>
