<svg preserveAspectRatio="none" width="100%" height="100%" overflow="visible" style="display: block;" viewBox="0 0 458 34" fill="none" xmlns="http://www.w3.org/2000/svg">
<path id="Vector" d="M0.25382 28.751C21.6169 10.6986 39.0025 6.22523 51.8088 5.91864C73.5154 5.39909 82.7684 14.9681 102.057 16.9332C117.969 18.5543 125.147 16.6772 135.01 14.2397C147.134 11.2438 157.416 3.69271 172.572 1.09567C187.499 -1.46184 212.2 3.01015 236.559 13.7528C254.456 21.6452 265.597 32.2422 285.793 29.8928C306.37 27.499 318.432 15.9295 343.893 4.49595C356.675 -1.24335 371.757 -0.831307 389.399 9.64497C397.989 14.7454 406.681 24.132 415.334 28.7149C427.624 35.2242 444.564 32.7437 457.535 29.9906" stroke="url(#paint0_linear_190_19737)" stroke-width="0.786503" stroke-miterlimit="10"/>
<defs>
<linearGradient id="paint0_linear_190_19737" x1="0.25382" y1="16.6169" x2="457.535" y2="16.6169" gradientUnits="userSpaceOnUse">
<stop stop-color="#2D67FF"/>
<stop offset="1" stop-color="#A238FF"/>
</linearGradient>
</defs>
</svg>
