<svg preserveAspectRatio="none" width="100%" height="100%" overflow="visible" style="display: block;" viewBox="0 0 458 35" fill="none" xmlns="http://www.w3.org/2000/svg">
<path id="Vector" d="M0.232834 33.9151C19.3452 19.8734 35.8633 14.5059 49.2449 12.667C69.8495 9.83555 82.5184 15.3543 97.5205 16.7173C124.112 19.134 130.671 21.6242 146.33 20.7946C165.306 19.7403 180.769 7.61864 203.13 5.51964C223.281 3.62804 239.129 18.6665 263.557 23.7045C283.969 27.9136 298.096 29.6498 315.428 24.3982C335.94 18.183 350.242 7.09908 374.578 1.41804C384.248 -0.839113 395.687 0.311665 408.992 8.11598C415.52 11.9436 422.171 18.2711 428.968 22.4629C437.522 27.7374 448.586 28.7779 457.639 30.1215" stroke="url(#paint0_linear_190_19716)" stroke-width="0.786503" stroke-miterlimit="10"/>
<defs>
<linearGradient id="paint0_linear_190_19716" x1="0.232834" y1="17.1542" x2="457.639" y2="17.1542" gradientUnits="userSpaceOnUse">
<stop stop-color="#2D67FF"/>
<stop offset="1" stop-color="#A238FF"/>
</linearGradient>
</defs>
</svg>
