<svg preserveAspectRatio="none" width="100%" height="100%" overflow="visible" style="display: block;" viewBox="0 0 481 36" fill="none" xmlns="http://www.w3.org/2000/svg">
<path id="Vector" d="M480.196 19.0881C463.49 16.6035 443.108 23.2952 422.566 23.7814C419.585 23.8522 416.61 23.8189 413.638 23.7446C385.9 23.0246 365.925 20.764 341.193 17.1327C333.234 15.9646 321.09 14.0161 306.676 11.9095C284.392 8.65209 265.34 -1.60846 243.093 3.11325C237.578 4.28414 232.401 6.05435 227.7 8.44746C206.573 19.2005 188.833 32.0581 176.66 34.2015C159.768 37.1766 145.779 32.7851 135.522 27.2906C124.792 21.543 118.406 16.6922 109.322 12.0309C105.483 10.0609 101.288 7.96259 95.6841 6.1688C85.6807 2.96619 67.4358 -1.37678 44.486 1.1509C24.6814 3.33245 9.4633 10.921 0.197944 16.3184" stroke="url(#paint0_linear_233_19540)" stroke-width="0.786503" stroke-miterlimit="10"/>
<defs>
<linearGradient id="paint0_linear_233_19540" x1="0.197944" y1="17.7778" x2="480.196" y2="17.7778" gradientUnits="userSpaceOnUse">
<stop stop-color="#2D67FF"/>
<stop offset="1" stop-color="#A238FF"/>
</linearGradient>
</defs>
</svg>
