<svg preserveAspectRatio="none" width="100%" height="100%" overflow="visible" style="display: block;" viewBox="0 0 481 47" fill="none" xmlns="http://www.w3.org/2000/svg">
<path id="Vector" d="M0.169367 21.1573C20.5484 30.8823 46.3153 29.1995 68.8774 20.2173C86.2968 13.2815 94.3451 5.0811 112.77 4.56294C124.541 4.23206 132.78 8.94614 141.038 13.2683C150.285 18.1066 158.012 22.7998 168.699 22.5064C185.855 22.0354 201.908 18.5255 231.885 9.29713C233.741 8.72556 235.562 8.0666 237.356 7.36601C247.378 3.43784 256.582 -1.76043 267.592 1.33466C274.729 3.34141 279.13 10.2273 285.023 17.4677C292.852 27.0873 302.729 37.291 324.397 38.4078C331.252 38.7609 337.559 39.0244 343.419 39.0439C354.971 39.082 364.68 38.3037 373.169 35.2926C381.574 32.3112 389.613 26.7169 397.448 25.5557C407.939 24.0006 416.573 31.4587 429.013 37.0461C429.965 37.4755 430.96 37.9021 432 38.3231C442.778 42.6973 458.517 46.2079 480.711 45.7036" stroke="url(#paint0_linear_233_19323)" stroke-width="0.786503" stroke-miterlimit="10"/>
<defs>
<linearGradient id="paint0_linear_233_19323" x1="0.169367" y1="23.0726" x2="480.711" y2="23.0726" gradientUnits="userSpaceOnUse">
<stop stop-color="#2D67FF"/>
<stop offset="1" stop-color="#A238FF"/>
</linearGradient>
</defs>
</svg>
