<svg preserveAspectRatio="none" width="100%" height="100%" overflow="visible" style="display: block;" viewBox="0 0 481 38" fill="none" xmlns="http://www.w3.org/2000/svg">
<path id="Vector" d="M0.190233 25.9014C12.4729 19.1125 24.564 13.8012 35.2379 9.50057C46.4131 4.9925 54.9983 2.94484 63.5911 3.15918C85.4373 3.70508 93.0382 17.4561 114.019 17.2001C136.165 16.974 144.239 6.72942 164.068 2.5557C176.51 -0.0628498 203.189 -1.86567 228.113 6.77867C229.862 7.38492 231.575 8.05568 233.267 8.76945C242.502 12.6345 249.865 17.5948 258.094 22.4678C265.376 26.7795 272.803 30.7902 283.097 31.4971C299.027 32.591 309.281 27.2692 327.46 18.618C332.279 16.3241 337.458 13.8782 343.234 11.3457C352.212 7.4092 361.935 5.83599 372.326 6.63993C380.276 7.25521 388.601 9.04484 397.468 13.2102C406.787 17.5879 416.089 26.7254 425.695 32.1304C426.697 32.6943 427.7 33.2187 428.709 33.6869C443.228 40.4716 463.683 37.1448 480.45 32.7325" stroke="url(#paint0_linear_233_19662)" stroke-width="0.786503" stroke-miterlimit="10"/>
<defs>
<linearGradient id="paint0_linear_233_19662" x1="0.190233" y1="18.9741" x2="480.45" y2="18.9741" gradientUnits="userSpaceOnUse">
<stop stop-color="#2D67FF"/>
<stop offset="1" stop-color="#A238FF"/>
</linearGradient>
</defs>
</svg>
