<svg preserveAspectRatio="none" width="100%" height="100%" overflow="visible" style="display: block;" viewBox="0 0 12 11" fill="none" xmlns="http://www.w3.org/2000/svg">
<path id="Shape" fill-rule="evenodd" clip-rule="evenodd" d="M8.29289 0.292893C8.68342 -0.0976311 9.31658 -0.0976311 9.70711 0.292893C10.0976 0.683418 10.0976 1.31658 9.70711 1.70711L6.70711 4.70711C6.31658 5.09763 5.68342 5.09763 5.29289 4.70711C4.90237 4.31658 4.90237 3.68342 5.29289 3.29289L8.29289 0.292893ZM0.292893 3.29289C0.683418 2.90237 1.31658 2.90237 1.70711 3.29289L2.70711 4.29289C3.09763 4.68342 3.09763 5.31658 2.70711 5.70711C2.31658 6.09763 1.68342 6.09763 1.29289 5.70711L0.292893 4.70711C-0.0976311 4.31658 -0.0976311 3.68342 0.292893 3.29289ZM4 2C4.55228 2 5 1.55228 5 1C5 0.447715 4.55228 4.47035e-08 4 4.47035e-08C3.44772 4.47035e-08 3 0.447715 3 1C3 1.55228 3.44772 2 4 2ZM4 9C4 9.55229 3.55228 10 3 10C2.44772 10 2 9.55229 2 9C2 8.44771 2.44772 8 3 8C3.55228 8 4 8.44771 4 9ZM12 4.5C12 3.94772 11.5523 3.5 11 3.5C10.4477 3.5 10 3.94772 10 4.5V5C10 5.55228 9.55228 6 9 6C7.34315 6 6 7.34315 6 9V9.5C6 10.0523 6.44772 10.5 7 10.5C7.55228 10.5 8 10.0523 8 9.5V9C8 8.44772 8.44772 8 9 8C10.6569 8 12 6.65685 12 5V4.5Z" fill="var(--fill-0, #A461D8)"/>
</svg>
