<svg preserveAspectRatio="none" width="100%" height="100%" overflow="visible" style="display: block;" viewBox="0 0 481 26" fill="none" xmlns="http://www.w3.org/2000/svg">
<path id="Vector" d="M480.491 18.9978C461.3 6.3462 440.885 4.60722 424.2 4.16882C421.104 4.08767 418.085 4.03633 415.117 4.0939C387.785 4.59403 368.328 12.9005 341.851 16.6012C332.35 17.9289 320.303 18.4019 305.862 17.4641C281.802 15.9013 268.927 -2.2135 244.334 0.712335C238.441 1.41362 232.899 2.717 227.733 4.52744C205.946 12.1632 188.03 23.5059 170.738 24.5033C154.941 25.4141 143.881 22.9308 131.25 18.3763C122.115 15.0821 114.184 11.7831 103.089 8.37237C99.1039 7.14738 94.5789 5.84192 89.0409 5.01578C77.7945 3.33852 61.0168 2.51099 40.6811 6.58482C25.3389 9.65841 11.5313 15.9242 0.1954 22.4147" stroke="url(#paint0_linear_233_19680)" stroke-width="0.786503" stroke-miterlimit="10"/>
<defs>
<linearGradient id="paint0_linear_233_19680" x1="0.1954" y1="12.5416" x2="480.491" y2="12.5416" gradientUnits="userSpaceOnUse">
<stop stop-color="#2D67FF"/>
<stop offset="1" stop-color="#A238FF"/>
</linearGradient>
</defs>
</svg>
