<svg preserveAspectRatio="none" width="100%" height="100%" overflow="visible" style="display: block;" viewBox="0 0 481 44" fill="none" xmlns="http://www.w3.org/2000/svg">
<path id="Vector" d="M0.135853 25.5675C24.1681 34.4144 49.3038 30.0679 69.9474 20.8423C75.1237 18.529 79.4485 16.1546 83.3894 14.1555C93.8844 8.85111 100.981 3.71043 113.664 3.5384C126.205 3.36845 132.526 11.4343 144.348 17.2825C158.401 24.2343 172.869 26.9902 188.335 25.5287C207.08 23.7578 222.294 19.8865 246.363 10.8891C257.982 6.54539 267.317 -0.74561 278.958 0.543896C285.471 1.2653 290.161 5.4404 296.641 10.407C306.428 17.9082 316.538 27.5902 335.556 30.6867C352.624 33.4662 366.337 36.0486 378.953 33.9455C386.658 32.6608 394.194 29.0372 401.945 28.5024C403.5 28.3948 405.025 28.4087 406.542 28.5849C414.927 29.5609 422.584 34.3006 432.388 37.4713C444.584 41.4161 460.48 43.9917 480.848 43.3292" stroke="url(#paint0_linear_233_19369)" stroke-width="0.786503" stroke-miterlimit="10"/>
<defs>
<linearGradient id="paint0_linear_233_19369" x1="0.135853" y1="21.9131" x2="480.848" y2="21.9131" gradientUnits="userSpaceOnUse">
<stop stop-color="#2D67FF"/>
<stop offset="1" stop-color="#A238FF"/>
</linearGradient>
</defs>
</svg>
