<svg preserveAspectRatio="none" width="100%" height="100%" overflow="visible" style="display: block;" viewBox="0 0 481 42" fill="none" xmlns="http://www.w3.org/2000/svg">
<path id="Vector" d="M0.104007 29.1602C26.9023 36.5095 50.8278 29.6423 69.3431 20.4922C74.4443 17.9715 78.7152 15.4757 82.534 13.5612C93.6957 7.98773 100.087 2.08957 112.206 2.1957C126.992 2.32541 132.178 14.3707 148.279 21.8539C166.038 30.1077 185.901 29.5465 204.952 26.8191C224.861 23.9689 239.699 19.5419 258.597 11.7397C269.619 7.18933 278.047 0.889558 288.267 0.419259C294.565 0.129311 299.809 2.29143 307.072 5.35392C319.097 10.4231 329.219 18.3683 345.254 22.7765C359.097 26.5826 371.035 31.6837 383.867 31.0989C390.811 30.7826 398.044 29.7956 405.794 30.0709C407.218 30.1216 408.639 30.2201 410.06 30.4316C418.394 31.6754 426.136 35.1624 435.126 37.2142C448.878 40.353 464.285 41.2582 480.948 40.3093" stroke="url(#paint0_linear_233_19315)" stroke-width="0.786503" stroke-miterlimit="10"/>
<defs>
<linearGradient id="paint0_linear_233_19315" x1="0.104007" y1="20.5303" x2="480.948" y2="20.5303" gradientUnits="userSpaceOnUse">
<stop stop-color="#2D67FF"/>
<stop offset="1" stop-color="#A238FF"/>
</linearGradient>
</defs>
</svg>
