<svg preserveAspectRatio="none" width="100%" height="100%" overflow="visible" style="display: block;" viewBox="0 0 459 40" fill="none" xmlns="http://www.w3.org/2000/svg">
<path id="Vector" d="M0.089198 32.0637C27.3598 38.4148 49.3394 29.8322 65.6487 20.7675C70.4497 18.099 74.4903 15.5311 78.0492 13.6728C89.0994 7.92031 94.7358 1.7225 105.918 1.80851C121.422 1.92713 125.608 16.8733 143.682 25.4088C162.911 34.5699 185.3 31.8202 205.693 28.1862C225.407 24.6728 239.217 19.7381 253.986 12.8134C264.073 8.08333 271.549 2.38633 280.378 0.842947C286.236 -0.180889 291.648 0.616817 298.995 2.49177C311.972 5.80397 321.524 12.6795 334.881 18.0088C346.029 22.4573 356.237 27.4793 368.608 29.7067C374.751 30.8123 381.434 30.7638 388.81 31.6225C390.081 31.771 391.368 31.9347 392.662 32.1691C400.562 33.6008 408.027 36.1535 416.03 37.5484C430.168 40.0123 444.472 39.9415 457.983 38.8019" stroke="url(#paint0_linear_190_19580)" stroke-width="0.786503" stroke-miterlimit="10"/>
<defs>
<linearGradient id="paint0_linear_190_19580" x1="0.089198" y1="19.9785" x2="457.983" y2="19.9785" gradientUnits="userSpaceOnUse">
<stop stop-color="#2D67FF"/>
<stop offset="1" stop-color="#A238FF"/>
</linearGradient>
</defs>
</svg>
