<svg preserveAspectRatio="none" width="100%" height="100%" overflow="visible" style="display: block;" viewBox="0 0 481 41" fill="none" xmlns="http://www.w3.org/2000/svg">
<path id="Vector" d="M0.198038 40.2718C18.1707 29.7956 34.7599 23.7684 49.3025 20.4319C69.9865 15.7435 86.4342 16.5364 98.1665 18.292C135.609 23.896 142.385 27.8062 164.235 28.3868C190.573 29.0797 211.636 12.7871 241.856 11.2174C267.894 9.84466 276.4 33.8153 302 34.3154C325.89 34.7823 343.166 28.7655 358.943 21.2789C380.113 11.2333 397.012 -0.494279 422.049 0.446317C429.063 0.709906 437.913 3.09192 447.839 8.52047C452.77 11.2167 457.926 14.7599 463.257 18.6687C468.845 22.7647 474.887 27.0161 480.738 32.0007" stroke="url(#paint0_linear_233_19443)" stroke-width="0.786503" stroke-miterlimit="10"/>
<defs>
<linearGradient id="paint0_linear_233_19443" x1="0.198038" y1="20.3325" x2="480.738" y2="20.3325" gradientUnits="userSpaceOnUse">
<stop stop-color="#2D67FF"/>
<stop offset="1" stop-color="#A238FF"/>
</linearGradient>
</defs>
</svg>
