<svg preserveAspectRatio="none" width="100%" height="100%" overflow="visible" style="display: block;" viewBox="0 0 481 32" fill="none" xmlns="http://www.w3.org/2000/svg">
<path id="Vector" d="M0.242469 29.5218C22.1551 12.3607 40.2134 7.67647 53.7978 7.04178C76.3387 5.98811 86.9867 14.1087 106.113 16.5088C125.175 18.9005 132.714 17.4078 144.426 15.3199C158.76 12.7644 170.769 4.19987 188.368 1.70202C205.268 -0.696643 229.095 6.16291 254.744 15.5876C274.093 22.6969 286.534 31.3357 307.069 28.2954C328.672 25.0976 341.948 13.6405 368.338 3.43546C381.083 -1.49296 396.026 -0.953994 413.544 8.92852C422.085 13.746 430.734 22.4569 439.394 26.949C451.424 33.1905 467.851 31.4862 480.56 29.6432" stroke="url(#paint0_linear_233_19421)" stroke-width="0.786503" stroke-miterlimit="10"/>
<defs>
<linearGradient id="paint0_linear_233_19421" x1="0.242469" y1="15.8663" x2="480.56" y2="15.8663" gradientUnits="userSpaceOnUse">
<stop stop-color="#2D67FF"/>
<stop offset="1" stop-color="#A238FF"/>
</linearGradient>
</defs>
</svg>
