<svg preserveAspectRatio="none" width="100%" height="100%" overflow="visible" style="display: block;" viewBox="0 0 458 37" fill="none" xmlns="http://www.w3.org/2000/svg">
<path id="Vector" d="M0.0190464 20.8931C14.553 20.1884 30.8623 16.2137 45.1947 10.1886C58.0248 4.78643 66.021 0.0189317 77.6401 0.416396C94.8892 1.006 102.371 11.0085 117.879 12.4916C134.445 14.0759 141.926 9.09958 157.678 6.64612C171.116 4.55336 192.859 2.12349 218.354 4.44654C220.058 4.60192 221.724 4.80586 223.372 4.99246C232.434 6.01976 240.158 7.12614 248.907 11.4219C255.836 14.825 261.712 20.0642 270.055 23.0684C282.26 27.4634 291.939 27.4995 310.543 22.6487C315.826 21.2711 321.145 19.8173 326.7 18.2905C336.107 15.7053 345.428 14.6572 354.629 13.9364C362.382 13.3295 370.131 12.4298 378.264 14.499C387.491 16.8463 396.199 25.1771 406.31 30.682C407.249 31.1932 408.199 31.6822 409.17 32.1359C421.707 38 439.502 37.2245 457.369 34.2522" stroke="url(#paint0_linear_190_19647)" stroke-width="0.786503" stroke-miterlimit="10"/>
<defs>
<linearGradient id="paint0_linear_190_19647" x1="0.0190464" y1="18.4601" x2="457.369" y2="18.4601" gradientUnits="userSpaceOnUse">
<stop stop-color="#2D67FF"/>
<stop offset="1" stop-color="#A238FF"/>
</linearGradient>
</defs>
</svg>
