<svg preserveAspectRatio="none" width="100%" height="100%" overflow="visible" style="display: block;" viewBox="0 0 458 36" fill="none" xmlns="http://www.w3.org/2000/svg">
<path id="Vector" d="M457.666 27.6057C437.914 8.6002 418.47 1.47913 404.867 0.575292C401.854 0.375519 398.95 0.336679 396.128 0.476104C370.345 1.73925 352.36 16.9143 325.882 24.9323C316 27.9247 304.508 29.8476 290.741 29.5999C266.777 29.1685 258.202 6.13009 233.385 7.87602C227.551 8.29706 222.066 9.31674 216.86 10.7422C195.766 16.5169 178.534 27.2685 159.051 27.1069C144.597 26.9869 136.08 25.0412 122.438 21.4689C114.807 19.4705 106.274 17.2244 94.4588 14.7494C90.594 13.9399 86.0706 13.2345 80.8399 12.9584C69.383 12.3549 54.2234 13.4454 36.486 18.6436C24.4858 22.1605 12.2282 27.7139 0.201453 34.8877" stroke="url(#paint0_linear_190_19812)" stroke-width="0.786503" stroke-miterlimit="10"/>
<defs>
<linearGradient id="paint0_linear_190_19812" x1="0.201453" y1="17.6405" x2="457.666" y2="17.6405" gradientUnits="userSpaceOnUse">
<stop stop-color="#2D67FF"/>
<stop offset="1" stop-color="#A238FF"/>
</linearGradient>
</defs>
</svg>
