<svg preserveAspectRatio="none" width="100%" height="100%" overflow="visible" style="display: block;" viewBox="0 0 481 38" fill="none" xmlns="http://www.w3.org/2000/svg">
<path id="Vector" d="M0.209547 37.5774C18.9702 25.7638 35.8307 19.9606 50.205 17.2096C71.2286 13.1857 86.54 15.7599 99.7597 17.3913C133.711 21.581 140.453 25.1783 160.277 25.2296C184.212 25.2671 203.467 10.5519 231.161 8.77058C255.372 7.21332 266.954 27.8794 292.551 30.0263C315.539 31.9546 331.926 28.8117 348.571 22.1387C369.941 13.5714 386.022 2.36398 411.31 0.500817C419.477 -0.100582 429.538 1.73968 440.983 8.05888C446.636 11.1796 452.462 15.7772 458.487 19.7817C465.332 24.3307 473.482 27.3668 480.705 30.9863" stroke="url(#paint0_linear_233_19439)" stroke-width="0.786503" stroke-miterlimit="10"/>
<defs>
<linearGradient id="paint0_linear_233_19439" x1="0.209547" y1="18.9853" x2="480.705" y2="18.9853" gradientUnits="userSpaceOnUse">
<stop stop-color="#2D67FF"/>
<stop offset="1" stop-color="#A238FF"/>
</linearGradient>
</defs>
</svg>
