<svg preserveAspectRatio="none" width="100%" height="100%" overflow="visible" style="display: block;" viewBox="0 0 458 27" fill="none" xmlns="http://www.w3.org/2000/svg">
<path id="Vector" d="M457.456 18.7761C439.479 7.39533 420.046 6.72248 403.701 6.38745C400.768 6.3271 397.898 6.27646 395.072 6.31739C369.001 6.66491 350.397 13.6133 325.413 16.4343C316.545 17.436 305.07 17.6163 291.323 16.537C268.627 14.755 255.634 -2.37481 232.498 0.779939C226.932 1.5388 221.698 2.89975 216.836 4.7851C196.165 12.8017 179.133 24.2976 163.28 25.4831C148.111 26.6179 137.207 23.9619 125.488 19.2582C116.581 15.6831 109.225 12.1795 98.9095 8.59674C95.1299 7.28434 90.8657 5.8679 85.5829 4.92661C75.0273 3.04611 58.8784 1.80586 39.2017 5.67229C24.0668 8.64599 10.7494 15.0658 0.202937 21.4197" stroke="url(#paint0_linear_190_19739)" stroke-width="0.786503" stroke-miterlimit="10"/>
<defs>
<linearGradient id="paint0_linear_190_19739" x1="0.202937" y1="13.0686" x2="457.456" y2="13.0686" gradientUnits="userSpaceOnUse">
<stop stop-color="#2D67FF"/>
<stop offset="1" stop-color="#A238FF"/>
</linearGradient>
</defs>
</svg>
