<svg preserveAspectRatio="none" width="100%" height="100%" overflow="visible" style="display: block;" viewBox="0 0 390 190" fill="none" xmlns="http://www.w3.org/2000/svg">
<g id="Bg Element">
<path id="Ornament 2" d="M28.2441 24.1572C38.2325 24.1575 46.3301 32.2557 46.3301 42.2441C46.3298 52.2324 38.2324 60.3298 28.2441 60.3301C18.2557 60.3301 10.1575 52.2325 10.1572 42.2441C10.1572 32.2555 18.2555 24.1572 28.2441 24.1572Z" stroke="var(--stroke-0, #CDD2FF)" stroke-opacity="0.85" stroke-width="8.31539"/>
<path id="Ornament 20" d="M366.244 102.157C376.233 102.157 384.33 110.256 384.33 120.244C384.33 130.232 376.232 138.33 366.244 138.33C356.256 138.33 348.157 130.233 348.157 120.244C348.157 110.256 356.256 102.157 366.244 102.157Z" stroke="var(--stroke-0, #CDD2FF)" stroke-opacity="0.85" stroke-width="8.31539"/>
<path id="Ornament 5" d="M21.7988 123.118C28.8022 123.118 34.4802 128.796 34.4805 135.799C34.4805 142.802 28.8023 148.48 21.7988 148.48C14.7955 148.48 9.11816 142.802 9.11816 135.799C9.11838 128.796 14.7956 123.118 21.7988 123.118Z" stroke="var(--stroke-0, #CDD2FF)" stroke-opacity="0.85" stroke-width="6.23654"/>
<path id="Ornament 11" d="M298.799 99.1182C305.802 99.1182 311.48 104.796 311.48 111.799C311.48 118.802 305.802 124.48 298.799 124.48C291.796 124.48 286.118 118.802 286.118 111.799C286.118 104.796 291.796 99.1184 298.799 99.1182Z" stroke="var(--stroke-0, #CDD2FF)" stroke-opacity="0.85" stroke-width="6.23654"/>
<path id="Ornament 7" d="M105.799 106.118C112.802 106.118 118.48 111.796 118.48 118.799C118.48 125.802 112.802 131.48 105.799 131.48C98.7955 131.48 93.1182 125.802 93.1182 118.799C93.1184 111.796 98.7956 106.118 105.799 106.118Z" stroke="var(--stroke-0, #CDD2FF)" stroke-opacity="0.85" stroke-width="6.23654"/>
<circle id="Ornament 3" cx="81.4443" cy="23.3154" r="8.31539" fill="var(--fill-0, #CDD2FF)" fill-opacity="0.85"/>
<circle id="Ornament 8" cx="122.315" cy="63.3154" r="8.31539" fill="var(--fill-0, #CDD2FF)" fill-opacity="0.85"/>
<circle id="Ornament 10" cx="187.315" cy="23.3154" r="8.31539" fill="var(--fill-0, #CDD2FF)" fill-opacity="0.85"/>
<circle id="Ornament 18" cx="329.315" cy="72.3154" r="8.31539" fill="var(--fill-0, #CDD2FF)" fill-opacity="0.85"/>
<circle id="Ornament 17" cx="145.315" cy="156.315" r="8.31539" fill="var(--fill-0, #CDD2FF)" fill-opacity="0.85"/>
<circle id="Ornament 16" cx="238.315" cy="93.3154" r="8.31539" fill="var(--fill-0, #CDD2FF)" fill-opacity="0.85"/>
<circle id="Ornament 14" cx="329.315" cy="28.3154" r="8.31539" fill="var(--fill-0, #CDD2FF)" fill-opacity="0.85"/>
<circle id="Ornament 4" cx="55.4731" cy="80.4731" r="11.4337" stroke="var(--stroke-0, #CDD2FF)" stroke-opacity="0.85" stroke-width="2.07885"/>
<circle id="Ornament 6" cx="191.473" cy="140.473" r="11.4337" stroke="var(--stroke-0, #CDD2FF)" stroke-opacity="0.85" stroke-width="2.07885"/>
<circle id="Ornament 13" cx="85.4731" cy="177.473" r="11.4337" stroke="var(--stroke-0, #CDD2FF)" stroke-opacity="0.85" stroke-width="2.07885"/>
<circle id="Ornament 9" cx="259.473" cy="44.4731" r="11.4337" stroke="var(--stroke-0, #CDD2FF)" stroke-opacity="0.85" stroke-width="2.07885"/>
<circle id="Ornament 21" cx="366.473" cy="44.4731" r="11.4337" stroke="var(--stroke-0, #CDD2FF)" stroke-opacity="0.85" stroke-width="2.07885"/>
<circle id="Ornament 19" cx="341.473" cy="168.473" r="11.4337" stroke="var(--stroke-0, #CDD2FF)" stroke-opacity="0.85" stroke-width="2.07885"/>
<circle id="Ornament 15" cx="170.473" cy="93.4731" r="11.4337" stroke="var(--stroke-0, #CDD2FF)" stroke-opacity="0.85" stroke-width="2.07885"/>
<circle id="Ornament 12" cx="254.473" cy="164.473" r="11.4337" stroke="var(--stroke-0, #CDD2FF)" stroke-opacity="0.85" stroke-width="2.07885"/>
</g>
</svg>
