<svg preserveAspectRatio="none" width="100%" height="100%" overflow="visible" style="display: block;" viewBox="0 0 481 45" fill="none" xmlns="http://www.w3.org/2000/svg">
<path id="Vector" d="M0.147438 24.4784C23.2579 33.8247 48.7853 30.3037 70.1495 21.067C75.3479 18.8195 79.6929 16.4888 83.6742 14.462C93.9469 9.24708 101.279 4.32975 114.15 4.0946C125.944 3.87887 132.636 10.5699 143.038 15.8673C155.85 22.3918 168.531 26.2763 182.796 25.2074C201.16 23.8319 216.473 20.0785 242.285 10.7142C254.097 6.42876 263.761 -1.21672 275.855 0.694298C282.452 1.73617 286.993 6.58205 293.164 12.2C302.271 20.4905 312.309 30.7587 332.324 33.4328C350.466 35.8564 364.733 37.8874 377.315 35.0039C385.245 33.1865 392.903 28.8803 400.661 28.0888C402.26 27.9258 403.82 27.9147 405.368 28.0784C413.769 28.9684 421.43 34.0848 431.475 37.6668C443.186 41.8426 459.21 45.0126 480.815 44.4459" stroke="url(#paint0_linear_233_19548)" stroke-width="0.786503" stroke-miterlimit="10"/>
<defs>
<linearGradient id="paint0_linear_233_19548" x1="0.147438" y1="22.4524" x2="480.815" y2="22.4524" gradientUnits="userSpaceOnUse">
<stop stop-color="#2D67FF"/>
<stop offset="1" stop-color="#A238FF"/>
</linearGradient>
</defs>
</svg>
