<svg preserveAspectRatio="none" width="100%" height="100%" overflow="visible" style="display: block;" viewBox="0 0 52 52" fill="none" xmlns="http://www.w3.org/2000/svg">
<g id="Frame">
<path id="Vector" d="M47.125 16.25H40.5113C41.9419 18.7289 42.5145 21.6106 42.1403 24.4481C41.766 27.2856 40.4658 29.9203 38.4414 31.9434C36.7108 33.7086 34.4581 35.3803 31.9719 36.922C31.8163 37.0168 31.6333 37.0564 31.4525 37.0347C31.2716 37.013 31.1033 36.9311 30.9745 36.8022L23.8977 29.7253C23.7437 29.5713 23.5604 29.4499 23.3586 29.3681C23.1568 29.2863 22.9407 29.246 22.723 29.2494C22.5053 29.2528 22.2905 29.2999 22.0913 29.3879C21.8922 29.476 21.7128 29.6031 21.5638 29.7619C21.277 30.0836 21.1256 30.5037 21.1411 30.9344C21.1566 31.3651 21.3379 31.7732 21.647 32.0734L27.7164 38.1428C27.8071 38.2333 27.875 38.344 27.9148 38.4657C27.9545 38.5875 27.9649 38.7169 27.9451 38.8435C27.9253 38.97 27.8759 39.0901 27.8008 39.1939C27.7258 39.2977 27.6273 39.3823 27.5133 39.4408C19.4472 43.6292 10.7656 46.4222 9.50219 46.8163C8.89779 47.0978 8.22142 47.1867 7.56481 47.0708C6.9082 46.9549 6.30313 46.6398 5.83165 46.1684C5.36018 45.6969 5.04513 45.0918 4.92923 44.4352C4.81333 43.7786 4.90218 43.1022 5.18375 42.4978C5.73828 40.7286 11.0744 24.1617 18.3584 15.4111C18.4308 15.3245 18.5205 15.254 18.6216 15.2039C18.7228 15.1539 18.8333 15.1255 18.946 15.1205C19.0588 15.1156 19.1713 15.1341 19.2765 15.1751C19.3817 15.216 19.4772 15.2784 19.5569 15.3583L28.0983 23.9017C28.2563 24.0596 28.4451 24.1832 28.653 24.2649C28.8609 24.3465 29.0834 24.3844 29.3066 24.3762C29.5298 24.368 29.7489 24.3139 29.9503 24.2172C30.1516 24.1206 30.3309 23.9834 30.4769 23.8144C30.7439 23.4921 30.8796 23.0811 30.857 22.6632C30.8344 22.2453 30.6552 21.8513 30.355 21.5597L21.9538 13.1584C21.8681 13.0731 21.8025 12.9698 21.7619 12.8559C21.7212 12.7421 21.7065 12.6206 21.7188 12.5003C21.731 12.38 21.77 12.264 21.8328 12.1607C21.8955 12.0574 21.9806 11.9694 22.0817 11.9031C24.0971 10.5728 26.4433 9.83006 28.8571 9.75831C31.271 9.68655 33.6571 10.2886 35.748 11.4969V4.875C35.7475 4.65205 35.7928 4.43138 35.8813 4.22672C35.9697 4.02206 36.0993 3.83778 36.262 3.68536C36.4247 3.53294 36.6171 3.41563 36.8271 3.34073C37.0371 3.26584 37.2602 3.23495 37.4827 3.25C37.9014 3.28643 38.2908 3.48021 38.5723 3.7923C38.8539 4.10439 39.0067 4.5116 39 4.93188V10.7027L44.3503 5.35031C44.5013 5.19933 44.6805 5.07957 44.8778 4.99786C45.0751 4.91615 45.2865 4.8741 45.5 4.8741C45.7135 4.8741 45.9249 4.91615 46.1222 4.99786C46.3195 5.07957 46.4987 5.19933 46.6497 5.35031C46.8007 5.50129 46.9204 5.68053 47.0021 5.87779C47.0838 6.07506 47.1259 6.28648 47.1259 6.5C47.1259 6.71352 47.0838 6.92494 47.0021 7.12221C46.9204 7.31947 46.8007 7.49871 46.6497 7.64969L41.2973 13H47.0681C47.4884 12.9933 47.8956 13.1461 48.2077 13.4277C48.5198 13.7092 48.7136 14.0986 48.75 14.5173C48.7648 14.7396 48.7337 14.9626 48.6586 15.1723C48.5836 15.3821 48.4662 15.5742 48.3139 15.7366C48.1615 15.8991 47.9773 16.0285 47.7728 16.1169C47.5683 16.2052 47.3478 16.2505 47.125 16.25Z" fill="url(#paint0_linear_190_19866)"/>
</g>
<defs>
<linearGradient id="paint0_linear_190_19866" x1="41.4402" y1="4.46127" x2="8.29546" y2="47.9041" gradientUnits="userSpaceOnUse">
<stop stop-color="#A4BCFD"/>
<stop offset="1" stop-color="#444CE7"/>
</linearGradient>
</defs>
</svg>
