<svg preserveAspectRatio="none" width="100%" height="100%" overflow="visible" style="display: block;" viewBox="0 0 458 34" fill="none" xmlns="http://www.w3.org/2000/svg">
<path id="Vector" d="M0.235595 33.2542C19.598 18.7666 36.2114 13.492 49.5307 11.83C70.2562 9.24407 82.533 15.358 98.0252 16.6544C123.454 18.7818 130.057 20.9856 145.073 19.9791C163.287 18.7062 178.175 7.10067 199.735 4.94063C219.306 2.97967 236.118 16.8708 260.558 22.5109C280.675 27.1536 294.494 29.8748 312.136 24.9207C332.665 19.1564 346.757 8.03712 371.17 1.67144C381.209 -0.946415 393.028 0.096137 406.816 8.19734C413.572 12.1664 420.448 18.8366 427.454 23.0686C436.419 28.4847 448.139 29.1298 457.628 30.0177" stroke="url(#paint0_linear_190_19691)" stroke-width="0.786503" stroke-miterlimit="10"/>
<defs>
<linearGradient id="paint0_linear_190_19691" x1="0.235595" y1="16.8238" x2="457.628" y2="16.8238" gradientUnits="userSpaceOnUse">
<stop stop-color="#2D67FF"/>
<stop offset="1" stop-color="#A238FF"/>
</linearGradient>
</defs>
</svg>
