<svg preserveAspectRatio="none" width="100%" height="100%" overflow="visible" style="display: block;" viewBox="0 0 458 39" fill="none" xmlns="http://www.w3.org/2000/svg">
<path id="Vector" d="M0.101015 18.9333C17.0698 23.4434 37.4903 20.6147 55.3971 13.1107C70.1042 6.94205 77.9254 0.201799 92.5153 0.39741C106.748 0.588165 114.422 7.86115 126.092 10.7877C138.793 13.9722 146.194 13.7524 159.159 12.4844C174.035 11.0291 192.476 8.13305 219.577 4.77992C221.307 4.56627 223.014 4.34639 224.69 4.08696C234.004 2.64762 242.257 0.548631 251.851 4.28605C258.726 6.96425 263.672 13.0767 270.724 18.1758C280.453 25.2109 290.119 30.2218 309.711 28.4357C315.623 27.8967 321.282 27.3001 326.845 26.5746C337.053 25.2434 346.364 24.4284 354.972 22.5222C362.883 20.7701 370.572 17.5453 378.347 17.9351C387.98 18.4186 396.434 26.2069 407.397 31.7721C408.32 32.2411 409.269 32.6989 410.248 33.1373C421.658 38.2439 438.038 39.6236 457.536 37.886" stroke="url(#paint0_linear_190_19599)" stroke-width="0.786503" stroke-miterlimit="10"/>
<defs>
<linearGradient id="paint0_linear_190_19599" x1="0.101015" y1="19.4965" x2="457.536" y2="19.4965" gradientUnits="userSpaceOnUse">
<stop stop-color="#2D67FF"/>
<stop offset="1" stop-color="#A238FF"/>
</linearGradient>
</defs>
</svg>
