<svg preserveAspectRatio="none" width="100%" height="100%" overflow="visible" style="display: block;" viewBox="0 0 458 46" fill="none" xmlns="http://www.w3.org/2000/svg">
<path id="Vector" d="M457.036 22.04C442.61 25.9092 423.21 37.7478 401.369 38.9346C398.598 39.0852 395.794 39.0775 392.961 38.9215C366.312 37.4384 346.81 28.996 324.475 20.3606C317.763 17.765 306.18 14.2162 292.487 11.3334C272.305 7.08408 250.527 1.70062 230.726 7.50929C225.705 8.98261 221.007 11.0511 216.79 13.7931C197.147 26.5647 180.404 40.6501 171.739 43.159C155.2 47.9466 140.163 41.6781 131.588 35.7591C120.707 28.2468 115.38 22.5574 107.811 17.2142C104.296 14.733 100.404 12.2379 95.0703 9.78586C86.2177 5.71688 68.0397 -1.00881 44.6357 0.651804C23.1178 2.17854 7.796 10.6918 0.20749 15.4052" stroke="url(#paint0_linear_190_19767)" stroke-width="0.786503" stroke-miterlimit="10"/>
<defs>
<linearGradient id="paint0_linear_190_19767" x1="0.20749" y1="22.6241" x2="457.036" y2="22.6241" gradientUnits="userSpaceOnUse">
<stop stop-color="#2D67FF"/>
<stop offset="1" stop-color="#A238FF"/>
</linearGradient>
</defs>
</svg>
