<svg preserveAspectRatio="none" width="100%" height="100%" overflow="visible" style="display: block;" viewBox="0 0 481 48" fill="none" xmlns="http://www.w3.org/2000/svg">
<path id="Vector" d="M0.172018 22.406C21.4381 32.7505 47.7198 30.8367 70.556 21.6229C75.793 19.4975 80.1851 17.264 84.2482 15.1809C94.0764 10.145 101.882 5.70767 115.125 5.31229C125.424 5.0265 132.834 8.97063 140.421 13.1423C150.714 18.8448 159.855 25.0052 171.723 24.6701C189.323 24.1735 204.81 20.5235 234.133 10.4703C246.328 6.28965 256.696 -2.08624 269.654 1.10041C276.443 2.77004 280.724 8.96993 286.214 15.8912C294.05 25.7703 303.854 37.1677 325.862 39.0288C346.15 40.7088 361.438 41.6369 374.042 37.2239C382.367 34.3099 390.315 28.6545 398.098 27.365C399.78 27.0861 401.413 27.032 403.025 27.1694C411.458 27.8963 419.189 33.6987 429.654 38.1603C440.452 42.7641 456.676 47.1564 480.751 46.7811" stroke="url(#paint0_linear_233_19651)" stroke-width="0.786503" stroke-miterlimit="10"/>
<defs>
<linearGradient id="paint0_linear_233_19651" x1="0.172018" y1="23.5984" x2="480.751" y2="23.5984" gradientUnits="userSpaceOnUse">
<stop stop-color="#2D67FF"/>
<stop offset="1" stop-color="#A238FF"/>
</linearGradient>
</defs>
</svg>
