<svg preserveAspectRatio="none" width="100%" height="100%" overflow="visible" style="display: block;" viewBox="0 0 481 36" fill="none" xmlns="http://www.w3.org/2000/svg">
<path id="Vector" d="M0.250251 28.9477C23.2135 10.004 41.6759 5.64852 54.9929 5.76367C78.0446 5.96206 86.8222 17.1133 108.229 18.3258C122.587 19.1387 130.131 16.9121 139.14 14.1278C150.271 10.6879 159.858 4.14398 174.1 1.45676C188.554 -1.26931 216.655 0.801948 242.139 12.8854C260.41 21.5485 271.352 34.0898 293.234 32.4583C314.864 30.8456 326.874 19.1783 354.012 6.52391C368.09 -0.0408408 384.854 0.258125 404.396 11.3289C413.899 16.7116 423.51 26.7731 433.027 31.449C446.815 38.2226 465.972 34.97 480.51 31.3061" stroke="url(#paint0_linear_233_19407)" stroke-width="0.786503" stroke-miterlimit="10"/>
<defs>
<linearGradient id="paint0_linear_233_19407" x1="0.250251" y1="17.8919" x2="480.51" y2="17.8919" gradientUnits="userSpaceOnUse">
<stop stop-color="#2D67FF"/>
<stop offset="1" stop-color="#A238FF"/>
</linearGradient>
</defs>
</svg>
