<svg preserveAspectRatio="none" width="100%" height="100%" overflow="visible" style="display: block;" viewBox="0 0 536 381" fill="none" xmlns="http://www.w3.org/2000/svg">
<g id="Group">
<g id="Vector">
</g>
<g id="Group_2">
<path id="Vector_2" d="M1.01022 103.734C9.00069 99.0109 27.4631 89.0274 54.4247 87.8138C82.8237 86.5362 104.546 95.5315 114.446 100.55C133.338 110.127 136.728 118.132 156.061 132.253C165.32 139.015 184.304 147.535 203.588 140.698C211.788 137.79 231.123 121.455 253.664 106.088C289.754 81.4862 358.578 101.351 379.032 111.903C403.99 124.778 427.329 138.014 458.587 140.144C489.966 142.282 516.174 122.989 533.831 113.564" stroke="url(#paint0_linear_233_19194)" stroke-width="0.863256" stroke-miterlimit="10"/>
<path id="Vector_3" d="M533.858 115.222C517.718 122.259 495.082 137.481 468.544 139.122C465.341 139.32 462.084 139.326 458.779 139.119C427.578 137.156 404.457 125.24 379.111 113.5C371.64 110.04 358.147 105.454 342.202 101.921C319.119 96.86 292.052 93.0761 269.579 99.9069C263.831 101.662 258.466 104.065 253.656 107.221C231.016 122.161 211.573 138.178 202.753 141.038C183.422 147.306 164.954 139.374 155.455 132.7C142.545 123.631 136.622 117.059 128.259 110.904C124.243 107.948 119.716 105.053 113.51 102.063C103.471 97.2278 81.9127 88.7365 53.8835 90.2302C27.5375 91.5656 9.27494 101.368 0.996985 106.241" stroke="url(#paint1_linear_233_19194)" stroke-width="0.863256" stroke-miterlimit="10"/>
<path id="Vector_4" d="M533.884 116.869C517.399 122.51 494.765 136.62 468.756 138.09C465.538 138.272 462.274 138.271 458.969 138.081C427.823 136.286 404.899 125.693 379.187 115.085C371.54 111.93 358.037 107.681 342.074 104.342C318.765 99.4664 292.532 94.6509 269.737 101.236C263.936 102.926 258.507 105.256 253.645 108.341C230.851 122.808 211.373 138.556 201.915 141.366C182.584 147.108 164.594 139.721 154.847 133.136C142.037 124.481 135.973 118.07 127.378 112.06C123.318 109.221 118.788 106.402 112.572 103.563C102.391 98.9122 81.0075 90.9949 53.3396 92.6341C27.6166 94.1583 9.54635 103.712 0.980919 108.737" stroke="url(#paint2_linear_233_19194)" stroke-width="0.863256" stroke-miterlimit="10"/>
<path id="Vector_5" d="M533.908 118.515C517.077 122.762 494.445 135.756 468.965 137.059C465.733 137.224 462.462 137.216 459.156 137.044C428.067 135.417 405.315 126.15 379.26 116.672C371.429 113.823 357.916 109.928 341.942 106.764C318.397 102.1 292.99 96.1912 269.891 102.567C264.032 104.184 258.552 106.454 253.632 109.464C230.716 123.482 211.184 138.942 201.074 141.695C181.781 146.95 164.237 140.07 154.234 133.573C141.54 125.328 135.325 119.083 126.495 113.219C122.394 110.495 117.855 107.757 111.632 105.065C101.304 100.599 80.0972 93.2173 52.7937 95.04C27.6905 96.7157 9.81586 106.06 0.962963 111.233" stroke="url(#paint3_linear_233_19194)" stroke-width="0.863256" stroke-miterlimit="10"/>
<path id="Vector_6" d="M533.929 120.161C516.754 123.013 494.122 134.885 469.173 136.026C465.925 136.174 462.647 136.16 459.342 136.006C428.309 134.546 405.709 126.613 379.332 118.257C371.31 115.715 357.792 112.174 341.809 109.184C318.025 104.734 293.464 97.756 270.044 103.895C264.131 105.445 258.596 107.65 253.617 110.583C230.585 124.154 211.007 139.331 200.234 142.021C181.008 146.823 163.888 140.414 153.623 134.007C141.058 126.163 134.683 120.092 125.611 114.373C121.472 111.764 116.919 109.108 110.691 106.564C100.214 102.284 79.1869 95.4339 52.2478 97.4423C27.7645 99.2673 10.0854 108.403 0.945007 113.727" stroke="url(#paint4_linear_233_19194)" stroke-width="0.863256" stroke-miterlimit="10"/>
<path id="Vector_7" d="M533.957 121.809C516.436 123.266 493.804 134.013 469.387 134.995C466.123 135.126 462.839 135.106 459.534 134.97C428.558 133.678 406.086 127.088 379.41 119.844C371.191 117.612 357.675 114.425 341.683 111.605C317.659 107.371 293.944 99.3233 270.203 105.225C264.236 106.708 258.647 108.847 253.608 111.705C230.463 124.831 210.845 139.73 199.398 142.351C180.264 146.731 163.551 140.76 153.016 134.444C140.594 126.995 134.05 121.102 124.732 115.531C120.557 113.035 115.985 110.463 109.754 108.065C99.123 103.974 78.2807 97.6506 51.7038 99.8471C27.8414 101.819 10.3568 110.748 0.928941 116.222" stroke="url(#paint5_linear_233_19194)" stroke-width="0.863256" stroke-miterlimit="10"/>
<path id="Vector_8" d="M533.981 123.454C516.114 123.516 493.481 133.133 469.596 133.962C466.317 134.075 463.026 134.049 459.723 133.932C428.802 132.807 406.441 127.572 379.484 121.429C371.064 119.51 357.552 116.675 341.554 114.026C317.289 110.009 294.422 100.891 270.359 106.554C264.339 107.971 258.696 110.045 253.597 112.826C230.341 125.508 210.69 140.138 198.559 142.679C179.535 146.665 163.22 141.103 152.407 134.879C140.141 127.818 133.421 122.11 123.85 116.687C119.644 114.304 115.046 111.819 108.816 109.566C98.0287 105.664 77.3744 99.8655 51.1598 102.252C27.9193 104.367 10.6282 113.094 0.912875 118.717" stroke="url(#paint6_linear_233_19194)" stroke-width="0.863256" stroke-miterlimit="10"/>
<path id="Vector_9" d="M534.004 125.106C515.793 123.774 493.157 132.257 469.806 132.936C466.511 133.032 463.213 133 459.911 132.901C429.046 131.943 406.778 128.078 379.558 123.021C370.931 121.418 357.428 118.932 341.424 116.453C316.916 112.656 294.9 102.466 270.514 107.889C264.44 109.24 258.744 111.248 253.584 113.952C230.222 126.193 210.543 140.56 197.72 143.012C178.822 146.627 162.896 141.448 151.797 135.32C139.698 128.639 132.796 123.12 122.968 117.849C118.732 115.577 114.106 113.181 107.878 111.071C96.93 107.361 76.4692 102.081 50.6158 104.66C27.9963 106.917 10.8996 115.443 0.896809 121.217" stroke="url(#paint7_linear_233_19194)" stroke-width="0.863256" stroke-miterlimit="10"/>
<path id="Vector_10" d="M534.031 126.761C515.474 124.034 492.835 131.378 470.018 131.912C466.707 131.99 463.403 131.953 460.102 131.872C429.293 131.081 407.105 128.6 379.635 124.615C370.795 123.332 357.306 121.194 341.296 118.882C316.545 115.306 295.383 104.044 270.672 109.227C264.546 110.512 258.797 112.455 253.574 115.082C230.108 126.884 210.404 140.996 196.883 143.349C178.12 146.614 162.582 141.794 151.19 135.764C139.272 129.455 132.178 124.131 122.089 119.015C117.825 116.853 113.165 114.55 106.94 112.581C95.8292 109.066 75.564 104.299 50.0729 107.073C28.0753 109.468 11.1721 117.797 0.880743 123.721" stroke="url(#paint8_linear_233_19194)" stroke-width="0.863256" stroke-miterlimit="10"/>
<path id="Vector_11" d="M534.054 128.432C515.152 124.31 492.509 130.512 470.227 130.905C466.901 130.964 463.591 130.922 460.289 130.859C429.537 130.236 407.42 129.155 379.708 126.226C370.653 125.269 357.18 123.475 341.164 121.328C316.168 117.977 295.86 105.641 270.825 110.582C264.646 111.801 258.845 113.679 253.56 116.228C229.993 127.594 210.264 141.461 196.041 143.703C177.423 146.638 162.27 142.153 150.577 136.226C138.883 130.299 131.559 125.157 121.203 120.198C116.914 118.144 112.218 115.938 105.998 114.107C94.7215 110.789 74.655 106.531 49.5251 109.503C28.1495 112.032 11.4397 120.168 0.860897 126.242" stroke="url(#paint9_linear_233_19194)" stroke-width="0.863256" stroke-miterlimit="10"/>
<path id="Vector_12" d="M534.079 130.101C514.832 124.584 492.186 129.64 470.439 129.896C467.097 129.935 463.78 129.889 460.48 129.845C429.783 129.388 407.73 129.723 379.784 127.834C370.513 127.207 357.057 125.754 341.036 123.77C315.794 120.646 296.342 107.236 270.982 111.933C264.751 113.087 258.898 114.901 253.549 117.371C229.885 128.302 210.134 141.935 195.204 144.054C176.735 146.675 161.971 142.503 149.969 136.684C138.445 131.097 130.95 126.176 120.323 121.377C116.009 119.429 111.273 117.323 105.061 115.63C93.6165 112.512 73.7509 108.755 48.9811 111.93C28.2264 114.59 11.7111 122.536 0.844831 128.76" stroke="url(#paint10_linear_233_19194)" stroke-width="0.863256" stroke-miterlimit="10"/>
<path id="Vector_13" d="M534.102 132.029C514.51 125.118 491.859 129.022 470.648 129.145C467.29 129.165 463.966 129.117 460.667 129.089C430.027 128.801 408.036 130.566 379.858 129.701C370.37 129.41 356.93 128.294 340.906 126.473C315.418 123.578 296.824 109.092 271.139 113.544C264.855 114.633 258.95 116.382 253.538 118.774C229.779 129.273 210.007 142.68 194.367 144.663C176.051 146.985 161.681 143.105 149.36 137.4C138.048 132.162 130.344 127.448 119.443 122.814C115.108 120.971 110.328 118.968 104.124 117.411C92.509 114.496 72.8476 111.234 48.439 114.614C28.3052 117.402 11.9844 125.161 0.830655 131.535" stroke="url(#paint11_linear_233_19194)" stroke-width="0.863256" stroke-miterlimit="10"/>
<path id="Vector_14" d="M534.126 134.075C514.189 125.768 491.533 128.518 470.857 128.513C467.484 128.512 464.154 128.46 460.856 128.451C430.272 128.33 408.344 131.542 379.932 131.686C370.227 131.736 356.804 130.952 340.776 129.293C315.042 126.629 297.305 111.066 271.294 115.272C264.958 116.297 259.002 117.981 253.525 120.293C229.675 130.363 209.88 143.555 193.527 145.39C175.367 147.426 161.396 143.818 148.75 138.234C137.658 133.337 129.741 128.836 118.56 124.37C114.205 122.63 109.379 120.733 103.184 119.31C91.3957 116.603 71.9394 113.829 47.8932 117.418C28.3802 120.331 12.2539 127.905 0.812699 134.429" stroke="url(#paint12_linear_233_19194)" stroke-width="0.863256" stroke-miterlimit="10"/>
<path id="Vector_15" d="M534.156 136.124C513.873 126.422 491.213 128.013 471.073 127.883C467.683 127.861 464.348 127.808 461.049 127.816C430.521 127.862 408.661 132.534 380.011 133.675C370.09 134.07 356.682 133.617 340.651 132.117C314.669 129.687 297.791 113.045 271.454 117.005C265.066 117.966 259.059 119.586 253.518 121.818C229.577 131.461 209.758 144.451 192.692 146.122C174.688 147.884 161.124 144.528 148.144 139.074C137.279 134.509 129.144 130.223 117.681 125.93C113.307 124.292 108.433 122.506 102.249 121.214C90.286 118.717 71.0349 116.422 47.352 120.225C28.4589 123.259 12.5282 130.653 0.799468 137.327" stroke="url(#paint13_linear_233_19194)" stroke-width="0.863256" stroke-miterlimit="10"/>
<path id="Vector_16" d="M534.179 138.171C513.552 127.074 490.886 127.503 471.282 127.252C467.876 127.208 464.534 127.153 461.236 127.18C430.765 127.394 408.979 133.537 380.084 135.661C369.95 136.406 356.554 136.28 340.519 134.939C314.289 132.745 298.271 115.024 271.607 118.735C265.167 119.632 259.109 121.188 253.503 123.34C229.475 132.559 209.631 145.357 191.85 146.851C174.001 148.351 160.853 145.225 147.531 139.91C136.901 135.67 128.544 131.603 116.796 127.488C112.404 125.949 107.48 124.277 101.307 123.116C89.1686 120.833 70.1238 119.01 46.8042 123.031C28.5299 126.181 12.7958 133.399 0.779621 140.223" stroke="url(#paint14_linear_233_19194)" stroke-width="0.863256" stroke-miterlimit="10"/>
<path id="Vector_17" d="M534.203 140.221C513.231 127.73 490.561 126.992 471.492 126.624C468.07 126.558 464.722 126.502 461.425 126.547C431.01 126.928 409.306 134.555 380.159 137.651C369.814 138.751 356.427 138.949 340.389 137.764C313.912 135.808 298.754 117.006 271.763 120.469C265.27 121.302 259.164 122.796 253.491 124.865C229.377 133.664 209.507 146.282 191.012 147.583C173.316 148.829 160.595 145.913 146.923 140.751C136.532 136.827 127.951 132.981 115.916 129.049C111.507 127.608 106.532 126.054 100.369 125.02C88.055 122.956 69.2154 121.595 46.2602 125.839C28.6036 129.103 13.0672 136.149 0.763555 143.123" stroke="url(#paint15_linear_233_19194)" stroke-width="0.863256" stroke-miterlimit="10"/>
<path id="Vector_18" d="M534.231 142.28C512.915 128.394 490.239 126.485 471.707 126.004C468.269 125.915 464.915 125.859 461.618 125.922C431.259 126.471 409.647 135.588 380.239 139.65C369.687 141.107 356.306 141.626 340.265 140.597C313.541 138.882 299.241 118.999 271.924 122.21C265.379 122.98 259.223 124.411 253.484 126.398C229.285 134.779 209.385 147.228 190.178 148.323C172.633 149.323 160.347 146.597 146.318 141.598C136.172 137.982 127.362 134.361 115.039 130.618C110.612 129.273 105.586 127.841 99.4348 126.934C86.9431 125.093 68.3075 124.185 45.72 128.656C28.6789 132.029 13.3424 138.907 0.75127 146.031" stroke="url(#paint16_linear_233_19194)" stroke-width="0.863256" stroke-miterlimit="10"/>
<path id="Vector_19" d="M534.253 144.336C512.591 129.055 489.913 125.972 471.913 125.381C468.46 125.268 465.099 125.213 461.804 125.294C431.5 126.01 409.992 136.626 380.31 141.644C369.555 143.463 356.176 144.302 340.132 143.427C313.159 141.955 299.72 120.989 272.076 123.949C265.478 124.656 259.274 126.024 253.469 127.929C229.186 135.895 209.254 148.189 189.335 149.061C171.936 149.823 160.097 147.265 145.705 142.444C135.805 139.128 126.768 135.735 114.153 132.185C109.711 130.935 104.633 129.627 98.4927 128.844C85.8246 127.23 67.3889 126.765 45.1723 131.47C28.7457 134.948 13.61 141.661 0.731423 148.936" stroke="url(#paint17_linear_233_19194)" stroke-width="0.863256" stroke-miterlimit="10"/>
<path id="Vector_20" d="M534.278 145.823C512.271 129.147 489.589 124.886 472.124 124.19C468.655 124.051 465.287 123.998 461.993 124.097C431.746 124.981 410.352 137.101 380.384 143.07C369.429 145.252 356.05 146.41 340.002 145.688C312.783 144.462 300.203 122.412 272.233 125.119C265.583 125.762 259.33 127.068 253.458 128.89C229.093 136.444 209.125 148.595 188.497 149.229C171.241 149.759 159.861 147.345 145.095 142.719C135.446 139.695 126.179 136.531 113.272 133.18C108.814 132.023 103.685 130.843 97.5544 130.184C84.71 128.801 66.4709 128.768 44.6283 133.713C28.8129 137.293 13.8825 143.845 0.715357 151.269" stroke="url(#paint18_linear_233_19194)" stroke-width="0.863256" stroke-miterlimit="10"/>
<path id="Vector_21" d="M534.303 147.981C511.951 129.91 489.267 124.467 472.335 123.669C468.851 123.505 465.476 123.455 462.183 123.571C431.991 124.623 410.724 138.252 380.46 145.168C369.309 147.716 355.925 149.191 339.874 148.62C312.408 147.643 300.687 124.507 272.39 126.959C265.688 127.54 259.386 128.786 253.447 130.522C229.001 137.668 208.992 149.689 187.66 150.068C170.541 150.373 159.631 148.078 144.488 143.666C135.089 140.927 125.592 137.993 112.393 134.848C107.918 133.782 102.738 132.734 96.6179 132.195C83.5983 131.048 65.5505 131.437 44.0862 136.628C28.88 140.305 14.1558 146.701 0.701181 154.275" stroke="url(#paint19_linear_233_19194)" stroke-width="0.863256" stroke-miterlimit="10"/>
<path id="Vector_22" d="M534.325 150.139C511.628 130.674 488.944 124.046 472.543 123.15C469.043 122.958 465.663 122.911 462.369 123.046C432.235 124.265 411.104 139.407 380.532 147.266C369.191 150.182 355.797 151.975 339.741 151.554C312.029 150.828 301.17 126.64 272.543 128.802C265.789 129.329 259.438 130.505 253.432 132.156C228.905 138.897 208.851 150.801 186.818 150.91C169.83 150.994 159.402 148.793 143.874 144.614C134.725 142.152 124.998 139.452 111.506 136.518C107.015 135.541 101.786 134.628 95.675 134.209C82.4811 133.302 64.6182 134.101 43.5365 139.545C28.9352 143.316 14.4215 149.559 0.679445 157.284" stroke="url(#paint20_linear_233_19194)" stroke-width="0.863256" stroke-miterlimit="10"/>
<path id="Vector_23" d="M534.352 152.298C511.309 131.438 488.625 123.622 472.755 122.63C469.241 122.411 465.853 122.368 462.56 122.521C432.481 123.908 411.5 140.564 380.61 149.364C369.081 152.649 355.675 154.759 339.615 154.487C311.657 154.014 301.653 128.727 272.702 130.643C265.895 131.106 259.496 132.225 253.423 133.789C228.814 140.128 208.712 151.928 185.982 151.751C169.119 151.619 159.184 149.484 143.268 145.563C134.366 143.369 124.411 140.904 110.628 138.188C106.119 137.299 100.842 136.525 94.7396 136.222C81.3737 135.559 63.6882 136.756 42.9955 142.462C28.9958 146.322 14.6959 152.417 0.665269 160.291" stroke="url(#paint21_linear_233_19194)" stroke-width="0.863256" stroke-miterlimit="10"/>
<path id="Vector_24" d="M534.376 154.458C510.988 132.202 488.307 123.194 472.966 122.111C469.437 121.862 466.041 121.826 462.749 121.998C432.727 123.551 411.904 141.723 380.685 151.463C368.972 155.118 355.551 157.56 339.485 157.421C311.282 157.229 302.134 130.815 272.858 132.486C265.998 132.883 259.556 133.954 253.411 135.423C228.735 141.394 208.563 153.073 185.144 152.592C168.4 152.247 158.966 150.149 142.659 146.511C133.999 144.58 123.82 142.351 109.747 139.857C105.22 139.056 99.897 138.422 93.8013 138.236C80.2644 137.821 62.7467 139.404 42.4515 145.379C29.0492 149.325 14.9673 155.275 0.649203 163.3" stroke="url(#paint22_linear_233_19194)" stroke-width="0.863256" stroke-miterlimit="10"/>
<path id="Vector_25" d="M534.403 156.618C510.67 132.968 487.992 122.765 473.178 121.593C425.225 117.8 402.757 160.267 339.357 160.357C310.91 160.397 302.615 132.905 273.015 134.33C238.517 135.991 214.45 154.435 184.306 153.434C159.285 152.604 151.712 148.283 108.866 141.529C87.5002 138.16 47.9903 139.804 0.634082 166.309" stroke="url(#paint23_linear_233_19194)" stroke-width="0.863256" stroke-miterlimit="10"/>
<path id="Vector_26" d="M0.643533 167.537C20.6064 156.038 39.0325 149.423 55.1855 145.761C78.1598 140.615 96.4288 141.485 109.46 143.412C151.049 149.563 158.575 153.855 182.845 154.492C212.099 155.253 235.494 137.37 269.06 135.647C297.982 134.141 307.43 160.45 335.864 160.999C362.401 161.512 381.589 154.908 399.113 146.691C422.628 135.665 441.397 122.793 469.207 123.825C476.998 124.114 486.827 126.729 497.853 132.687C503.33 135.647 509.057 139.535 514.978 143.826C521.184 148.321 527.895 152.988 534.395 158.459" stroke="url(#paint24_linear_233_19194)" stroke-width="0.863256" stroke-miterlimit="10"/>
<path id="Vector_27" d="M0.649203 168.852C20.9038 156.864 39.4228 150.316 55.5214 146.883C78.6111 141.959 96.474 143.499 110.052 145.384C150.363 150.977 157.861 155.195 181.381 155.638C209.746 156.159 232.47 138.838 265.102 137.054C293.345 135.466 303.94 160.587 332.367 161.732C358.573 162.787 377.435 157.23 395.273 149.308C418.872 138.828 437.367 127.539 465.232 126.148C473.418 125.739 483.727 128.537 495.315 134.821C501.059 137.936 507.031 142.212 513.213 146.535C519.882 151.198 527.376 155.418 534.384 160.39" stroke="url(#paint25_linear_233_19194)" stroke-width="0.863256" stroke-miterlimit="10"/>
<path id="Vector_28" d="M0.659599 170.175C21.2059 157.698 39.8287 151.238 55.8609 148.013C79.0811 143.341 96.5186 145.525 110.648 147.363C149.666 152.44 157.152 156.542 179.922 156.791C207.397 157.072 229.45 140.312 261.149 138.466C288.713 136.797 300.448 160.724 328.875 162.47C354.747 164.06 373.28 159.553 391.44 151.929C415.112 141.991 433.241 129.553 461.263 128.474C469.897 128.143 480.634 130.349 492.784 136.959C498.797 140.229 505.015 144.891 511.455 149.249C518.59 154.078 526.864 157.854 534.379 162.326" stroke="url(#paint26_linear_233_19194)" stroke-width="0.863256" stroke-miterlimit="10"/>
<path id="Vector_29" d="M0.669994 171.533C21.5081 158.567 40.2355 152.197 56.2015 149.178C79.5531 144.761 96.56 147.587 111.244 149.377C148.954 153.976 156.443 157.924 178.462 157.981C205.048 158.022 226.435 141.87 257.196 139.915C284.087 138.206 296.951 160.889 325.383 163.245C350.916 165.362 369.118 161.912 387.606 154.588C411.342 145.185 429.204 132.884 457.292 130.839C466.364 130.178 477.539 132.198 490.251 139.134C496.531 142.559 503.001 147.606 509.693 152.001C517.296 156.994 526.349 160.326 534.371 164.299" stroke="url(#paint27_linear_233_19194)" stroke-width="0.863256" stroke-miterlimit="10"/>
<path id="Vector_30" d="M0.673775 172.932C21.8036 159.476 40.6379 153.198 56.5345 150.383C80.0207 146.223 96.5905 149.691 111.832 151.431C148.221 155.584 155.727 159.345 176.995 159.208C202.692 159.01 223.409 143.429 253.235 141.403C279.449 139.623 293.442 161.085 321.884 164.06C347.076 166.694 364.942 164.307 383.765 157.286C407.556 148.412 425.172 136.202 453.315 133.242C462.829 132.241 474.437 134.087 487.712 141.349C494.259 144.929 500.984 150.358 507.928 154.791C516.001 159.946 525.829 162.838 534.36 166.31" stroke="url(#paint28_linear_233_19194)" stroke-width="0.863256" stroke-miterlimit="10"/>
<path id="Vector_31" d="M0.681335 174.333C22.1029 160.388 41.0441 154.204 56.8712 151.591C80.4932 147.69 96.6216 151.803 112.424 153.489C147.484 157.228 155.013 160.771 175.533 160.441C200.339 160.003 220.387 144.993 249.279 142.895C274.817 141.041 289.935 161.277 318.39 164.877C343.237 168.02 360.765 166.701 379.929 159.988C403.766 151.637 421.147 139.479 449.343 135.649C459.302 134.296 471.342 135.979 485.178 143.567C491.992 147.303 498.972 153.112 506.165 157.585C514.713 162.901 525.313 165.353 534.352 168.327" stroke="url(#paint29_linear_233_19194)" stroke-width="0.863256" stroke-miterlimit="10"/>
<path id="Vector_32" d="M0.689841 175.765C22.4032 161.332 41.4534 155.243 57.2099 152.83C80.9687 149.191 96.6515 153.95 113.018 155.577C146.739 158.929 154.302 162.228 174.072 161.703C197.989 161.025 217.367 146.585 245.323 144.417C270.184 142.49 286.428 161.491 314.896 165.725C339.399 169.37 356.583 169.122 376.094 162.719C399.968 154.885 417.119 142.749 445.372 138.086C455.774 136.369 468.246 137.901 482.644 145.815C489.725 149.706 496.964 155.895 504.404 160.41C513.427 165.885 524.798 167.9 534.344 170.373" stroke="url(#paint30_linear_233_19194)" stroke-width="0.863256" stroke-miterlimit="10"/>
<path id="Vector_33" d="M0.699291 177.209C22.7044 162.286 41.8646 156.296 57.5485 154.081C81.4462 150.706 96.6791 156.113 113.612 157.677C145.987 160.668 153.591 163.696 172.609 162.978C195.636 162.061 214.345 148.189 241.367 145.952C265.551 143.95 282.917 161.708 311.401 166.585C335.559 170.722 352.394 171.548 372.257 165.463C396.162 158.139 413.082 145.998 441.399 140.535C452.243 138.443 465.148 139.835 480.11 148.075C487.458 152.121 494.957 158.688 502.643 163.246C512.142 168.878 524.282 170.457 534.337 172.43" stroke="url(#paint31_linear_233_19194)" stroke-width="0.863256" stroke-miterlimit="10"/>
<path id="Vector_34" d="M0.705907 178.66C23.0027 163.248 42.2731 157.356 57.8843 155.338C81.922 152.23 96.7017 158.288 114.203 159.784C145.226 162.436 152.878 165.169 171.146 164.259C193.283 163.102 211.322 149.797 237.41 147.493C260.918 145.417 279.407 161.923 307.905 167.453C331.717 172.072 348.198 173.978 368.419 168.214C392.348 161.392 409.033 149.227 437.424 142.991C448.705 140.514 462.05 141.777 477.572 150.343C485.187 154.544 492.947 161.489 500.877 166.09C510.855 171.879 523.762 173.021 534.324 174.496" stroke="url(#paint32_linear_233_19194)" stroke-width="0.863256" stroke-miterlimit="10"/>
<path id="Vector_35" d="M0.715357 180.124C23.3039 164.223 42.6854 158.434 58.2239 156.61C82.4027 153.771 96.7251 160.482 114.798 161.905C144.464 164.24 152.167 166.659 169.686 165.554C190.934 164.157 208.303 151.419 233.456 149.048C256.287 146.895 275.9 162.142 304.412 168.333C327.881 173.428 344.002 176.415 364.584 170.978C388.533 164.651 404.973 152.446 433.454 145.46C445.166 142.586 458.954 143.731 475.039 152.622C482.922 156.979 490.943 164.3 499.116 168.945C509.574 174.889 523.248 175.598 534.317 176.572" stroke="url(#paint33_linear_233_19194)" stroke-width="0.863256" stroke-miterlimit="10"/>
<path id="Vector_36" d="M0.725753 181.587C23.6061 165.197 43.0998 159.51 58.5635 157.879C82.8844 155.313 96.7472 162.681 115.395 164.023C143.698 166.059 151.462 168.169 168.227 166.847C188.59 165.24 205.285 153.037 229.503 150.6C251.659 148.371 272.4 162.35 300.922 169.211C324.05 174.775 339.804 178.845 360.751 173.741C384.714 167.902 400.904 155.647 429.485 147.928C441.623 144.65 455.861 145.684 472.509 154.901C480.659 159.413 488.943 167.109 497.359 171.8C508.299 177.898 522.737 178.174 534.315 178.649" stroke="url(#paint34_linear_233_19194)" stroke-width="0.863256" stroke-miterlimit="10"/>
<path id="Vector_37" d="M0.735204 183.06C23.9073 166.181 43.5132 160.599 58.9032 159.159C83.3662 156.869 96.7674 164.899 115.99 166.153C142.929 167.908 150.753 169.668 166.767 168.15C186.241 166.305 202.266 154.665 225.549 152.164C247.028 149.857 268.901 162.561 297.429 170.101C320.221 176.125 335.601 181.278 356.917 176.514C380.891 171.155 396.816 158.841 425.514 150.406C438.071 146.716 452.766 147.648 469.975 157.191C478.392 161.858 486.94 169.928 495.598 174.666C507.02 180.917 522.222 180.761 534.307 180.736" stroke="url(#paint35_linear_233_19194)" stroke-width="0.863256" stroke-miterlimit="10"/>
<path id="Vector_38" d="M0.741819 184.549C24.2056 167.18 43.9248 161.706 59.2389 160.455C83.8452 158.443 96.7815 167.143 116.581 168.297C142.153 169.789 150.04 171.181 165.302 169.47C183.888 167.385 199.242 156.307 221.591 153.743C242.393 151.357 265.403 162.777 293.933 171.006C316.392 177.484 331.392 183.721 353.078 179.303C377.059 174.417 392.71 162.04 421.54 152.901C434.508 148.79 449.667 149.627 467.438 159.496C476.122 164.318 484.935 172.763 493.832 177.547C505.739 183.949 521.702 183.363 534.296 182.839" stroke="url(#paint36_linear_233_19194)" stroke-width="0.863256" stroke-miterlimit="10"/>
<path id="Vector_39" d="M0.747489 186.037C24.5031 168.18 44.3344 162.814 59.5737 161.749C84.3232 160.019 96.7935 169.396 117.171 170.442C141.374 171.683 149.326 172.694 163.837 170.788C181.535 168.464 196.218 157.946 217.632 155.321C237.757 152.854 261.911 162.984 290.435 171.909C312.566 178.835 327.178 186.155 349.239 182.089C373.225 177.67 388.588 165.226 417.565 155.393C430.936 150.855 446.568 151.604 464.902 161.799C473.853 166.776 482.93 175.594 492.068 180.427C504.459 186.98 521.184 185.964 534.285 184.941" stroke="url(#paint37_linear_233_19194)" stroke-width="0.863256" stroke-miterlimit="10"/>
<path id="Vector_40" d="M0.75694 187.128C24.8043 168.781 44.7489 163.527 59.9134 162.647C84.8071 161.202 97.1364 169.406 117.766 172.188C140.244 175.219 148.618 173.807 162.377 171.709C179.187 169.145 193.197 159.187 213.678 156.503C233.126 153.954 258.431 162.786 286.943 172.417C308.751 179.784 322.97 188.186 345.404 184.482C369.395 180.52 384.456 168.011 413.593 157.49C427.361 152.519 443.472 153.187 462.368 163.708C471.587 168.84 480.929 178.03 490.307 182.911C503.184 189.613 520.669 188.17 534.278 186.646" stroke="url(#paint38_linear_233_19194)" stroke-width="0.863256" stroke-miterlimit="10"/>
<path id="Vector_41" d="M0.761665 188.028C25.1007 169.192 45.1587 164.051 60.2473 163.354C85.2842 162.198 97.1112 171.111 118.355 173.745C139.528 176.37 147.902 174.732 160.911 172.44C176.832 169.635 190.171 160.235 209.719 157.494C228.49 154.861 254.956 162.39 283.444 172.734C304.936 180.537 318.754 190.019 341.564 186.682C365.559 183.172 380.305 170.597 409.617 159.396C423.773 153.987 440.372 154.578 459.829 165.425C469.316 170.713 478.923 180.274 488.541 185.204C501.904 192.055 520.149 190.184 534.265 188.161" stroke="url(#paint39_linear_233_19194)" stroke-width="0.863256" stroke-miterlimit="10"/>
<path id="Vector_42" d="M0.769226 188.911C25.4 169.586 45.5702 164.56 60.5851 164.044C85.7652 163.179 97.0792 172.854 118.949 175.284C138.817 177.492 147.191 175.637 159.448 173.154C174.481 170.108 187.148 161.264 205.761 158.467C223.854 155.748 251.491 161.969 279.949 173.033C301.131 181.267 314.541 191.826 337.728 188.864C361.727 185.799 376.143 173.161 405.644 161.284C420.181 155.431 437.275 155.951 457.294 167.124C467.048 172.567 476.922 182.499 486.779 187.479C500.628 194.477 519.633 192.18 534.258 189.657" stroke="url(#paint40_linear_233_19194)" stroke-width="0.863256" stroke-miterlimit="10"/>
<path id="Vector_43" d="M0.783402 190.002C25.706 170.188 45.9883 165.278 60.9284 164.942C86.2517 164.372 97.0464 174.874 119.548 177.031C138.112 178.811 146.486 176.75 157.993 174.075C172.137 170.787 184.132 162.499 201.813 159.648C219.227 156.841 248.044 161.75 276.462 173.541C297.341 182.203 310.338 193.834 333.899 191.256C357.904 188.628 371.976 175.93 401.68 163.38C416.591 157.081 434.185 157.533 454.767 169.032C464.788 174.63 474.929 184.933 485.023 189.963C499.361 197.107 519.124 194.385 534.256 191.363" stroke="url(#paint41_linear_233_19194)" stroke-width="0.863256" stroke-miterlimit="10"/>
<path id="Vector_44" d="M0.792852 191.232C26.0072 170.928 46.4017 166.137 61.267 165.978C86.7314 165.706 97.0024 177.118 120.142 178.916C137.4 180.257 145.776 178 156.532 175.134C169.787 171.602 181.107 163.868 197.858 160.967C214.592 158.069 244.601 161.662 272.968 174.185C293.551 183.272 306.129 195.972 330.063 193.784C354.076 191.589 367.791 178.834 397.708 165.614C412.986 158.864 431.089 159.253 452.234 171.077C462.522 176.83 472.93 187.503 483.263 192.584C498.089 199.874 518.61 196.728 534.25 193.206" stroke="url(#paint42_linear_233_19194)" stroke-width="0.863256" stroke-miterlimit="10"/>
<path id="Vector_45" d="M0.794742 192.472C26.3008 171.68 46.8076 166.899 61.5991 167.026C87.2035 167.243 96.953 179.483 120.73 180.814C136.678 181.706 145.057 179.262 155.064 176.206C167.428 172.431 178.076 165.248 193.896 162.298C209.949 159.306 241.162 161.58 269.468 174.842C289.762 184.351 301.916 198.116 326.221 196.325C350.246 194.555 363.586 181.749 393.729 167.86C409.366 160.655 427.987 160.983 449.693 173.134C460.248 179.042 470.923 190.085 481.494 195.218C496.808 202.652 518.087 199.082 534.234 195.061" stroke="url(#paint43_linear_233_19194)" stroke-width="0.863256" stroke-miterlimit="10"/>
<path id="Vector_46" d="M0.808918 193.744C26.6067 172.462 47.2225 167.912 61.9424 168.104C87.6879 168.439 96.9255 182.014 121.329 182.741C135.959 183.176 144.342 180.541 153.607 177.308C165.07 173.272 175.053 166.654 189.945 163.66C205.315 160.571 237.746 161.524 265.979 175.53C285.991 185.458 297.717 200.282 322.39 198.896C346.429 197.547 359.382 184.693 389.763 170.137C405.753 162.474 424.895 162.745 447.163 175.222C457.986 181.285 468.942 192.682 479.737 197.881C495.561 205.438 517.576 201.467 534.231 196.946" stroke="url(#paint44_linear_233_19194)" stroke-width="0.863256" stroke-miterlimit="10"/>
<path id="Vector_47" d="M0.815534 195.034C26.9051 173.263 47.6299 168.856 62.2793 169.201C88.1615 169.88 96.9375 185.333 121.921 184.687C135.213 184.344 143.629 181.856 152.144 178.428C162.717 174.153 172.021 168.076 185.988 165.041C200.673 161.849 234.335 161.482 262.483 176.236C282.221 186.582 293.514 202.459 318.552 201.486C342.609 200.551 355.161 187.656 385.788 172.432C402.127 164.311 421.796 164.525 444.627 177.327C455.717 183.546 466.934 195.319 477.973 200.563C494.277 208.274 517.058 203.869 534.221 198.849" stroke="url(#paint45_linear_233_19194)" stroke-width="0.863256" stroke-miterlimit="10"/>
<path id="Vector_48" d="M0.819314 196.36C27.2006 174.1 48.0344 169.798 62.6122 170.333C88.6323 171.289 96.9765 187.741 122.509 186.669C149.373 185.54 158.524 171.994 182.028 166.456C196.023 163.159 230.932 161.473 258.984 176.977C278.456 187.74 289.312 204.665 314.711 204.111C338.792 203.586 350.928 190.653 381.811 174.762C398.491 166.178 418.696 166.341 442.088 179.469C453.445 185.843 464.922 197.992 476.206 203.28C492.99 211.144 516.536 206.308 534.209 200.788" stroke="url(#paint46_linear_233_19194)" stroke-width="0.863256" stroke-miterlimit="10"/>
<path id="Vector_49" d="M0.815534 196.499C13.5114 187.139 25.3438 180.89 35.8093 176.711C47.492 172.043 57.0887 170.556 65.4853 170.827C90.923 171.65 99.2971 187.663 124.087 186.855C150.196 186.021 159.279 173.231 182.297 168.023C195.611 165.011 226.365 163.236 253.535 174.672C255.459 175.482 257.354 176.363 259.222 177.31C269.387 182.453 277.31 189.105 286.166 194.625C294.234 199.654 302.882 203.635 314.823 203.715C333.476 203.839 344.986 196.393 364.681 185.671C369.82 182.874 375.445 179.882 381.821 176.776C391.536 172.045 402.305 170.11 414.058 171.5C422.844 172.54 432.169 175.351 442.085 180.596C452.354 186.026 462.682 196.333 473.047 202.221C474.162 202.857 475.279 203.442 476.397 203.962C492.962 211.687 516.233 207.246 534.222 201.951" stroke="url(#paint47_linear_233_19194)" stroke-width="0.863256" stroke-miterlimit="10"/>
<path id="Vector_50" d="M0.805138 196.647C13.9744 188.241 26.6061 182.202 37.7663 177.752C49.8145 172.944 59.3802 171.076 68.3507 171.33C93.2027 172.034 101.611 187.594 125.657 187.05C151.011 186.509 160.032 174.486 182.558 169.597C196.124 166.653 226.323 164.776 253.745 175.239C255.679 175.977 257.578 176.785 259.451 177.651C269.662 182.343 277.715 188.391 286.711 193.826C294.79 198.706 303.239 202.899 314.925 203.326C333.101 203.991 344.544 197.343 364.491 187.236C369.736 184.579 375.425 181.74 381.822 178.798C391.663 174.271 402.448 172.443 414.097 173.578C422.904 174.436 432.189 176.824 442.074 181.731C452.382 186.849 462.701 197.027 473.231 202.927C474.344 203.556 475.46 204.135 476.58 204.652C492.927 212.238 515.921 208.191 534.228 203.123" stroke="url(#paint48_linear_233_19194)" stroke-width="0.863256" stroke-miterlimit="10"/>
<path id="Vector_51" d="M0.792852 196.792C14.4356 189.341 27.8656 183.512 39.7215 178.791C52.1341 173.843 61.6699 171.596 71.2142 171.831C95.4795 172.43 103.922 187.523 127.226 187.242C151.824 186.994 160.793 175.75 182.817 171.169C196.637 168.294 226.27 166.316 253.954 175.804C255.897 176.469 257.799 177.205 259.679 177.989C269.936 182.231 278.115 187.675 287.255 193.024C295.343 197.756 303.592 202.158 315.027 202.934C332.721 204.135 344.11 198.294 364.301 188.798C369.654 186.281 375.407 183.596 381.822 180.816C391.795 176.496 402.594 174.769 414.136 175.651C422.966 176.327 432.214 178.291 442.062 182.863C452.413 187.668 462.745 197.697 473.415 203.629C474.528 204.248 475.641 204.824 476.762 205.338C492.89 212.785 515.61 209.133 534.232 204.29" stroke="url(#paint49_linear_233_19194)" stroke-width="0.863256" stroke-miterlimit="10"/>
<path id="Vector_52" d="M0.787182 196.948C14.9033 190.451 29.1327 184.83 41.6843 179.84C54.4624 174.752 63.9662 172.126 74.0854 172.342C97.763 172.847 106.241 187.462 128.802 187.445C152.645 187.49 161.566 177.034 183.085 172.751C197.161 169.95 226.218 167.868 254.172 176.38C256.122 176.974 258.027 177.64 259.915 178.339C270.205 182.149 278.521 186.973 287.808 192.234C295.901 196.82 303.95 201.428 315.137 202.555C332.345 204.289 343.692 199.26 364.119 190.373C369.584 187.996 375.4 185.465 381.83 182.848C391.936 178.734 402.75 177.106 414.181 177.738C423.039 178.229 432.247 179.77 442.057 184.007C452.454 188.498 462.775 198.394 473.604 204.345C474.714 204.956 475.827 205.526 476.95 206.038C492.858 213.345 515.303 210.089 534.244 205.472" stroke="url(#paint50_linear_233_19194)" stroke-width="0.863256" stroke-miterlimit="10"/>
<path id="Vector_53" d="M0.783402 197.103C15.3729 191.56 30.4017 186.149 43.6479 180.888C56.7905 175.659 66.2643 172.658 76.9574 172.852C100.047 173.272 108.561 187.363 130.378 187.647C153.468 187.947 162.346 178.328 183.353 174.333C197.69 171.607 226.156 169.423 254.389 176.954C256.347 177.477 258.257 178.07 260.151 178.686C270.486 182.05 278.925 186.268 288.359 191.442C296.456 195.882 304.305 200.693 315.246 202.173C331.963 204.435 343.281 200.226 363.937 191.944C369.513 189.709 375.394 187.334 381.837 184.877C392.082 180.97 402.91 179.435 414.228 179.822C423.113 180.126 432.287 181.245 442.053 185.149C452.501 189.326 462.808 199.09 473.796 205.058C474.904 205.66 476.017 206.223 477.14 206.734C492.851 213.878 514.997 211.041 534.256 206.65" stroke="url(#paint51_linear_233_19194)" stroke-width="0.863256" stroke-miterlimit="10"/>
<path id="Vector_54" d="M0.769226 197.269C15.8322 192.68 31.6603 187.479 45.6012 181.947C59.1092 176.578 68.551 173.201 79.8191 173.373C102.32 173.716 110.872 187.306 131.944 187.859C154.28 188.445 163.12 179.641 183.609 175.925C198.209 173.277 226.074 170.991 254.595 177.539C256.56 177.99 258.475 178.51 260.376 179.044C270.757 181.962 279.316 185.575 288.901 190.66C296.999 194.956 304.648 199.965 315.344 201.801C331.569 204.587 342.866 201.207 363.745 193.526C369.434 191.433 375.38 189.213 381.835 186.916C392.219 183.218 403.06 182.093 414.264 181.916C423.178 181.775 432.32 182.729 442.039 186.301C452.542 190.162 462.829 199.797 473.977 205.78C475.083 206.374 476.195 206.932 477.32 207.44C492.816 214.441 514.684 212.002 534.259 207.837" stroke="url(#paint52_linear_233_19194)" stroke-width="0.863256" stroke-miterlimit="10"/>
<path id="Vector_55" d="M0.763555 197.87C16.2999 194.234 32.9275 189.243 47.563 183.441C61.4354 177.932 70.8601 173.886 82.6892 174.329C104.575 175.149 113.191 187.685 133.519 188.507C155.102 189.381 163.908 181.4 183.875 177.953C198.741 175.386 225.993 173.002 254.811 178.56C256.782 178.94 258.703 179.388 260.61 179.839C271.038 182.31 279.713 185.321 289.451 190.316C297.548 194.469 304.996 199.671 315.452 201.867C331.181 205.172 342.467 202.63 363.56 195.546C369.367 193.596 375.377 191.531 381.84 189.392C392.369 185.907 403.236 184.894 414.307 184.448C423.239 184.088 432.365 184.648 442.032 187.891C452.595 191.435 462.856 200.942 474.165 206.941C475.268 207.527 476.379 208.079 477.506 208.585C492.786 215.444 514.375 213.403 534.267 209.463" stroke="url(#paint53_linear_233_19194)" stroke-width="0.863256" stroke-miterlimit="10"/>
<path id="Vector_56" d="M0.75316 198.502C16.763 195.821 34.1898 191.039 49.521 184.967C63.759 179.318 73.1516 174.87 85.5557 175.317C106.853 176.083 115.507 188.095 135.09 189.187C155.92 190.348 164.697 183.199 184.138 180.012C199.272 177.531 225.903 175.049 255.024 179.612C257.001 179.922 258.929 180.295 260.841 180.664C271.316 182.688 280.107 185.098 289.997 190.001C298.093 194.014 305.34 199.403 315.556 201.963C330.788 205.78 342.071 204.087 363.373 197.595C369.296 195.79 375.372 193.881 381.842 191.898C392.516 188.626 403.377 187.34 414.348 187.009C423.326 186.738 432.411 186.594 442.022 189.51C452.647 192.734 462.88 202.116 474.35 208.131C475.451 208.708 476.561 209.255 477.69 209.759C492.753 216.476 514.065 214.832 534.275 211.118" stroke="url(#paint54_linear_233_19194)" stroke-width="0.863256" stroke-miterlimit="10"/>
<path id="Vector_57" d="M0.747489 199.118C17.2297 197.391 35.457 192.819 51.4828 186.476C66.0862 180.687 75.4468 175.843 88.4258 176.288C109.136 176.997 117.827 188.489 136.665 189.849C156.743 191.299 165.493 184.99 184.403 182.054C199.808 179.663 225.809 177.087 255.239 180.647C257.222 180.887 259.157 181.186 261.076 181.473C271.599 183.049 280.501 184.86 290.548 189.67C298.639 193.543 305.689 199.116 315.664 202.042C330.398 206.365 341.685 205.533 363.189 199.628C369.232 197.969 375.372 196.217 381.849 194.388C392.671 191.332 403.539 190.117 414.393 189.554C423.404 189.087 432.465 188.522 442.016 191.113C452.71 194.016 462.908 203.276 474.539 209.305C475.638 209.874 476.747 210.416 477.876 210.917C492.721 217.493 513.757 216.246 534.284 212.758" stroke="url(#paint55_linear_233_19194)" stroke-width="0.863256" stroke-miterlimit="10"/>
<path id="Vector_58" d="M0.741819 199.737C17.6974 198.963 36.7241 194.601 53.4446 187.988C68.4124 182.058 77.7409 176.826 91.296 177.262C111.419 177.909 120.148 188.888 138.24 190.515C157.566 192.254 166.293 186.792 184.669 184.1C200.347 181.803 225.713 179.136 255.455 181.685C257.443 181.856 259.387 182.08 261.309 182.284C271.882 183.412 280.893 184.626 291.099 189.341C299.183 193.077 306.038 198.827 315.771 202.124C330.009 206.948 341.301 206.988 363.004 201.664C369.167 200.152 375.373 198.556 381.854 196.88C392.828 194.043 403.702 192.892 414.436 192.101C423.481 191.435 432.522 190.448 442.009 192.719C452.774 195.295 462.933 204.439 474.728 210.481C475.823 211.042 476.933 211.579 478.064 212.077C492.691 218.513 513.45 217.662 534.295 214.4" stroke="url(#paint56_linear_233_19194)" stroke-width="0.863256" stroke-miterlimit="10"/>
<path id="Vector_59" d="M0.735204 200.34C18.1642 200.521 37.9903 196.368 55.4065 189.484C70.7398 183.414 80.0341 177.799 94.1662 178.22C113.703 178.802 122.468 189.271 139.815 191.165C158.389 193.194 167.097 188.587 184.935 186.129C200.887 183.932 225.613 181.176 255.671 182.708C257.663 182.81 259.615 182.958 261.543 183.081C272.165 183.759 281.283 184.38 291.649 188.998C299.726 192.596 306.387 198.519 315.879 202.191C329.623 207.509 340.921 208.434 362.82 203.684C369.104 202.321 375.375 200.882 381.86 199.358C392.987 196.741 403.864 195.65 414.481 194.633C423.558 193.765 432.581 192.355 442.004 194.308C452.843 196.556 462.959 205.586 474.918 211.641C476.01 212.195 477.119 212.725 478.252 213.22C492.661 219.516 513.144 219.061 534.305 216.025" stroke="url(#paint57_linear_233_19194)" stroke-width="0.863256" stroke-miterlimit="10"/>
<path id="Vector_60" d="M0.725753 200.936C18.6282 202.07 39.2536 198.126 57.3644 190.973C73.0622 184.762 82.3233 178.773 97.0326 179.17C115.982 179.683 124.786 189.647 141.385 191.807C159.208 194.127 167.897 190.38 185.197 188.15C201.427 186.058 225.509 183.217 255.882 183.722C257.88 183.756 259.84 183.827 261.774 183.869C272.445 184.097 281.667 184.127 292.196 188.646C300.265 192.109 306.736 198.199 315.984 202.25C329.238 208.057 340.542 209.876 362.635 205.696C369.04 204.484 375.377 203.201 381.863 201.826C393.144 199.434 404.023 198.395 414.523 197.158C423.633 196.084 432.641 194.251 441.994 195.891C452.912 197.805 462.98 206.727 475.103 212.795C476.193 213.34 477.301 213.866 478.436 214.358C492.626 220.515 512.833 220.455 534.313 217.644" stroke="url(#paint58_linear_233_19194)" stroke-width="0.863256" stroke-miterlimit="10"/>
<path id="Vector_61" d="M0.715357 201.518C19.0912 203.606 40.516 199.873 59.3214 192.448C75.3847 186.097 84.6116 179.741 99.899 180.108C118.262 180.549 127.103 190.012 142.956 192.436C160.028 195.048 168.701 192.17 185.459 190.159C201.968 188.179 225.404 185.253 256.094 184.724C258.096 184.69 260.064 184.684 262.004 184.643C272.724 184.42 282.049 183.862 292.742 188.281C300.8 191.611 307.088 197.862 316.088 202.295C328.857 208.586 340.163 211.312 362.447 207.695C368.975 206.636 375.378 205.51 381.865 204.282C393.302 202.118 404.182 201.124 414.564 199.669C423.705 198.386 432.701 196.129 441.985 197.46C452.981 199.036 463 207.855 475.289 213.935C476.376 214.472 477.484 214.992 478.62 215.482C492.591 221.5 512.524 221.834 534.319 219.249" stroke="url(#paint59_linear_233_19194)" stroke-width="0.863256" stroke-miterlimit="10"/>
<path id="Vector_62" d="M0.709687 202.089C19.559 205.131 41.7831 201.607 61.2832 193.912C77.7109 187.421 86.9036 180.707 102.769 181.034C120.545 181.4 129.424 190.366 144.531 193.055C160.852 195.959 169.511 193.955 185.725 192.157C202.514 190.296 225.307 187.287 256.31 185.715C258.317 185.613 260.294 185.53 262.238 185.408C273.006 184.734 282.434 183.591 293.292 187.906C301.339 191.105 307.448 197.512 316.194 202.331C328.484 209.102 339.787 212.743 362.262 209.685C368.913 208.78 375.382 207.81 381.871 206.728C393.465 204.795 404.341 203.841 414.607 202.17C423.78 200.678 432.766 197.994 441.978 199.02C453.055 200.252 463.024 208.976 475.478 215.065C476.562 215.595 477.67 216.109 478.808 216.596C492.559 222.476 512.217 223.205 534.33 220.845" stroke="url(#paint60_linear_233_19194)" stroke-width="0.863256" stroke-miterlimit="10"/>
<path id="Vector_63" d="M0.699291 202.647C20.022 206.644 43.0455 203.329 63.2413 195.364C80.0345 188.733 89.193 181.671 105.636 181.948C122.826 182.236 131.741 190.709 146.102 193.66C161.671 196.86 170.317 195.734 185.988 194.143C203.059 192.409 225.211 189.316 256.523 186.694C258.535 186.526 260.52 186.364 262.469 186.16C273.286 185.034 282.814 183.308 293.84 187.519C301.873 190.587 307.811 197.147 316.299 202.353C328.115 209.601 339.409 214.168 362.075 211.661C368.848 210.912 375.384 210.099 381.873 209.161C393.624 207.462 404.495 206.541 414.648 204.658C423.849 202.952 432.827 199.841 441.968 200.565C453.126 201.45 463.041 210.082 475.662 216.181C476.742 216.703 477.85 217.212 478.991 217.695C492.521 223.437 511.905 224.559 534.335 222.426" stroke="url(#paint61_linear_233_19194)" stroke-width="0.863256" stroke-miterlimit="10"/>
<path id="Vector_64" d="M0.689841 203.199C20.486 208.149 44.3089 205.044 65.1993 196.808C82.3569 190.037 91.4812 182.639 108.502 182.854C125.106 183.063 134.058 191.046 147.673 194.258C162.49 197.754 171.124 197.512 186.25 196.121C203.604 194.523 225.118 191.345 256.735 187.664C258.752 187.43 260.744 187.188 262.7 186.904C273.565 185.324 283.193 183.02 294.386 187.122C302.407 190.062 308.176 196.771 316.403 202.367C327.753 210.089 339.03 215.589 361.887 213.629C368.783 213.037 375.385 212.382 381.875 211.586C393.784 210.125 404.647 209.23 414.689 207.138C423.918 205.215 432.889 201.675 441.958 202.103C453.197 202.634 463.059 211.182 475.848 217.291C476.925 217.805 478.033 218.308 479.175 218.789C492.485 224.394 511.595 225.908 534.342 224.001" stroke="url(#paint62_linear_233_19194)" stroke-width="0.863256" stroke-miterlimit="10"/>
<path id="Vector_65" d="M0.685115 203.72C20.9536 209.625 45.5769 206.729 67.162 198.223C84.6851 191.312 93.7763 183.959 111.373 183.731C127.388 183.524 136.379 191.355 149.249 194.827C163.314 198.621 171.937 199.268 186.517 198.069C204.155 196.618 225.036 193.349 256.951 188.606C258.975 188.305 260.974 187.985 262.935 187.619C273.847 185.586 283.574 182.706 294.937 186.698C302.943 189.51 308.552 196.366 316.512 202.354C327.404 210.547 338.653 216.987 361.705 215.568C368.723 215.137 375.391 214.638 381.882 213.982C393.948 212.763 404.802 211.889 414.735 209.589C423.988 207.448 432.956 203.828 441.954 203.613C453.267 203.343 463.081 212.255 476.039 218.371C477.113 218.878 478.22 219.375 479.365 219.853C492.454 225.322 511.29 227.228 534.356 225.547" stroke="url(#paint63_linear_233_19194)" stroke-width="0.863256" stroke-miterlimit="10"/>
<path id="Vector_66" d="M0.675665 204.286C21.4176 211.144 46.8403 208.458 69.121 199.682C87.0096 192.631 96.0698 184.936 114.24 184.652C129.667 184.411 138.695 191.711 150.821 195.44C164.132 199.533 172.745 201.074 186.78 200.061C204.703 198.768 224.957 195.404 257.164 189.591C259.194 189.225 261.199 188.825 263.166 188.378C274.124 185.89 283.95 182.438 295.484 186.317C303.475 189.004 308.929 196.003 316.616 202.383C327.056 211.048 338.27 218.433 361.518 217.551C368.657 217.28 375.392 216.94 381.886 216.422C394.107 215.448 404.95 214.588 414.776 212.084C424.052 209.72 433.032 205.624 441.945 205.165C453.312 204.578 463.1 213.37 476.225 219.493C477.296 219.993 478.402 220.484 479.549 220.96C492.415 226.292 510.98 228.591 534.362 227.134" stroke="url(#paint64_linear_233_19194)" stroke-width="0.863256" stroke-miterlimit="10"/>
<path id="Vector_67" d="M0.665269 205.326C21.8806 213.139 48.1027 210.663 71.0781 201.616C89.3311 194.424 98.3603 186.393 117.106 186.048C131.943 185.774 141.007 192.542 152.39 196.527C164.945 200.921 173.549 203.36 187.041 202.528C205.248 201.405 224.884 197.938 257.375 191.05C259.413 190.619 261.423 190.138 263.396 189.611C274.4 186.669 284.325 182.647 296.031 186.41C304.006 188.973 309.312 196.114 316.719 202.886C326.714 212.023 337.882 220.358 361.329 220.008C368.589 219.9 375.392 219.717 381.887 219.336C394.264 218.61 405.095 217.76 414.816 215.053C424.112 212.466 433.065 207.63 441.934 207.192C453.4 206.627 463.114 214.963 476.409 221.092C477.477 221.583 478.583 222.069 479.732 222.541C492.378 227.738 510.669 230.428 534.368 229.198" stroke="url(#paint65_linear_233_19194)" stroke-width="0.863256" stroke-miterlimit="10"/>
<path id="Vector_68" d="M0.659599 206.375C22.3483 215.141 49.3698 212.875 73.0398 203.557C91.6583 196.226 100.657 187.865 119.976 187.451C134.226 187.146 143.321 193.383 153.965 197.622C165.761 202.32 174.358 205.66 187.307 205.003C205.798 204.065 224.823 200.483 257.59 192.519C259.636 192.022 261.649 191.458 263.629 190.852C274.67 187.441 284.701 182.868 296.581 186.512C304.54 188.953 309.702 196.234 316.827 203.398C326.383 213.007 337.495 222.295 361.145 222.474C368.523 222.53 375.395 222.504 381.892 222.258C394.422 221.786 405.238 220.938 414.86 218.031C424.172 215.217 433.119 209.947 441.927 209.228C453.46 208.286 463.132 216.564 476.598 222.699C477.662 223.183 478.766 223.665 479.918 224.132C492.328 229.211 510.361 232.275 534.377 231.27" stroke="url(#paint66_linear_233_19194)" stroke-width="0.863256" stroke-miterlimit="10"/>
<path id="Vector_69" d="M0.649203 207.417C22.8114 217.137 50.6322 215.08 74.9969 205.492C93.9798 198.021 102.949 189.336 122.841 188.849C136.503 188.514 145.629 194.219 155.535 198.712C166.571 203.716 175.159 207.959 187.568 207.472C206.342 206.735 224.765 203.026 257.801 193.981C259.854 193.419 261.872 192.776 263.858 192.087C274.945 188.227 285.073 183.085 297.126 186.607C305.07 188.929 310.092 196.348 316.93 203.904C326.053 213.987 337.1 224.23 360.956 224.934C368.453 225.154 375.391 225.286 381.893 225.175C394.575 224.958 405.375 224.109 414.899 221.003C424.225 217.96 433.164 212.256 441.917 211.258C453.513 209.936 463.13 218.178 476.782 224.299C477.841 224.778 478.947 225.253 480.101 225.717C492.292 230.657 510.05 234.115 534.384 233.336" stroke="url(#paint67_linear_233_19194)" stroke-width="0.863256" stroke-miterlimit="10"/>
<path id="Vector_70" d="M0.639752 208.46C23.2753 219.134 51.8955 217.287 76.9559 207.429C96.3043 199.816 105.244 190.815 125.709 190.247C138.783 189.884 147.934 195.058 157.108 199.802C167.378 205.112 175.96 210.263 187.831 209.941C206.886 209.424 224.717 205.572 258.014 195.443C260.075 194.816 262.097 194.092 264.09 193.323C275.223 189.012 285.446 183.306 297.675 186.703C305.602 188.906 310.49 196.464 317.036 204.411C325.732 214.969 336.703 226.169 360.77 227.394C368.383 227.782 375.39 228.071 381.898 228.093C394.73 228.134 405.514 227.28 414.942 223.975C424.278 220.703 433.207 214.563 441.909 213.288C453.562 211.581 463.152 219.767 476.97 225.9C478.027 226.371 479.132 226.839 480.288 227.301C492.259 232.103 509.741 235.956 534.392 235.402" stroke="url(#paint68_linear_233_19194)" stroke-width="0.863256" stroke-miterlimit="10"/>
<path id="Vector_71" d="M0.634082 209.5C23.7431 221.128 53.1626 219.49 78.9177 209.361C98.6305 201.609 107.542 192.3 128.579 191.641C155.116 190.81 166.682 212.714 188.098 212.407C207.432 212.13 224.681 208.115 258.231 196.902C271.881 192.34 283.605 182.943 298.226 186.796C316.612 191.641 317.96 226.788 360.587 229.85C383.712 231.511 400.961 232.203 414.988 226.942C424.33 223.439 433.249 216.863 441.904 215.314C453.607 213.219 463.178 221.352 477.159 227.496C488.915 232.662 506.976 237.823 534.403 237.463" stroke="url(#paint69_linear_233_19194)" stroke-width="0.863256" stroke-miterlimit="10"/>
<path id="Vector_72" d="M0.60762 211.351C24.2285 222.705 53.4204 220.604 78.7854 210.491C84.6022 208.158 89.4807 205.707 93.9937 203.42C104.91 197.893 113.58 193.023 128.29 192.589C139.729 192.275 147.96 196.604 156.387 201.183C167.82 207.442 177.972 214.203 191.154 213.836C210.704 213.291 227.906 209.284 260.476 198.25C274.02 193.662 285.538 184.468 299.929 187.966C307.471 189.798 312.226 196.603 318.323 204.2C327.028 215.043 337.917 227.553 362.362 229.596C384.897 231.44 401.878 232.458 415.877 227.615C425.124 224.416 433.952 218.209 442.596 216.794C444.466 216.487 446.279 216.428 448.069 216.579C457.436 217.377 466.023 223.745 477.647 228.642C489.641 233.695 507.662 238.516 534.402 238.104" stroke="url(#paint70_linear_233_19194)" stroke-width="0.863256" stroke-miterlimit="10"/>
<path id="Vector_73" d="M0.585884 213.208C24.7187 224.288 53.7161 221.766 78.6579 211.627C84.4672 209.266 89.3297 206.783 93.8203 204.512C104.861 198.935 113.398 193.918 128.004 193.543C139.858 193.238 147.902 198.321 157.099 203.219C169.247 209.689 180.368 215.833 194.214 215.272C213.976 214.47 231.132 210.457 262.724 199.606C276.163 194.99 287.478 186 301.636 189.143C309.121 190.805 313.943 197.236 320.238 204.476C329.286 214.881 340.248 227.1 364.142 229.349C386.078 231.413 402.79 232.72 416.771 228.295C425.915 225.4 434.657 219.562 443.293 218.281C445.139 218.007 446.932 217.961 448.705 218.118C458.062 218.965 466.62 225.148 478.137 229.796C490.376 234.735 508.35 239.218 534.404 238.753" stroke="url(#paint71_linear_233_19194)" stroke-width="0.863256" stroke-miterlimit="10"/>
<path id="Vector_74" d="M0.559422 215.063C25.2041 225.869 53.9889 222.902 78.5256 212.762C84.3243 210.365 89.1739 207.857 93.641 205.602C104.804 199.976 113.211 194.831 127.714 194.497C139.982 194.214 147.825 200.049 157.806 205.255C170.651 211.953 182.759 217.468 197.27 216.707C217.245 215.66 234.353 211.625 264.969 200.961C278.302 196.317 289.419 187.528 303.34 190.319C310.77 191.809 315.661 197.868 322.149 204.751C331.545 214.718 342.579 226.625 365.917 229.101C387.259 231.365 403.69 232.98 417.661 228.972C426.699 226.38 435.358 220.911 443.986 219.767C445.809 219.525 447.582 219.488 449.337 219.654C458.686 220.538 467.221 226.544 478.625 230.948C491.114 235.771 509.035 239.917 534.403 239.4" stroke="url(#paint72_linear_233_19194)" stroke-width="0.863256" stroke-miterlimit="10"/>
<path id="Vector_75" d="M0.533906 216.925C25.6905 227.457 54.2615 224.042 78.3933 213.901C84.1801 211.47 89.018 208.937 93.4627 206.697C104.75 201.022 113.025 195.75 127.424 195.455C140.108 195.194 147.747 201.784 158.514 207.295C172.052 214.224 185.147 219.111 200.326 218.147C220.511 216.865 237.571 212.793 267.213 202.32C280.44 197.647 291.363 189.057 305.042 191.5C312.42 192.818 317.385 198.506 324.059 205.03C333.811 214.563 344.907 226.153 367.691 228.857C388.438 231.32 404.581 233.243 418.549 229.655C427.475 227.363 436.056 222.265 444.677 221.258C446.477 221.047 448.229 221.022 449.966 221.195C459.307 222.126 467.825 227.938 479.11 232.104C491.856 236.808 509.718 240.619 534.401 240.05" stroke="url(#paint73_linear_233_19194)" stroke-width="0.863256" stroke-miterlimit="10"/>
<path id="Vector_76" d="M0.510279 218.784C26.1798 229.042 54.5339 225.178 78.2638 215.04C84.0379 212.573 88.864 210.015 93.2862 207.79C104.696 202.066 112.841 196.669 127.136 196.411C140.236 196.174 147.67 203.518 159.223 209.332C173.454 216.494 187.539 220.757 203.384 219.584C223.781 218.074 240.79 213.955 269.46 203.676C282.58 198.973 293.314 190.581 306.747 192.679C314.075 193.822 319.118 199.141 325.973 205.307C336.089 214.407 347.238 225.677 369.469 228.612C389.62 231.272 405.467 233.501 419.442 230.337C428.25 228.342 436.757 223.615 445.374 222.747C447.15 222.568 448.882 222.556 450.602 222.735C459.933 223.712 468.442 229.328 479.6 233.259C492.608 237.843 510.406 241.322 534.403 240.7" stroke="url(#paint74_linear_233_19194)" stroke-width="0.863256" stroke-miterlimit="10"/>
<path id="Vector_77" d="M0.487598 220.652C26.6691 230.636 54.8073 226.319 78.1353 216.186C83.8976 213.684 88.712 211.101 93.1118 208.892C104.646 203.119 112.659 197.599 126.85 197.376C140.364 197.163 147.593 205.262 159.935 211.379C174.855 218.774 189.932 222.416 206.445 221.031C227.053 219.301 244.008 215.122 271.71 205.043C284.723 200.308 295.272 192.113 308.456 193.867C315.737 194.836 320.86 199.785 327.889 205.594C338.378 214.26 349.572 225.21 371.249 228.376C390.804 231.231 406.347 233.765 420.337 231.026C429.022 229.326 437.458 224.972 446.07 224.244C447.823 224.095 449.535 224.097 451.237 224.283C460.559 225.307 469.065 230.719 480.092 234.422C493.367 238.881 511.095 242.032 534.406 241.357" stroke="url(#paint75_linear_233_19194)" stroke-width="0.863256" stroke-miterlimit="10"/>
<path id="Vector_78" d="M0.462081 222.516C27.1554 232.227 55.0746 227.456 78.004 217.33C83.7535 214.791 88.5572 212.185 92.9345 209.991C104.592 204.169 112.474 198.526 126.561 198.337C140.492 198.151 147.512 207.004 160.644 213.423C176.253 221.053 192.322 224.078 209.501 222.474C230.321 220.53 247.22 216.281 273.954 206.405C286.86 201.638 297.229 193.635 310.159 195.051C317.393 195.843 322.602 200.425 329.8 205.876C340.67 214.11 351.9 224.736 373.024 228.135C391.982 231.186 407.213 234.02 421.227 231.712C429.785 230.302 438.155 226.325 446.764 225.738C448.492 225.62 450.186 225.635 451.87 225.828C461.184 226.899 469.689 232.102 480.579 235.582C494.125 239.912 511.781 242.738 534.405 242.011" stroke="url(#paint76_linear_233_19194)" stroke-width="0.863256" stroke-miterlimit="10"/>
<path id="Vector_79" d="M0.436564 224.393C27.6418 233.829 55.3408 228.602 77.8727 218.485C83.6094 215.909 88.4024 213.28 92.7561 211.101C104.536 205.23 112.288 199.467 126.272 199.311C140.618 199.151 147.43 208.758 161.351 215.478C177.647 223.345 194.712 225.755 212.558 223.929C233.59 221.778 250.429 217.448 276.199 207.78C288.997 202.979 299.19 195.166 311.862 196.247C319.053 196.861 324.353 201.076 331.711 206.171C342.972 213.969 354.228 224.273 374.799 227.907C393.159 231.151 408.072 234.283 422.115 232.411C430.541 231.287 438.847 227.688 447.456 227.244C449.16 227.157 450.834 227.186 452.5 227.386C461.804 228.505 470.316 233.492 481.064 236.755C494.889 240.952 512.464 243.459 534.402 242.679" stroke="url(#paint77_linear_233_19194)" stroke-width="0.863256" stroke-miterlimit="10"/>
<path id="Vector_80" d="M0.410103 226.267C28.1272 235.43 55.605 229.744 77.7404 219.638C83.4632 217.025 88.2455 214.372 92.5779 212.209C104.482 206.289 112.103 200.407 125.983 200.283C140.744 200.15 147.346 210.512 162.06 217.532C179.043 225.636 197.104 227.434 215.614 225.382C236.861 223.027 253.637 218.609 278.445 209.153C291.134 204.317 301.154 196.691 313.567 197.442C320.717 197.875 326.112 201.723 333.624 206.464C345.286 213.826 356.557 223.808 376.576 227.678C394.339 231.112 408.927 234.537 423.007 233.107C431.296 232.265 439.542 229.047 448.15 228.748C449.83 228.69 451.485 228.734 453.134 228.941C462.429 230.108 470.952 234.875 481.553 237.925C495.659 241.983 513.15 244.175 534.402 243.344" stroke="url(#paint78_linear_233_19194)" stroke-width="0.863256" stroke-miterlimit="10"/>
<path id="Vector_81" d="M0.384586 228.158C28.6136 237.047 55.8691 230.901 77.6092 220.808C83.3191 218.157 88.0907 215.482 92.4007 213.335C104.428 207.365 111.919 201.365 125.693 201.271C140.87 201.168 147.263 212.283 162.768 219.602C180.437 227.943 199.496 229.134 218.671 226.852C240.132 224.299 256.841 219.782 280.69 210.543C293.27 205.669 303.121 198.227 315.271 198.653C322.381 198.903 327.876 202.383 335.535 206.773C347.609 213.694 358.883 223.356 378.351 227.465C395.517 231.088 409.774 234.801 423.897 233.82C432.047 233.255 440.236 230.421 448.843 230.269C450.499 230.24 452.134 230.299 453.766 230.513C463.051 231.729 471.588 236.269 482.041 239.112C496.433 243.027 513.836 244.91 534.401 244.026" stroke="url(#paint79_linear_233_19194)" stroke-width="0.863256" stroke-miterlimit="10"/>
<path id="Vector_82" d="M0.36474 230.048C29.1067 238.663 56.1357 232.055 77.4835 221.977C83.1795 219.288 87.9415 216.591 92.228 214.459C104.379 208.439 111.739 202.189 125.409 202.258C141.002 202.337 147.185 214.053 163.481 221.671C181.836 230.251 201.894 230.836 221.733 228.321C243.41 225.573 260.047 220.949 282.94 211.931C295.409 207.019 305.115 200.376 316.979 199.863C324.037 199.557 329.65 203.039 337.45 207.082C349.943 213.557 361.216 222.9 380.131 227.25C396.7 231.06 410.621 235.054 424.791 234.532C432.8 234.237 440.942 232.075 449.54 231.788C451.169 231.734 452.787 231.862 454.402 232.083C463.678 233.348 472.233 237.656 482.532 240.297C497.215 244.062 514.525 245.642 534.405 244.705" stroke="url(#paint80_linear_233_19194)" stroke-width="0.863256" stroke-miterlimit="10"/>
<path id="Vector_83" d="M0.338278 231.951C29.5922 240.292 56.3945 233.22 77.3502 223.159C83.0312 220.431 87.7836 217.713 92.0487 215.596C104.322 209.528 111.552 203.164 125.119 203.258C141.128 203.369 147.098 215.837 164.189 223.753C183.229 232.572 204.288 232.556 224.789 229.803C246.684 226.862 263.244 222.125 285.185 213.332C297.542 208.38 307.118 201.915 318.683 201.086C325.682 200.584 331.425 203.704 339.362 207.404C352.284 213.427 363.543 222.456 381.907 227.049C397.88 231.044 411.549 236.373 425.682 235.257C433.5 234.64 441.627 233.172 450.235 233.321C451.841 233.348 453.438 233.44 455.035 233.667C464.301 234.981 472.877 239.052 483.02 241.495C497.998 245.104 515.211 246.387 534.404 245.398" stroke="url(#paint81_linear_233_19194)" stroke-width="0.863256" stroke-miterlimit="10"/>
<path id="Vector_84" d="M0.312761 233.828C30.0785 241.895 56.6533 234.357 77.2188 224.314C82.885 221.548 87.6288 218.808 91.8704 216.707C104.268 210.59 111.367 204.116 124.828 204.232C141.252 204.375 147.012 217.596 164.895 225.809C184.621 234.868 206.683 234.252 227.844 231.259C249.957 228.13 266.438 223.271 287.429 214.708C299.672 209.713 309.034 202.799 320.385 202.283C327.381 201.964 333.205 204.337 341.272 207.699C354.629 213.263 365.871 221.983 383.682 226.822C399.058 230.999 412.318 236.598 426.571 235.956C434.283 235.609 442.318 234.526 450.926 234.828C452.507 234.883 454.086 234.992 455.664 235.224C464.921 236.589 473.521 240.416 483.505 242.668C498.781 246.113 515.894 247.107 534.402 246.065" stroke="url(#paint82_linear_233_19194)" stroke-width="0.863256" stroke-miterlimit="10"/>
<path id="Vector_85" d="M0.2863 235.729C30.564 243.522 56.9079 235.516 77.0866 225.495C82.7367 222.688 87.473 219.928 91.6922 217.842C104.213 211.676 111.183 205.094 124.539 205.231C141.378 205.403 146.927 219.379 165.603 227.889C186.012 237.189 209.08 235.976 230.9 232.738C253.232 229.424 269.629 224.435 289.673 216.106C301.801 211.067 311.001 204.321 322.087 203.503C329.044 202.989 334.986 204.99 343.182 208.018C356.98 213.114 368.199 221.531 385.456 226.618C400.238 230.975 413.142 235.765 427.459 236.678C435.038 237.161 443.009 235.899 451.617 236.357C453.175 236.44 454.734 236.565 456.295 236.804C465.542 238.22 474.167 241.799 483.991 243.864C499.567 247.137 516.578 247.849 534.399 246.755" stroke="url(#paint83_linear_233_19194)" stroke-width="0.863256" stroke-miterlimit="10"/>
<path id="Vector_86" d="M0.262673 237.645C31.0523 245.164 57.1642 236.689 76.9572 226.689C82.5912 223.843 87.3201 221.062 91.5168 218.992C104.161 212.776 111 206.089 124.252 206.243C141.506 206.444 146.843 221.176 166.313 229.984C187.407 239.525 211.481 237.717 233.959 234.233C256.513 230.736 272.82 225.611 291.921 217.521C303.932 212.434 312.973 205.855 323.794 204.74C330.712 204.026 336.775 205.654 345.097 208.352C359.341 212.972 370.534 221.091 387.235 226.429C401.423 230.963 413.991 236.003 428.353 237.416C435.791 238.148 443.707 237.286 452.315 237.903C453.848 238.013 455.388 238.156 456.932 238.401C466.168 239.868 474.82 243.193 484.483 245.076C500.364 248.169 517.268 248.608 534.403 247.463" stroke="url(#paint84_linear_233_19194)" stroke-width="0.863256" stroke-miterlimit="10"/>
<path id="Vector_87" d="M0.237157 239.572C31.5386 246.817 57.4176 237.87 76.8258 227.895C82.4439 225.008 87.1642 222.208 91.3384 220.153C104.106 213.889 110.813 207.198 123.963 207.268C141.635 207.361 146.757 222.987 167.022 232.089C188.799 241.871 213.881 239.474 237.017 235.738C259.792 232.06 276.004 226.793 294.167 218.946C306.059 213.808 314.94 207.393 325.499 205.986C332.376 205.069 338.563 206.322 347.01 208.697C361.702 212.83 372.869 220.659 389.012 226.251C402.608 230.961 414.844 236.241 429.245 238.165C436.545 239.14 444.402 238.681 453.009 239.46C454.517 239.596 456.037 239.758 457.563 240.009C466.79 241.528 475.47 244.594 484.971 246.298C501.157 249.202 517.953 249.378 534.402 248.18" stroke="url(#paint85_linear_233_19194)" stroke-width="0.863256" stroke-miterlimit="10"/>
<path id="Vector_88" d="M0.210695 241.519C32.0251 248.49 57.6669 239.07 76.6936 229.12C82.2945 226.191 87.0084 223.373 91.1602 221.333C104.052 215.019 110.627 208.217 123.673 208.311C141.76 208.441 146.644 224.846 167.729 234.214C190.161 244.27 216.281 241.252 240.071 237.263C263.07 233.407 279.182 227.99 296.411 220.39C308.179 215.198 316.901 208.945 327.201 207.251C334.035 206.128 340.348 207.003 348.919 209.061C364.059 212.696 375.202 220.243 390.784 226.092C403.79 230.975 415.7 236.487 430.132 238.932C437.299 240.145 445.095 240.092 453.699 241.035C455.183 241.198 456.684 241.377 458.193 241.635C467.41 243.206 476.118 246.008 485.455 247.539C501.949 250.243 518.635 250.165 534.398 248.915" stroke="url(#paint86_linear_233_19194)" stroke-width="0.863256" stroke-miterlimit="10"/>
<path id="Vector_89" d="M0.188959 243.49C32.5153 250.187 57.9188 240.292 76.5661 230.37C82.1488 227.4 86.8574 224.563 90.9857 222.539C104 216.177 110.445 209.262 123.387 209.38C141.89 209.549 146.564 226.698 168.44 236.365C191.561 246.658 218.687 243.058 243.132 238.813C266.355 234.779 282.362 229.208 298.659 221.86C310.3 216.611 318.861 210.519 328.907 208.543C335.695 207.209 342.136 207.706 350.834 209.452C366.422 212.58 377.545 219.85 392.564 225.96C404.983 231.012 416.572 236.751 431.025 239.726C438.062 241.175 445.794 241.527 454.396 242.637C455.856 242.825 457.337 243.024 458.829 243.287C468.034 244.911 476.772 247.445 485.946 248.807C502.748 251.301 519.324 250.981 534.401 249.677" stroke="url(#paint87_linear_233_19194)" stroke-width="0.863256" stroke-miterlimit="10"/>
<path id="Vector_90" d="M0.162497 245.496C33.0007 251.92 58.1648 241.549 76.4338 231.656C81.9984 228.642 86.7016 225.788 90.8075 223.78C103.946 217.368 110.259 210.342 123.097 210.483C142.016 210.692 146.481 228.584 169.149 238.551C192.957 249.08 221.092 244.902 246.188 240.398C269.637 236.19 285.533 230.457 300.905 223.365C312.415 218.054 320.814 212.123 330.612 209.87C337.35 208.32 343.921 208.439 352.746 209.877C368.777 212.488 379.889 219.489 394.34 225.863C406.175 231.082 417.453 237.039 431.917 240.555C438.831 242.236 446.494 242.995 455.091 244.274C456.527 244.488 457.988 244.706 459.463 244.976C468.658 246.653 477.423 248.913 486.435 250.11C503.547 252.383 520.011 251.831 534.401 250.475" stroke="url(#paint88_linear_233_19194)" stroke-width="0.863256" stroke-miterlimit="10"/>
<path id="Vector_91" d="M0.13698 247.541C33.4871 253.69 58.4097 242.841 76.3025 232.979C81.8468 229.923 86.5457 227.051 90.6302 225.058C103.891 218.597 110.075 211.461 122.809 211.625C142.142 211.875 146.399 230.508 169.857 240.774C194.353 251.541 223.498 246.787 249.246 242.021C272.923 237.639 288.699 231.738 303.151 224.907C314.526 219.529 322.761 213.76 332.316 211.233C339.001 209.466 345.7 209.204 354.658 210.338C371.128 212.424 382.237 219.161 396.116 225.801C407.371 231.186 418.348 237.356 432.807 241.42C439.604 243.33 447.196 244.495 455.783 245.946C457.196 246.184 458.636 246.424 460.094 246.699C469.278 248.43 478.071 250.412 486.922 251.449C504.343 253.489 520.696 252.717 534.4 251.308" stroke="url(#paint89_linear_233_19194)" stroke-width="0.863256" stroke-miterlimit="10"/>
<path id="Vector_92" d="M0.113354 249.639C33.9754 255.515 58.6532 244.187 76.172 234.357C81.696 231.257 86.3917 228.369 90.4527 226.391C103.838 219.881 109.889 212.651 122.519 212.821C142.267 213.14 146.316 232.485 170.565 243.051C195.748 254.055 225.905 248.728 252.302 243.699C276.206 239.143 291.86 233.071 305.396 226.504C316.629 221.055 324.701 215.45 334.02 212.652C340.644 210.664 347.475 210.022 356.57 210.856C373.472 212.407 384.591 218.886 397.892 225.797C408.571 231.346 419.255 237.724 433.697 242.342C440.384 244.48 447.899 246.05 456.477 247.676C457.867 247.939 459.285 248.2 460.726 248.48C469.893 250.277 478.717 251.965 487.41 252.845C505.138 254.638 521.382 253.66 534.399 252.199" stroke="url(#paint90_linear_233_19194)" stroke-width="0.863256" stroke-miterlimit="10"/>
<path id="Vector_93" d="M0.0906723 251.765C34.4646 257.366 58.8753 245.539 76.0435 235.761C81.5397 232.61 86.2397 229.713 90.2783 227.75C103.786 221.19 109.707 213.842 122.234 214.043C142.398 214.393 146.236 234.49 171.277 245.355C197.148 256.597 228.332 250.732 255.363 245.402C279.508 240.706 295.019 234.425 307.645 228.127C318.728 222.598 326.636 217.162 335.727 214.097C342.288 211.885 349.249 210.861 358.485 211.399C375.812 212.408 386.955 218.634 399.671 225.817C409.78 231.527 420.18 238.112 434.591 243.287C441.174 245.652 448.608 247.627 457.175 249.429C458.542 249.717 459.939 249.999 461.363 250.284C470.52 252.131 479.366 253.538 487.901 254.264C505.935 255.798 522.071 254.626 534.403 253.113" stroke="url(#paint91_linear_233_19194)" stroke-width="0.863256" stroke-miterlimit="10"/>
<path id="Vector_94" d="M0.0651556 253.933C46.3484 261.001 73.7919 237.06 90.101 229.153C103.733 222.545 109.522 215.079 121.945 215.31C142.525 215.692 146.154 236.54 171.986 247.704C198.544 259.183 230.729 252.715 258.42 247.151C322.103 234.354 324.431 211.053 360.398 211.987C399.405 213 406.711 240.671 461.995 252.134C491.153 258.18 517.433 256.355 534.404 254.073" stroke="url(#paint92_linear_233_19194)" stroke-width="0.863256" stroke-miterlimit="10"/>
</g>
</g>
<defs>
<linearGradient id="paint0_linear_233_19194" x1="1.01022" y1="115.454" x2="533.831" y2="115.454" gradientUnits="userSpaceOnUse">
<stop stop-color="#2D67FF"/>
<stop offset="1" stop-color="#A238FF"/>
</linearGradient>
<linearGradient id="paint1_linear_233_19194" x1="0.996985" y1="116.688" x2="533.858" y2="116.688" gradientUnits="userSpaceOnUse">
<stop stop-color="#2D67FF"/>
<stop offset="1" stop-color="#A238FF"/>
</linearGradient>
<linearGradient id="paint2_linear_233_19194" x1="0.980919" y1="117.921" x2="533.884" y2="117.921" gradientUnits="userSpaceOnUse">
<stop stop-color="#2D67FF"/>
<stop offset="1" stop-color="#A238FF"/>
</linearGradient>
<linearGradient id="paint3_linear_233_19194" x1="0.962963" y1="119.157" x2="533.908" y2="119.157" gradientUnits="userSpaceOnUse">
<stop stop-color="#2D67FF"/>
<stop offset="1" stop-color="#A238FF"/>
</linearGradient>
<linearGradient id="paint4_linear_233_19194" x1="0.945007" y1="120.389" x2="533.929" y2="120.389" gradientUnits="userSpaceOnUse">
<stop stop-color="#2D67FF"/>
<stop offset="1" stop-color="#A238FF"/>
</linearGradient>
<linearGradient id="paint5_linear_233_19194" x1="0.928941" y1="121.625" x2="533.957" y2="121.625" gradientUnits="userSpaceOnUse">
<stop stop-color="#2D67FF"/>
<stop offset="1" stop-color="#A238FF"/>
</linearGradient>
<linearGradient id="paint6_linear_233_19194" x1="0.912875" y1="122.858" x2="533.981" y2="122.858" gradientUnits="userSpaceOnUse">
<stop stop-color="#2D67FF"/>
<stop offset="1" stop-color="#A238FF"/>
</linearGradient>
<linearGradient id="paint7_linear_233_19194" x1="0.896809" y1="124.091" x2="534.004" y2="124.091" gradientUnits="userSpaceOnUse">
<stop stop-color="#2D67FF"/>
<stop offset="1" stop-color="#A238FF"/>
</linearGradient>
<linearGradient id="paint8_linear_233_19194" x1="0.880743" y1="125.323" x2="534.031" y2="125.323" gradientUnits="userSpaceOnUse">
<stop stop-color="#2D67FF"/>
<stop offset="1" stop-color="#A238FF"/>
</linearGradient>
<linearGradient id="paint9_linear_233_19194" x1="0.860897" y1="126.563" x2="534.054" y2="126.563" gradientUnits="userSpaceOnUse">
<stop stop-color="#2D67FF"/>
<stop offset="1" stop-color="#A238FF"/>
</linearGradient>
<linearGradient id="paint10_linear_233_19194" x1="0.844831" y1="127.79" x2="534.079" y2="127.79" gradientUnits="userSpaceOnUse">
<stop stop-color="#2D67FF"/>
<stop offset="1" stop-color="#A238FF"/>
</linearGradient>
<linearGradient id="paint11_linear_233_19194" x1="0.830655" y1="129.024" x2="534.102" y2="129.024" gradientUnits="userSpaceOnUse">
<stop stop-color="#2D67FF"/>
<stop offset="1" stop-color="#A238FF"/>
</linearGradient>
<linearGradient id="paint12_linear_233_19194" x1="0.812699" y1="130.26" x2="534.126" y2="130.26" gradientUnits="userSpaceOnUse">
<stop stop-color="#2D67FF"/>
<stop offset="1" stop-color="#A238FF"/>
</linearGradient>
<linearGradient id="paint13_linear_233_19194" x1="0.799468" y1="131.496" x2="534.156" y2="131.496" gradientUnits="userSpaceOnUse">
<stop stop-color="#2D67FF"/>
<stop offset="1" stop-color="#A238FF"/>
</linearGradient>
<linearGradient id="paint14_linear_233_19194" x1="0.779621" y1="132.726" x2="534.179" y2="132.726" gradientUnits="userSpaceOnUse">
<stop stop-color="#2D67FF"/>
<stop offset="1" stop-color="#A238FF"/>
</linearGradient>
<linearGradient id="paint15_linear_233_19194" x1="0.763555" y1="133.957" x2="534.203" y2="133.957" gradientUnits="userSpaceOnUse">
<stop stop-color="#2D67FF"/>
<stop offset="1" stop-color="#A238FF"/>
</linearGradient>
<linearGradient id="paint16_linear_233_19194" x1="0.75127" y1="135.194" x2="534.231" y2="135.194" gradientUnits="userSpaceOnUse">
<stop stop-color="#2D67FF"/>
<stop offset="1" stop-color="#A238FF"/>
</linearGradient>
<linearGradient id="paint17_linear_233_19194" x1="0.731423" y1="136.429" x2="534.253" y2="136.429" gradientUnits="userSpaceOnUse">
<stop stop-color="#2D67FF"/>
<stop offset="1" stop-color="#A238FF"/>
</linearGradient>
<linearGradient id="paint18_linear_233_19194" x1="0.715357" y1="137.658" x2="534.278" y2="137.658" gradientUnits="userSpaceOnUse">
<stop stop-color="#2D67FF"/>
<stop offset="1" stop-color="#A238FF"/>
</linearGradient>
<linearGradient id="paint19_linear_233_19194" x1="0.701181" y1="138.891" x2="534.303" y2="138.891" gradientUnits="userSpaceOnUse">
<stop stop-color="#2D67FF"/>
<stop offset="1" stop-color="#A238FF"/>
</linearGradient>
<linearGradient id="paint20_linear_233_19194" x1="0.679445" y1="140.126" x2="534.325" y2="140.126" gradientUnits="userSpaceOnUse">
<stop stop-color="#2D67FF"/>
<stop offset="1" stop-color="#A238FF"/>
</linearGradient>
<linearGradient id="paint21_linear_233_19194" x1="0.665269" y1="141.361" x2="534.352" y2="141.361" gradientUnits="userSpaceOnUse">
<stop stop-color="#2D67FF"/>
<stop offset="1" stop-color="#A238FF"/>
</linearGradient>
<linearGradient id="paint22_linear_233_19194" x1="0.649203" y1="142.596" x2="534.376" y2="142.596" gradientUnits="userSpaceOnUse">
<stop stop-color="#2D67FF"/>
<stop offset="1" stop-color="#A238FF"/>
</linearGradient>
<linearGradient id="paint23_linear_233_19194" x1="0.634082" y1="143.831" x2="534.403" y2="143.831" gradientUnits="userSpaceOnUse">
<stop stop-color="#2D67FF"/>
<stop offset="1" stop-color="#A238FF"/>
</linearGradient>
<linearGradient id="paint24_linear_233_19194" x1="0.643533" y1="145.652" x2="534.395" y2="145.652" gradientUnits="userSpaceOnUse">
<stop stop-color="#2D67FF"/>
<stop offset="1" stop-color="#A238FF"/>
</linearGradient>
<linearGradient id="paint25_linear_233_19194" x1="0.649203" y1="147.48" x2="534.384" y2="147.48" gradientUnits="userSpaceOnUse">
<stop stop-color="#2D67FF"/>
<stop offset="1" stop-color="#A238FF"/>
</linearGradient>
<linearGradient id="paint26_linear_233_19194" x1="0.659599" y1="149.309" x2="534.379" y2="149.309" gradientUnits="userSpaceOnUse">
<stop stop-color="#2D67FF"/>
<stop offset="1" stop-color="#A238FF"/>
</linearGradient>
<linearGradient id="paint27_linear_233_19194" x1="0.669994" y1="151.127" x2="534.371" y2="151.127" gradientUnits="userSpaceOnUse">
<stop stop-color="#2D67FF"/>
<stop offset="1" stop-color="#A238FF"/>
</linearGradient>
<linearGradient id="paint28_linear_233_19194" x1="0.673775" y1="152.961" x2="534.36" y2="152.961" gradientUnits="userSpaceOnUse">
<stop stop-color="#2D67FF"/>
<stop offset="1" stop-color="#A238FF"/>
</linearGradient>
<linearGradient id="paint29_linear_233_19194" x1="0.681335" y1="154.779" x2="534.352" y2="154.779" gradientUnits="userSpaceOnUse">
<stop stop-color="#2D67FF"/>
<stop offset="1" stop-color="#A238FF"/>
</linearGradient>
<linearGradient id="paint30_linear_233_19194" x1="0.689841" y1="156.61" x2="534.344" y2="156.61" gradientUnits="userSpaceOnUse">
<stop stop-color="#2D67FF"/>
<stop offset="1" stop-color="#A238FF"/>
</linearGradient>
<linearGradient id="paint31_linear_233_19194" x1="0.699291" y1="158.439" x2="534.337" y2="158.439" gradientUnits="userSpaceOnUse">
<stop stop-color="#2D67FF"/>
<stop offset="1" stop-color="#A238FF"/>
</linearGradient>
<linearGradient id="paint32_linear_233_19194" x1="0.705907" y1="160.263" x2="534.324" y2="160.263" gradientUnits="userSpaceOnUse">
<stop stop-color="#2D67FF"/>
<stop offset="1" stop-color="#A238FF"/>
</linearGradient>
<linearGradient id="paint33_linear_233_19194" x1="0.715357" y1="162.091" x2="534.317" y2="162.091" gradientUnits="userSpaceOnUse">
<stop stop-color="#2D67FF"/>
<stop offset="1" stop-color="#A238FF"/>
</linearGradient>
<linearGradient id="paint34_linear_233_19194" x1="0.725753" y1="163.909" x2="534.315" y2="163.909" gradientUnits="userSpaceOnUse">
<stop stop-color="#2D67FF"/>
<stop offset="1" stop-color="#A238FF"/>
</linearGradient>
<linearGradient id="paint35_linear_233_19194" x1="0.735204" y1="165.73" x2="534.307" y2="165.73" gradientUnits="userSpaceOnUse">
<stop stop-color="#2D67FF"/>
<stop offset="1" stop-color="#A238FF"/>
</linearGradient>
<linearGradient id="paint36_linear_233_19194" x1="0.741819" y1="167.562" x2="534.296" y2="167.562" gradientUnits="userSpaceOnUse">
<stop stop-color="#2D67FF"/>
<stop offset="1" stop-color="#A238FF"/>
</linearGradient>
<linearGradient id="paint37_linear_233_19194" x1="0.747489" y1="169.387" x2="534.285" y2="169.387" gradientUnits="userSpaceOnUse">
<stop stop-color="#2D67FF"/>
<stop offset="1" stop-color="#A238FF"/>
</linearGradient>
<linearGradient id="paint38_linear_233_19194" x1="0.75694" y1="171.211" x2="534.278" y2="171.211" gradientUnits="userSpaceOnUse">
<stop stop-color="#2D67FF"/>
<stop offset="1" stop-color="#A238FF"/>
</linearGradient>
<linearGradient id="paint39_linear_233_19194" x1="0.761665" y1="173.04" x2="534.265" y2="173.04" gradientUnits="userSpaceOnUse">
<stop stop-color="#2D67FF"/>
<stop offset="1" stop-color="#A238FF"/>
</linearGradient>
<linearGradient id="paint40_linear_233_19194" x1="0.769226" y1="174.866" x2="534.258" y2="174.866" gradientUnits="userSpaceOnUse">
<stop stop-color="#2D67FF"/>
<stop offset="1" stop-color="#A238FF"/>
</linearGradient>
<linearGradient id="paint41_linear_233_19194" x1="0.783402" y1="176.684" x2="534.256" y2="176.684" gradientUnits="userSpaceOnUse">
<stop stop-color="#2D67FF"/>
<stop offset="1" stop-color="#A238FF"/>
</linearGradient>
<linearGradient id="paint42_linear_233_19194" x1="0.792852" y1="178.513" x2="534.25" y2="178.513" gradientUnits="userSpaceOnUse">
<stop stop-color="#2D67FF"/>
<stop offset="1" stop-color="#A238FF"/>
</linearGradient>
<linearGradient id="paint43_linear_233_19194" x1="0.794742" y1="180.337" x2="534.234" y2="180.337" gradientUnits="userSpaceOnUse">
<stop stop-color="#2D67FF"/>
<stop offset="1" stop-color="#A238FF"/>
</linearGradient>
<linearGradient id="paint44_linear_233_19194" x1="0.808918" y1="182.166" x2="534.231" y2="182.166" gradientUnits="userSpaceOnUse">
<stop stop-color="#2D67FF"/>
<stop offset="1" stop-color="#A238FF"/>
</linearGradient>
<linearGradient id="paint45_linear_233_19194" x1="0.815534" y1="183.992" x2="534.221" y2="183.992" gradientUnits="userSpaceOnUse">
<stop stop-color="#2D67FF"/>
<stop offset="1" stop-color="#A238FF"/>
</linearGradient>
<linearGradient id="paint46_linear_233_19194" x1="0.819314" y1="185.825" x2="534.209" y2="185.825" gradientUnits="userSpaceOnUse">
<stop stop-color="#2D67FF"/>
<stop offset="1" stop-color="#A238FF"/>
</linearGradient>
<linearGradient id="paint47_linear_233_19194" x1="0.815534" y1="186.944" x2="534.222" y2="186.944" gradientUnits="userSpaceOnUse">
<stop stop-color="#2D67FF"/>
<stop offset="1" stop-color="#A238FF"/>
</linearGradient>
<linearGradient id="paint48_linear_233_19194" x1="0.805138" y1="188.069" x2="534.228" y2="188.069" gradientUnits="userSpaceOnUse">
<stop stop-color="#2D67FF"/>
<stop offset="1" stop-color="#A238FF"/>
</linearGradient>
<linearGradient id="paint49_linear_233_19194" x1="0.792852" y1="189.189" x2="534.232" y2="189.189" gradientUnits="userSpaceOnUse">
<stop stop-color="#2D67FF"/>
<stop offset="1" stop-color="#A238FF"/>
</linearGradient>
<linearGradient id="paint50_linear_233_19194" x1="0.787182" y1="190.32" x2="534.244" y2="190.32" gradientUnits="userSpaceOnUse">
<stop stop-color="#2D67FF"/>
<stop offset="1" stop-color="#A238FF"/>
</linearGradient>
<linearGradient id="paint51_linear_233_19194" x1="0.783402" y1="191.44" x2="534.256" y2="191.44" gradientUnits="userSpaceOnUse">
<stop stop-color="#2D67FF"/>
<stop offset="1" stop-color="#A238FF"/>
</linearGradient>
<linearGradient id="paint52_linear_233_19194" x1="0.769226" y1="192.57" x2="534.259" y2="192.57" gradientUnits="userSpaceOnUse">
<stop stop-color="#2D67FF"/>
<stop offset="1" stop-color="#A238FF"/>
</linearGradient>
<linearGradient id="paint53_linear_233_19194" x1="0.763555" y1="193.691" x2="534.267" y2="193.691" gradientUnits="userSpaceOnUse">
<stop stop-color="#2D67FF"/>
<stop offset="1" stop-color="#A238FF"/>
</linearGradient>
<linearGradient id="paint54_linear_233_19194" x1="0.75316" y1="194.818" x2="534.275" y2="194.818" gradientUnits="userSpaceOnUse">
<stop stop-color="#2D67FF"/>
<stop offset="1" stop-color="#A238FF"/>
</linearGradient>
<linearGradient id="paint55_linear_233_19194" x1="0.747489" y1="195.937" x2="534.284" y2="195.937" gradientUnits="userSpaceOnUse">
<stop stop-color="#2D67FF"/>
<stop offset="1" stop-color="#A238FF"/>
</linearGradient>
<linearGradient id="paint56_linear_233_19194" x1="0.741819" y1="197.066" x2="534.295" y2="197.066" gradientUnits="userSpaceOnUse">
<stop stop-color="#2D67FF"/>
<stop offset="1" stop-color="#A238FF"/>
</linearGradient>
<linearGradient id="paint57_linear_233_19194" x1="0.735204" y1="198.188" x2="534.305" y2="198.188" gradientUnits="userSpaceOnUse">
<stop stop-color="#2D67FF"/>
<stop offset="1" stop-color="#A238FF"/>
</linearGradient>
<linearGradient id="paint58_linear_233_19194" x1="0.725753" y1="199.314" x2="534.313" y2="199.314" gradientUnits="userSpaceOnUse">
<stop stop-color="#2D67FF"/>
<stop offset="1" stop-color="#A238FF"/>
</linearGradient>
<linearGradient id="paint59_linear_233_19194" x1="0.715357" y1="200.436" x2="534.319" y2="200.436" gradientUnits="userSpaceOnUse">
<stop stop-color="#2D67FF"/>
<stop offset="1" stop-color="#A238FF"/>
</linearGradient>
<linearGradient id="paint60_linear_233_19194" x1="0.709687" y1="201.561" x2="534.33" y2="201.561" gradientUnits="userSpaceOnUse">
<stop stop-color="#2D67FF"/>
<stop offset="1" stop-color="#A238FF"/>
</linearGradient>
<linearGradient id="paint61_linear_233_19194" x1="0.699291" y1="202.685" x2="534.335" y2="202.685" gradientUnits="userSpaceOnUse">
<stop stop-color="#2D67FF"/>
<stop offset="1" stop-color="#A238FF"/>
</linearGradient>
<linearGradient id="paint62_linear_233_19194" x1="0.689841" y1="203.817" x2="534.342" y2="203.817" gradientUnits="userSpaceOnUse">
<stop stop-color="#2D67FF"/>
<stop offset="1" stop-color="#A238FF"/>
</linearGradient>
<linearGradient id="paint63_linear_233_19194" x1="0.685115" y1="204.933" x2="534.356" y2="204.933" gradientUnits="userSpaceOnUse">
<stop stop-color="#2D67FF"/>
<stop offset="1" stop-color="#A238FF"/>
</linearGradient>
<linearGradient id="paint64_linear_233_19194" x1="0.675665" y1="206.068" x2="534.362" y2="206.068" gradientUnits="userSpaceOnUse">
<stop stop-color="#2D67FF"/>
<stop offset="1" stop-color="#A238FF"/>
</linearGradient>
<linearGradient id="paint65_linear_233_19194" x1="0.665269" y1="207.189" x2="534.368" y2="207.189" gradientUnits="userSpaceOnUse">
<stop stop-color="#2D67FF"/>
<stop offset="1" stop-color="#A238FF"/>
</linearGradient>
<linearGradient id="paint66_linear_233_19194" x1="0.659599" y1="208.316" x2="534.377" y2="208.316" gradientUnits="userSpaceOnUse">
<stop stop-color="#2D67FF"/>
<stop offset="1" stop-color="#A238FF"/>
</linearGradient>
<linearGradient id="paint67_linear_233_19194" x1="0.649203" y1="209.438" x2="534.384" y2="209.438" gradientUnits="userSpaceOnUse">
<stop stop-color="#2D67FF"/>
<stop offset="1" stop-color="#A238FF"/>
</linearGradient>
<linearGradient id="paint68_linear_233_19194" x1="0.639752" y1="210.563" x2="534.392" y2="210.563" gradientUnits="userSpaceOnUse">
<stop stop-color="#2D67FF"/>
<stop offset="1" stop-color="#A238FF"/>
</linearGradient>
<linearGradient id="paint69_linear_233_19194" x1="0.634082" y1="211.685" x2="534.403" y2="211.685" gradientUnits="userSpaceOnUse">
<stop stop-color="#2D67FF"/>
<stop offset="1" stop-color="#A238FF"/>
</linearGradient>
<linearGradient id="paint70_linear_233_19194" x1="0.60762" y1="212.659" x2="534.402" y2="212.659" gradientUnits="userSpaceOnUse">
<stop stop-color="#2D67FF"/>
<stop offset="1" stop-color="#A238FF"/>
</linearGradient>
<linearGradient id="paint71_linear_233_19194" x1="0.585884" y1="213.638" x2="534.404" y2="213.638" gradientUnits="userSpaceOnUse">
<stop stop-color="#2D67FF"/>
<stop offset="1" stop-color="#A238FF"/>
</linearGradient>
<linearGradient id="paint72_linear_233_19194" x1="0.559422" y1="214.613" x2="534.403" y2="214.613" gradientUnits="userSpaceOnUse">
<stop stop-color="#2D67FF"/>
<stop offset="1" stop-color="#A238FF"/>
</linearGradient>
<linearGradient id="paint73_linear_233_19194" x1="0.533906" y1="215.589" x2="534.401" y2="215.589" gradientUnits="userSpaceOnUse">
<stop stop-color="#2D67FF"/>
<stop offset="1" stop-color="#A238FF"/>
</linearGradient>
<linearGradient id="paint74_linear_233_19194" x1="0.510279" y1="216.56" x2="534.403" y2="216.56" gradientUnits="userSpaceOnUse">
<stop stop-color="#2D67FF"/>
<stop offset="1" stop-color="#A238FF"/>
</linearGradient>
<linearGradient id="paint75_linear_233_19194" x1="0.487598" y1="217.536" x2="534.406" y2="217.536" gradientUnits="userSpaceOnUse">
<stop stop-color="#2D67FF"/>
<stop offset="1" stop-color="#A238FF"/>
</linearGradient>
<linearGradient id="paint76_linear_233_19194" x1="0.462081" y1="218.505" x2="534.405" y2="218.505" gradientUnits="userSpaceOnUse">
<stop stop-color="#2D67FF"/>
<stop offset="1" stop-color="#A238FF"/>
</linearGradient>
<linearGradient id="paint77_linear_233_19194" x1="0.436564" y1="219.483" x2="534.402" y2="219.483" gradientUnits="userSpaceOnUse">
<stop stop-color="#2D67FF"/>
<stop offset="1" stop-color="#A238FF"/>
</linearGradient>
<linearGradient id="paint78_linear_233_19194" x1="0.410103" y1="220.455" x2="534.402" y2="220.455" gradientUnits="userSpaceOnUse">
<stop stop-color="#2D67FF"/>
<stop offset="1" stop-color="#A238FF"/>
</linearGradient>
<linearGradient id="paint79_linear_233_19194" x1="0.384586" y1="221.438" x2="534.401" y2="221.438" gradientUnits="userSpaceOnUse">
<stop stop-color="#2D67FF"/>
<stop offset="1" stop-color="#A238FF"/>
</linearGradient>
<linearGradient id="paint80_linear_233_19194" x1="0.36474" y1="222.407" x2="534.405" y2="222.407" gradientUnits="userSpaceOnUse">
<stop stop-color="#2D67FF"/>
<stop offset="1" stop-color="#A238FF"/>
</linearGradient>
<linearGradient id="paint81_linear_233_19194" x1="0.338278" y1="223.377" x2="534.404" y2="223.377" gradientUnits="userSpaceOnUse">
<stop stop-color="#2D67FF"/>
<stop offset="1" stop-color="#A238FF"/>
</linearGradient>
<linearGradient id="paint82_linear_233_19194" x1="0.312761" y1="224.356" x2="534.402" y2="224.356" gradientUnits="userSpaceOnUse">
<stop stop-color="#2D67FF"/>
<stop offset="1" stop-color="#A238FF"/>
</linearGradient>
<linearGradient id="paint83_linear_233_19194" x1="0.2863" y1="225.328" x2="534.399" y2="225.328" gradientUnits="userSpaceOnUse">
<stop stop-color="#2D67FF"/>
<stop offset="1" stop-color="#A238FF"/>
</linearGradient>
<linearGradient id="paint84_linear_233_19194" x1="0.262673" y1="226.306" x2="534.403" y2="226.306" gradientUnits="userSpaceOnUse">
<stop stop-color="#2D67FF"/>
<stop offset="1" stop-color="#A238FF"/>
</linearGradient>
<linearGradient id="paint85_linear_233_19194" x1="0.237157" y1="227.281" x2="534.402" y2="227.281" gradientUnits="userSpaceOnUse">
<stop stop-color="#2D67FF"/>
<stop offset="1" stop-color="#A238FF"/>
</linearGradient>
<linearGradient id="paint86_linear_233_19194" x1="0.210695" y1="228.254" x2="534.398" y2="228.254" gradientUnits="userSpaceOnUse">
<stop stop-color="#2D67FF"/>
<stop offset="1" stop-color="#A238FF"/>
</linearGradient>
<linearGradient id="paint87_linear_233_19194" x1="0.188959" y1="229.229" x2="534.401" y2="229.229" gradientUnits="userSpaceOnUse">
<stop stop-color="#2D67FF"/>
<stop offset="1" stop-color="#A238FF"/>
</linearGradient>
<linearGradient id="paint88_linear_233_19194" x1="0.162497" y1="230.204" x2="534.402" y2="230.204" gradientUnits="userSpaceOnUse">
<stop stop-color="#2D67FF"/>
<stop offset="1" stop-color="#A238FF"/>
</linearGradient>
<linearGradient id="paint89_linear_233_19194" x1="0.13698" y1="231.174" x2="534.4" y2="231.174" gradientUnits="userSpaceOnUse">
<stop stop-color="#2D67FF"/>
<stop offset="1" stop-color="#A238FF"/>
</linearGradient>
<linearGradient id="paint90_linear_233_19194" x1="0.113354" y1="232.157" x2="534.399" y2="232.157" gradientUnits="userSpaceOnUse">
<stop stop-color="#2D67FF"/>
<stop offset="1" stop-color="#A238FF"/>
</linearGradient>
<linearGradient id="paint91_linear_233_19194" x1="0.0906723" y1="233.121" x2="534.403" y2="233.121" gradientUnits="userSpaceOnUse">
<stop stop-color="#2D67FF"/>
<stop offset="1" stop-color="#A238FF"/>
</linearGradient>
<linearGradient id="paint92_linear_233_19194" x1="0.0651556" y1="234.093" x2="534.404" y2="234.093" gradientUnits="userSpaceOnUse">
<stop stop-color="#2D67FF"/>
<stop offset="1" stop-color="#A238FF"/>
</linearGradient>
</defs>
</svg>
