<svg preserveAspectRatio="none" width="100%" height="100%" overflow="visible" style="display: block;" viewBox="0 0 458 29" fill="none" xmlns="http://www.w3.org/2000/svg">
<path id="Vector" d="M457.594 22.6904C438.434 6.22647 418.99 1.26752 404.476 0.540573C401.49 0.390744 398.597 0.34496 395.774 0.451089C369.895 1.40903 351.664 13.8268 325.723 20.1273C316.165 22.449 304.692 23.7933 290.933 23.273C267.39 22.3824 257.343 1.30359 233.088 3.53786C227.342 4.06711 221.941 5.20194 216.85 6.78347C195.896 13.2941 178.745 24.2469 160.459 24.5924C145.785 24.8698 136.433 22.7792 123.453 18.7587C115.396 16.2637 107.255 13.591 95.9414 10.7255C92.1059 9.7544 87.6659 8.79923 82.4197 8.30812C71.2595 7.26279 55.7893 7.61724 37.3906 12.3466C24.3562 15.6969 11.7349 21.5243 0.20191 28.4248" stroke="url(#paint0_linear_190_19757)" stroke-width="0.786503" stroke-miterlimit="10"/>
<defs>
<linearGradient id="paint0_linear_190_19757" x1="0.20191" y1="14.409" x2="457.594" y2="14.409" gradientUnits="userSpaceOnUse">
<stop stop-color="#2D67FF"/>
<stop offset="1" stop-color="#A238FF"/>
</linearGradient>
</defs>
</svg>
