<svg preserveAspectRatio="none" width="100%" height="100%" overflow="visible" style="display: block;" viewBox="0 0 481 39" fill="none" xmlns="http://www.w3.org/2000/svg">
<path id="Vector" d="M0.25372 29.3551C23.7423 9.52 42.401 5.50442 55.59 5.81865C78.8919 6.43739 86.793 20.5165 109.286 19.9283C121.253 19.6154 128.83 17.3486 136.496 14.2257C146.014 10.3309 154.392 4.79413 166.966 2.02852C180.186 -0.879281 210.493 -1.21364 235.834 12.2287C253.605 21.6548 263.772 36.1203 286.314 35.2338C307.972 34.382 319.274 22.6335 346.847 8.76252C361.558 1.3633 379.266 1.55891 399.821 13.2227C409.805 18.8885 419.903 29.6152 429.842 34.3924C444.521 41.4177 465.03 37.4049 480.482 32.831" stroke="url(#paint0_linear_233_19397)" stroke-width="0.786503" stroke-miterlimit="10"/>
<defs>
<linearGradient id="paint0_linear_233_19397" x1="0.25372" y1="19.295" x2="480.482" y2="19.295" gradientUnits="userSpaceOnUse">
<stop stop-color="#2D67FF"/>
<stop offset="1" stop-color="#A238FF"/>
</linearGradient>
</defs>
</svg>
