<svg preserveAspectRatio="none" width="100%" height="100%" overflow="visible" style="display: block;" viewBox="0 0 481 34" fill="none" xmlns="http://www.w3.org/2000/svg">
<path id="Vector" d="M0.228171 33.2542C20.5648 18.7666 38.0141 13.492 52.0035 11.83C73.7718 9.24406 86.6664 15.3579 102.938 16.6544C129.646 18.7818 136.581 20.9856 152.353 19.9791C171.483 18.7062 187.121 7.10066 209.766 4.94062C230.321 2.97966 247.979 16.8708 273.649 22.5109C294.778 27.1535 309.292 29.8748 327.822 24.9207C349.383 19.1564 364.185 8.03711 389.825 1.67143C400.37 -0.946425 412.784 0.096127 427.265 8.19733C434.362 12.1664 441.584 18.8366 448.942 23.0686C458.357 28.4847 470.668 29.1298 480.634 30.0176" stroke="url(#paint0_linear_233_19495)" stroke-width="0.786503" stroke-miterlimit="10"/>
<defs>
<linearGradient id="paint0_linear_233_19495" x1="0.228171" y1="16.8238" x2="480.634" y2="16.8238" gradientUnits="userSpaceOnUse">
<stop stop-color="#2D67FF"/>
<stop offset="1" stop-color="#A238FF"/>
</linearGradient>
</defs>
</svg>
