<svg preserveAspectRatio="none" width="100%" height="100%" overflow="visible" style="display: block;" viewBox="0 0 458 37" fill="none" xmlns="http://www.w3.org/2000/svg">
<path id="Vector" d="M0.14726 23.4512C12.6531 18.4007 25.5354 13.4709 36.8898 8.67771C48.1553 3.91369 56.2761 1.17929 65.442 1.35617C85.2341 1.73907 92.5322 14.5773 111.233 14.8353C131.025 15.1086 138.635 6.34494 156.642 2.70533C168.931 0.22135 193.332 -1.76804 217.533 5.0936C219.211 5.56945 220.848 6.1098 222.471 6.67166C231.33 9.73623 238.564 13.5791 246.651 18.2932C253.591 22.3386 260.32 26.7218 269.698 28.0702C284.028 30.1311 293.729 26.2966 311.435 18.751C316.215 16.7144 321.256 14.5502 326.779 12.3118C335.56 8.75262 344.841 7.35422 354.543 7.70659C362.159 7.98336 370.023 9.00303 378.394 12.5601C387.35 16.3655 396.185 25.2616 405.603 30.6985C406.553 31.2472 407.507 31.7605 408.47 32.2259C421.937 38.7345 440.921 36.1499 457.429 32.1489" stroke="url(#paint0_linear_190_19714)" stroke-width="0.786503" stroke-miterlimit="10"/>
<defs>
<linearGradient id="paint0_linear_190_19714" x1="0.14726" y1="18.2916" x2="457.429" y2="18.2916" gradientUnits="userSpaceOnUse">
<stop stop-color="#2D67FF"/>
<stop offset="1" stop-color="#A238FF"/>
</linearGradient>
</defs>
</svg>
