<svg preserveAspectRatio="none" width="100%" height="100%" overflow="visible" style="display: block;" viewBox="0 0 41 41" fill="none" xmlns="http://www.w3.org/2000/svg">
<g id="AI symbol">
<path id="Vector 1" d="M33.426 29.4717C24.9407 29.4717 17.011 32.8484 14.1068 34.5367C11.7706 35.6944 10.8606 34.0543 10.6976 33.0895C10.6976 24.9855 7.16202 17.4121 5.39422 14.6384C4.48508 12.9018 5.77303 11.7441 6.53064 11.3823C16.8342 10.8035 23.7032 7.52327 25.8498 5.95554C28.5772 5.08725 29.5116 6.79971 29.6379 7.76447C29.9409 15.5791 33.5522 23.5625 35.32 26.5774C36.2291 28.6034 34.4361 29.3511 33.426 29.4717Z" stroke="var(--stroke-0, white)" stroke-width="2.03253"/>
<path id="Vector 2" d="M22.0765 35.5058C16.6521 29.6365 9.13736 26.4117 6.05804 25.5329C3.72613 24.6919 4.33223 22.9647 4.92677 22.2062C10.7961 16.7818 14.0209 9.26703 14.8996 6.18769C15.5761 4.39648 17.2379 4.51244 17.9843 4.79433C24.9902 11.5339 31.757 14.0896 34.2647 14.5251C36.6371 15.8304 35.9942 17.623 35.3762 18.3561C29.9102 23.7963 26.4369 31.6379 25.3834 34.8787C24.4973 36.8636 22.8095 36.1238 22.0765 35.5058Z" stroke="var(--stroke-0, white)" stroke-width="2.03253"/>
</g>
</svg>
