<svg preserveAspectRatio="none" width="100%" height="100%" overflow="visible" style="display: block;" viewBox="0 0 458 42" fill="none" xmlns="http://www.w3.org/2000/svg">
<path id="Vector" d="M0.108848 29.1602C25.6234 36.5095 48.4027 29.6423 66.0311 20.4922C70.888 17.9715 74.9543 15.4757 78.5901 13.5612C89.2171 7.98773 95.3024 2.08957 106.841 2.1957C120.919 2.32541 125.856 14.3707 141.185 21.8539C158.094 30.1077 177.005 29.5465 195.144 26.8191C214.099 23.9689 228.226 19.5419 246.219 11.7397C256.713 7.18933 264.738 0.889555 274.468 0.419256C280.464 0.129308 285.457 2.29142 292.372 5.35391C303.821 10.4231 313.457 18.3683 328.724 22.7765C341.904 26.5826 353.271 31.6837 365.488 31.0989C372.099 30.7826 378.986 29.7956 386.365 30.0709C387.72 30.1216 389.073 30.2201 390.426 30.4316C398.361 31.6754 405.732 35.1624 414.291 37.2142C427.385 40.353 442.054 41.2582 457.919 40.3093" stroke="url(#paint0_linear_190_19637)" stroke-width="0.786503" stroke-miterlimit="10"/>
<defs>
<linearGradient id="paint0_linear_190_19637" x1="0.108848" y1="20.5303" x2="457.919" y2="20.5303" gradientUnits="userSpaceOnUse">
<stop stop-color="#2D67FF"/>
<stop offset="1" stop-color="#A238FF"/>
</linearGradient>
</defs>
</svg>
