<svg preserveAspectRatio="none" width="100%" height="100%" overflow="visible" style="display: block;" viewBox="0 0 481 33" fill="none" xmlns="http://www.w3.org/2000/svg">
<path id="Vector" d="M0.244533 28.9272C22.4198 11.3202 40.5792 6.74067 54.0972 6.27107C76.767 5.48307 86.9531 14.298 106.642 16.5115C124.53 18.5231 132.07 16.8333 143.104 14.5706C156.639 11.7953 168.043 3.73853 184.8 1.18935C201.089 -1.2877 225.971 4.38017 251.592 14.4604C270.662 21.9629 282.735 31.5825 303.611 28.8842C325.217 26.0916 338.196 14.5769 364.756 3.75587C377.844 -1.57626 393.233 -1.10249 411.257 9.0769C420.038 14.0358 428.929 23.0853 437.802 27.6225C450.271 33.9979 467.381 31.9051 480.548 29.607" stroke="url(#paint0_linear_233_19507)" stroke-width="0.786503" stroke-miterlimit="10"/>
<defs>
<linearGradient id="paint0_linear_233_19507" x1="0.244533" y1="16.1304" x2="480.548" y2="16.1304" gradientUnits="userSpaceOnUse">
<stop stop-color="#2D67FF"/>
<stop offset="1" stop-color="#A238FF"/>
</linearGradient>
</defs>
</svg>
